G04 #@! TF.FileFunction,Copper,L1,Top,Signal*
%FSLAX46Y46*%
G04 Gerber Fmt 4.6, Leading zero omitted, Abs format (unit mm)*
G04 Created by KiCad (PCBNEW 4.0.2-stable) date 11/23/2016 1:41:36 PM*
%MOMM*%
G01*
G04 APERTURE LIST*
%ADD10C,0.100000*%
%ADD11R,1.752600X1.752600*%
%ADD12C,1.752600*%
%ADD13C,2.286000*%
%ADD14C,1.651000*%
%ADD15R,1.651000X1.651000*%
%ADD16O,2.057400X1.752600*%
%ADD17C,1.998980*%
%ADD18C,0.600000*%
%ADD19C,0.250000*%
%ADD20C,0.254000*%
G04 APERTURE END LIST*
D10*
D11*
X52070000Y-34290000D03*
D12*
X52070000Y-36830000D03*
X52070000Y-39370000D03*
X52070000Y-41910000D03*
X52070000Y-44450000D03*
X52070000Y-46990000D03*
X52070000Y-49530000D03*
X52070000Y-52070000D03*
X52070000Y-54610000D03*
X52070000Y-57150000D03*
X52070000Y-59690000D03*
X52070000Y-62230000D03*
X67310000Y-62230000D03*
X67310000Y-59690000D03*
X67310000Y-57150000D03*
X67310000Y-54610000D03*
X67310000Y-52070000D03*
X67310000Y-49530000D03*
X67310000Y-46990000D03*
X67310000Y-39370000D03*
X67310000Y-36830000D03*
X67310000Y-34290000D03*
X67310000Y-44450000D03*
X67310000Y-41910000D03*
D13*
X62230000Y-35560000D03*
X55880000Y-38100000D03*
D14*
X37338000Y-49530000D03*
D15*
X44958000Y-49530000D03*
D14*
X49022000Y-57404000D03*
D15*
X49022000Y-65024000D03*
D14*
X48768000Y-76200000D03*
D15*
X48768000Y-83820000D03*
D14*
X48768000Y-94996000D03*
D15*
X48768000Y-102616000D03*
D14*
X48895000Y-38100000D03*
D15*
X48895000Y-45720000D03*
D14*
X56134000Y-70104000D03*
D15*
X63754000Y-70104000D03*
D14*
X51435000Y-76200000D03*
D15*
X51435000Y-83820000D03*
D14*
X51435000Y-95250000D03*
D15*
X51435000Y-102870000D03*
D14*
X70485000Y-38100000D03*
D15*
X70485000Y-45720000D03*
D14*
X70485000Y-57150000D03*
D15*
X70485000Y-64770000D03*
D14*
X70485000Y-76200000D03*
D15*
X70485000Y-83820000D03*
D14*
X70485000Y-95250000D03*
D15*
X70485000Y-102870000D03*
D14*
X89535000Y-38100000D03*
D15*
X89535000Y-45720000D03*
D14*
X89535000Y-57150000D03*
D15*
X89535000Y-64770000D03*
D14*
X89535000Y-76200000D03*
D15*
X89535000Y-83820000D03*
D14*
X89535000Y-95250000D03*
D15*
X89535000Y-102870000D03*
D14*
X108585000Y-38100000D03*
D15*
X108585000Y-45720000D03*
D14*
X108585000Y-57150000D03*
D15*
X108585000Y-64770000D03*
D14*
X108585000Y-76200000D03*
D15*
X108585000Y-83820000D03*
D14*
X108585000Y-95250000D03*
D15*
X108585000Y-102870000D03*
D14*
X131826000Y-49276000D03*
D15*
X124206000Y-49276000D03*
D14*
X127635000Y-57150000D03*
D15*
X127635000Y-64770000D03*
D14*
X127635000Y-76200000D03*
D15*
X127635000Y-83820000D03*
D14*
X127635000Y-95250000D03*
D15*
X127635000Y-102870000D03*
D13*
X43180000Y-35560000D03*
X36830000Y-38100000D03*
X43180000Y-54610000D03*
X36830000Y-57150000D03*
X43180000Y-73660000D03*
X36830000Y-76200000D03*
X43180000Y-92710000D03*
X36830000Y-95250000D03*
X62230000Y-54610000D03*
X55880000Y-57150000D03*
X62230000Y-73660000D03*
X55880000Y-76200000D03*
X62230000Y-92710000D03*
X55880000Y-95250000D03*
X81280000Y-35560000D03*
X74930000Y-38100000D03*
X81280000Y-54610000D03*
X74930000Y-57150000D03*
X81280000Y-73660000D03*
X74930000Y-76200000D03*
X81280000Y-92710000D03*
X74930000Y-95250000D03*
X100330000Y-35560000D03*
X93980000Y-38100000D03*
X100330000Y-54610000D03*
X93980000Y-57150000D03*
X100330000Y-73660000D03*
X93980000Y-76200000D03*
X100330000Y-92710000D03*
X93980000Y-95250000D03*
X119380000Y-35560000D03*
X113030000Y-38100000D03*
X119380000Y-54610000D03*
X113030000Y-57150000D03*
X119380000Y-73660000D03*
X113030000Y-76200000D03*
X119380000Y-92710000D03*
X113030000Y-95250000D03*
X138430000Y-35560000D03*
X132080000Y-38100000D03*
X138430000Y-54610000D03*
X132080000Y-57150000D03*
X138430000Y-73660000D03*
X132080000Y-76200000D03*
X138430000Y-92710000D03*
X132080000Y-95250000D03*
D16*
X121081800Y-33375600D03*
D12*
X129336800Y-38379400D03*
X124129800Y-41478200D03*
D16*
X130378200Y-33375600D03*
D17*
X135000000Y-50000000D03*
D18*
X55880000Y-66548000D03*
X53975000Y-63500000D03*
X58420000Y-44450000D03*
X58420000Y-66040000D03*
X70358000Y-68072000D03*
X120396000Y-47498000D03*
X40100000Y-49200000D03*
X45400000Y-65700000D03*
X39800000Y-64500000D03*
D19*
X67310000Y-62230000D02*
X70485000Y-62230000D01*
X72390000Y-47625000D02*
X70485000Y-45720000D01*
X72390000Y-60325000D02*
X72390000Y-47625000D01*
X70485000Y-62230000D02*
X72390000Y-60325000D01*
X48768000Y-83820000D02*
X51435000Y-83820000D01*
X70485000Y-83820000D02*
X70485000Y-78105000D01*
X66040000Y-58420000D02*
X67310000Y-57150000D01*
X66040000Y-63500000D02*
X66040000Y-58420000D01*
X69215000Y-66675000D02*
X66040000Y-63500000D01*
X69215000Y-76835000D02*
X69215000Y-66675000D01*
X70485000Y-78105000D02*
X69215000Y-76835000D01*
X36830000Y-95250000D02*
X38608000Y-95250000D01*
X38862000Y-94996000D02*
X48768000Y-94996000D01*
X38608000Y-95250000D02*
X38862000Y-94996000D01*
X48768000Y-102616000D02*
X51181000Y-102616000D01*
X51181000Y-102616000D02*
X51435000Y-102870000D01*
X67310000Y-54610000D02*
X63500000Y-58420000D01*
X67945000Y-100330000D02*
X70485000Y-102870000D01*
X67945000Y-68580000D02*
X67945000Y-100330000D01*
X63500000Y-64135000D02*
X67945000Y-68580000D01*
X63500000Y-58420000D02*
X63500000Y-64135000D01*
X55880000Y-66675000D02*
X55880000Y-66548000D01*
X55880000Y-66548000D02*
X55880000Y-65405000D01*
X55880000Y-65405000D02*
X53975000Y-63500000D01*
X52070000Y-44450000D02*
X50165000Y-46355000D01*
X50165000Y-47625000D02*
X43180000Y-54610000D01*
X50165000Y-46355000D02*
X50165000Y-47625000D01*
X43180000Y-73660000D02*
X43180000Y-92710000D01*
X43180000Y-54610000D02*
X43180000Y-73660000D01*
X43180000Y-35560000D02*
X43180000Y-54610000D01*
X52070000Y-46990000D02*
X50165000Y-48895000D01*
X58420000Y-50800000D02*
X62230000Y-54610000D01*
X50800000Y-50800000D02*
X58420000Y-50800000D01*
X50165000Y-50165000D02*
X50800000Y-50800000D01*
X50165000Y-48895000D02*
X50165000Y-50165000D01*
X62230000Y-35560000D02*
X60960000Y-35560000D01*
X55880000Y-43180000D02*
X52070000Y-46990000D01*
X55880000Y-40640000D02*
X55880000Y-43180000D01*
X60960000Y-35560000D02*
X55880000Y-40640000D01*
X62230000Y-73660000D02*
X62230000Y-54610000D01*
X62230000Y-92710000D02*
X62230000Y-73660000D01*
X53340000Y-49530000D02*
X52070000Y-49530000D01*
X58420000Y-44450000D02*
X53340000Y-49530000D01*
X81280000Y-73660000D02*
X81280000Y-92710000D01*
X81280000Y-54610000D02*
X81280000Y-73660000D01*
X81280000Y-35560000D02*
X81280000Y-54610000D01*
X100330000Y-54610000D02*
X100330000Y-35560000D01*
X100330000Y-73660000D02*
X100330000Y-54610000D01*
X100330000Y-92710000D02*
X100330000Y-73660000D01*
X119380000Y-73660000D02*
X119380000Y-92710000D01*
X119380000Y-54610000D02*
X119380000Y-73660000D01*
X119380000Y-35560000D02*
X119380000Y-54610000D01*
X53340000Y-58420000D02*
X52070000Y-57150000D01*
X53340000Y-60960000D02*
X53340000Y-58420000D01*
X58420000Y-66040000D02*
X53340000Y-60960000D01*
X138430000Y-54610000D02*
X138430000Y-35560000D01*
X138430000Y-73660000D02*
X138430000Y-54610000D01*
X138430000Y-92710000D02*
X138430000Y-73660000D01*
X70485000Y-67945000D02*
X70485000Y-64770000D01*
X70358000Y-68072000D02*
X70485000Y-67945000D01*
X121081800Y-33375600D02*
X121081800Y-36906200D01*
X120396000Y-37592000D02*
X120396000Y-47498000D01*
X121081800Y-36906200D02*
X120396000Y-37592000D01*
X40100000Y-49200000D02*
X40100000Y-55800000D01*
X37900000Y-62600000D02*
X39800000Y-64500000D01*
X37900000Y-58700000D02*
X37900000Y-62600000D01*
X38700000Y-57900000D02*
X37900000Y-58700000D01*
X38700000Y-57200000D02*
X38700000Y-57900000D01*
X40100000Y-55800000D02*
X38700000Y-57200000D01*
X130378200Y-33375600D02*
X130378200Y-35178200D01*
X133000000Y-48000000D02*
X135000000Y-50000000D01*
X133000000Y-39500000D02*
X133000000Y-48000000D01*
X134100000Y-38400000D02*
X133000000Y-39500000D01*
X134100000Y-37300000D02*
X134100000Y-38400000D01*
X132500000Y-35700000D02*
X134100000Y-37300000D01*
X130900000Y-35700000D02*
X132500000Y-35700000D01*
X130378200Y-35178200D02*
X130900000Y-35700000D01*
D20*
G36*
X49405000Y-50165000D02*
X49462852Y-50455839D01*
X49627599Y-50702401D01*
X50262599Y-51337401D01*
X50509161Y-51502148D01*
X50657157Y-51531587D01*
X50558963Y-51768065D01*
X50558438Y-52369297D01*
X50788035Y-52924964D01*
X51202698Y-53340351D01*
X50789529Y-53752800D01*
X50558963Y-54308065D01*
X50558438Y-54909297D01*
X50788035Y-55464964D01*
X51202698Y-55880351D01*
X50789529Y-56292800D01*
X50558963Y-56848065D01*
X50558438Y-57449297D01*
X50788035Y-58004964D01*
X51202698Y-58420351D01*
X50789529Y-58832800D01*
X50558963Y-59388065D01*
X50558438Y-59989297D01*
X50788035Y-60544964D01*
X51202698Y-60960351D01*
X50789529Y-61372800D01*
X50558963Y-61928065D01*
X50558438Y-62529297D01*
X50788035Y-63084964D01*
X51212800Y-63510471D01*
X51768065Y-63741037D01*
X52369297Y-63741562D01*
X52924964Y-63511965D01*
X53040089Y-63397041D01*
X53039838Y-63685167D01*
X53181883Y-64028943D01*
X53444673Y-64292192D01*
X53788201Y-64434838D01*
X53835077Y-64434879D01*
X55120000Y-65719802D01*
X55120000Y-65985537D01*
X55087808Y-66017673D01*
X54945162Y-66361201D01*
X54944838Y-66733167D01*
X55086883Y-67076943D01*
X55349673Y-67340192D01*
X55693201Y-67482838D01*
X56065167Y-67483162D01*
X56408943Y-67341117D01*
X56672192Y-67078327D01*
X56814838Y-66734799D01*
X56815162Y-66362833D01*
X56673117Y-66019057D01*
X56640000Y-65985882D01*
X56640000Y-65405000D01*
X56622569Y-65317371D01*
X57484878Y-66179680D01*
X57484838Y-66225167D01*
X57626883Y-66568943D01*
X57889673Y-66832192D01*
X58233201Y-66974838D01*
X58605167Y-66975162D01*
X58948943Y-66833117D01*
X59212192Y-66570327D01*
X59354838Y-66226799D01*
X59355162Y-65854833D01*
X59213117Y-65511057D01*
X58950327Y-65247808D01*
X58606799Y-65105162D01*
X58559923Y-65105121D01*
X54630721Y-61175919D01*
X54904267Y-61176158D01*
X55450595Y-60950420D01*
X55868951Y-60532794D01*
X56095642Y-59986861D01*
X56096158Y-59395733D01*
X55902903Y-58928021D01*
X56232114Y-58928308D01*
X56885840Y-58658194D01*
X57386436Y-58158471D01*
X57657691Y-57505218D01*
X57658308Y-56797886D01*
X57388194Y-56144160D01*
X56888471Y-55643564D01*
X56235218Y-55372309D01*
X55527886Y-55371692D01*
X54874160Y-55641806D01*
X54373564Y-56141529D01*
X54102309Y-56794782D01*
X54101692Y-57502114D01*
X54371806Y-58155840D01*
X54419815Y-58203933D01*
X54315733Y-58203842D01*
X54076653Y-58302628D01*
X54057003Y-58203842D01*
X54042148Y-58129160D01*
X53877401Y-57882599D01*
X53541633Y-57546831D01*
X53581037Y-57451935D01*
X53581562Y-56850703D01*
X53351965Y-56295036D01*
X52937302Y-55879649D01*
X53350471Y-55467200D01*
X53581037Y-54911935D01*
X53581562Y-54310703D01*
X53351965Y-53755036D01*
X52937302Y-53339649D01*
X53350471Y-52927200D01*
X53581037Y-52371935D01*
X53581562Y-51770703D01*
X53494501Y-51560000D01*
X58105198Y-51560000D01*
X60554317Y-54009119D01*
X60452309Y-54254782D01*
X60451692Y-54962114D01*
X60721806Y-55615840D01*
X61221529Y-56116436D01*
X61470000Y-56219610D01*
X61470000Y-57752035D01*
X61181096Y-57462627D01*
X60215215Y-57061558D01*
X59169374Y-57060645D01*
X58202793Y-57460028D01*
X57462627Y-58198904D01*
X57061558Y-59164785D01*
X57060645Y-60210626D01*
X57460028Y-61177207D01*
X58198904Y-61917373D01*
X59164785Y-62318442D01*
X60210626Y-62319355D01*
X61177207Y-61919972D01*
X61470000Y-61627689D01*
X61470000Y-72050227D01*
X61224160Y-72151806D01*
X60723564Y-72651529D01*
X60452309Y-73304782D01*
X60451692Y-74012114D01*
X60721806Y-74665840D01*
X61221529Y-75166436D01*
X61470000Y-75269610D01*
X61470000Y-76802035D01*
X61181096Y-76512627D01*
X60215215Y-76111558D01*
X59169374Y-76110645D01*
X58202793Y-76510028D01*
X57462627Y-77248904D01*
X57061558Y-78214785D01*
X57060645Y-79260626D01*
X57460028Y-80227207D01*
X58198904Y-80967373D01*
X59164785Y-81368442D01*
X60210626Y-81369355D01*
X61177207Y-80969972D01*
X61470000Y-80677689D01*
X61470000Y-91100227D01*
X61224160Y-91201806D01*
X60723564Y-91701529D01*
X60452309Y-92354782D01*
X60451692Y-93062114D01*
X60721806Y-93715840D01*
X61221529Y-94216436D01*
X61874782Y-94487691D01*
X62582114Y-94488308D01*
X63235840Y-94218194D01*
X63736436Y-93718471D01*
X64007691Y-93065218D01*
X64008308Y-92357886D01*
X63738194Y-91704160D01*
X63238471Y-91203564D01*
X62990000Y-91100390D01*
X62990000Y-79034267D01*
X63283842Y-79034267D01*
X63509580Y-79580595D01*
X63927206Y-79998951D01*
X64473139Y-80225642D01*
X65064267Y-80226158D01*
X65610595Y-80000420D01*
X66028951Y-79582794D01*
X66255642Y-79036861D01*
X66256158Y-78445733D01*
X66030420Y-77899405D01*
X65612794Y-77481049D01*
X65066861Y-77254358D01*
X64475733Y-77253842D01*
X63929405Y-77479580D01*
X63511049Y-77897206D01*
X63284358Y-78443139D01*
X63283842Y-79034267D01*
X62990000Y-79034267D01*
X62990000Y-75269773D01*
X63235840Y-75168194D01*
X63736436Y-74668471D01*
X64007691Y-74015218D01*
X64008308Y-73307886D01*
X63738194Y-72654160D01*
X63238471Y-72153564D01*
X62990000Y-72050390D01*
X62990000Y-71576940D01*
X64579500Y-71576940D01*
X64814817Y-71532662D01*
X65030941Y-71393590D01*
X65175931Y-71181390D01*
X65226940Y-70929500D01*
X65226940Y-69278500D01*
X65182662Y-69043183D01*
X65043590Y-68827059D01*
X64831390Y-68682069D01*
X64579500Y-68631060D01*
X62990000Y-68631060D01*
X62990000Y-64699802D01*
X67185000Y-68894802D01*
X67185000Y-100330000D01*
X67242852Y-100620839D01*
X67407599Y-100867401D01*
X69012060Y-102471862D01*
X69012060Y-103378000D01*
X52907940Y-103378000D01*
X52907940Y-102044500D01*
X52863662Y-101809183D01*
X52724590Y-101593059D01*
X52512390Y-101448069D01*
X52260500Y-101397060D01*
X50609500Y-101397060D01*
X50374183Y-101441338D01*
X50196727Y-101555528D01*
X50196662Y-101555183D01*
X50057590Y-101339059D01*
X49845390Y-101194069D01*
X49593500Y-101143060D01*
X47942500Y-101143060D01*
X47707183Y-101187338D01*
X47491059Y-101326410D01*
X47346069Y-101538610D01*
X47295060Y-101790500D01*
X47295060Y-103378000D01*
X35635000Y-103378000D01*
X35635000Y-99275967D01*
X35854267Y-99276158D01*
X36400595Y-99050420D01*
X36818951Y-98632794D01*
X37045642Y-98086861D01*
X37046158Y-97495733D01*
X36852903Y-97028021D01*
X37182114Y-97028308D01*
X37835840Y-96758194D01*
X38336436Y-96258471D01*
X38439610Y-96010000D01*
X38608000Y-96010000D01*
X38725436Y-95986640D01*
X38412627Y-96298904D01*
X38011558Y-97264785D01*
X38010645Y-98310626D01*
X38410028Y-99277207D01*
X39148904Y-100017373D01*
X40114785Y-100418442D01*
X41160626Y-100419355D01*
X42127207Y-100019972D01*
X42867373Y-99281096D01*
X43268442Y-98315215D01*
X43268643Y-98084267D01*
X44233842Y-98084267D01*
X44459580Y-98630595D01*
X44877206Y-99048951D01*
X45423139Y-99275642D01*
X46014267Y-99276158D01*
X46560595Y-99050420D01*
X46978951Y-98632794D01*
X47205642Y-98086861D01*
X47205644Y-98084267D01*
X53123842Y-98084267D01*
X53349580Y-98630595D01*
X53767206Y-99048951D01*
X54313139Y-99275642D01*
X54904267Y-99276158D01*
X55450595Y-99050420D01*
X55868951Y-98632794D01*
X56002726Y-98310626D01*
X57060645Y-98310626D01*
X57460028Y-99277207D01*
X58198904Y-100017373D01*
X59164785Y-100418442D01*
X60210626Y-100419355D01*
X61177207Y-100019972D01*
X61917373Y-99281096D01*
X62318442Y-98315215D01*
X62318643Y-98084267D01*
X63283842Y-98084267D01*
X63509580Y-98630595D01*
X63927206Y-99048951D01*
X64473139Y-99275642D01*
X65064267Y-99276158D01*
X65610595Y-99050420D01*
X66028951Y-98632794D01*
X66255642Y-98086861D01*
X66256158Y-97495733D01*
X66030420Y-96949405D01*
X65612794Y-96531049D01*
X65066861Y-96304358D01*
X64475733Y-96303842D01*
X63929405Y-96529580D01*
X63511049Y-96947206D01*
X63284358Y-97493139D01*
X63283842Y-98084267D01*
X62318643Y-98084267D01*
X62319355Y-97269374D01*
X61919972Y-96302793D01*
X61181096Y-95562627D01*
X60215215Y-95161558D01*
X59169374Y-95160645D01*
X58202793Y-95560028D01*
X57462627Y-96298904D01*
X57061558Y-97264785D01*
X57060645Y-98310626D01*
X56002726Y-98310626D01*
X56095642Y-98086861D01*
X56096158Y-97495733D01*
X55902903Y-97028021D01*
X56232114Y-97028308D01*
X56885840Y-96758194D01*
X57386436Y-96258471D01*
X57657691Y-95605218D01*
X57658308Y-94897886D01*
X57388194Y-94244160D01*
X56888471Y-93743564D01*
X56235218Y-93472309D01*
X55527886Y-93471692D01*
X54874160Y-93741806D01*
X54373564Y-94241529D01*
X54102309Y-94894782D01*
X54101692Y-95602114D01*
X54371806Y-96255840D01*
X54419815Y-96303933D01*
X54315733Y-96303842D01*
X53769405Y-96529580D01*
X53351049Y-96947206D01*
X53124358Y-97493139D01*
X53123842Y-98084267D01*
X47205644Y-98084267D01*
X47206158Y-97495733D01*
X46980420Y-96949405D01*
X46562794Y-96531049D01*
X46016861Y-96304358D01*
X45425733Y-96303842D01*
X44879405Y-96529580D01*
X44461049Y-96947206D01*
X44234358Y-97493139D01*
X44233842Y-98084267D01*
X43268643Y-98084267D01*
X43269355Y-97269374D01*
X42869972Y-96302793D01*
X42324132Y-95756000D01*
X47501762Y-95756000D01*
X47529126Y-95822226D01*
X47939613Y-96233430D01*
X48476214Y-96456246D01*
X49057237Y-96456753D01*
X49594226Y-96234874D01*
X50005430Y-95824387D01*
X50048856Y-95719805D01*
X50196126Y-96076226D01*
X50606613Y-96487430D01*
X51143214Y-96710246D01*
X51724237Y-96710753D01*
X52261226Y-96488874D01*
X52672430Y-96078387D01*
X52895246Y-95541786D01*
X52895753Y-94960763D01*
X52673874Y-94423774D01*
X52263387Y-94012570D01*
X51726786Y-93789754D01*
X51145763Y-93789247D01*
X50608774Y-94011126D01*
X50197570Y-94421613D01*
X50154144Y-94526195D01*
X50006874Y-94169774D01*
X49596387Y-93758570D01*
X49059786Y-93535754D01*
X48478763Y-93535247D01*
X47941774Y-93757126D01*
X47530570Y-94167613D01*
X47502173Y-94236000D01*
X44142746Y-94236000D01*
X44185840Y-94218194D01*
X44686436Y-93718471D01*
X44957691Y-93065218D01*
X44958308Y-92357886D01*
X44688194Y-91704160D01*
X44188471Y-91203564D01*
X43940000Y-91100390D01*
X43940000Y-82994500D01*
X47295060Y-82994500D01*
X47295060Y-84645500D01*
X47339338Y-84880817D01*
X47478410Y-85096941D01*
X47690610Y-85241931D01*
X47942500Y-85292940D01*
X49593500Y-85292940D01*
X49828817Y-85248662D01*
X50044941Y-85109590D01*
X50100874Y-85027730D01*
X50145410Y-85096941D01*
X50357610Y-85241931D01*
X50609500Y-85292940D01*
X52260500Y-85292940D01*
X52495817Y-85248662D01*
X52711941Y-85109590D01*
X52856931Y-84897390D01*
X52907940Y-84645500D01*
X52907940Y-82994500D01*
X52863662Y-82759183D01*
X52724590Y-82543059D01*
X52512390Y-82398069D01*
X52260500Y-82347060D01*
X50609500Y-82347060D01*
X50374183Y-82391338D01*
X50158059Y-82530410D01*
X50102126Y-82612270D01*
X50057590Y-82543059D01*
X49845390Y-82398069D01*
X49593500Y-82347060D01*
X47942500Y-82347060D01*
X47707183Y-82391338D01*
X47491059Y-82530410D01*
X47346069Y-82742610D01*
X47295060Y-82994500D01*
X43940000Y-82994500D01*
X43940000Y-79034267D01*
X44233842Y-79034267D01*
X44459580Y-79580595D01*
X44877206Y-79998951D01*
X45423139Y-80225642D01*
X46014267Y-80226158D01*
X46560595Y-80000420D01*
X46978951Y-79582794D01*
X47205642Y-79036861D01*
X47205644Y-79034267D01*
X53123842Y-79034267D01*
X53349580Y-79580595D01*
X53767206Y-79998951D01*
X54313139Y-80225642D01*
X54904267Y-80226158D01*
X55450595Y-80000420D01*
X55868951Y-79582794D01*
X56095642Y-79036861D01*
X56096158Y-78445733D01*
X55902903Y-77978021D01*
X56232114Y-77978308D01*
X56885840Y-77708194D01*
X57386436Y-77208471D01*
X57657691Y-76555218D01*
X57658308Y-75847886D01*
X57388194Y-75194160D01*
X56888471Y-74693564D01*
X56235218Y-74422309D01*
X55527886Y-74421692D01*
X54874160Y-74691806D01*
X54373564Y-75191529D01*
X54102309Y-75844782D01*
X54101692Y-76552114D01*
X54371806Y-77205840D01*
X54419815Y-77253933D01*
X54315733Y-77253842D01*
X53769405Y-77479580D01*
X53351049Y-77897206D01*
X53124358Y-78443139D01*
X53123842Y-79034267D01*
X47205644Y-79034267D01*
X47206158Y-78445733D01*
X46980420Y-77899405D01*
X46562794Y-77481049D01*
X46016861Y-77254358D01*
X45425733Y-77253842D01*
X44879405Y-77479580D01*
X44461049Y-77897206D01*
X44234358Y-78443139D01*
X44233842Y-79034267D01*
X43940000Y-79034267D01*
X43940000Y-76489237D01*
X47307247Y-76489237D01*
X47529126Y-77026226D01*
X47939613Y-77437430D01*
X48476214Y-77660246D01*
X49057237Y-77660753D01*
X49594226Y-77438874D01*
X50005430Y-77028387D01*
X50101461Y-76797119D01*
X50196126Y-77026226D01*
X50606613Y-77437430D01*
X51143214Y-77660246D01*
X51724237Y-77660753D01*
X52261226Y-77438874D01*
X52672430Y-77028387D01*
X52895246Y-76491786D01*
X52895753Y-75910763D01*
X52673874Y-75373774D01*
X52263387Y-74962570D01*
X51726786Y-74739754D01*
X51145763Y-74739247D01*
X50608774Y-74961126D01*
X50197570Y-75371613D01*
X50101539Y-75602881D01*
X50006874Y-75373774D01*
X49596387Y-74962570D01*
X49059786Y-74739754D01*
X48478763Y-74739247D01*
X47941774Y-74961126D01*
X47530570Y-75371613D01*
X47307754Y-75908214D01*
X47307247Y-76489237D01*
X43940000Y-76489237D01*
X43940000Y-75269773D01*
X44185840Y-75168194D01*
X44686436Y-74668471D01*
X44957691Y-74015218D01*
X44958308Y-73307886D01*
X44688194Y-72654160D01*
X44188471Y-72153564D01*
X43940000Y-72050390D01*
X43940000Y-70393237D01*
X54673247Y-70393237D01*
X54895126Y-70930226D01*
X55305613Y-71341430D01*
X55842214Y-71564246D01*
X56423237Y-71564753D01*
X56960226Y-71342874D01*
X57371430Y-70932387D01*
X57594246Y-70395786D01*
X57594753Y-69814763D01*
X57372874Y-69277774D01*
X56962387Y-68866570D01*
X56425786Y-68643754D01*
X55844763Y-68643247D01*
X55307774Y-68865126D01*
X54896570Y-69275613D01*
X54673754Y-69812214D01*
X54673247Y-70393237D01*
X43940000Y-70393237D01*
X43940000Y-64198500D01*
X47549060Y-64198500D01*
X47549060Y-65849500D01*
X47593338Y-66084817D01*
X47732410Y-66300941D01*
X47944610Y-66445931D01*
X48196500Y-66496940D01*
X49847500Y-66496940D01*
X50082817Y-66452662D01*
X50298941Y-66313590D01*
X50443931Y-66101390D01*
X50494940Y-65849500D01*
X50494940Y-64198500D01*
X50450662Y-63963183D01*
X50311590Y-63747059D01*
X50099390Y-63602069D01*
X49847500Y-63551060D01*
X48196500Y-63551060D01*
X47961183Y-63595338D01*
X47745059Y-63734410D01*
X47600069Y-63946610D01*
X47549060Y-64198500D01*
X43940000Y-64198500D01*
X43940000Y-59984267D01*
X44233842Y-59984267D01*
X44459580Y-60530595D01*
X44877206Y-60948951D01*
X45423139Y-61175642D01*
X46014267Y-61176158D01*
X46560595Y-60950420D01*
X46978951Y-60532794D01*
X47205642Y-59986861D01*
X47206158Y-59395733D01*
X46980420Y-58849405D01*
X46562794Y-58431049D01*
X46016861Y-58204358D01*
X45425733Y-58203842D01*
X44879405Y-58429580D01*
X44461049Y-58847206D01*
X44234358Y-59393139D01*
X44233842Y-59984267D01*
X43940000Y-59984267D01*
X43940000Y-57693237D01*
X47561247Y-57693237D01*
X47783126Y-58230226D01*
X48193613Y-58641430D01*
X48730214Y-58864246D01*
X49311237Y-58864753D01*
X49848226Y-58642874D01*
X50259430Y-58232387D01*
X50482246Y-57695786D01*
X50482753Y-57114763D01*
X50260874Y-56577774D01*
X49850387Y-56166570D01*
X49313786Y-55943754D01*
X48732763Y-55943247D01*
X48195774Y-56165126D01*
X47784570Y-56575613D01*
X47561754Y-57112214D01*
X47561247Y-57693237D01*
X43940000Y-57693237D01*
X43940000Y-56219773D01*
X44185840Y-56118194D01*
X44686436Y-55618471D01*
X44957691Y-54965218D01*
X44958308Y-54257886D01*
X44855567Y-54009235D01*
X49405000Y-49459802D01*
X49405000Y-50165000D01*
X49405000Y-50165000D01*
G37*
X49405000Y-50165000D02*
X49462852Y-50455839D01*
X49627599Y-50702401D01*
X50262599Y-51337401D01*
X50509161Y-51502148D01*
X50657157Y-51531587D01*
X50558963Y-51768065D01*
X50558438Y-52369297D01*
X50788035Y-52924964D01*
X51202698Y-53340351D01*
X50789529Y-53752800D01*
X50558963Y-54308065D01*
X50558438Y-54909297D01*
X50788035Y-55464964D01*
X51202698Y-55880351D01*
X50789529Y-56292800D01*
X50558963Y-56848065D01*
X50558438Y-57449297D01*
X50788035Y-58004964D01*
X51202698Y-58420351D01*
X50789529Y-58832800D01*
X50558963Y-59388065D01*
X50558438Y-59989297D01*
X50788035Y-60544964D01*
X51202698Y-60960351D01*
X50789529Y-61372800D01*
X50558963Y-61928065D01*
X50558438Y-62529297D01*
X50788035Y-63084964D01*
X51212800Y-63510471D01*
X51768065Y-63741037D01*
X52369297Y-63741562D01*
X52924964Y-63511965D01*
X53040089Y-63397041D01*
X53039838Y-63685167D01*
X53181883Y-64028943D01*
X53444673Y-64292192D01*
X53788201Y-64434838D01*
X53835077Y-64434879D01*
X55120000Y-65719802D01*
X55120000Y-65985537D01*
X55087808Y-66017673D01*
X54945162Y-66361201D01*
X54944838Y-66733167D01*
X55086883Y-67076943D01*
X55349673Y-67340192D01*
X55693201Y-67482838D01*
X56065167Y-67483162D01*
X56408943Y-67341117D01*
X56672192Y-67078327D01*
X56814838Y-66734799D01*
X56815162Y-66362833D01*
X56673117Y-66019057D01*
X56640000Y-65985882D01*
X56640000Y-65405000D01*
X56622569Y-65317371D01*
X57484878Y-66179680D01*
X57484838Y-66225167D01*
X57626883Y-66568943D01*
X57889673Y-66832192D01*
X58233201Y-66974838D01*
X58605167Y-66975162D01*
X58948943Y-66833117D01*
X59212192Y-66570327D01*
X59354838Y-66226799D01*
X59355162Y-65854833D01*
X59213117Y-65511057D01*
X58950327Y-65247808D01*
X58606799Y-65105162D01*
X58559923Y-65105121D01*
X54630721Y-61175919D01*
X54904267Y-61176158D01*
X55450595Y-60950420D01*
X55868951Y-60532794D01*
X56095642Y-59986861D01*
X56096158Y-59395733D01*
X55902903Y-58928021D01*
X56232114Y-58928308D01*
X56885840Y-58658194D01*
X57386436Y-58158471D01*
X57657691Y-57505218D01*
X57658308Y-56797886D01*
X57388194Y-56144160D01*
X56888471Y-55643564D01*
X56235218Y-55372309D01*
X55527886Y-55371692D01*
X54874160Y-55641806D01*
X54373564Y-56141529D01*
X54102309Y-56794782D01*
X54101692Y-57502114D01*
X54371806Y-58155840D01*
X54419815Y-58203933D01*
X54315733Y-58203842D01*
X54076653Y-58302628D01*
X54057003Y-58203842D01*
X54042148Y-58129160D01*
X53877401Y-57882599D01*
X53541633Y-57546831D01*
X53581037Y-57451935D01*
X53581562Y-56850703D01*
X53351965Y-56295036D01*
X52937302Y-55879649D01*
X53350471Y-55467200D01*
X53581037Y-54911935D01*
X53581562Y-54310703D01*
X53351965Y-53755036D01*
X52937302Y-53339649D01*
X53350471Y-52927200D01*
X53581037Y-52371935D01*
X53581562Y-51770703D01*
X53494501Y-51560000D01*
X58105198Y-51560000D01*
X60554317Y-54009119D01*
X60452309Y-54254782D01*
X60451692Y-54962114D01*
X60721806Y-55615840D01*
X61221529Y-56116436D01*
X61470000Y-56219610D01*
X61470000Y-57752035D01*
X61181096Y-57462627D01*
X60215215Y-57061558D01*
X59169374Y-57060645D01*
X58202793Y-57460028D01*
X57462627Y-58198904D01*
X57061558Y-59164785D01*
X57060645Y-60210626D01*
X57460028Y-61177207D01*
X58198904Y-61917373D01*
X59164785Y-62318442D01*
X60210626Y-62319355D01*
X61177207Y-61919972D01*
X61470000Y-61627689D01*
X61470000Y-72050227D01*
X61224160Y-72151806D01*
X60723564Y-72651529D01*
X60452309Y-73304782D01*
X60451692Y-74012114D01*
X60721806Y-74665840D01*
X61221529Y-75166436D01*
X61470000Y-75269610D01*
X61470000Y-76802035D01*
X61181096Y-76512627D01*
X60215215Y-76111558D01*
X59169374Y-76110645D01*
X58202793Y-76510028D01*
X57462627Y-77248904D01*
X57061558Y-78214785D01*
X57060645Y-79260626D01*
X57460028Y-80227207D01*
X58198904Y-80967373D01*
X59164785Y-81368442D01*
X60210626Y-81369355D01*
X61177207Y-80969972D01*
X61470000Y-80677689D01*
X61470000Y-91100227D01*
X61224160Y-91201806D01*
X60723564Y-91701529D01*
X60452309Y-92354782D01*
X60451692Y-93062114D01*
X60721806Y-93715840D01*
X61221529Y-94216436D01*
X61874782Y-94487691D01*
X62582114Y-94488308D01*
X63235840Y-94218194D01*
X63736436Y-93718471D01*
X64007691Y-93065218D01*
X64008308Y-92357886D01*
X63738194Y-91704160D01*
X63238471Y-91203564D01*
X62990000Y-91100390D01*
X62990000Y-79034267D01*
X63283842Y-79034267D01*
X63509580Y-79580595D01*
X63927206Y-79998951D01*
X64473139Y-80225642D01*
X65064267Y-80226158D01*
X65610595Y-80000420D01*
X66028951Y-79582794D01*
X66255642Y-79036861D01*
X66256158Y-78445733D01*
X66030420Y-77899405D01*
X65612794Y-77481049D01*
X65066861Y-77254358D01*
X64475733Y-77253842D01*
X63929405Y-77479580D01*
X63511049Y-77897206D01*
X63284358Y-78443139D01*
X63283842Y-79034267D01*
X62990000Y-79034267D01*
X62990000Y-75269773D01*
X63235840Y-75168194D01*
X63736436Y-74668471D01*
X64007691Y-74015218D01*
X64008308Y-73307886D01*
X63738194Y-72654160D01*
X63238471Y-72153564D01*
X62990000Y-72050390D01*
X62990000Y-71576940D01*
X64579500Y-71576940D01*
X64814817Y-71532662D01*
X65030941Y-71393590D01*
X65175931Y-71181390D01*
X65226940Y-70929500D01*
X65226940Y-69278500D01*
X65182662Y-69043183D01*
X65043590Y-68827059D01*
X64831390Y-68682069D01*
X64579500Y-68631060D01*
X62990000Y-68631060D01*
X62990000Y-64699802D01*
X67185000Y-68894802D01*
X67185000Y-100330000D01*
X67242852Y-100620839D01*
X67407599Y-100867401D01*
X69012060Y-102471862D01*
X69012060Y-103378000D01*
X52907940Y-103378000D01*
X52907940Y-102044500D01*
X52863662Y-101809183D01*
X52724590Y-101593059D01*
X52512390Y-101448069D01*
X52260500Y-101397060D01*
X50609500Y-101397060D01*
X50374183Y-101441338D01*
X50196727Y-101555528D01*
X50196662Y-101555183D01*
X50057590Y-101339059D01*
X49845390Y-101194069D01*
X49593500Y-101143060D01*
X47942500Y-101143060D01*
X47707183Y-101187338D01*
X47491059Y-101326410D01*
X47346069Y-101538610D01*
X47295060Y-101790500D01*
X47295060Y-103378000D01*
X35635000Y-103378000D01*
X35635000Y-99275967D01*
X35854267Y-99276158D01*
X36400595Y-99050420D01*
X36818951Y-98632794D01*
X37045642Y-98086861D01*
X37046158Y-97495733D01*
X36852903Y-97028021D01*
X37182114Y-97028308D01*
X37835840Y-96758194D01*
X38336436Y-96258471D01*
X38439610Y-96010000D01*
X38608000Y-96010000D01*
X38725436Y-95986640D01*
X38412627Y-96298904D01*
X38011558Y-97264785D01*
X38010645Y-98310626D01*
X38410028Y-99277207D01*
X39148904Y-100017373D01*
X40114785Y-100418442D01*
X41160626Y-100419355D01*
X42127207Y-100019972D01*
X42867373Y-99281096D01*
X43268442Y-98315215D01*
X43268643Y-98084267D01*
X44233842Y-98084267D01*
X44459580Y-98630595D01*
X44877206Y-99048951D01*
X45423139Y-99275642D01*
X46014267Y-99276158D01*
X46560595Y-99050420D01*
X46978951Y-98632794D01*
X47205642Y-98086861D01*
X47205644Y-98084267D01*
X53123842Y-98084267D01*
X53349580Y-98630595D01*
X53767206Y-99048951D01*
X54313139Y-99275642D01*
X54904267Y-99276158D01*
X55450595Y-99050420D01*
X55868951Y-98632794D01*
X56002726Y-98310626D01*
X57060645Y-98310626D01*
X57460028Y-99277207D01*
X58198904Y-100017373D01*
X59164785Y-100418442D01*
X60210626Y-100419355D01*
X61177207Y-100019972D01*
X61917373Y-99281096D01*
X62318442Y-98315215D01*
X62318643Y-98084267D01*
X63283842Y-98084267D01*
X63509580Y-98630595D01*
X63927206Y-99048951D01*
X64473139Y-99275642D01*
X65064267Y-99276158D01*
X65610595Y-99050420D01*
X66028951Y-98632794D01*
X66255642Y-98086861D01*
X66256158Y-97495733D01*
X66030420Y-96949405D01*
X65612794Y-96531049D01*
X65066861Y-96304358D01*
X64475733Y-96303842D01*
X63929405Y-96529580D01*
X63511049Y-96947206D01*
X63284358Y-97493139D01*
X63283842Y-98084267D01*
X62318643Y-98084267D01*
X62319355Y-97269374D01*
X61919972Y-96302793D01*
X61181096Y-95562627D01*
X60215215Y-95161558D01*
X59169374Y-95160645D01*
X58202793Y-95560028D01*
X57462627Y-96298904D01*
X57061558Y-97264785D01*
X57060645Y-98310626D01*
X56002726Y-98310626D01*
X56095642Y-98086861D01*
X56096158Y-97495733D01*
X55902903Y-97028021D01*
X56232114Y-97028308D01*
X56885840Y-96758194D01*
X57386436Y-96258471D01*
X57657691Y-95605218D01*
X57658308Y-94897886D01*
X57388194Y-94244160D01*
X56888471Y-93743564D01*
X56235218Y-93472309D01*
X55527886Y-93471692D01*
X54874160Y-93741806D01*
X54373564Y-94241529D01*
X54102309Y-94894782D01*
X54101692Y-95602114D01*
X54371806Y-96255840D01*
X54419815Y-96303933D01*
X54315733Y-96303842D01*
X53769405Y-96529580D01*
X53351049Y-96947206D01*
X53124358Y-97493139D01*
X53123842Y-98084267D01*
X47205644Y-98084267D01*
X47206158Y-97495733D01*
X46980420Y-96949405D01*
X46562794Y-96531049D01*
X46016861Y-96304358D01*
X45425733Y-96303842D01*
X44879405Y-96529580D01*
X44461049Y-96947206D01*
X44234358Y-97493139D01*
X44233842Y-98084267D01*
X43268643Y-98084267D01*
X43269355Y-97269374D01*
X42869972Y-96302793D01*
X42324132Y-95756000D01*
X47501762Y-95756000D01*
X47529126Y-95822226D01*
X47939613Y-96233430D01*
X48476214Y-96456246D01*
X49057237Y-96456753D01*
X49594226Y-96234874D01*
X50005430Y-95824387D01*
X50048856Y-95719805D01*
X50196126Y-96076226D01*
X50606613Y-96487430D01*
X51143214Y-96710246D01*
X51724237Y-96710753D01*
X52261226Y-96488874D01*
X52672430Y-96078387D01*
X52895246Y-95541786D01*
X52895753Y-94960763D01*
X52673874Y-94423774D01*
X52263387Y-94012570D01*
X51726786Y-93789754D01*
X51145763Y-93789247D01*
X50608774Y-94011126D01*
X50197570Y-94421613D01*
X50154144Y-94526195D01*
X50006874Y-94169774D01*
X49596387Y-93758570D01*
X49059786Y-93535754D01*
X48478763Y-93535247D01*
X47941774Y-93757126D01*
X47530570Y-94167613D01*
X47502173Y-94236000D01*
X44142746Y-94236000D01*
X44185840Y-94218194D01*
X44686436Y-93718471D01*
X44957691Y-93065218D01*
X44958308Y-92357886D01*
X44688194Y-91704160D01*
X44188471Y-91203564D01*
X43940000Y-91100390D01*
X43940000Y-82994500D01*
X47295060Y-82994500D01*
X47295060Y-84645500D01*
X47339338Y-84880817D01*
X47478410Y-85096941D01*
X47690610Y-85241931D01*
X47942500Y-85292940D01*
X49593500Y-85292940D01*
X49828817Y-85248662D01*
X50044941Y-85109590D01*
X50100874Y-85027730D01*
X50145410Y-85096941D01*
X50357610Y-85241931D01*
X50609500Y-85292940D01*
X52260500Y-85292940D01*
X52495817Y-85248662D01*
X52711941Y-85109590D01*
X52856931Y-84897390D01*
X52907940Y-84645500D01*
X52907940Y-82994500D01*
X52863662Y-82759183D01*
X52724590Y-82543059D01*
X52512390Y-82398069D01*
X52260500Y-82347060D01*
X50609500Y-82347060D01*
X50374183Y-82391338D01*
X50158059Y-82530410D01*
X50102126Y-82612270D01*
X50057590Y-82543059D01*
X49845390Y-82398069D01*
X49593500Y-82347060D01*
X47942500Y-82347060D01*
X47707183Y-82391338D01*
X47491059Y-82530410D01*
X47346069Y-82742610D01*
X47295060Y-82994500D01*
X43940000Y-82994500D01*
X43940000Y-79034267D01*
X44233842Y-79034267D01*
X44459580Y-79580595D01*
X44877206Y-79998951D01*
X45423139Y-80225642D01*
X46014267Y-80226158D01*
X46560595Y-80000420D01*
X46978951Y-79582794D01*
X47205642Y-79036861D01*
X47205644Y-79034267D01*
X53123842Y-79034267D01*
X53349580Y-79580595D01*
X53767206Y-79998951D01*
X54313139Y-80225642D01*
X54904267Y-80226158D01*
X55450595Y-80000420D01*
X55868951Y-79582794D01*
X56095642Y-79036861D01*
X56096158Y-78445733D01*
X55902903Y-77978021D01*
X56232114Y-77978308D01*
X56885840Y-77708194D01*
X57386436Y-77208471D01*
X57657691Y-76555218D01*
X57658308Y-75847886D01*
X57388194Y-75194160D01*
X56888471Y-74693564D01*
X56235218Y-74422309D01*
X55527886Y-74421692D01*
X54874160Y-74691806D01*
X54373564Y-75191529D01*
X54102309Y-75844782D01*
X54101692Y-76552114D01*
X54371806Y-77205840D01*
X54419815Y-77253933D01*
X54315733Y-77253842D01*
X53769405Y-77479580D01*
X53351049Y-77897206D01*
X53124358Y-78443139D01*
X53123842Y-79034267D01*
X47205644Y-79034267D01*
X47206158Y-78445733D01*
X46980420Y-77899405D01*
X46562794Y-77481049D01*
X46016861Y-77254358D01*
X45425733Y-77253842D01*
X44879405Y-77479580D01*
X44461049Y-77897206D01*
X44234358Y-78443139D01*
X44233842Y-79034267D01*
X43940000Y-79034267D01*
X43940000Y-76489237D01*
X47307247Y-76489237D01*
X47529126Y-77026226D01*
X47939613Y-77437430D01*
X48476214Y-77660246D01*
X49057237Y-77660753D01*
X49594226Y-77438874D01*
X50005430Y-77028387D01*
X50101461Y-76797119D01*
X50196126Y-77026226D01*
X50606613Y-77437430D01*
X51143214Y-77660246D01*
X51724237Y-77660753D01*
X52261226Y-77438874D01*
X52672430Y-77028387D01*
X52895246Y-76491786D01*
X52895753Y-75910763D01*
X52673874Y-75373774D01*
X52263387Y-74962570D01*
X51726786Y-74739754D01*
X51145763Y-74739247D01*
X50608774Y-74961126D01*
X50197570Y-75371613D01*
X50101539Y-75602881D01*
X50006874Y-75373774D01*
X49596387Y-74962570D01*
X49059786Y-74739754D01*
X48478763Y-74739247D01*
X47941774Y-74961126D01*
X47530570Y-75371613D01*
X47307754Y-75908214D01*
X47307247Y-76489237D01*
X43940000Y-76489237D01*
X43940000Y-75269773D01*
X44185840Y-75168194D01*
X44686436Y-74668471D01*
X44957691Y-74015218D01*
X44958308Y-73307886D01*
X44688194Y-72654160D01*
X44188471Y-72153564D01*
X43940000Y-72050390D01*
X43940000Y-70393237D01*
X54673247Y-70393237D01*
X54895126Y-70930226D01*
X55305613Y-71341430D01*
X55842214Y-71564246D01*
X56423237Y-71564753D01*
X56960226Y-71342874D01*
X57371430Y-70932387D01*
X57594246Y-70395786D01*
X57594753Y-69814763D01*
X57372874Y-69277774D01*
X56962387Y-68866570D01*
X56425786Y-68643754D01*
X55844763Y-68643247D01*
X55307774Y-68865126D01*
X54896570Y-69275613D01*
X54673754Y-69812214D01*
X54673247Y-70393237D01*
X43940000Y-70393237D01*
X43940000Y-64198500D01*
X47549060Y-64198500D01*
X47549060Y-65849500D01*
X47593338Y-66084817D01*
X47732410Y-66300941D01*
X47944610Y-66445931D01*
X48196500Y-66496940D01*
X49847500Y-66496940D01*
X50082817Y-66452662D01*
X50298941Y-66313590D01*
X50443931Y-66101390D01*
X50494940Y-65849500D01*
X50494940Y-64198500D01*
X50450662Y-63963183D01*
X50311590Y-63747059D01*
X50099390Y-63602069D01*
X49847500Y-63551060D01*
X48196500Y-63551060D01*
X47961183Y-63595338D01*
X47745059Y-63734410D01*
X47600069Y-63946610D01*
X47549060Y-64198500D01*
X43940000Y-64198500D01*
X43940000Y-59984267D01*
X44233842Y-59984267D01*
X44459580Y-60530595D01*
X44877206Y-60948951D01*
X45423139Y-61175642D01*
X46014267Y-61176158D01*
X46560595Y-60950420D01*
X46978951Y-60532794D01*
X47205642Y-59986861D01*
X47206158Y-59395733D01*
X46980420Y-58849405D01*
X46562794Y-58431049D01*
X46016861Y-58204358D01*
X45425733Y-58203842D01*
X44879405Y-58429580D01*
X44461049Y-58847206D01*
X44234358Y-59393139D01*
X44233842Y-59984267D01*
X43940000Y-59984267D01*
X43940000Y-57693237D01*
X47561247Y-57693237D01*
X47783126Y-58230226D01*
X48193613Y-58641430D01*
X48730214Y-58864246D01*
X49311237Y-58864753D01*
X49848226Y-58642874D01*
X50259430Y-58232387D01*
X50482246Y-57695786D01*
X50482753Y-57114763D01*
X50260874Y-56577774D01*
X49850387Y-56166570D01*
X49313786Y-55943754D01*
X48732763Y-55943247D01*
X48195774Y-56165126D01*
X47784570Y-56575613D01*
X47561754Y-57112214D01*
X47561247Y-57693237D01*
X43940000Y-57693237D01*
X43940000Y-56219773D01*
X44185840Y-56118194D01*
X44686436Y-55618471D01*
X44957691Y-54965218D01*
X44958308Y-54257886D01*
X44855567Y-54009235D01*
X49405000Y-49459802D01*
X49405000Y-50165000D01*
G36*
X66028035Y-35144964D02*
X66452800Y-35570471D01*
X66486592Y-35584503D01*
X66426604Y-35766999D01*
X67310000Y-36650395D01*
X68193396Y-35766999D01*
X68133553Y-35584944D01*
X68164964Y-35571965D01*
X68590471Y-35147200D01*
X68630001Y-35052000D01*
X79565750Y-35052000D01*
X79502309Y-35204782D01*
X79501692Y-35912114D01*
X79771806Y-36565840D01*
X80271529Y-37066436D01*
X80520000Y-37169610D01*
X80520000Y-38702035D01*
X80231096Y-38412627D01*
X79265215Y-38011558D01*
X78219374Y-38010645D01*
X77252793Y-38410028D01*
X76512627Y-39148904D01*
X76111558Y-40114785D01*
X76110645Y-41160626D01*
X76510028Y-42127207D01*
X77248904Y-42867373D01*
X78214785Y-43268442D01*
X79260626Y-43269355D01*
X80227207Y-42869972D01*
X80520000Y-42577689D01*
X80520000Y-53000227D01*
X80274160Y-53101806D01*
X79773564Y-53601529D01*
X79502309Y-54254782D01*
X79501692Y-54962114D01*
X79771806Y-55615840D01*
X80271529Y-56116436D01*
X80520000Y-56219610D01*
X80520000Y-57752035D01*
X80231096Y-57462627D01*
X79265215Y-57061558D01*
X78219374Y-57060645D01*
X77252793Y-57460028D01*
X76512627Y-58198904D01*
X76111558Y-59164785D01*
X76110645Y-60210626D01*
X76510028Y-61177207D01*
X77248904Y-61917373D01*
X78214785Y-62318442D01*
X79260626Y-62319355D01*
X80227207Y-61919972D01*
X80520000Y-61627689D01*
X80520000Y-72050227D01*
X80274160Y-72151806D01*
X79773564Y-72651529D01*
X79502309Y-73304782D01*
X79501692Y-74012114D01*
X79771806Y-74665840D01*
X80271529Y-75166436D01*
X80520000Y-75269610D01*
X80520000Y-76802035D01*
X80231096Y-76512627D01*
X79265215Y-76111558D01*
X78219374Y-76110645D01*
X77252793Y-76510028D01*
X76512627Y-77248904D01*
X76111558Y-78214785D01*
X76110645Y-79260626D01*
X76510028Y-80227207D01*
X77248904Y-80967373D01*
X78214785Y-81368442D01*
X79260626Y-81369355D01*
X80227207Y-80969972D01*
X80520000Y-80677689D01*
X80520000Y-91100227D01*
X80274160Y-91201806D01*
X79773564Y-91701529D01*
X79502309Y-92354782D01*
X79501692Y-93062114D01*
X79771806Y-93715840D01*
X80271529Y-94216436D01*
X80924782Y-94487691D01*
X81632114Y-94488308D01*
X82285840Y-94218194D01*
X82786436Y-93718471D01*
X83057691Y-93065218D01*
X83058308Y-92357886D01*
X82788194Y-91704160D01*
X82288471Y-91203564D01*
X82040000Y-91100390D01*
X82040000Y-82994500D01*
X88062060Y-82994500D01*
X88062060Y-84645500D01*
X88106338Y-84880817D01*
X88245410Y-85096941D01*
X88457610Y-85241931D01*
X88709500Y-85292940D01*
X90360500Y-85292940D01*
X90595817Y-85248662D01*
X90811941Y-85109590D01*
X90956931Y-84897390D01*
X91007940Y-84645500D01*
X91007940Y-82994500D01*
X90963662Y-82759183D01*
X90824590Y-82543059D01*
X90612390Y-82398069D01*
X90360500Y-82347060D01*
X88709500Y-82347060D01*
X88474183Y-82391338D01*
X88258059Y-82530410D01*
X88113069Y-82742610D01*
X88062060Y-82994500D01*
X82040000Y-82994500D01*
X82040000Y-79034267D01*
X82333842Y-79034267D01*
X82559580Y-79580595D01*
X82977206Y-79998951D01*
X83523139Y-80225642D01*
X84114267Y-80226158D01*
X84660595Y-80000420D01*
X85078951Y-79582794D01*
X85305642Y-79036861D01*
X85305644Y-79034267D01*
X91223842Y-79034267D01*
X91449580Y-79580595D01*
X91867206Y-79998951D01*
X92413139Y-80225642D01*
X93004267Y-80226158D01*
X93550595Y-80000420D01*
X93968951Y-79582794D01*
X94195642Y-79036861D01*
X94196158Y-78445733D01*
X94002903Y-77978021D01*
X94332114Y-77978308D01*
X94985840Y-77708194D01*
X95486436Y-77208471D01*
X95757691Y-76555218D01*
X95758308Y-75847886D01*
X95488194Y-75194160D01*
X94988471Y-74693564D01*
X94335218Y-74422309D01*
X93627886Y-74421692D01*
X92974160Y-74691806D01*
X92473564Y-75191529D01*
X92202309Y-75844782D01*
X92201692Y-76552114D01*
X92471806Y-77205840D01*
X92519815Y-77253933D01*
X92415733Y-77253842D01*
X91869405Y-77479580D01*
X91451049Y-77897206D01*
X91224358Y-78443139D01*
X91223842Y-79034267D01*
X85305644Y-79034267D01*
X85306158Y-78445733D01*
X85080420Y-77899405D01*
X84662794Y-77481049D01*
X84116861Y-77254358D01*
X83525733Y-77253842D01*
X82979405Y-77479580D01*
X82561049Y-77897206D01*
X82334358Y-78443139D01*
X82333842Y-79034267D01*
X82040000Y-79034267D01*
X82040000Y-76489237D01*
X88074247Y-76489237D01*
X88296126Y-77026226D01*
X88706613Y-77437430D01*
X89243214Y-77660246D01*
X89824237Y-77660753D01*
X90361226Y-77438874D01*
X90772430Y-77028387D01*
X90995246Y-76491786D01*
X90995753Y-75910763D01*
X90773874Y-75373774D01*
X90363387Y-74962570D01*
X89826786Y-74739754D01*
X89245763Y-74739247D01*
X88708774Y-74961126D01*
X88297570Y-75371613D01*
X88074754Y-75908214D01*
X88074247Y-76489237D01*
X82040000Y-76489237D01*
X82040000Y-75269773D01*
X82285840Y-75168194D01*
X82786436Y-74668471D01*
X83057691Y-74015218D01*
X83058308Y-73307886D01*
X82788194Y-72654160D01*
X82288471Y-72153564D01*
X82040000Y-72050390D01*
X82040000Y-63944500D01*
X88062060Y-63944500D01*
X88062060Y-65595500D01*
X88106338Y-65830817D01*
X88245410Y-66046941D01*
X88457610Y-66191931D01*
X88709500Y-66242940D01*
X90360500Y-66242940D01*
X90595817Y-66198662D01*
X90811941Y-66059590D01*
X90956931Y-65847390D01*
X91007940Y-65595500D01*
X91007940Y-63944500D01*
X90963662Y-63709183D01*
X90824590Y-63493059D01*
X90612390Y-63348069D01*
X90360500Y-63297060D01*
X88709500Y-63297060D01*
X88474183Y-63341338D01*
X88258059Y-63480410D01*
X88113069Y-63692610D01*
X88062060Y-63944500D01*
X82040000Y-63944500D01*
X82040000Y-59984267D01*
X82333842Y-59984267D01*
X82559580Y-60530595D01*
X82977206Y-60948951D01*
X83523139Y-61175642D01*
X84114267Y-61176158D01*
X84660595Y-60950420D01*
X85078951Y-60532794D01*
X85305642Y-59986861D01*
X85305644Y-59984267D01*
X91223842Y-59984267D01*
X91449580Y-60530595D01*
X91867206Y-60948951D01*
X92413139Y-61175642D01*
X93004267Y-61176158D01*
X93550595Y-60950420D01*
X93968951Y-60532794D01*
X94195642Y-59986861D01*
X94196158Y-59395733D01*
X94002903Y-58928021D01*
X94332114Y-58928308D01*
X94985840Y-58658194D01*
X95486436Y-58158471D01*
X95757691Y-57505218D01*
X95758308Y-56797886D01*
X95488194Y-56144160D01*
X94988471Y-55643564D01*
X94335218Y-55372309D01*
X93627886Y-55371692D01*
X92974160Y-55641806D01*
X92473564Y-56141529D01*
X92202309Y-56794782D01*
X92201692Y-57502114D01*
X92471806Y-58155840D01*
X92519815Y-58203933D01*
X92415733Y-58203842D01*
X91869405Y-58429580D01*
X91451049Y-58847206D01*
X91224358Y-59393139D01*
X91223842Y-59984267D01*
X85305644Y-59984267D01*
X85306158Y-59395733D01*
X85080420Y-58849405D01*
X84662794Y-58431049D01*
X84116861Y-58204358D01*
X83525733Y-58203842D01*
X82979405Y-58429580D01*
X82561049Y-58847206D01*
X82334358Y-59393139D01*
X82333842Y-59984267D01*
X82040000Y-59984267D01*
X82040000Y-57439237D01*
X88074247Y-57439237D01*
X88296126Y-57976226D01*
X88706613Y-58387430D01*
X89243214Y-58610246D01*
X89824237Y-58610753D01*
X90361226Y-58388874D01*
X90772430Y-57978387D01*
X90995246Y-57441786D01*
X90995753Y-56860763D01*
X90773874Y-56323774D01*
X90363387Y-55912570D01*
X89826786Y-55689754D01*
X89245763Y-55689247D01*
X88708774Y-55911126D01*
X88297570Y-56321613D01*
X88074754Y-56858214D01*
X88074247Y-57439237D01*
X82040000Y-57439237D01*
X82040000Y-56219773D01*
X82285840Y-56118194D01*
X82786436Y-55618471D01*
X83057691Y-54965218D01*
X83058308Y-54257886D01*
X82788194Y-53604160D01*
X82288471Y-53103564D01*
X82040000Y-53000390D01*
X82040000Y-44894500D01*
X88062060Y-44894500D01*
X88062060Y-46545500D01*
X88106338Y-46780817D01*
X88245410Y-46996941D01*
X88457610Y-47141931D01*
X88709500Y-47192940D01*
X90360500Y-47192940D01*
X90595817Y-47148662D01*
X90811941Y-47009590D01*
X90956931Y-46797390D01*
X91007940Y-46545500D01*
X91007940Y-44894500D01*
X90963662Y-44659183D01*
X90824590Y-44443059D01*
X90612390Y-44298069D01*
X90360500Y-44247060D01*
X88709500Y-44247060D01*
X88474183Y-44291338D01*
X88258059Y-44430410D01*
X88113069Y-44642610D01*
X88062060Y-44894500D01*
X82040000Y-44894500D01*
X82040000Y-40934267D01*
X82333842Y-40934267D01*
X82559580Y-41480595D01*
X82977206Y-41898951D01*
X83523139Y-42125642D01*
X84114267Y-42126158D01*
X84660595Y-41900420D01*
X85078951Y-41482794D01*
X85305642Y-40936861D01*
X85305644Y-40934267D01*
X91223842Y-40934267D01*
X91449580Y-41480595D01*
X91867206Y-41898951D01*
X92413139Y-42125642D01*
X93004267Y-42126158D01*
X93550595Y-41900420D01*
X93968951Y-41482794D01*
X94195642Y-40936861D01*
X94196158Y-40345733D01*
X94002903Y-39878021D01*
X94332114Y-39878308D01*
X94985840Y-39608194D01*
X95486436Y-39108471D01*
X95757691Y-38455218D01*
X95758308Y-37747886D01*
X95488194Y-37094160D01*
X94988471Y-36593564D01*
X94335218Y-36322309D01*
X93627886Y-36321692D01*
X92974160Y-36591806D01*
X92473564Y-37091529D01*
X92202309Y-37744782D01*
X92201692Y-38452114D01*
X92471806Y-39105840D01*
X92519815Y-39153933D01*
X92415733Y-39153842D01*
X91869405Y-39379580D01*
X91451049Y-39797206D01*
X91224358Y-40343139D01*
X91223842Y-40934267D01*
X85305644Y-40934267D01*
X85306158Y-40345733D01*
X85080420Y-39799405D01*
X84662794Y-39381049D01*
X84116861Y-39154358D01*
X83525733Y-39153842D01*
X82979405Y-39379580D01*
X82561049Y-39797206D01*
X82334358Y-40343139D01*
X82333842Y-40934267D01*
X82040000Y-40934267D01*
X82040000Y-38389237D01*
X88074247Y-38389237D01*
X88296126Y-38926226D01*
X88706613Y-39337430D01*
X89243214Y-39560246D01*
X89824237Y-39560753D01*
X90361226Y-39338874D01*
X90772430Y-38928387D01*
X90995246Y-38391786D01*
X90995753Y-37810763D01*
X90773874Y-37273774D01*
X90363387Y-36862570D01*
X89826786Y-36639754D01*
X89245763Y-36639247D01*
X88708774Y-36861126D01*
X88297570Y-37271613D01*
X88074754Y-37808214D01*
X88074247Y-38389237D01*
X82040000Y-38389237D01*
X82040000Y-37169773D01*
X82285840Y-37068194D01*
X82786436Y-36568471D01*
X83057691Y-35915218D01*
X83058308Y-35207886D01*
X82993897Y-35052000D01*
X98615750Y-35052000D01*
X98552309Y-35204782D01*
X98551692Y-35912114D01*
X98821806Y-36565840D01*
X99321529Y-37066436D01*
X99570000Y-37169610D01*
X99570000Y-38702035D01*
X99281096Y-38412627D01*
X98315215Y-38011558D01*
X97269374Y-38010645D01*
X96302793Y-38410028D01*
X95562627Y-39148904D01*
X95161558Y-40114785D01*
X95160645Y-41160626D01*
X95560028Y-42127207D01*
X96298904Y-42867373D01*
X97264785Y-43268442D01*
X98310626Y-43269355D01*
X99277207Y-42869972D01*
X99570000Y-42577689D01*
X99570000Y-53000227D01*
X99324160Y-53101806D01*
X98823564Y-53601529D01*
X98552309Y-54254782D01*
X98551692Y-54962114D01*
X98821806Y-55615840D01*
X99321529Y-56116436D01*
X99570000Y-56219610D01*
X99570000Y-57752035D01*
X99281096Y-57462627D01*
X98315215Y-57061558D01*
X97269374Y-57060645D01*
X96302793Y-57460028D01*
X95562627Y-58198904D01*
X95161558Y-59164785D01*
X95160645Y-60210626D01*
X95560028Y-61177207D01*
X96298904Y-61917373D01*
X97264785Y-62318442D01*
X98310626Y-62319355D01*
X99277207Y-61919972D01*
X99570000Y-61627689D01*
X99570000Y-72050227D01*
X99324160Y-72151806D01*
X98823564Y-72651529D01*
X98552309Y-73304782D01*
X98551692Y-74012114D01*
X98821806Y-74665840D01*
X99321529Y-75166436D01*
X99570000Y-75269610D01*
X99570000Y-76802035D01*
X99281096Y-76512627D01*
X98315215Y-76111558D01*
X97269374Y-76110645D01*
X96302793Y-76510028D01*
X95562627Y-77248904D01*
X95161558Y-78214785D01*
X95160645Y-79260626D01*
X95560028Y-80227207D01*
X96298904Y-80967373D01*
X97264785Y-81368442D01*
X98310626Y-81369355D01*
X99277207Y-80969972D01*
X99570000Y-80677689D01*
X99570000Y-91100227D01*
X99324160Y-91201806D01*
X98823564Y-91701529D01*
X98552309Y-92354782D01*
X98551692Y-93062114D01*
X98821806Y-93715840D01*
X99321529Y-94216436D01*
X99974782Y-94487691D01*
X100682114Y-94488308D01*
X101335840Y-94218194D01*
X101836436Y-93718471D01*
X102107691Y-93065218D01*
X102108308Y-92357886D01*
X101838194Y-91704160D01*
X101338471Y-91203564D01*
X101090000Y-91100390D01*
X101090000Y-82994500D01*
X107112060Y-82994500D01*
X107112060Y-84645500D01*
X107156338Y-84880817D01*
X107295410Y-85096941D01*
X107507610Y-85241931D01*
X107759500Y-85292940D01*
X109410500Y-85292940D01*
X109645817Y-85248662D01*
X109861941Y-85109590D01*
X110006931Y-84897390D01*
X110057940Y-84645500D01*
X110057940Y-82994500D01*
X110013662Y-82759183D01*
X109874590Y-82543059D01*
X109662390Y-82398069D01*
X109410500Y-82347060D01*
X107759500Y-82347060D01*
X107524183Y-82391338D01*
X107308059Y-82530410D01*
X107163069Y-82742610D01*
X107112060Y-82994500D01*
X101090000Y-82994500D01*
X101090000Y-79034267D01*
X101383842Y-79034267D01*
X101609580Y-79580595D01*
X102027206Y-79998951D01*
X102573139Y-80225642D01*
X103164267Y-80226158D01*
X103710595Y-80000420D01*
X104128951Y-79582794D01*
X104355642Y-79036861D01*
X104355644Y-79034267D01*
X110273842Y-79034267D01*
X110499580Y-79580595D01*
X110917206Y-79998951D01*
X111463139Y-80225642D01*
X112054267Y-80226158D01*
X112600595Y-80000420D01*
X113018951Y-79582794D01*
X113245642Y-79036861D01*
X113246158Y-78445733D01*
X113052903Y-77978021D01*
X113382114Y-77978308D01*
X114035840Y-77708194D01*
X114536436Y-77208471D01*
X114807691Y-76555218D01*
X114808308Y-75847886D01*
X114538194Y-75194160D01*
X114038471Y-74693564D01*
X113385218Y-74422309D01*
X112677886Y-74421692D01*
X112024160Y-74691806D01*
X111523564Y-75191529D01*
X111252309Y-75844782D01*
X111251692Y-76552114D01*
X111521806Y-77205840D01*
X111569815Y-77253933D01*
X111465733Y-77253842D01*
X110919405Y-77479580D01*
X110501049Y-77897206D01*
X110274358Y-78443139D01*
X110273842Y-79034267D01*
X104355644Y-79034267D01*
X104356158Y-78445733D01*
X104130420Y-77899405D01*
X103712794Y-77481049D01*
X103166861Y-77254358D01*
X102575733Y-77253842D01*
X102029405Y-77479580D01*
X101611049Y-77897206D01*
X101384358Y-78443139D01*
X101383842Y-79034267D01*
X101090000Y-79034267D01*
X101090000Y-76489237D01*
X107124247Y-76489237D01*
X107346126Y-77026226D01*
X107756613Y-77437430D01*
X108293214Y-77660246D01*
X108874237Y-77660753D01*
X109411226Y-77438874D01*
X109822430Y-77028387D01*
X110045246Y-76491786D01*
X110045753Y-75910763D01*
X109823874Y-75373774D01*
X109413387Y-74962570D01*
X108876786Y-74739754D01*
X108295763Y-74739247D01*
X107758774Y-74961126D01*
X107347570Y-75371613D01*
X107124754Y-75908214D01*
X107124247Y-76489237D01*
X101090000Y-76489237D01*
X101090000Y-75269773D01*
X101335840Y-75168194D01*
X101836436Y-74668471D01*
X102107691Y-74015218D01*
X102108308Y-73307886D01*
X101838194Y-72654160D01*
X101338471Y-72153564D01*
X101090000Y-72050390D01*
X101090000Y-63944500D01*
X107112060Y-63944500D01*
X107112060Y-65595500D01*
X107156338Y-65830817D01*
X107295410Y-66046941D01*
X107507610Y-66191931D01*
X107759500Y-66242940D01*
X109410500Y-66242940D01*
X109645817Y-66198662D01*
X109861941Y-66059590D01*
X110006931Y-65847390D01*
X110057940Y-65595500D01*
X110057940Y-63944500D01*
X110013662Y-63709183D01*
X109874590Y-63493059D01*
X109662390Y-63348069D01*
X109410500Y-63297060D01*
X107759500Y-63297060D01*
X107524183Y-63341338D01*
X107308059Y-63480410D01*
X107163069Y-63692610D01*
X107112060Y-63944500D01*
X101090000Y-63944500D01*
X101090000Y-59984267D01*
X101383842Y-59984267D01*
X101609580Y-60530595D01*
X102027206Y-60948951D01*
X102573139Y-61175642D01*
X103164267Y-61176158D01*
X103710595Y-60950420D01*
X104128951Y-60532794D01*
X104355642Y-59986861D01*
X104355644Y-59984267D01*
X110273842Y-59984267D01*
X110499580Y-60530595D01*
X110917206Y-60948951D01*
X111463139Y-61175642D01*
X112054267Y-61176158D01*
X112600595Y-60950420D01*
X113018951Y-60532794D01*
X113245642Y-59986861D01*
X113246158Y-59395733D01*
X113052903Y-58928021D01*
X113382114Y-58928308D01*
X114035840Y-58658194D01*
X114536436Y-58158471D01*
X114807691Y-57505218D01*
X114808308Y-56797886D01*
X114538194Y-56144160D01*
X114038471Y-55643564D01*
X113385218Y-55372309D01*
X112677886Y-55371692D01*
X112024160Y-55641806D01*
X111523564Y-56141529D01*
X111252309Y-56794782D01*
X111251692Y-57502114D01*
X111521806Y-58155840D01*
X111569815Y-58203933D01*
X111465733Y-58203842D01*
X110919405Y-58429580D01*
X110501049Y-58847206D01*
X110274358Y-59393139D01*
X110273842Y-59984267D01*
X104355644Y-59984267D01*
X104356158Y-59395733D01*
X104130420Y-58849405D01*
X103712794Y-58431049D01*
X103166861Y-58204358D01*
X102575733Y-58203842D01*
X102029405Y-58429580D01*
X101611049Y-58847206D01*
X101384358Y-59393139D01*
X101383842Y-59984267D01*
X101090000Y-59984267D01*
X101090000Y-57439237D01*
X107124247Y-57439237D01*
X107346126Y-57976226D01*
X107756613Y-58387430D01*
X108293214Y-58610246D01*
X108874237Y-58610753D01*
X109411226Y-58388874D01*
X109822430Y-57978387D01*
X110045246Y-57441786D01*
X110045753Y-56860763D01*
X109823874Y-56323774D01*
X109413387Y-55912570D01*
X108876786Y-55689754D01*
X108295763Y-55689247D01*
X107758774Y-55911126D01*
X107347570Y-56321613D01*
X107124754Y-56858214D01*
X107124247Y-57439237D01*
X101090000Y-57439237D01*
X101090000Y-56219773D01*
X101335840Y-56118194D01*
X101836436Y-55618471D01*
X102107691Y-54965218D01*
X102108308Y-54257886D01*
X101838194Y-53604160D01*
X101338471Y-53103564D01*
X101090000Y-53000390D01*
X101090000Y-44894500D01*
X107112060Y-44894500D01*
X107112060Y-46545500D01*
X107156338Y-46780817D01*
X107295410Y-46996941D01*
X107507610Y-47141931D01*
X107759500Y-47192940D01*
X109410500Y-47192940D01*
X109645817Y-47148662D01*
X109861941Y-47009590D01*
X110006931Y-46797390D01*
X110057940Y-46545500D01*
X110057940Y-44894500D01*
X110013662Y-44659183D01*
X109874590Y-44443059D01*
X109662390Y-44298069D01*
X109410500Y-44247060D01*
X107759500Y-44247060D01*
X107524183Y-44291338D01*
X107308059Y-44430410D01*
X107163069Y-44642610D01*
X107112060Y-44894500D01*
X101090000Y-44894500D01*
X101090000Y-40934267D01*
X101383842Y-40934267D01*
X101609580Y-41480595D01*
X102027206Y-41898951D01*
X102573139Y-42125642D01*
X103164267Y-42126158D01*
X103710595Y-41900420D01*
X104128951Y-41482794D01*
X104355642Y-40936861D01*
X104355644Y-40934267D01*
X110273842Y-40934267D01*
X110499580Y-41480595D01*
X110917206Y-41898951D01*
X111463139Y-42125642D01*
X112054267Y-42126158D01*
X112600595Y-41900420D01*
X113018951Y-41482794D01*
X113245642Y-40936861D01*
X113246158Y-40345733D01*
X113052903Y-39878021D01*
X113382114Y-39878308D01*
X114035840Y-39608194D01*
X114536436Y-39108471D01*
X114807691Y-38455218D01*
X114808308Y-37747886D01*
X114538194Y-37094160D01*
X114038471Y-36593564D01*
X113385218Y-36322309D01*
X112677886Y-36321692D01*
X112024160Y-36591806D01*
X111523564Y-37091529D01*
X111252309Y-37744782D01*
X111251692Y-38452114D01*
X111521806Y-39105840D01*
X111569815Y-39153933D01*
X111465733Y-39153842D01*
X110919405Y-39379580D01*
X110501049Y-39797206D01*
X110274358Y-40343139D01*
X110273842Y-40934267D01*
X104355644Y-40934267D01*
X104356158Y-40345733D01*
X104130420Y-39799405D01*
X103712794Y-39381049D01*
X103166861Y-39154358D01*
X102575733Y-39153842D01*
X102029405Y-39379580D01*
X101611049Y-39797206D01*
X101384358Y-40343139D01*
X101383842Y-40934267D01*
X101090000Y-40934267D01*
X101090000Y-38389237D01*
X107124247Y-38389237D01*
X107346126Y-38926226D01*
X107756613Y-39337430D01*
X108293214Y-39560246D01*
X108874237Y-39560753D01*
X109411226Y-39338874D01*
X109822430Y-38928387D01*
X110045246Y-38391786D01*
X110045753Y-37810763D01*
X109823874Y-37273774D01*
X109413387Y-36862570D01*
X108876786Y-36639754D01*
X108295763Y-36639247D01*
X107758774Y-36861126D01*
X107347570Y-37271613D01*
X107124754Y-37808214D01*
X107124247Y-38389237D01*
X101090000Y-38389237D01*
X101090000Y-37169773D01*
X101335840Y-37068194D01*
X101836436Y-36568471D01*
X102107691Y-35915218D01*
X102108308Y-35207886D01*
X102043897Y-35052000D01*
X117665750Y-35052000D01*
X117602309Y-35204782D01*
X117601692Y-35912114D01*
X117871806Y-36565840D01*
X118371529Y-37066436D01*
X118620000Y-37169610D01*
X118620000Y-38702035D01*
X118331096Y-38412627D01*
X117365215Y-38011558D01*
X116319374Y-38010645D01*
X115352793Y-38410028D01*
X114612627Y-39148904D01*
X114211558Y-40114785D01*
X114210645Y-41160626D01*
X114610028Y-42127207D01*
X115348904Y-42867373D01*
X116314785Y-43268442D01*
X117360626Y-43269355D01*
X118327207Y-42869972D01*
X118620000Y-42577689D01*
X118620000Y-53000227D01*
X118374160Y-53101806D01*
X117873564Y-53601529D01*
X117602309Y-54254782D01*
X117601692Y-54962114D01*
X117871806Y-55615840D01*
X118371529Y-56116436D01*
X118620000Y-56219610D01*
X118620000Y-57752035D01*
X118331096Y-57462627D01*
X117365215Y-57061558D01*
X116319374Y-57060645D01*
X115352793Y-57460028D01*
X114612627Y-58198904D01*
X114211558Y-59164785D01*
X114210645Y-60210626D01*
X114610028Y-61177207D01*
X115348904Y-61917373D01*
X116314785Y-62318442D01*
X117360626Y-62319355D01*
X118327207Y-61919972D01*
X118620000Y-61627689D01*
X118620000Y-72050227D01*
X118374160Y-72151806D01*
X117873564Y-72651529D01*
X117602309Y-73304782D01*
X117601692Y-74012114D01*
X117871806Y-74665840D01*
X118371529Y-75166436D01*
X118620000Y-75269610D01*
X118620000Y-76802035D01*
X118331096Y-76512627D01*
X117365215Y-76111558D01*
X116319374Y-76110645D01*
X115352793Y-76510028D01*
X114612627Y-77248904D01*
X114211558Y-78214785D01*
X114210645Y-79260626D01*
X114610028Y-80227207D01*
X115348904Y-80967373D01*
X116314785Y-81368442D01*
X117360626Y-81369355D01*
X118327207Y-80969972D01*
X118620000Y-80677689D01*
X118620000Y-91100227D01*
X118374160Y-91201806D01*
X117873564Y-91701529D01*
X117602309Y-92354782D01*
X117601692Y-93062114D01*
X117871806Y-93715840D01*
X118371529Y-94216436D01*
X119024782Y-94487691D01*
X119732114Y-94488308D01*
X120385840Y-94218194D01*
X120886436Y-93718471D01*
X121157691Y-93065218D01*
X121158308Y-92357886D01*
X120888194Y-91704160D01*
X120388471Y-91203564D01*
X120140000Y-91100390D01*
X120140000Y-82994500D01*
X126162060Y-82994500D01*
X126162060Y-84645500D01*
X126206338Y-84880817D01*
X126345410Y-85096941D01*
X126557610Y-85241931D01*
X126809500Y-85292940D01*
X128460500Y-85292940D01*
X128695817Y-85248662D01*
X128911941Y-85109590D01*
X129056931Y-84897390D01*
X129107940Y-84645500D01*
X129107940Y-82994500D01*
X129063662Y-82759183D01*
X128924590Y-82543059D01*
X128712390Y-82398069D01*
X128460500Y-82347060D01*
X126809500Y-82347060D01*
X126574183Y-82391338D01*
X126358059Y-82530410D01*
X126213069Y-82742610D01*
X126162060Y-82994500D01*
X120140000Y-82994500D01*
X120140000Y-79034267D01*
X120433842Y-79034267D01*
X120659580Y-79580595D01*
X121077206Y-79998951D01*
X121623139Y-80225642D01*
X122214267Y-80226158D01*
X122760595Y-80000420D01*
X123178951Y-79582794D01*
X123405642Y-79036861D01*
X123405644Y-79034267D01*
X129323842Y-79034267D01*
X129549580Y-79580595D01*
X129967206Y-79998951D01*
X130513139Y-80225642D01*
X131104267Y-80226158D01*
X131650595Y-80000420D01*
X132068951Y-79582794D01*
X132295642Y-79036861D01*
X132296158Y-78445733D01*
X132102903Y-77978021D01*
X132432114Y-77978308D01*
X133085840Y-77708194D01*
X133586436Y-77208471D01*
X133857691Y-76555218D01*
X133858308Y-75847886D01*
X133588194Y-75194160D01*
X133088471Y-74693564D01*
X132435218Y-74422309D01*
X131727886Y-74421692D01*
X131074160Y-74691806D01*
X130573564Y-75191529D01*
X130302309Y-75844782D01*
X130301692Y-76552114D01*
X130571806Y-77205840D01*
X130619815Y-77253933D01*
X130515733Y-77253842D01*
X129969405Y-77479580D01*
X129551049Y-77897206D01*
X129324358Y-78443139D01*
X129323842Y-79034267D01*
X123405644Y-79034267D01*
X123406158Y-78445733D01*
X123180420Y-77899405D01*
X122762794Y-77481049D01*
X122216861Y-77254358D01*
X121625733Y-77253842D01*
X121079405Y-77479580D01*
X120661049Y-77897206D01*
X120434358Y-78443139D01*
X120433842Y-79034267D01*
X120140000Y-79034267D01*
X120140000Y-76489237D01*
X126174247Y-76489237D01*
X126396126Y-77026226D01*
X126806613Y-77437430D01*
X127343214Y-77660246D01*
X127924237Y-77660753D01*
X128461226Y-77438874D01*
X128872430Y-77028387D01*
X129095246Y-76491786D01*
X129095753Y-75910763D01*
X128873874Y-75373774D01*
X128463387Y-74962570D01*
X127926786Y-74739754D01*
X127345763Y-74739247D01*
X126808774Y-74961126D01*
X126397570Y-75371613D01*
X126174754Y-75908214D01*
X126174247Y-76489237D01*
X120140000Y-76489237D01*
X120140000Y-75269773D01*
X120385840Y-75168194D01*
X120886436Y-74668471D01*
X121157691Y-74015218D01*
X121158308Y-73307886D01*
X120888194Y-72654160D01*
X120388471Y-72153564D01*
X120140000Y-72050390D01*
X120140000Y-63944500D01*
X126162060Y-63944500D01*
X126162060Y-65595500D01*
X126206338Y-65830817D01*
X126345410Y-66046941D01*
X126557610Y-66191931D01*
X126809500Y-66242940D01*
X128460500Y-66242940D01*
X128695817Y-66198662D01*
X128911941Y-66059590D01*
X129056931Y-65847390D01*
X129107940Y-65595500D01*
X129107940Y-63944500D01*
X129063662Y-63709183D01*
X128924590Y-63493059D01*
X128712390Y-63348069D01*
X128460500Y-63297060D01*
X126809500Y-63297060D01*
X126574183Y-63341338D01*
X126358059Y-63480410D01*
X126213069Y-63692610D01*
X126162060Y-63944500D01*
X120140000Y-63944500D01*
X120140000Y-59984267D01*
X120433842Y-59984267D01*
X120659580Y-60530595D01*
X121077206Y-60948951D01*
X121623139Y-61175642D01*
X122214267Y-61176158D01*
X122760595Y-60950420D01*
X123178951Y-60532794D01*
X123405642Y-59986861D01*
X123405644Y-59984267D01*
X129323842Y-59984267D01*
X129549580Y-60530595D01*
X129967206Y-60948951D01*
X130513139Y-61175642D01*
X131104267Y-61176158D01*
X131650595Y-60950420D01*
X132068951Y-60532794D01*
X132295642Y-59986861D01*
X132296158Y-59395733D01*
X132102903Y-58928021D01*
X132432114Y-58928308D01*
X133085840Y-58658194D01*
X133586436Y-58158471D01*
X133857691Y-57505218D01*
X133858308Y-56797886D01*
X133588194Y-56144160D01*
X133088471Y-55643564D01*
X132435218Y-55372309D01*
X131727886Y-55371692D01*
X131074160Y-55641806D01*
X130573564Y-56141529D01*
X130302309Y-56794782D01*
X130301692Y-57502114D01*
X130571806Y-58155840D01*
X130619815Y-58203933D01*
X130515733Y-58203842D01*
X129969405Y-58429580D01*
X129551049Y-58847206D01*
X129324358Y-59393139D01*
X129323842Y-59984267D01*
X123405644Y-59984267D01*
X123406158Y-59395733D01*
X123180420Y-58849405D01*
X122762794Y-58431049D01*
X122216861Y-58204358D01*
X121625733Y-58203842D01*
X121079405Y-58429580D01*
X120661049Y-58847206D01*
X120434358Y-59393139D01*
X120433842Y-59984267D01*
X120140000Y-59984267D01*
X120140000Y-57439237D01*
X126174247Y-57439237D01*
X126396126Y-57976226D01*
X126806613Y-58387430D01*
X127343214Y-58610246D01*
X127924237Y-58610753D01*
X128461226Y-58388874D01*
X128872430Y-57978387D01*
X129095246Y-57441786D01*
X129095753Y-56860763D01*
X128873874Y-56323774D01*
X128463387Y-55912570D01*
X127926786Y-55689754D01*
X127345763Y-55689247D01*
X126808774Y-55911126D01*
X126397570Y-56321613D01*
X126174754Y-56858214D01*
X126174247Y-57439237D01*
X120140000Y-57439237D01*
X120140000Y-56219773D01*
X120385840Y-56118194D01*
X120886436Y-55618471D01*
X121157691Y-54965218D01*
X121158308Y-54257886D01*
X120888194Y-53604160D01*
X120388471Y-53103564D01*
X120140000Y-53000390D01*
X120140000Y-48450500D01*
X122733060Y-48450500D01*
X122733060Y-50101500D01*
X122777338Y-50336817D01*
X122916410Y-50552941D01*
X123128610Y-50697931D01*
X123380500Y-50748940D01*
X125031500Y-50748940D01*
X125266817Y-50704662D01*
X125482941Y-50565590D01*
X125627931Y-50353390D01*
X125678940Y-50101500D01*
X125678940Y-48450500D01*
X125634662Y-48215183D01*
X125495590Y-47999059D01*
X125283390Y-47854069D01*
X125031500Y-47803060D01*
X123380500Y-47803060D01*
X123145183Y-47847338D01*
X122929059Y-47986410D01*
X122784069Y-48198610D01*
X122733060Y-48450500D01*
X120140000Y-48450500D01*
X120140000Y-48404103D01*
X120209201Y-48432838D01*
X120581167Y-48433162D01*
X120924943Y-48291117D01*
X121188192Y-48028327D01*
X121330838Y-47684799D01*
X121331162Y-47312833D01*
X121189117Y-46969057D01*
X121156000Y-46935882D01*
X121156000Y-42541201D01*
X123246404Y-42541201D01*
X123329904Y-42795227D01*
X123894797Y-43001082D01*
X124495468Y-42975091D01*
X124929696Y-42795227D01*
X125013196Y-42541201D01*
X124129800Y-41657805D01*
X123246404Y-42541201D01*
X121156000Y-42541201D01*
X121156000Y-41931669D01*
X121623139Y-42125642D01*
X122214267Y-42126158D01*
X122671570Y-41937204D01*
X122812773Y-42278096D01*
X123066799Y-42361596D01*
X123950195Y-41478200D01*
X124309405Y-41478200D01*
X125192801Y-42361596D01*
X125446827Y-42278096D01*
X125652682Y-41713203D01*
X125626691Y-41112532D01*
X125446827Y-40678304D01*
X125192801Y-40594804D01*
X124309405Y-41478200D01*
X123950195Y-41478200D01*
X123936053Y-41464058D01*
X124115658Y-41284453D01*
X124129800Y-41298595D01*
X125013196Y-40415199D01*
X124929696Y-40161173D01*
X124364803Y-39955318D01*
X123764132Y-39981309D01*
X123329904Y-40161173D01*
X123329902Y-40161179D01*
X123180420Y-39799405D01*
X122762794Y-39381049D01*
X122216861Y-39154358D01*
X121625733Y-39153842D01*
X121156000Y-39347932D01*
X121156000Y-38603244D01*
X124599504Y-38603244D01*
X124771219Y-39018827D01*
X125088900Y-39337063D01*
X125504183Y-39509503D01*
X125953844Y-39509896D01*
X126369427Y-39338181D01*
X126687663Y-39020500D01*
X126860103Y-38605217D01*
X126860496Y-38155556D01*
X126688781Y-37739973D01*
X126371100Y-37421737D01*
X125955817Y-37249297D01*
X125506156Y-37248904D01*
X125090573Y-37420619D01*
X124772337Y-37738300D01*
X124599897Y-38153583D01*
X124599504Y-38603244D01*
X121156000Y-38603244D01*
X121156000Y-37906802D01*
X121619201Y-37443601D01*
X121783948Y-37197039D01*
X121841800Y-36906200D01*
X121841800Y-35052000D01*
X129618200Y-35052000D01*
X129618200Y-35178200D01*
X129676052Y-35469039D01*
X129840799Y-35715601D01*
X130362599Y-36237401D01*
X130609161Y-36402148D01*
X130900000Y-36460000D01*
X131393155Y-36460000D01*
X131074160Y-36591806D01*
X130573564Y-37091529D01*
X130459891Y-37365284D01*
X130194000Y-37098929D01*
X129638735Y-36868363D01*
X129037503Y-36867838D01*
X128481836Y-37097435D01*
X128056329Y-37522200D01*
X127825763Y-38077465D01*
X127825238Y-38678697D01*
X128054835Y-39234364D01*
X128479600Y-39659871D01*
X129034865Y-39890437D01*
X129512163Y-39890854D01*
X129324358Y-40343139D01*
X129323842Y-40934267D01*
X129549580Y-41480595D01*
X129967206Y-41898951D01*
X130513139Y-42125642D01*
X131104267Y-42126158D01*
X131650595Y-41900420D01*
X132068951Y-41482794D01*
X132240000Y-41070862D01*
X132240000Y-47866502D01*
X132117786Y-47815754D01*
X131536763Y-47815247D01*
X130999774Y-48037126D01*
X130588570Y-48447613D01*
X130365754Y-48984214D01*
X130365247Y-49565237D01*
X130587126Y-50102226D01*
X130997613Y-50513430D01*
X131534214Y-50736246D01*
X132115237Y-50736753D01*
X132652226Y-50514874D01*
X133063430Y-50104387D01*
X133286246Y-49567786D01*
X133286426Y-49361228D01*
X133434115Y-49508917D01*
X133365794Y-49673453D01*
X133365226Y-50323694D01*
X133613538Y-50924655D01*
X134072927Y-51384846D01*
X134673453Y-51634206D01*
X135323694Y-51634774D01*
X135924655Y-51386462D01*
X136384846Y-50927073D01*
X136634206Y-50326547D01*
X136634774Y-49676306D01*
X136386462Y-49075345D01*
X135927073Y-48615154D01*
X135326547Y-48365794D01*
X134676306Y-48365226D01*
X134509111Y-48434309D01*
X133760000Y-47685198D01*
X133760000Y-42227354D01*
X134398904Y-42867373D01*
X135364785Y-43268442D01*
X136410626Y-43269355D01*
X137377207Y-42869972D01*
X137670000Y-42577689D01*
X137670000Y-53000227D01*
X137424160Y-53101806D01*
X136923564Y-53601529D01*
X136652309Y-54254782D01*
X136651692Y-54962114D01*
X136921806Y-55615840D01*
X137421529Y-56116436D01*
X137670000Y-56219610D01*
X137670000Y-57752035D01*
X137381096Y-57462627D01*
X136415215Y-57061558D01*
X135369374Y-57060645D01*
X134402793Y-57460028D01*
X133662627Y-58198904D01*
X133261558Y-59164785D01*
X133260645Y-60210626D01*
X133660028Y-61177207D01*
X134398904Y-61917373D01*
X135364785Y-62318442D01*
X136410626Y-62319355D01*
X137377207Y-61919972D01*
X137670000Y-61627689D01*
X137670000Y-72050227D01*
X137424160Y-72151806D01*
X136923564Y-72651529D01*
X136652309Y-73304782D01*
X136651692Y-74012114D01*
X136921806Y-74665840D01*
X137421529Y-75166436D01*
X137670000Y-75269610D01*
X137670000Y-76802035D01*
X137381096Y-76512627D01*
X136415215Y-76111558D01*
X135369374Y-76110645D01*
X134402793Y-76510028D01*
X133662627Y-77248904D01*
X133261558Y-78214785D01*
X133260645Y-79260626D01*
X133660028Y-80227207D01*
X134398904Y-80967373D01*
X135364785Y-81368442D01*
X136410626Y-81369355D01*
X137377207Y-80969972D01*
X137670000Y-80677689D01*
X137670000Y-91100227D01*
X137424160Y-91201806D01*
X136923564Y-91701529D01*
X136652309Y-92354782D01*
X136651692Y-93062114D01*
X136921806Y-93715840D01*
X137421529Y-94216436D01*
X138074782Y-94487691D01*
X138782114Y-94488308D01*
X139435840Y-94218194D01*
X139936436Y-93718471D01*
X140207691Y-93065218D01*
X140208308Y-92357886D01*
X139938194Y-91704160D01*
X139438471Y-91203564D01*
X139190000Y-91100390D01*
X139190000Y-75269773D01*
X139435840Y-75168194D01*
X139936436Y-74668471D01*
X140207691Y-74015218D01*
X140208308Y-73307886D01*
X139938194Y-72654160D01*
X139438471Y-72153564D01*
X139190000Y-72050390D01*
X139190000Y-56219773D01*
X139435840Y-56118194D01*
X139936436Y-55618471D01*
X140207691Y-54965218D01*
X140208308Y-54257886D01*
X139938194Y-53604160D01*
X139438471Y-53103564D01*
X139190000Y-53000390D01*
X139190000Y-37169773D01*
X139435840Y-37068194D01*
X139936436Y-36568471D01*
X140207691Y-35915218D01*
X140208308Y-35207886D01*
X140143897Y-35052000D01*
X140895000Y-35052000D01*
X140895000Y-39154033D01*
X140675733Y-39153842D01*
X140129405Y-39379580D01*
X139711049Y-39797206D01*
X139484358Y-40343139D01*
X139483842Y-40934267D01*
X139709580Y-41480595D01*
X140127206Y-41898951D01*
X140673139Y-42125642D01*
X140895000Y-42125836D01*
X140895000Y-58204033D01*
X140675733Y-58203842D01*
X140129405Y-58429580D01*
X139711049Y-58847206D01*
X139484358Y-59393139D01*
X139483842Y-59984267D01*
X139709580Y-60530595D01*
X140127206Y-60948951D01*
X140673139Y-61175642D01*
X140895000Y-61175836D01*
X140895000Y-77254033D01*
X140675733Y-77253842D01*
X140129405Y-77479580D01*
X139711049Y-77897206D01*
X139484358Y-78443139D01*
X139483842Y-79034267D01*
X139709580Y-79580595D01*
X140127206Y-79998951D01*
X140673139Y-80225642D01*
X140895000Y-80225836D01*
X140895000Y-96304033D01*
X140675733Y-96303842D01*
X140129405Y-96529580D01*
X139711049Y-96947206D01*
X139484358Y-97493139D01*
X139483842Y-98084267D01*
X139709580Y-98630595D01*
X140127206Y-99048951D01*
X140673139Y-99275642D01*
X140895000Y-99275836D01*
X140895000Y-103378000D01*
X129107940Y-103378000D01*
X129107940Y-102044500D01*
X129063662Y-101809183D01*
X128924590Y-101593059D01*
X128712390Y-101448069D01*
X128460500Y-101397060D01*
X126809500Y-101397060D01*
X126574183Y-101441338D01*
X126358059Y-101580410D01*
X126213069Y-101792610D01*
X126162060Y-102044500D01*
X126162060Y-103378000D01*
X110057940Y-103378000D01*
X110057940Y-102044500D01*
X110013662Y-101809183D01*
X109874590Y-101593059D01*
X109662390Y-101448069D01*
X109410500Y-101397060D01*
X107759500Y-101397060D01*
X107524183Y-101441338D01*
X107308059Y-101580410D01*
X107163069Y-101792610D01*
X107112060Y-102044500D01*
X107112060Y-103378000D01*
X91007940Y-103378000D01*
X91007940Y-102044500D01*
X90963662Y-101809183D01*
X90824590Y-101593059D01*
X90612390Y-101448069D01*
X90360500Y-101397060D01*
X88709500Y-101397060D01*
X88474183Y-101441338D01*
X88258059Y-101580410D01*
X88113069Y-101792610D01*
X88062060Y-102044500D01*
X88062060Y-103378000D01*
X71957940Y-103378000D01*
X71957940Y-102044500D01*
X71913662Y-101809183D01*
X71774590Y-101593059D01*
X71562390Y-101448069D01*
X71310500Y-101397060D01*
X70086862Y-101397060D01*
X68705000Y-100015198D01*
X68705000Y-98084267D01*
X72173842Y-98084267D01*
X72399580Y-98630595D01*
X72817206Y-99048951D01*
X73363139Y-99275642D01*
X73954267Y-99276158D01*
X74500595Y-99050420D01*
X74918951Y-98632794D01*
X75052726Y-98310626D01*
X76110645Y-98310626D01*
X76510028Y-99277207D01*
X77248904Y-100017373D01*
X78214785Y-100418442D01*
X79260626Y-100419355D01*
X80227207Y-100019972D01*
X80967373Y-99281096D01*
X81368442Y-98315215D01*
X81368643Y-98084267D01*
X82333842Y-98084267D01*
X82559580Y-98630595D01*
X82977206Y-99048951D01*
X83523139Y-99275642D01*
X84114267Y-99276158D01*
X84660595Y-99050420D01*
X85078951Y-98632794D01*
X85305642Y-98086861D01*
X85305644Y-98084267D01*
X91223842Y-98084267D01*
X91449580Y-98630595D01*
X91867206Y-99048951D01*
X92413139Y-99275642D01*
X93004267Y-99276158D01*
X93550595Y-99050420D01*
X93968951Y-98632794D01*
X94102726Y-98310626D01*
X95160645Y-98310626D01*
X95560028Y-99277207D01*
X96298904Y-100017373D01*
X97264785Y-100418442D01*
X98310626Y-100419355D01*
X99277207Y-100019972D01*
X100017373Y-99281096D01*
X100418442Y-98315215D01*
X100418643Y-98084267D01*
X101383842Y-98084267D01*
X101609580Y-98630595D01*
X102027206Y-99048951D01*
X102573139Y-99275642D01*
X103164267Y-99276158D01*
X103710595Y-99050420D01*
X104128951Y-98632794D01*
X104355642Y-98086861D01*
X104355644Y-98084267D01*
X110273842Y-98084267D01*
X110499580Y-98630595D01*
X110917206Y-99048951D01*
X111463139Y-99275642D01*
X112054267Y-99276158D01*
X112600595Y-99050420D01*
X113018951Y-98632794D01*
X113152726Y-98310626D01*
X114210645Y-98310626D01*
X114610028Y-99277207D01*
X115348904Y-100017373D01*
X116314785Y-100418442D01*
X117360626Y-100419355D01*
X118327207Y-100019972D01*
X119067373Y-99281096D01*
X119468442Y-98315215D01*
X119468643Y-98084267D01*
X120433842Y-98084267D01*
X120659580Y-98630595D01*
X121077206Y-99048951D01*
X121623139Y-99275642D01*
X122214267Y-99276158D01*
X122760595Y-99050420D01*
X123178951Y-98632794D01*
X123405642Y-98086861D01*
X123405644Y-98084267D01*
X129323842Y-98084267D01*
X129549580Y-98630595D01*
X129967206Y-99048951D01*
X130513139Y-99275642D01*
X131104267Y-99276158D01*
X131650595Y-99050420D01*
X132068951Y-98632794D01*
X132202726Y-98310626D01*
X133260645Y-98310626D01*
X133660028Y-99277207D01*
X134398904Y-100017373D01*
X135364785Y-100418442D01*
X136410626Y-100419355D01*
X137377207Y-100019972D01*
X138117373Y-99281096D01*
X138518442Y-98315215D01*
X138519355Y-97269374D01*
X138119972Y-96302793D01*
X137381096Y-95562627D01*
X136415215Y-95161558D01*
X135369374Y-95160645D01*
X134402793Y-95560028D01*
X133662627Y-96298904D01*
X133261558Y-97264785D01*
X133260645Y-98310626D01*
X132202726Y-98310626D01*
X132295642Y-98086861D01*
X132296158Y-97495733D01*
X132102903Y-97028021D01*
X132432114Y-97028308D01*
X133085840Y-96758194D01*
X133586436Y-96258471D01*
X133857691Y-95605218D01*
X133858308Y-94897886D01*
X133588194Y-94244160D01*
X133088471Y-93743564D01*
X132435218Y-93472309D01*
X131727886Y-93471692D01*
X131074160Y-93741806D01*
X130573564Y-94241529D01*
X130302309Y-94894782D01*
X130301692Y-95602114D01*
X130571806Y-96255840D01*
X130619815Y-96303933D01*
X130515733Y-96303842D01*
X129969405Y-96529580D01*
X129551049Y-96947206D01*
X129324358Y-97493139D01*
X129323842Y-98084267D01*
X123405644Y-98084267D01*
X123406158Y-97495733D01*
X123180420Y-96949405D01*
X122762794Y-96531049D01*
X122216861Y-96304358D01*
X121625733Y-96303842D01*
X121079405Y-96529580D01*
X120661049Y-96947206D01*
X120434358Y-97493139D01*
X120433842Y-98084267D01*
X119468643Y-98084267D01*
X119469355Y-97269374D01*
X119069972Y-96302793D01*
X118331096Y-95562627D01*
X118274767Y-95539237D01*
X126174247Y-95539237D01*
X126396126Y-96076226D01*
X126806613Y-96487430D01*
X127343214Y-96710246D01*
X127924237Y-96710753D01*
X128461226Y-96488874D01*
X128872430Y-96078387D01*
X129095246Y-95541786D01*
X129095753Y-94960763D01*
X128873874Y-94423774D01*
X128463387Y-94012570D01*
X127926786Y-93789754D01*
X127345763Y-93789247D01*
X126808774Y-94011126D01*
X126397570Y-94421613D01*
X126174754Y-94958214D01*
X126174247Y-95539237D01*
X118274767Y-95539237D01*
X117365215Y-95161558D01*
X116319374Y-95160645D01*
X115352793Y-95560028D01*
X114612627Y-96298904D01*
X114211558Y-97264785D01*
X114210645Y-98310626D01*
X113152726Y-98310626D01*
X113245642Y-98086861D01*
X113246158Y-97495733D01*
X113052903Y-97028021D01*
X113382114Y-97028308D01*
X114035840Y-96758194D01*
X114536436Y-96258471D01*
X114807691Y-95605218D01*
X114808308Y-94897886D01*
X114538194Y-94244160D01*
X114038471Y-93743564D01*
X113385218Y-93472309D01*
X112677886Y-93471692D01*
X112024160Y-93741806D01*
X111523564Y-94241529D01*
X111252309Y-94894782D01*
X111251692Y-95602114D01*
X111521806Y-96255840D01*
X111569815Y-96303933D01*
X111465733Y-96303842D01*
X110919405Y-96529580D01*
X110501049Y-96947206D01*
X110274358Y-97493139D01*
X110273842Y-98084267D01*
X104355644Y-98084267D01*
X104356158Y-97495733D01*
X104130420Y-96949405D01*
X103712794Y-96531049D01*
X103166861Y-96304358D01*
X102575733Y-96303842D01*
X102029405Y-96529580D01*
X101611049Y-96947206D01*
X101384358Y-97493139D01*
X101383842Y-98084267D01*
X100418643Y-98084267D01*
X100419355Y-97269374D01*
X100019972Y-96302793D01*
X99281096Y-95562627D01*
X99224767Y-95539237D01*
X107124247Y-95539237D01*
X107346126Y-96076226D01*
X107756613Y-96487430D01*
X108293214Y-96710246D01*
X108874237Y-96710753D01*
X109411226Y-96488874D01*
X109822430Y-96078387D01*
X110045246Y-95541786D01*
X110045753Y-94960763D01*
X109823874Y-94423774D01*
X109413387Y-94012570D01*
X108876786Y-93789754D01*
X108295763Y-93789247D01*
X107758774Y-94011126D01*
X107347570Y-94421613D01*
X107124754Y-94958214D01*
X107124247Y-95539237D01*
X99224767Y-95539237D01*
X98315215Y-95161558D01*
X97269374Y-95160645D01*
X96302793Y-95560028D01*
X95562627Y-96298904D01*
X95161558Y-97264785D01*
X95160645Y-98310626D01*
X94102726Y-98310626D01*
X94195642Y-98086861D01*
X94196158Y-97495733D01*
X94002903Y-97028021D01*
X94332114Y-97028308D01*
X94985840Y-96758194D01*
X95486436Y-96258471D01*
X95757691Y-95605218D01*
X95758308Y-94897886D01*
X95488194Y-94244160D01*
X94988471Y-93743564D01*
X94335218Y-93472309D01*
X93627886Y-93471692D01*
X92974160Y-93741806D01*
X92473564Y-94241529D01*
X92202309Y-94894782D01*
X92201692Y-95602114D01*
X92471806Y-96255840D01*
X92519815Y-96303933D01*
X92415733Y-96303842D01*
X91869405Y-96529580D01*
X91451049Y-96947206D01*
X91224358Y-97493139D01*
X91223842Y-98084267D01*
X85305644Y-98084267D01*
X85306158Y-97495733D01*
X85080420Y-96949405D01*
X84662794Y-96531049D01*
X84116861Y-96304358D01*
X83525733Y-96303842D01*
X82979405Y-96529580D01*
X82561049Y-96947206D01*
X82334358Y-97493139D01*
X82333842Y-98084267D01*
X81368643Y-98084267D01*
X81369355Y-97269374D01*
X80969972Y-96302793D01*
X80231096Y-95562627D01*
X80174767Y-95539237D01*
X88074247Y-95539237D01*
X88296126Y-96076226D01*
X88706613Y-96487430D01*
X89243214Y-96710246D01*
X89824237Y-96710753D01*
X90361226Y-96488874D01*
X90772430Y-96078387D01*
X90995246Y-95541786D01*
X90995753Y-94960763D01*
X90773874Y-94423774D01*
X90363387Y-94012570D01*
X89826786Y-93789754D01*
X89245763Y-93789247D01*
X88708774Y-94011126D01*
X88297570Y-94421613D01*
X88074754Y-94958214D01*
X88074247Y-95539237D01*
X80174767Y-95539237D01*
X79265215Y-95161558D01*
X78219374Y-95160645D01*
X77252793Y-95560028D01*
X76512627Y-96298904D01*
X76111558Y-97264785D01*
X76110645Y-98310626D01*
X75052726Y-98310626D01*
X75145642Y-98086861D01*
X75146158Y-97495733D01*
X74952903Y-97028021D01*
X75282114Y-97028308D01*
X75935840Y-96758194D01*
X76436436Y-96258471D01*
X76707691Y-95605218D01*
X76708308Y-94897886D01*
X76438194Y-94244160D01*
X75938471Y-93743564D01*
X75285218Y-93472309D01*
X74577886Y-93471692D01*
X73924160Y-93741806D01*
X73423564Y-94241529D01*
X73152309Y-94894782D01*
X73151692Y-95602114D01*
X73421806Y-96255840D01*
X73469815Y-96303933D01*
X73365733Y-96303842D01*
X72819405Y-96529580D01*
X72401049Y-96947206D01*
X72174358Y-97493139D01*
X72173842Y-98084267D01*
X68705000Y-98084267D01*
X68705000Y-95539237D01*
X69024247Y-95539237D01*
X69246126Y-96076226D01*
X69656613Y-96487430D01*
X70193214Y-96710246D01*
X70774237Y-96710753D01*
X71311226Y-96488874D01*
X71722430Y-96078387D01*
X71945246Y-95541786D01*
X71945753Y-94960763D01*
X71723874Y-94423774D01*
X71313387Y-94012570D01*
X70776786Y-93789754D01*
X70195763Y-93789247D01*
X69658774Y-94011126D01*
X69247570Y-94421613D01*
X69024754Y-94958214D01*
X69024247Y-95539237D01*
X68705000Y-95539237D01*
X68705000Y-77399802D01*
X69725000Y-78419802D01*
X69725000Y-82347060D01*
X69659500Y-82347060D01*
X69424183Y-82391338D01*
X69208059Y-82530410D01*
X69063069Y-82742610D01*
X69012060Y-82994500D01*
X69012060Y-84645500D01*
X69056338Y-84880817D01*
X69195410Y-85096941D01*
X69407610Y-85241931D01*
X69659500Y-85292940D01*
X71310500Y-85292940D01*
X71545817Y-85248662D01*
X71761941Y-85109590D01*
X71906931Y-84897390D01*
X71957940Y-84645500D01*
X71957940Y-82994500D01*
X71913662Y-82759183D01*
X71774590Y-82543059D01*
X71562390Y-82398069D01*
X71310500Y-82347060D01*
X71245000Y-82347060D01*
X71245000Y-79034267D01*
X72173842Y-79034267D01*
X72399580Y-79580595D01*
X72817206Y-79998951D01*
X73363139Y-80225642D01*
X73954267Y-80226158D01*
X74500595Y-80000420D01*
X74918951Y-79582794D01*
X75145642Y-79036861D01*
X75146158Y-78445733D01*
X74952903Y-77978021D01*
X75282114Y-77978308D01*
X75935840Y-77708194D01*
X76436436Y-77208471D01*
X76707691Y-76555218D01*
X76708308Y-75847886D01*
X76438194Y-75194160D01*
X75938471Y-74693564D01*
X75285218Y-74422309D01*
X74577886Y-74421692D01*
X73924160Y-74691806D01*
X73423564Y-75191529D01*
X73152309Y-75844782D01*
X73151692Y-76552114D01*
X73421806Y-77205840D01*
X73469815Y-77253933D01*
X73365733Y-77253842D01*
X72819405Y-77479580D01*
X72401049Y-77897206D01*
X72174358Y-78443139D01*
X72173842Y-79034267D01*
X71245000Y-79034267D01*
X71245000Y-78105000D01*
X71219799Y-77978308D01*
X71187148Y-77814160D01*
X71022401Y-77567599D01*
X71015760Y-77560958D01*
X71311226Y-77438874D01*
X71722430Y-77028387D01*
X71945246Y-76491786D01*
X71945753Y-75910763D01*
X71723874Y-75373774D01*
X71313387Y-74962570D01*
X70776786Y-74739754D01*
X70195763Y-74739247D01*
X69975000Y-74830464D01*
X69975000Y-68925368D01*
X70171201Y-69006838D01*
X70543167Y-69007162D01*
X70886943Y-68865117D01*
X71150192Y-68602327D01*
X71292838Y-68258799D01*
X71293162Y-67886833D01*
X71245000Y-67770272D01*
X71245000Y-66242940D01*
X71310500Y-66242940D01*
X71545817Y-66198662D01*
X71761941Y-66059590D01*
X71906931Y-65847390D01*
X71957940Y-65595500D01*
X71957940Y-63944500D01*
X71913662Y-63709183D01*
X71774590Y-63493059D01*
X71562390Y-63348069D01*
X71310500Y-63297060D01*
X69659500Y-63297060D01*
X69424183Y-63341338D01*
X69208059Y-63480410D01*
X69063069Y-63692610D01*
X69012060Y-63944500D01*
X69012060Y-65397258D01*
X67356143Y-63741341D01*
X67609297Y-63741562D01*
X68164964Y-63511965D01*
X68590471Y-63087200D01*
X68630832Y-62990000D01*
X70485000Y-62990000D01*
X70775839Y-62932148D01*
X71022401Y-62767401D01*
X72833913Y-60955889D01*
X73363139Y-61175642D01*
X73954267Y-61176158D01*
X74500595Y-60950420D01*
X74918951Y-60532794D01*
X75145642Y-59986861D01*
X75146158Y-59395733D01*
X74952903Y-58928021D01*
X75282114Y-58928308D01*
X75935840Y-58658194D01*
X76436436Y-58158471D01*
X76707691Y-57505218D01*
X76708308Y-56797886D01*
X76438194Y-56144160D01*
X75938471Y-55643564D01*
X75285218Y-55372309D01*
X74577886Y-55371692D01*
X73924160Y-55641806D01*
X73423564Y-56141529D01*
X73152309Y-56794782D01*
X73151692Y-57502114D01*
X73421806Y-58155840D01*
X73469815Y-58203933D01*
X73365733Y-58203842D01*
X73150000Y-58292981D01*
X73150000Y-47625000D01*
X73092148Y-47334161D01*
X72927401Y-47087599D01*
X71957940Y-46118138D01*
X71957940Y-44894500D01*
X71913662Y-44659183D01*
X71774590Y-44443059D01*
X71562390Y-44298069D01*
X71310500Y-44247060D01*
X69659500Y-44247060D01*
X69424183Y-44291338D01*
X69208059Y-44430410D01*
X69063069Y-44642610D01*
X69012060Y-44894500D01*
X69012060Y-46545500D01*
X69056338Y-46780817D01*
X69195410Y-46996941D01*
X69407610Y-47141931D01*
X69659500Y-47192940D01*
X70883138Y-47192940D01*
X71630000Y-47939802D01*
X71630000Y-56229736D01*
X71313387Y-55912570D01*
X70776786Y-55689754D01*
X70195763Y-55689247D01*
X69658774Y-55911126D01*
X69247570Y-56321613D01*
X69024754Y-56858214D01*
X69024247Y-57439237D01*
X69246126Y-57976226D01*
X69656613Y-58387430D01*
X70193214Y-58610246D01*
X70774237Y-58610753D01*
X71311226Y-58388874D01*
X71630000Y-58070656D01*
X71630000Y-60010198D01*
X70170198Y-61470000D01*
X68631203Y-61470000D01*
X68591965Y-61375036D01*
X68177302Y-60959649D01*
X68590471Y-60547200D01*
X68821037Y-59991935D01*
X68821562Y-59390703D01*
X68591965Y-58835036D01*
X68177302Y-58419649D01*
X68590471Y-58007200D01*
X68821037Y-57451935D01*
X68821562Y-56850703D01*
X68591965Y-56295036D01*
X68177302Y-55879649D01*
X68590471Y-55467200D01*
X68821037Y-54911935D01*
X68821562Y-54310703D01*
X68591965Y-53755036D01*
X68177302Y-53339649D01*
X68590471Y-52927200D01*
X68821037Y-52371935D01*
X68821562Y-51770703D01*
X68591965Y-51215036D01*
X68177302Y-50799649D01*
X68590471Y-50387200D01*
X68821037Y-49831935D01*
X68821562Y-49230703D01*
X68591965Y-48675036D01*
X68177302Y-48259649D01*
X68590471Y-47847200D01*
X68821037Y-47291935D01*
X68821562Y-46690703D01*
X68591965Y-46135036D01*
X68177302Y-45719649D01*
X68590471Y-45307200D01*
X68821037Y-44751935D01*
X68821562Y-44150703D01*
X68591965Y-43595036D01*
X68177302Y-43179649D01*
X68590471Y-42767200D01*
X68821037Y-42211935D01*
X68821562Y-41610703D01*
X68591965Y-41055036D01*
X68471407Y-40934267D01*
X72173842Y-40934267D01*
X72399580Y-41480595D01*
X72817206Y-41898951D01*
X73363139Y-42125642D01*
X73954267Y-42126158D01*
X74500595Y-41900420D01*
X74918951Y-41482794D01*
X75145642Y-40936861D01*
X75146158Y-40345733D01*
X74952903Y-39878021D01*
X75282114Y-39878308D01*
X75935840Y-39608194D01*
X76436436Y-39108471D01*
X76707691Y-38455218D01*
X76708308Y-37747886D01*
X76438194Y-37094160D01*
X75938471Y-36593564D01*
X75285218Y-36322309D01*
X74577886Y-36321692D01*
X73924160Y-36591806D01*
X73423564Y-37091529D01*
X73152309Y-37744782D01*
X73151692Y-38452114D01*
X73421806Y-39105840D01*
X73469815Y-39153933D01*
X73365733Y-39153842D01*
X72819405Y-39379580D01*
X72401049Y-39797206D01*
X72174358Y-40343139D01*
X72173842Y-40934267D01*
X68471407Y-40934267D01*
X68177302Y-40639649D01*
X68590471Y-40227200D01*
X68821037Y-39671935D01*
X68821562Y-39070703D01*
X68591965Y-38515036D01*
X68466386Y-38389237D01*
X69024247Y-38389237D01*
X69246126Y-38926226D01*
X69656613Y-39337430D01*
X70193214Y-39560246D01*
X70774237Y-39560753D01*
X71311226Y-39338874D01*
X71722430Y-38928387D01*
X71945246Y-38391786D01*
X71945753Y-37810763D01*
X71723874Y-37273774D01*
X71313387Y-36862570D01*
X70776786Y-36639754D01*
X70195763Y-36639247D01*
X69658774Y-36861126D01*
X69247570Y-37271613D01*
X69024754Y-37808214D01*
X69024247Y-38389237D01*
X68466386Y-38389237D01*
X68167200Y-38089529D01*
X68133408Y-38075497D01*
X68193396Y-37893001D01*
X67310000Y-37009605D01*
X66426604Y-37893001D01*
X66486447Y-38075056D01*
X66455036Y-38088035D01*
X66029529Y-38512800D01*
X65798963Y-39068065D01*
X65798527Y-39567107D01*
X65612794Y-39381049D01*
X65066861Y-39154358D01*
X64475733Y-39153842D01*
X63929405Y-39379580D01*
X63511049Y-39797206D01*
X63284358Y-40343139D01*
X63283842Y-40934267D01*
X63509580Y-41480595D01*
X63927206Y-41898951D01*
X64473139Y-42125642D01*
X65064267Y-42126158D01*
X65610595Y-41900420D01*
X65798872Y-41712472D01*
X65798438Y-42209297D01*
X66028035Y-42764964D01*
X66442698Y-43180351D01*
X66029529Y-43592800D01*
X65798963Y-44148065D01*
X65798438Y-44749297D01*
X66028035Y-45304964D01*
X66442698Y-45720351D01*
X66029529Y-46132800D01*
X65798963Y-46688065D01*
X65798438Y-47289297D01*
X66028035Y-47844964D01*
X66442698Y-48260351D01*
X66029529Y-48672800D01*
X65798963Y-49228065D01*
X65798438Y-49829297D01*
X66028035Y-50384964D01*
X66442698Y-50800351D01*
X66029529Y-51212800D01*
X65798963Y-51768065D01*
X65798438Y-52369297D01*
X66028035Y-52924964D01*
X66442698Y-53340351D01*
X66029529Y-53752800D01*
X65798963Y-54308065D01*
X65798438Y-54909297D01*
X65838630Y-55006568D01*
X62990000Y-57855198D01*
X62990000Y-56219773D01*
X63235840Y-56118194D01*
X63736436Y-55618471D01*
X64007691Y-54965218D01*
X64008308Y-54257886D01*
X63738194Y-53604160D01*
X63238471Y-53103564D01*
X62585218Y-52832309D01*
X61877886Y-52831692D01*
X61629235Y-52934433D01*
X58957401Y-50262599D01*
X58710839Y-50097852D01*
X58420000Y-50040000D01*
X53904802Y-50040000D01*
X58559680Y-45385122D01*
X58605167Y-45385162D01*
X58948943Y-45243117D01*
X59212192Y-44980327D01*
X59354838Y-44636799D01*
X59355162Y-44264833D01*
X59213117Y-43921057D01*
X58950327Y-43657808D01*
X58606799Y-43515162D01*
X58234833Y-43514838D01*
X57891057Y-43656883D01*
X57627808Y-43919673D01*
X57485162Y-44263201D01*
X57485121Y-44310077D01*
X53236165Y-48559033D01*
X52937302Y-48259649D01*
X53350471Y-47847200D01*
X53581037Y-47291935D01*
X53581562Y-46690703D01*
X53541370Y-46593432D01*
X56417401Y-43717401D01*
X56582148Y-43470839D01*
X56640000Y-43180000D01*
X56640000Y-40954802D01*
X57061192Y-40533610D01*
X57060645Y-41160626D01*
X57460028Y-42127207D01*
X58198904Y-42867373D01*
X59164785Y-43268442D01*
X60210626Y-43269355D01*
X61177207Y-42869972D01*
X61917373Y-42131096D01*
X62318442Y-41165215D01*
X62319355Y-40119374D01*
X61919972Y-39152793D01*
X61181096Y-38412627D01*
X60215215Y-38011558D01*
X59583795Y-38011007D01*
X60875250Y-36719552D01*
X61221529Y-37066436D01*
X61874782Y-37337691D01*
X62582114Y-37338308D01*
X63235840Y-37068194D01*
X63709863Y-36594997D01*
X65787118Y-36594997D01*
X65813109Y-37195668D01*
X65992973Y-37629896D01*
X66246999Y-37713396D01*
X67130395Y-36830000D01*
X67489605Y-36830000D01*
X68373001Y-37713396D01*
X68627027Y-37629896D01*
X68832882Y-37065003D01*
X68806891Y-36464332D01*
X68627027Y-36030104D01*
X68373001Y-35946604D01*
X67489605Y-36830000D01*
X67130395Y-36830000D01*
X66246999Y-35946604D01*
X65992973Y-36030104D01*
X65787118Y-36594997D01*
X63709863Y-36594997D01*
X63736436Y-36568471D01*
X64007691Y-35915218D01*
X64008308Y-35207886D01*
X63943897Y-35052000D01*
X65989623Y-35052000D01*
X66028035Y-35144964D01*
X66028035Y-35144964D01*
G37*
X66028035Y-35144964D02*
X66452800Y-35570471D01*
X66486592Y-35584503D01*
X66426604Y-35766999D01*
X67310000Y-36650395D01*
X68193396Y-35766999D01*
X68133553Y-35584944D01*
X68164964Y-35571965D01*
X68590471Y-35147200D01*
X68630001Y-35052000D01*
X79565750Y-35052000D01*
X79502309Y-35204782D01*
X79501692Y-35912114D01*
X79771806Y-36565840D01*
X80271529Y-37066436D01*
X80520000Y-37169610D01*
X80520000Y-38702035D01*
X80231096Y-38412627D01*
X79265215Y-38011558D01*
X78219374Y-38010645D01*
X77252793Y-38410028D01*
X76512627Y-39148904D01*
X76111558Y-40114785D01*
X76110645Y-41160626D01*
X76510028Y-42127207D01*
X77248904Y-42867373D01*
X78214785Y-43268442D01*
X79260626Y-43269355D01*
X80227207Y-42869972D01*
X80520000Y-42577689D01*
X80520000Y-53000227D01*
X80274160Y-53101806D01*
X79773564Y-53601529D01*
X79502309Y-54254782D01*
X79501692Y-54962114D01*
X79771806Y-55615840D01*
X80271529Y-56116436D01*
X80520000Y-56219610D01*
X80520000Y-57752035D01*
X80231096Y-57462627D01*
X79265215Y-57061558D01*
X78219374Y-57060645D01*
X77252793Y-57460028D01*
X76512627Y-58198904D01*
X76111558Y-59164785D01*
X76110645Y-60210626D01*
X76510028Y-61177207D01*
X77248904Y-61917373D01*
X78214785Y-62318442D01*
X79260626Y-62319355D01*
X80227207Y-61919972D01*
X80520000Y-61627689D01*
X80520000Y-72050227D01*
X80274160Y-72151806D01*
X79773564Y-72651529D01*
X79502309Y-73304782D01*
X79501692Y-74012114D01*
X79771806Y-74665840D01*
X80271529Y-75166436D01*
X80520000Y-75269610D01*
X80520000Y-76802035D01*
X80231096Y-76512627D01*
X79265215Y-76111558D01*
X78219374Y-76110645D01*
X77252793Y-76510028D01*
X76512627Y-77248904D01*
X76111558Y-78214785D01*
X76110645Y-79260626D01*
X76510028Y-80227207D01*
X77248904Y-80967373D01*
X78214785Y-81368442D01*
X79260626Y-81369355D01*
X80227207Y-80969972D01*
X80520000Y-80677689D01*
X80520000Y-91100227D01*
X80274160Y-91201806D01*
X79773564Y-91701529D01*
X79502309Y-92354782D01*
X79501692Y-93062114D01*
X79771806Y-93715840D01*
X80271529Y-94216436D01*
X80924782Y-94487691D01*
X81632114Y-94488308D01*
X82285840Y-94218194D01*
X82786436Y-93718471D01*
X83057691Y-93065218D01*
X83058308Y-92357886D01*
X82788194Y-91704160D01*
X82288471Y-91203564D01*
X82040000Y-91100390D01*
X82040000Y-82994500D01*
X88062060Y-82994500D01*
X88062060Y-84645500D01*
X88106338Y-84880817D01*
X88245410Y-85096941D01*
X88457610Y-85241931D01*
X88709500Y-85292940D01*
X90360500Y-85292940D01*
X90595817Y-85248662D01*
X90811941Y-85109590D01*
X90956931Y-84897390D01*
X91007940Y-84645500D01*
X91007940Y-82994500D01*
X90963662Y-82759183D01*
X90824590Y-82543059D01*
X90612390Y-82398069D01*
X90360500Y-82347060D01*
X88709500Y-82347060D01*
X88474183Y-82391338D01*
X88258059Y-82530410D01*
X88113069Y-82742610D01*
X88062060Y-82994500D01*
X82040000Y-82994500D01*
X82040000Y-79034267D01*
X82333842Y-79034267D01*
X82559580Y-79580595D01*
X82977206Y-79998951D01*
X83523139Y-80225642D01*
X84114267Y-80226158D01*
X84660595Y-80000420D01*
X85078951Y-79582794D01*
X85305642Y-79036861D01*
X85305644Y-79034267D01*
X91223842Y-79034267D01*
X91449580Y-79580595D01*
X91867206Y-79998951D01*
X92413139Y-80225642D01*
X93004267Y-80226158D01*
X93550595Y-80000420D01*
X93968951Y-79582794D01*
X94195642Y-79036861D01*
X94196158Y-78445733D01*
X94002903Y-77978021D01*
X94332114Y-77978308D01*
X94985840Y-77708194D01*
X95486436Y-77208471D01*
X95757691Y-76555218D01*
X95758308Y-75847886D01*
X95488194Y-75194160D01*
X94988471Y-74693564D01*
X94335218Y-74422309D01*
X93627886Y-74421692D01*
X92974160Y-74691806D01*
X92473564Y-75191529D01*
X92202309Y-75844782D01*
X92201692Y-76552114D01*
X92471806Y-77205840D01*
X92519815Y-77253933D01*
X92415733Y-77253842D01*
X91869405Y-77479580D01*
X91451049Y-77897206D01*
X91224358Y-78443139D01*
X91223842Y-79034267D01*
X85305644Y-79034267D01*
X85306158Y-78445733D01*
X85080420Y-77899405D01*
X84662794Y-77481049D01*
X84116861Y-77254358D01*
X83525733Y-77253842D01*
X82979405Y-77479580D01*
X82561049Y-77897206D01*
X82334358Y-78443139D01*
X82333842Y-79034267D01*
X82040000Y-79034267D01*
X82040000Y-76489237D01*
X88074247Y-76489237D01*
X88296126Y-77026226D01*
X88706613Y-77437430D01*
X89243214Y-77660246D01*
X89824237Y-77660753D01*
X90361226Y-77438874D01*
X90772430Y-77028387D01*
X90995246Y-76491786D01*
X90995753Y-75910763D01*
X90773874Y-75373774D01*
X90363387Y-74962570D01*
X89826786Y-74739754D01*
X89245763Y-74739247D01*
X88708774Y-74961126D01*
X88297570Y-75371613D01*
X88074754Y-75908214D01*
X88074247Y-76489237D01*
X82040000Y-76489237D01*
X82040000Y-75269773D01*
X82285840Y-75168194D01*
X82786436Y-74668471D01*
X83057691Y-74015218D01*
X83058308Y-73307886D01*
X82788194Y-72654160D01*
X82288471Y-72153564D01*
X82040000Y-72050390D01*
X82040000Y-63944500D01*
X88062060Y-63944500D01*
X88062060Y-65595500D01*
X88106338Y-65830817D01*
X88245410Y-66046941D01*
X88457610Y-66191931D01*
X88709500Y-66242940D01*
X90360500Y-66242940D01*
X90595817Y-66198662D01*
X90811941Y-66059590D01*
X90956931Y-65847390D01*
X91007940Y-65595500D01*
X91007940Y-63944500D01*
X90963662Y-63709183D01*
X90824590Y-63493059D01*
X90612390Y-63348069D01*
X90360500Y-63297060D01*
X88709500Y-63297060D01*
X88474183Y-63341338D01*
X88258059Y-63480410D01*
X88113069Y-63692610D01*
X88062060Y-63944500D01*
X82040000Y-63944500D01*
X82040000Y-59984267D01*
X82333842Y-59984267D01*
X82559580Y-60530595D01*
X82977206Y-60948951D01*
X83523139Y-61175642D01*
X84114267Y-61176158D01*
X84660595Y-60950420D01*
X85078951Y-60532794D01*
X85305642Y-59986861D01*
X85305644Y-59984267D01*
X91223842Y-59984267D01*
X91449580Y-60530595D01*
X91867206Y-60948951D01*
X92413139Y-61175642D01*
X93004267Y-61176158D01*
X93550595Y-60950420D01*
X93968951Y-60532794D01*
X94195642Y-59986861D01*
X94196158Y-59395733D01*
X94002903Y-58928021D01*
X94332114Y-58928308D01*
X94985840Y-58658194D01*
X95486436Y-58158471D01*
X95757691Y-57505218D01*
X95758308Y-56797886D01*
X95488194Y-56144160D01*
X94988471Y-55643564D01*
X94335218Y-55372309D01*
X93627886Y-55371692D01*
X92974160Y-55641806D01*
X92473564Y-56141529D01*
X92202309Y-56794782D01*
X92201692Y-57502114D01*
X92471806Y-58155840D01*
X92519815Y-58203933D01*
X92415733Y-58203842D01*
X91869405Y-58429580D01*
X91451049Y-58847206D01*
X91224358Y-59393139D01*
X91223842Y-59984267D01*
X85305644Y-59984267D01*
X85306158Y-59395733D01*
X85080420Y-58849405D01*
X84662794Y-58431049D01*
X84116861Y-58204358D01*
X83525733Y-58203842D01*
X82979405Y-58429580D01*
X82561049Y-58847206D01*
X82334358Y-59393139D01*
X82333842Y-59984267D01*
X82040000Y-59984267D01*
X82040000Y-57439237D01*
X88074247Y-57439237D01*
X88296126Y-57976226D01*
X88706613Y-58387430D01*
X89243214Y-58610246D01*
X89824237Y-58610753D01*
X90361226Y-58388874D01*
X90772430Y-57978387D01*
X90995246Y-57441786D01*
X90995753Y-56860763D01*
X90773874Y-56323774D01*
X90363387Y-55912570D01*
X89826786Y-55689754D01*
X89245763Y-55689247D01*
X88708774Y-55911126D01*
X88297570Y-56321613D01*
X88074754Y-56858214D01*
X88074247Y-57439237D01*
X82040000Y-57439237D01*
X82040000Y-56219773D01*
X82285840Y-56118194D01*
X82786436Y-55618471D01*
X83057691Y-54965218D01*
X83058308Y-54257886D01*
X82788194Y-53604160D01*
X82288471Y-53103564D01*
X82040000Y-53000390D01*
X82040000Y-44894500D01*
X88062060Y-44894500D01*
X88062060Y-46545500D01*
X88106338Y-46780817D01*
X88245410Y-46996941D01*
X88457610Y-47141931D01*
X88709500Y-47192940D01*
X90360500Y-47192940D01*
X90595817Y-47148662D01*
X90811941Y-47009590D01*
X90956931Y-46797390D01*
X91007940Y-46545500D01*
X91007940Y-44894500D01*
X90963662Y-44659183D01*
X90824590Y-44443059D01*
X90612390Y-44298069D01*
X90360500Y-44247060D01*
X88709500Y-44247060D01*
X88474183Y-44291338D01*
X88258059Y-44430410D01*
X88113069Y-44642610D01*
X88062060Y-44894500D01*
X82040000Y-44894500D01*
X82040000Y-40934267D01*
X82333842Y-40934267D01*
X82559580Y-41480595D01*
X82977206Y-41898951D01*
X83523139Y-42125642D01*
X84114267Y-42126158D01*
X84660595Y-41900420D01*
X85078951Y-41482794D01*
X85305642Y-40936861D01*
X85305644Y-40934267D01*
X91223842Y-40934267D01*
X91449580Y-41480595D01*
X91867206Y-41898951D01*
X92413139Y-42125642D01*
X93004267Y-42126158D01*
X93550595Y-41900420D01*
X93968951Y-41482794D01*
X94195642Y-40936861D01*
X94196158Y-40345733D01*
X94002903Y-39878021D01*
X94332114Y-39878308D01*
X94985840Y-39608194D01*
X95486436Y-39108471D01*
X95757691Y-38455218D01*
X95758308Y-37747886D01*
X95488194Y-37094160D01*
X94988471Y-36593564D01*
X94335218Y-36322309D01*
X93627886Y-36321692D01*
X92974160Y-36591806D01*
X92473564Y-37091529D01*
X92202309Y-37744782D01*
X92201692Y-38452114D01*
X92471806Y-39105840D01*
X92519815Y-39153933D01*
X92415733Y-39153842D01*
X91869405Y-39379580D01*
X91451049Y-39797206D01*
X91224358Y-40343139D01*
X91223842Y-40934267D01*
X85305644Y-40934267D01*
X85306158Y-40345733D01*
X85080420Y-39799405D01*
X84662794Y-39381049D01*
X84116861Y-39154358D01*
X83525733Y-39153842D01*
X82979405Y-39379580D01*
X82561049Y-39797206D01*
X82334358Y-40343139D01*
X82333842Y-40934267D01*
X82040000Y-40934267D01*
X82040000Y-38389237D01*
X88074247Y-38389237D01*
X88296126Y-38926226D01*
X88706613Y-39337430D01*
X89243214Y-39560246D01*
X89824237Y-39560753D01*
X90361226Y-39338874D01*
X90772430Y-38928387D01*
X90995246Y-38391786D01*
X90995753Y-37810763D01*
X90773874Y-37273774D01*
X90363387Y-36862570D01*
X89826786Y-36639754D01*
X89245763Y-36639247D01*
X88708774Y-36861126D01*
X88297570Y-37271613D01*
X88074754Y-37808214D01*
X88074247Y-38389237D01*
X82040000Y-38389237D01*
X82040000Y-37169773D01*
X82285840Y-37068194D01*
X82786436Y-36568471D01*
X83057691Y-35915218D01*
X83058308Y-35207886D01*
X82993897Y-35052000D01*
X98615750Y-35052000D01*
X98552309Y-35204782D01*
X98551692Y-35912114D01*
X98821806Y-36565840D01*
X99321529Y-37066436D01*
X99570000Y-37169610D01*
X99570000Y-38702035D01*
X99281096Y-38412627D01*
X98315215Y-38011558D01*
X97269374Y-38010645D01*
X96302793Y-38410028D01*
X95562627Y-39148904D01*
X95161558Y-40114785D01*
X95160645Y-41160626D01*
X95560028Y-42127207D01*
X96298904Y-42867373D01*
X97264785Y-43268442D01*
X98310626Y-43269355D01*
X99277207Y-42869972D01*
X99570000Y-42577689D01*
X99570000Y-53000227D01*
X99324160Y-53101806D01*
X98823564Y-53601529D01*
X98552309Y-54254782D01*
X98551692Y-54962114D01*
X98821806Y-55615840D01*
X99321529Y-56116436D01*
X99570000Y-56219610D01*
X99570000Y-57752035D01*
X99281096Y-57462627D01*
X98315215Y-57061558D01*
X97269374Y-57060645D01*
X96302793Y-57460028D01*
X95562627Y-58198904D01*
X95161558Y-59164785D01*
X95160645Y-60210626D01*
X95560028Y-61177207D01*
X96298904Y-61917373D01*
X97264785Y-62318442D01*
X98310626Y-62319355D01*
X99277207Y-61919972D01*
X99570000Y-61627689D01*
X99570000Y-72050227D01*
X99324160Y-72151806D01*
X98823564Y-72651529D01*
X98552309Y-73304782D01*
X98551692Y-74012114D01*
X98821806Y-74665840D01*
X99321529Y-75166436D01*
X99570000Y-75269610D01*
X99570000Y-76802035D01*
X99281096Y-76512627D01*
X98315215Y-76111558D01*
X97269374Y-76110645D01*
X96302793Y-76510028D01*
X95562627Y-77248904D01*
X95161558Y-78214785D01*
X95160645Y-79260626D01*
X95560028Y-80227207D01*
X96298904Y-80967373D01*
X97264785Y-81368442D01*
X98310626Y-81369355D01*
X99277207Y-80969972D01*
X99570000Y-80677689D01*
X99570000Y-91100227D01*
X99324160Y-91201806D01*
X98823564Y-91701529D01*
X98552309Y-92354782D01*
X98551692Y-93062114D01*
X98821806Y-93715840D01*
X99321529Y-94216436D01*
X99974782Y-94487691D01*
X100682114Y-94488308D01*
X101335840Y-94218194D01*
X101836436Y-93718471D01*
X102107691Y-93065218D01*
X102108308Y-92357886D01*
X101838194Y-91704160D01*
X101338471Y-91203564D01*
X101090000Y-91100390D01*
X101090000Y-82994500D01*
X107112060Y-82994500D01*
X107112060Y-84645500D01*
X107156338Y-84880817D01*
X107295410Y-85096941D01*
X107507610Y-85241931D01*
X107759500Y-85292940D01*
X109410500Y-85292940D01*
X109645817Y-85248662D01*
X109861941Y-85109590D01*
X110006931Y-84897390D01*
X110057940Y-84645500D01*
X110057940Y-82994500D01*
X110013662Y-82759183D01*
X109874590Y-82543059D01*
X109662390Y-82398069D01*
X109410500Y-82347060D01*
X107759500Y-82347060D01*
X107524183Y-82391338D01*
X107308059Y-82530410D01*
X107163069Y-82742610D01*
X107112060Y-82994500D01*
X101090000Y-82994500D01*
X101090000Y-79034267D01*
X101383842Y-79034267D01*
X101609580Y-79580595D01*
X102027206Y-79998951D01*
X102573139Y-80225642D01*
X103164267Y-80226158D01*
X103710595Y-80000420D01*
X104128951Y-79582794D01*
X104355642Y-79036861D01*
X104355644Y-79034267D01*
X110273842Y-79034267D01*
X110499580Y-79580595D01*
X110917206Y-79998951D01*
X111463139Y-80225642D01*
X112054267Y-80226158D01*
X112600595Y-80000420D01*
X113018951Y-79582794D01*
X113245642Y-79036861D01*
X113246158Y-78445733D01*
X113052903Y-77978021D01*
X113382114Y-77978308D01*
X114035840Y-77708194D01*
X114536436Y-77208471D01*
X114807691Y-76555218D01*
X114808308Y-75847886D01*
X114538194Y-75194160D01*
X114038471Y-74693564D01*
X113385218Y-74422309D01*
X112677886Y-74421692D01*
X112024160Y-74691806D01*
X111523564Y-75191529D01*
X111252309Y-75844782D01*
X111251692Y-76552114D01*
X111521806Y-77205840D01*
X111569815Y-77253933D01*
X111465733Y-77253842D01*
X110919405Y-77479580D01*
X110501049Y-77897206D01*
X110274358Y-78443139D01*
X110273842Y-79034267D01*
X104355644Y-79034267D01*
X104356158Y-78445733D01*
X104130420Y-77899405D01*
X103712794Y-77481049D01*
X103166861Y-77254358D01*
X102575733Y-77253842D01*
X102029405Y-77479580D01*
X101611049Y-77897206D01*
X101384358Y-78443139D01*
X101383842Y-79034267D01*
X101090000Y-79034267D01*
X101090000Y-76489237D01*
X107124247Y-76489237D01*
X107346126Y-77026226D01*
X107756613Y-77437430D01*
X108293214Y-77660246D01*
X108874237Y-77660753D01*
X109411226Y-77438874D01*
X109822430Y-77028387D01*
X110045246Y-76491786D01*
X110045753Y-75910763D01*
X109823874Y-75373774D01*
X109413387Y-74962570D01*
X108876786Y-74739754D01*
X108295763Y-74739247D01*
X107758774Y-74961126D01*
X107347570Y-75371613D01*
X107124754Y-75908214D01*
X107124247Y-76489237D01*
X101090000Y-76489237D01*
X101090000Y-75269773D01*
X101335840Y-75168194D01*
X101836436Y-74668471D01*
X102107691Y-74015218D01*
X102108308Y-73307886D01*
X101838194Y-72654160D01*
X101338471Y-72153564D01*
X101090000Y-72050390D01*
X101090000Y-63944500D01*
X107112060Y-63944500D01*
X107112060Y-65595500D01*
X107156338Y-65830817D01*
X107295410Y-66046941D01*
X107507610Y-66191931D01*
X107759500Y-66242940D01*
X109410500Y-66242940D01*
X109645817Y-66198662D01*
X109861941Y-66059590D01*
X110006931Y-65847390D01*
X110057940Y-65595500D01*
X110057940Y-63944500D01*
X110013662Y-63709183D01*
X109874590Y-63493059D01*
X109662390Y-63348069D01*
X109410500Y-63297060D01*
X107759500Y-63297060D01*
X107524183Y-63341338D01*
X107308059Y-63480410D01*
X107163069Y-63692610D01*
X107112060Y-63944500D01*
X101090000Y-63944500D01*
X101090000Y-59984267D01*
X101383842Y-59984267D01*
X101609580Y-60530595D01*
X102027206Y-60948951D01*
X102573139Y-61175642D01*
X103164267Y-61176158D01*
X103710595Y-60950420D01*
X104128951Y-60532794D01*
X104355642Y-59986861D01*
X104355644Y-59984267D01*
X110273842Y-59984267D01*
X110499580Y-60530595D01*
X110917206Y-60948951D01*
X111463139Y-61175642D01*
X112054267Y-61176158D01*
X112600595Y-60950420D01*
X113018951Y-60532794D01*
X113245642Y-59986861D01*
X113246158Y-59395733D01*
X113052903Y-58928021D01*
X113382114Y-58928308D01*
X114035840Y-58658194D01*
X114536436Y-58158471D01*
X114807691Y-57505218D01*
X114808308Y-56797886D01*
X114538194Y-56144160D01*
X114038471Y-55643564D01*
X113385218Y-55372309D01*
X112677886Y-55371692D01*
X112024160Y-55641806D01*
X111523564Y-56141529D01*
X111252309Y-56794782D01*
X111251692Y-57502114D01*
X111521806Y-58155840D01*
X111569815Y-58203933D01*
X111465733Y-58203842D01*
X110919405Y-58429580D01*
X110501049Y-58847206D01*
X110274358Y-59393139D01*
X110273842Y-59984267D01*
X104355644Y-59984267D01*
X104356158Y-59395733D01*
X104130420Y-58849405D01*
X103712794Y-58431049D01*
X103166861Y-58204358D01*
X102575733Y-58203842D01*
X102029405Y-58429580D01*
X101611049Y-58847206D01*
X101384358Y-59393139D01*
X101383842Y-59984267D01*
X101090000Y-59984267D01*
X101090000Y-57439237D01*
X107124247Y-57439237D01*
X107346126Y-57976226D01*
X107756613Y-58387430D01*
X108293214Y-58610246D01*
X108874237Y-58610753D01*
X109411226Y-58388874D01*
X109822430Y-57978387D01*
X110045246Y-57441786D01*
X110045753Y-56860763D01*
X109823874Y-56323774D01*
X109413387Y-55912570D01*
X108876786Y-55689754D01*
X108295763Y-55689247D01*
X107758774Y-55911126D01*
X107347570Y-56321613D01*
X107124754Y-56858214D01*
X107124247Y-57439237D01*
X101090000Y-57439237D01*
X101090000Y-56219773D01*
X101335840Y-56118194D01*
X101836436Y-55618471D01*
X102107691Y-54965218D01*
X102108308Y-54257886D01*
X101838194Y-53604160D01*
X101338471Y-53103564D01*
X101090000Y-53000390D01*
X101090000Y-44894500D01*
X107112060Y-44894500D01*
X107112060Y-46545500D01*
X107156338Y-46780817D01*
X107295410Y-46996941D01*
X107507610Y-47141931D01*
X107759500Y-47192940D01*
X109410500Y-47192940D01*
X109645817Y-47148662D01*
X109861941Y-47009590D01*
X110006931Y-46797390D01*
X110057940Y-46545500D01*
X110057940Y-44894500D01*
X110013662Y-44659183D01*
X109874590Y-44443059D01*
X109662390Y-44298069D01*
X109410500Y-44247060D01*
X107759500Y-44247060D01*
X107524183Y-44291338D01*
X107308059Y-44430410D01*
X107163069Y-44642610D01*
X107112060Y-44894500D01*
X101090000Y-44894500D01*
X101090000Y-40934267D01*
X101383842Y-40934267D01*
X101609580Y-41480595D01*
X102027206Y-41898951D01*
X102573139Y-42125642D01*
X103164267Y-42126158D01*
X103710595Y-41900420D01*
X104128951Y-41482794D01*
X104355642Y-40936861D01*
X104355644Y-40934267D01*
X110273842Y-40934267D01*
X110499580Y-41480595D01*
X110917206Y-41898951D01*
X111463139Y-42125642D01*
X112054267Y-42126158D01*
X112600595Y-41900420D01*
X113018951Y-41482794D01*
X113245642Y-40936861D01*
X113246158Y-40345733D01*
X113052903Y-39878021D01*
X113382114Y-39878308D01*
X114035840Y-39608194D01*
X114536436Y-39108471D01*
X114807691Y-38455218D01*
X114808308Y-37747886D01*
X114538194Y-37094160D01*
X114038471Y-36593564D01*
X113385218Y-36322309D01*
X112677886Y-36321692D01*
X112024160Y-36591806D01*
X111523564Y-37091529D01*
X111252309Y-37744782D01*
X111251692Y-38452114D01*
X111521806Y-39105840D01*
X111569815Y-39153933D01*
X111465733Y-39153842D01*
X110919405Y-39379580D01*
X110501049Y-39797206D01*
X110274358Y-40343139D01*
X110273842Y-40934267D01*
X104355644Y-40934267D01*
X104356158Y-40345733D01*
X104130420Y-39799405D01*
X103712794Y-39381049D01*
X103166861Y-39154358D01*
X102575733Y-39153842D01*
X102029405Y-39379580D01*
X101611049Y-39797206D01*
X101384358Y-40343139D01*
X101383842Y-40934267D01*
X101090000Y-40934267D01*
X101090000Y-38389237D01*
X107124247Y-38389237D01*
X107346126Y-38926226D01*
X107756613Y-39337430D01*
X108293214Y-39560246D01*
X108874237Y-39560753D01*
X109411226Y-39338874D01*
X109822430Y-38928387D01*
X110045246Y-38391786D01*
X110045753Y-37810763D01*
X109823874Y-37273774D01*
X109413387Y-36862570D01*
X108876786Y-36639754D01*
X108295763Y-36639247D01*
X107758774Y-36861126D01*
X107347570Y-37271613D01*
X107124754Y-37808214D01*
X107124247Y-38389237D01*
X101090000Y-38389237D01*
X101090000Y-37169773D01*
X101335840Y-37068194D01*
X101836436Y-36568471D01*
X102107691Y-35915218D01*
X102108308Y-35207886D01*
X102043897Y-35052000D01*
X117665750Y-35052000D01*
X117602309Y-35204782D01*
X117601692Y-35912114D01*
X117871806Y-36565840D01*
X118371529Y-37066436D01*
X118620000Y-37169610D01*
X118620000Y-38702035D01*
X118331096Y-38412627D01*
X117365215Y-38011558D01*
X116319374Y-38010645D01*
X115352793Y-38410028D01*
X114612627Y-39148904D01*
X114211558Y-40114785D01*
X114210645Y-41160626D01*
X114610028Y-42127207D01*
X115348904Y-42867373D01*
X116314785Y-43268442D01*
X117360626Y-43269355D01*
X118327207Y-42869972D01*
X118620000Y-42577689D01*
X118620000Y-53000227D01*
X118374160Y-53101806D01*
X117873564Y-53601529D01*
X117602309Y-54254782D01*
X117601692Y-54962114D01*
X117871806Y-55615840D01*
X118371529Y-56116436D01*
X118620000Y-56219610D01*
X118620000Y-57752035D01*
X118331096Y-57462627D01*
X117365215Y-57061558D01*
X116319374Y-57060645D01*
X115352793Y-57460028D01*
X114612627Y-58198904D01*
X114211558Y-59164785D01*
X114210645Y-60210626D01*
X114610028Y-61177207D01*
X115348904Y-61917373D01*
X116314785Y-62318442D01*
X117360626Y-62319355D01*
X118327207Y-61919972D01*
X118620000Y-61627689D01*
X118620000Y-72050227D01*
X118374160Y-72151806D01*
X117873564Y-72651529D01*
X117602309Y-73304782D01*
X117601692Y-74012114D01*
X117871806Y-74665840D01*
X118371529Y-75166436D01*
X118620000Y-75269610D01*
X118620000Y-76802035D01*
X118331096Y-76512627D01*
X117365215Y-76111558D01*
X116319374Y-76110645D01*
X115352793Y-76510028D01*
X114612627Y-77248904D01*
X114211558Y-78214785D01*
X114210645Y-79260626D01*
X114610028Y-80227207D01*
X115348904Y-80967373D01*
X116314785Y-81368442D01*
X117360626Y-81369355D01*
X118327207Y-80969972D01*
X118620000Y-80677689D01*
X118620000Y-91100227D01*
X118374160Y-91201806D01*
X117873564Y-91701529D01*
X117602309Y-92354782D01*
X117601692Y-93062114D01*
X117871806Y-93715840D01*
X118371529Y-94216436D01*
X119024782Y-94487691D01*
X119732114Y-94488308D01*
X120385840Y-94218194D01*
X120886436Y-93718471D01*
X121157691Y-93065218D01*
X121158308Y-92357886D01*
X120888194Y-91704160D01*
X120388471Y-91203564D01*
X120140000Y-91100390D01*
X120140000Y-82994500D01*
X126162060Y-82994500D01*
X126162060Y-84645500D01*
X126206338Y-84880817D01*
X126345410Y-85096941D01*
X126557610Y-85241931D01*
X126809500Y-85292940D01*
X128460500Y-85292940D01*
X128695817Y-85248662D01*
X128911941Y-85109590D01*
X129056931Y-84897390D01*
X129107940Y-84645500D01*
X129107940Y-82994500D01*
X129063662Y-82759183D01*
X128924590Y-82543059D01*
X128712390Y-82398069D01*
X128460500Y-82347060D01*
X126809500Y-82347060D01*
X126574183Y-82391338D01*
X126358059Y-82530410D01*
X126213069Y-82742610D01*
X126162060Y-82994500D01*
X120140000Y-82994500D01*
X120140000Y-79034267D01*
X120433842Y-79034267D01*
X120659580Y-79580595D01*
X121077206Y-79998951D01*
X121623139Y-80225642D01*
X122214267Y-80226158D01*
X122760595Y-80000420D01*
X123178951Y-79582794D01*
X123405642Y-79036861D01*
X123405644Y-79034267D01*
X129323842Y-79034267D01*
X129549580Y-79580595D01*
X129967206Y-79998951D01*
X130513139Y-80225642D01*
X131104267Y-80226158D01*
X131650595Y-80000420D01*
X132068951Y-79582794D01*
X132295642Y-79036861D01*
X132296158Y-78445733D01*
X132102903Y-77978021D01*
X132432114Y-77978308D01*
X133085840Y-77708194D01*
X133586436Y-77208471D01*
X133857691Y-76555218D01*
X133858308Y-75847886D01*
X133588194Y-75194160D01*
X133088471Y-74693564D01*
X132435218Y-74422309D01*
X131727886Y-74421692D01*
X131074160Y-74691806D01*
X130573564Y-75191529D01*
X130302309Y-75844782D01*
X130301692Y-76552114D01*
X130571806Y-77205840D01*
X130619815Y-77253933D01*
X130515733Y-77253842D01*
X129969405Y-77479580D01*
X129551049Y-77897206D01*
X129324358Y-78443139D01*
X129323842Y-79034267D01*
X123405644Y-79034267D01*
X123406158Y-78445733D01*
X123180420Y-77899405D01*
X122762794Y-77481049D01*
X122216861Y-77254358D01*
X121625733Y-77253842D01*
X121079405Y-77479580D01*
X120661049Y-77897206D01*
X120434358Y-78443139D01*
X120433842Y-79034267D01*
X120140000Y-79034267D01*
X120140000Y-76489237D01*
X126174247Y-76489237D01*
X126396126Y-77026226D01*
X126806613Y-77437430D01*
X127343214Y-77660246D01*
X127924237Y-77660753D01*
X128461226Y-77438874D01*
X128872430Y-77028387D01*
X129095246Y-76491786D01*
X129095753Y-75910763D01*
X128873874Y-75373774D01*
X128463387Y-74962570D01*
X127926786Y-74739754D01*
X127345763Y-74739247D01*
X126808774Y-74961126D01*
X126397570Y-75371613D01*
X126174754Y-75908214D01*
X126174247Y-76489237D01*
X120140000Y-76489237D01*
X120140000Y-75269773D01*
X120385840Y-75168194D01*
X120886436Y-74668471D01*
X121157691Y-74015218D01*
X121158308Y-73307886D01*
X120888194Y-72654160D01*
X120388471Y-72153564D01*
X120140000Y-72050390D01*
X120140000Y-63944500D01*
X126162060Y-63944500D01*
X126162060Y-65595500D01*
X126206338Y-65830817D01*
X126345410Y-66046941D01*
X126557610Y-66191931D01*
X126809500Y-66242940D01*
X128460500Y-66242940D01*
X128695817Y-66198662D01*
X128911941Y-66059590D01*
X129056931Y-65847390D01*
X129107940Y-65595500D01*
X129107940Y-63944500D01*
X129063662Y-63709183D01*
X128924590Y-63493059D01*
X128712390Y-63348069D01*
X128460500Y-63297060D01*
X126809500Y-63297060D01*
X126574183Y-63341338D01*
X126358059Y-63480410D01*
X126213069Y-63692610D01*
X126162060Y-63944500D01*
X120140000Y-63944500D01*
X120140000Y-59984267D01*
X120433842Y-59984267D01*
X120659580Y-60530595D01*
X121077206Y-60948951D01*
X121623139Y-61175642D01*
X122214267Y-61176158D01*
X122760595Y-60950420D01*
X123178951Y-60532794D01*
X123405642Y-59986861D01*
X123405644Y-59984267D01*
X129323842Y-59984267D01*
X129549580Y-60530595D01*
X129967206Y-60948951D01*
X130513139Y-61175642D01*
X131104267Y-61176158D01*
X131650595Y-60950420D01*
X132068951Y-60532794D01*
X132295642Y-59986861D01*
X132296158Y-59395733D01*
X132102903Y-58928021D01*
X132432114Y-58928308D01*
X133085840Y-58658194D01*
X133586436Y-58158471D01*
X133857691Y-57505218D01*
X133858308Y-56797886D01*
X133588194Y-56144160D01*
X133088471Y-55643564D01*
X132435218Y-55372309D01*
X131727886Y-55371692D01*
X131074160Y-55641806D01*
X130573564Y-56141529D01*
X130302309Y-56794782D01*
X130301692Y-57502114D01*
X130571806Y-58155840D01*
X130619815Y-58203933D01*
X130515733Y-58203842D01*
X129969405Y-58429580D01*
X129551049Y-58847206D01*
X129324358Y-59393139D01*
X129323842Y-59984267D01*
X123405644Y-59984267D01*
X123406158Y-59395733D01*
X123180420Y-58849405D01*
X122762794Y-58431049D01*
X122216861Y-58204358D01*
X121625733Y-58203842D01*
X121079405Y-58429580D01*
X120661049Y-58847206D01*
X120434358Y-59393139D01*
X120433842Y-59984267D01*
X120140000Y-59984267D01*
X120140000Y-57439237D01*
X126174247Y-57439237D01*
X126396126Y-57976226D01*
X126806613Y-58387430D01*
X127343214Y-58610246D01*
X127924237Y-58610753D01*
X128461226Y-58388874D01*
X128872430Y-57978387D01*
X129095246Y-57441786D01*
X129095753Y-56860763D01*
X128873874Y-56323774D01*
X128463387Y-55912570D01*
X127926786Y-55689754D01*
X127345763Y-55689247D01*
X126808774Y-55911126D01*
X126397570Y-56321613D01*
X126174754Y-56858214D01*
X126174247Y-57439237D01*
X120140000Y-57439237D01*
X120140000Y-56219773D01*
X120385840Y-56118194D01*
X120886436Y-55618471D01*
X121157691Y-54965218D01*
X121158308Y-54257886D01*
X120888194Y-53604160D01*
X120388471Y-53103564D01*
X120140000Y-53000390D01*
X120140000Y-48450500D01*
X122733060Y-48450500D01*
X122733060Y-50101500D01*
X122777338Y-50336817D01*
X122916410Y-50552941D01*
X123128610Y-50697931D01*
X123380500Y-50748940D01*
X125031500Y-50748940D01*
X125266817Y-50704662D01*
X125482941Y-50565590D01*
X125627931Y-50353390D01*
X125678940Y-50101500D01*
X125678940Y-48450500D01*
X125634662Y-48215183D01*
X125495590Y-47999059D01*
X125283390Y-47854069D01*
X125031500Y-47803060D01*
X123380500Y-47803060D01*
X123145183Y-47847338D01*
X122929059Y-47986410D01*
X122784069Y-48198610D01*
X122733060Y-48450500D01*
X120140000Y-48450500D01*
X120140000Y-48404103D01*
X120209201Y-48432838D01*
X120581167Y-48433162D01*
X120924943Y-48291117D01*
X121188192Y-48028327D01*
X121330838Y-47684799D01*
X121331162Y-47312833D01*
X121189117Y-46969057D01*
X121156000Y-46935882D01*
X121156000Y-42541201D01*
X123246404Y-42541201D01*
X123329904Y-42795227D01*
X123894797Y-43001082D01*
X124495468Y-42975091D01*
X124929696Y-42795227D01*
X125013196Y-42541201D01*
X124129800Y-41657805D01*
X123246404Y-42541201D01*
X121156000Y-42541201D01*
X121156000Y-41931669D01*
X121623139Y-42125642D01*
X122214267Y-42126158D01*
X122671570Y-41937204D01*
X122812773Y-42278096D01*
X123066799Y-42361596D01*
X123950195Y-41478200D01*
X124309405Y-41478200D01*
X125192801Y-42361596D01*
X125446827Y-42278096D01*
X125652682Y-41713203D01*
X125626691Y-41112532D01*
X125446827Y-40678304D01*
X125192801Y-40594804D01*
X124309405Y-41478200D01*
X123950195Y-41478200D01*
X123936053Y-41464058D01*
X124115658Y-41284453D01*
X124129800Y-41298595D01*
X125013196Y-40415199D01*
X124929696Y-40161173D01*
X124364803Y-39955318D01*
X123764132Y-39981309D01*
X123329904Y-40161173D01*
X123329902Y-40161179D01*
X123180420Y-39799405D01*
X122762794Y-39381049D01*
X122216861Y-39154358D01*
X121625733Y-39153842D01*
X121156000Y-39347932D01*
X121156000Y-38603244D01*
X124599504Y-38603244D01*
X124771219Y-39018827D01*
X125088900Y-39337063D01*
X125504183Y-39509503D01*
X125953844Y-39509896D01*
X126369427Y-39338181D01*
X126687663Y-39020500D01*
X126860103Y-38605217D01*
X126860496Y-38155556D01*
X126688781Y-37739973D01*
X126371100Y-37421737D01*
X125955817Y-37249297D01*
X125506156Y-37248904D01*
X125090573Y-37420619D01*
X124772337Y-37738300D01*
X124599897Y-38153583D01*
X124599504Y-38603244D01*
X121156000Y-38603244D01*
X121156000Y-37906802D01*
X121619201Y-37443601D01*
X121783948Y-37197039D01*
X121841800Y-36906200D01*
X121841800Y-35052000D01*
X129618200Y-35052000D01*
X129618200Y-35178200D01*
X129676052Y-35469039D01*
X129840799Y-35715601D01*
X130362599Y-36237401D01*
X130609161Y-36402148D01*
X130900000Y-36460000D01*
X131393155Y-36460000D01*
X131074160Y-36591806D01*
X130573564Y-37091529D01*
X130459891Y-37365284D01*
X130194000Y-37098929D01*
X129638735Y-36868363D01*
X129037503Y-36867838D01*
X128481836Y-37097435D01*
X128056329Y-37522200D01*
X127825763Y-38077465D01*
X127825238Y-38678697D01*
X128054835Y-39234364D01*
X128479600Y-39659871D01*
X129034865Y-39890437D01*
X129512163Y-39890854D01*
X129324358Y-40343139D01*
X129323842Y-40934267D01*
X129549580Y-41480595D01*
X129967206Y-41898951D01*
X130513139Y-42125642D01*
X131104267Y-42126158D01*
X131650595Y-41900420D01*
X132068951Y-41482794D01*
X132240000Y-41070862D01*
X132240000Y-47866502D01*
X132117786Y-47815754D01*
X131536763Y-47815247D01*
X130999774Y-48037126D01*
X130588570Y-48447613D01*
X130365754Y-48984214D01*
X130365247Y-49565237D01*
X130587126Y-50102226D01*
X130997613Y-50513430D01*
X131534214Y-50736246D01*
X132115237Y-50736753D01*
X132652226Y-50514874D01*
X133063430Y-50104387D01*
X133286246Y-49567786D01*
X133286426Y-49361228D01*
X133434115Y-49508917D01*
X133365794Y-49673453D01*
X133365226Y-50323694D01*
X133613538Y-50924655D01*
X134072927Y-51384846D01*
X134673453Y-51634206D01*
X135323694Y-51634774D01*
X135924655Y-51386462D01*
X136384846Y-50927073D01*
X136634206Y-50326547D01*
X136634774Y-49676306D01*
X136386462Y-49075345D01*
X135927073Y-48615154D01*
X135326547Y-48365794D01*
X134676306Y-48365226D01*
X134509111Y-48434309D01*
X133760000Y-47685198D01*
X133760000Y-42227354D01*
X134398904Y-42867373D01*
X135364785Y-43268442D01*
X136410626Y-43269355D01*
X137377207Y-42869972D01*
X137670000Y-42577689D01*
X137670000Y-53000227D01*
X137424160Y-53101806D01*
X136923564Y-53601529D01*
X136652309Y-54254782D01*
X136651692Y-54962114D01*
X136921806Y-55615840D01*
X137421529Y-56116436D01*
X137670000Y-56219610D01*
X137670000Y-57752035D01*
X137381096Y-57462627D01*
X136415215Y-57061558D01*
X135369374Y-57060645D01*
X134402793Y-57460028D01*
X133662627Y-58198904D01*
X133261558Y-59164785D01*
X133260645Y-60210626D01*
X133660028Y-61177207D01*
X134398904Y-61917373D01*
X135364785Y-62318442D01*
X136410626Y-62319355D01*
X137377207Y-61919972D01*
X137670000Y-61627689D01*
X137670000Y-72050227D01*
X137424160Y-72151806D01*
X136923564Y-72651529D01*
X136652309Y-73304782D01*
X136651692Y-74012114D01*
X136921806Y-74665840D01*
X137421529Y-75166436D01*
X137670000Y-75269610D01*
X137670000Y-76802035D01*
X137381096Y-76512627D01*
X136415215Y-76111558D01*
X135369374Y-76110645D01*
X134402793Y-76510028D01*
X133662627Y-77248904D01*
X133261558Y-78214785D01*
X133260645Y-79260626D01*
X133660028Y-80227207D01*
X134398904Y-80967373D01*
X135364785Y-81368442D01*
X136410626Y-81369355D01*
X137377207Y-80969972D01*
X137670000Y-80677689D01*
X137670000Y-91100227D01*
X137424160Y-91201806D01*
X136923564Y-91701529D01*
X136652309Y-92354782D01*
X136651692Y-93062114D01*
X136921806Y-93715840D01*
X137421529Y-94216436D01*
X138074782Y-94487691D01*
X138782114Y-94488308D01*
X139435840Y-94218194D01*
X139936436Y-93718471D01*
X140207691Y-93065218D01*
X140208308Y-92357886D01*
X139938194Y-91704160D01*
X139438471Y-91203564D01*
X139190000Y-91100390D01*
X139190000Y-75269773D01*
X139435840Y-75168194D01*
X139936436Y-74668471D01*
X140207691Y-74015218D01*
X140208308Y-73307886D01*
X139938194Y-72654160D01*
X139438471Y-72153564D01*
X139190000Y-72050390D01*
X139190000Y-56219773D01*
X139435840Y-56118194D01*
X139936436Y-55618471D01*
X140207691Y-54965218D01*
X140208308Y-54257886D01*
X139938194Y-53604160D01*
X139438471Y-53103564D01*
X139190000Y-53000390D01*
X139190000Y-37169773D01*
X139435840Y-37068194D01*
X139936436Y-36568471D01*
X140207691Y-35915218D01*
X140208308Y-35207886D01*
X140143897Y-35052000D01*
X140895000Y-35052000D01*
X140895000Y-39154033D01*
X140675733Y-39153842D01*
X140129405Y-39379580D01*
X139711049Y-39797206D01*
X139484358Y-40343139D01*
X139483842Y-40934267D01*
X139709580Y-41480595D01*
X140127206Y-41898951D01*
X140673139Y-42125642D01*
X140895000Y-42125836D01*
X140895000Y-58204033D01*
X140675733Y-58203842D01*
X140129405Y-58429580D01*
X139711049Y-58847206D01*
X139484358Y-59393139D01*
X139483842Y-59984267D01*
X139709580Y-60530595D01*
X140127206Y-60948951D01*
X140673139Y-61175642D01*
X140895000Y-61175836D01*
X140895000Y-77254033D01*
X140675733Y-77253842D01*
X140129405Y-77479580D01*
X139711049Y-77897206D01*
X139484358Y-78443139D01*
X139483842Y-79034267D01*
X139709580Y-79580595D01*
X140127206Y-79998951D01*
X140673139Y-80225642D01*
X140895000Y-80225836D01*
X140895000Y-96304033D01*
X140675733Y-96303842D01*
X140129405Y-96529580D01*
X139711049Y-96947206D01*
X139484358Y-97493139D01*
X139483842Y-98084267D01*
X139709580Y-98630595D01*
X140127206Y-99048951D01*
X140673139Y-99275642D01*
X140895000Y-99275836D01*
X140895000Y-103378000D01*
X129107940Y-103378000D01*
X129107940Y-102044500D01*
X129063662Y-101809183D01*
X128924590Y-101593059D01*
X128712390Y-101448069D01*
X128460500Y-101397060D01*
X126809500Y-101397060D01*
X126574183Y-101441338D01*
X126358059Y-101580410D01*
X126213069Y-101792610D01*
X126162060Y-102044500D01*
X126162060Y-103378000D01*
X110057940Y-103378000D01*
X110057940Y-102044500D01*
X110013662Y-101809183D01*
X109874590Y-101593059D01*
X109662390Y-101448069D01*
X109410500Y-101397060D01*
X107759500Y-101397060D01*
X107524183Y-101441338D01*
X107308059Y-101580410D01*
X107163069Y-101792610D01*
X107112060Y-102044500D01*
X107112060Y-103378000D01*
X91007940Y-103378000D01*
X91007940Y-102044500D01*
X90963662Y-101809183D01*
X90824590Y-101593059D01*
X90612390Y-101448069D01*
X90360500Y-101397060D01*
X88709500Y-101397060D01*
X88474183Y-101441338D01*
X88258059Y-101580410D01*
X88113069Y-101792610D01*
X88062060Y-102044500D01*
X88062060Y-103378000D01*
X71957940Y-103378000D01*
X71957940Y-102044500D01*
X71913662Y-101809183D01*
X71774590Y-101593059D01*
X71562390Y-101448069D01*
X71310500Y-101397060D01*
X70086862Y-101397060D01*
X68705000Y-100015198D01*
X68705000Y-98084267D01*
X72173842Y-98084267D01*
X72399580Y-98630595D01*
X72817206Y-99048951D01*
X73363139Y-99275642D01*
X73954267Y-99276158D01*
X74500595Y-99050420D01*
X74918951Y-98632794D01*
X75052726Y-98310626D01*
X76110645Y-98310626D01*
X76510028Y-99277207D01*
X77248904Y-100017373D01*
X78214785Y-100418442D01*
X79260626Y-100419355D01*
X80227207Y-100019972D01*
X80967373Y-99281096D01*
X81368442Y-98315215D01*
X81368643Y-98084267D01*
X82333842Y-98084267D01*
X82559580Y-98630595D01*
X82977206Y-99048951D01*
X83523139Y-99275642D01*
X84114267Y-99276158D01*
X84660595Y-99050420D01*
X85078951Y-98632794D01*
X85305642Y-98086861D01*
X85305644Y-98084267D01*
X91223842Y-98084267D01*
X91449580Y-98630595D01*
X91867206Y-99048951D01*
X92413139Y-99275642D01*
X93004267Y-99276158D01*
X93550595Y-99050420D01*
X93968951Y-98632794D01*
X94102726Y-98310626D01*
X95160645Y-98310626D01*
X95560028Y-99277207D01*
X96298904Y-100017373D01*
X97264785Y-100418442D01*
X98310626Y-100419355D01*
X99277207Y-100019972D01*
X100017373Y-99281096D01*
X100418442Y-98315215D01*
X100418643Y-98084267D01*
X101383842Y-98084267D01*
X101609580Y-98630595D01*
X102027206Y-99048951D01*
X102573139Y-99275642D01*
X103164267Y-99276158D01*
X103710595Y-99050420D01*
X104128951Y-98632794D01*
X104355642Y-98086861D01*
X104355644Y-98084267D01*
X110273842Y-98084267D01*
X110499580Y-98630595D01*
X110917206Y-99048951D01*
X111463139Y-99275642D01*
X112054267Y-99276158D01*
X112600595Y-99050420D01*
X113018951Y-98632794D01*
X113152726Y-98310626D01*
X114210645Y-98310626D01*
X114610028Y-99277207D01*
X115348904Y-100017373D01*
X116314785Y-100418442D01*
X117360626Y-100419355D01*
X118327207Y-100019972D01*
X119067373Y-99281096D01*
X119468442Y-98315215D01*
X119468643Y-98084267D01*
X120433842Y-98084267D01*
X120659580Y-98630595D01*
X121077206Y-99048951D01*
X121623139Y-99275642D01*
X122214267Y-99276158D01*
X122760595Y-99050420D01*
X123178951Y-98632794D01*
X123405642Y-98086861D01*
X123405644Y-98084267D01*
X129323842Y-98084267D01*
X129549580Y-98630595D01*
X129967206Y-99048951D01*
X130513139Y-99275642D01*
X131104267Y-99276158D01*
X131650595Y-99050420D01*
X132068951Y-98632794D01*
X132202726Y-98310626D01*
X133260645Y-98310626D01*
X133660028Y-99277207D01*
X134398904Y-100017373D01*
X135364785Y-100418442D01*
X136410626Y-100419355D01*
X137377207Y-100019972D01*
X138117373Y-99281096D01*
X138518442Y-98315215D01*
X138519355Y-97269374D01*
X138119972Y-96302793D01*
X137381096Y-95562627D01*
X136415215Y-95161558D01*
X135369374Y-95160645D01*
X134402793Y-95560028D01*
X133662627Y-96298904D01*
X133261558Y-97264785D01*
X133260645Y-98310626D01*
X132202726Y-98310626D01*
X132295642Y-98086861D01*
X132296158Y-97495733D01*
X132102903Y-97028021D01*
X132432114Y-97028308D01*
X133085840Y-96758194D01*
X133586436Y-96258471D01*
X133857691Y-95605218D01*
X133858308Y-94897886D01*
X133588194Y-94244160D01*
X133088471Y-93743564D01*
X132435218Y-93472309D01*
X131727886Y-93471692D01*
X131074160Y-93741806D01*
X130573564Y-94241529D01*
X130302309Y-94894782D01*
X130301692Y-95602114D01*
X130571806Y-96255840D01*
X130619815Y-96303933D01*
X130515733Y-96303842D01*
X129969405Y-96529580D01*
X129551049Y-96947206D01*
X129324358Y-97493139D01*
X129323842Y-98084267D01*
X123405644Y-98084267D01*
X123406158Y-97495733D01*
X123180420Y-96949405D01*
X122762794Y-96531049D01*
X122216861Y-96304358D01*
X121625733Y-96303842D01*
X121079405Y-96529580D01*
X120661049Y-96947206D01*
X120434358Y-97493139D01*
X120433842Y-98084267D01*
X119468643Y-98084267D01*
X119469355Y-97269374D01*
X119069972Y-96302793D01*
X118331096Y-95562627D01*
X118274767Y-95539237D01*
X126174247Y-95539237D01*
X126396126Y-96076226D01*
X126806613Y-96487430D01*
X127343214Y-96710246D01*
X127924237Y-96710753D01*
X128461226Y-96488874D01*
X128872430Y-96078387D01*
X129095246Y-95541786D01*
X129095753Y-94960763D01*
X128873874Y-94423774D01*
X128463387Y-94012570D01*
X127926786Y-93789754D01*
X127345763Y-93789247D01*
X126808774Y-94011126D01*
X126397570Y-94421613D01*
X126174754Y-94958214D01*
X126174247Y-95539237D01*
X118274767Y-95539237D01*
X117365215Y-95161558D01*
X116319374Y-95160645D01*
X115352793Y-95560028D01*
X114612627Y-96298904D01*
X114211558Y-97264785D01*
X114210645Y-98310626D01*
X113152726Y-98310626D01*
X113245642Y-98086861D01*
X113246158Y-97495733D01*
X113052903Y-97028021D01*
X113382114Y-97028308D01*
X114035840Y-96758194D01*
X114536436Y-96258471D01*
X114807691Y-95605218D01*
X114808308Y-94897886D01*
X114538194Y-94244160D01*
X114038471Y-93743564D01*
X113385218Y-93472309D01*
X112677886Y-93471692D01*
X112024160Y-93741806D01*
X111523564Y-94241529D01*
X111252309Y-94894782D01*
X111251692Y-95602114D01*
X111521806Y-96255840D01*
X111569815Y-96303933D01*
X111465733Y-96303842D01*
X110919405Y-96529580D01*
X110501049Y-96947206D01*
X110274358Y-97493139D01*
X110273842Y-98084267D01*
X104355644Y-98084267D01*
X104356158Y-97495733D01*
X104130420Y-96949405D01*
X103712794Y-96531049D01*
X103166861Y-96304358D01*
X102575733Y-96303842D01*
X102029405Y-96529580D01*
X101611049Y-96947206D01*
X101384358Y-97493139D01*
X101383842Y-98084267D01*
X100418643Y-98084267D01*
X100419355Y-97269374D01*
X100019972Y-96302793D01*
X99281096Y-95562627D01*
X99224767Y-95539237D01*
X107124247Y-95539237D01*
X107346126Y-96076226D01*
X107756613Y-96487430D01*
X108293214Y-96710246D01*
X108874237Y-96710753D01*
X109411226Y-96488874D01*
X109822430Y-96078387D01*
X110045246Y-95541786D01*
X110045753Y-94960763D01*
X109823874Y-94423774D01*
X109413387Y-94012570D01*
X108876786Y-93789754D01*
X108295763Y-93789247D01*
X107758774Y-94011126D01*
X107347570Y-94421613D01*
X107124754Y-94958214D01*
X107124247Y-95539237D01*
X99224767Y-95539237D01*
X98315215Y-95161558D01*
X97269374Y-95160645D01*
X96302793Y-95560028D01*
X95562627Y-96298904D01*
X95161558Y-97264785D01*
X95160645Y-98310626D01*
X94102726Y-98310626D01*
X94195642Y-98086861D01*
X94196158Y-97495733D01*
X94002903Y-97028021D01*
X94332114Y-97028308D01*
X94985840Y-96758194D01*
X95486436Y-96258471D01*
X95757691Y-95605218D01*
X95758308Y-94897886D01*
X95488194Y-94244160D01*
X94988471Y-93743564D01*
X94335218Y-93472309D01*
X93627886Y-93471692D01*
X92974160Y-93741806D01*
X92473564Y-94241529D01*
X92202309Y-94894782D01*
X92201692Y-95602114D01*
X92471806Y-96255840D01*
X92519815Y-96303933D01*
X92415733Y-96303842D01*
X91869405Y-96529580D01*
X91451049Y-96947206D01*
X91224358Y-97493139D01*
X91223842Y-98084267D01*
X85305644Y-98084267D01*
X85306158Y-97495733D01*
X85080420Y-96949405D01*
X84662794Y-96531049D01*
X84116861Y-96304358D01*
X83525733Y-96303842D01*
X82979405Y-96529580D01*
X82561049Y-96947206D01*
X82334358Y-97493139D01*
X82333842Y-98084267D01*
X81368643Y-98084267D01*
X81369355Y-97269374D01*
X80969972Y-96302793D01*
X80231096Y-95562627D01*
X80174767Y-95539237D01*
X88074247Y-95539237D01*
X88296126Y-96076226D01*
X88706613Y-96487430D01*
X89243214Y-96710246D01*
X89824237Y-96710753D01*
X90361226Y-96488874D01*
X90772430Y-96078387D01*
X90995246Y-95541786D01*
X90995753Y-94960763D01*
X90773874Y-94423774D01*
X90363387Y-94012570D01*
X89826786Y-93789754D01*
X89245763Y-93789247D01*
X88708774Y-94011126D01*
X88297570Y-94421613D01*
X88074754Y-94958214D01*
X88074247Y-95539237D01*
X80174767Y-95539237D01*
X79265215Y-95161558D01*
X78219374Y-95160645D01*
X77252793Y-95560028D01*
X76512627Y-96298904D01*
X76111558Y-97264785D01*
X76110645Y-98310626D01*
X75052726Y-98310626D01*
X75145642Y-98086861D01*
X75146158Y-97495733D01*
X74952903Y-97028021D01*
X75282114Y-97028308D01*
X75935840Y-96758194D01*
X76436436Y-96258471D01*
X76707691Y-95605218D01*
X76708308Y-94897886D01*
X76438194Y-94244160D01*
X75938471Y-93743564D01*
X75285218Y-93472309D01*
X74577886Y-93471692D01*
X73924160Y-93741806D01*
X73423564Y-94241529D01*
X73152309Y-94894782D01*
X73151692Y-95602114D01*
X73421806Y-96255840D01*
X73469815Y-96303933D01*
X73365733Y-96303842D01*
X72819405Y-96529580D01*
X72401049Y-96947206D01*
X72174358Y-97493139D01*
X72173842Y-98084267D01*
X68705000Y-98084267D01*
X68705000Y-95539237D01*
X69024247Y-95539237D01*
X69246126Y-96076226D01*
X69656613Y-96487430D01*
X70193214Y-96710246D01*
X70774237Y-96710753D01*
X71311226Y-96488874D01*
X71722430Y-96078387D01*
X71945246Y-95541786D01*
X71945753Y-94960763D01*
X71723874Y-94423774D01*
X71313387Y-94012570D01*
X70776786Y-93789754D01*
X70195763Y-93789247D01*
X69658774Y-94011126D01*
X69247570Y-94421613D01*
X69024754Y-94958214D01*
X69024247Y-95539237D01*
X68705000Y-95539237D01*
X68705000Y-77399802D01*
X69725000Y-78419802D01*
X69725000Y-82347060D01*
X69659500Y-82347060D01*
X69424183Y-82391338D01*
X69208059Y-82530410D01*
X69063069Y-82742610D01*
X69012060Y-82994500D01*
X69012060Y-84645500D01*
X69056338Y-84880817D01*
X69195410Y-85096941D01*
X69407610Y-85241931D01*
X69659500Y-85292940D01*
X71310500Y-85292940D01*
X71545817Y-85248662D01*
X71761941Y-85109590D01*
X71906931Y-84897390D01*
X71957940Y-84645500D01*
X71957940Y-82994500D01*
X71913662Y-82759183D01*
X71774590Y-82543059D01*
X71562390Y-82398069D01*
X71310500Y-82347060D01*
X71245000Y-82347060D01*
X71245000Y-79034267D01*
X72173842Y-79034267D01*
X72399580Y-79580595D01*
X72817206Y-79998951D01*
X73363139Y-80225642D01*
X73954267Y-80226158D01*
X74500595Y-80000420D01*
X74918951Y-79582794D01*
X75145642Y-79036861D01*
X75146158Y-78445733D01*
X74952903Y-77978021D01*
X75282114Y-77978308D01*
X75935840Y-77708194D01*
X76436436Y-77208471D01*
X76707691Y-76555218D01*
X76708308Y-75847886D01*
X76438194Y-75194160D01*
X75938471Y-74693564D01*
X75285218Y-74422309D01*
X74577886Y-74421692D01*
X73924160Y-74691806D01*
X73423564Y-75191529D01*
X73152309Y-75844782D01*
X73151692Y-76552114D01*
X73421806Y-77205840D01*
X73469815Y-77253933D01*
X73365733Y-77253842D01*
X72819405Y-77479580D01*
X72401049Y-77897206D01*
X72174358Y-78443139D01*
X72173842Y-79034267D01*
X71245000Y-79034267D01*
X71245000Y-78105000D01*
X71219799Y-77978308D01*
X71187148Y-77814160D01*
X71022401Y-77567599D01*
X71015760Y-77560958D01*
X71311226Y-77438874D01*
X71722430Y-77028387D01*
X71945246Y-76491786D01*
X71945753Y-75910763D01*
X71723874Y-75373774D01*
X71313387Y-74962570D01*
X70776786Y-74739754D01*
X70195763Y-74739247D01*
X69975000Y-74830464D01*
X69975000Y-68925368D01*
X70171201Y-69006838D01*
X70543167Y-69007162D01*
X70886943Y-68865117D01*
X71150192Y-68602327D01*
X71292838Y-68258799D01*
X71293162Y-67886833D01*
X71245000Y-67770272D01*
X71245000Y-66242940D01*
X71310500Y-66242940D01*
X71545817Y-66198662D01*
X71761941Y-66059590D01*
X71906931Y-65847390D01*
X71957940Y-65595500D01*
X71957940Y-63944500D01*
X71913662Y-63709183D01*
X71774590Y-63493059D01*
X71562390Y-63348069D01*
X71310500Y-63297060D01*
X69659500Y-63297060D01*
X69424183Y-63341338D01*
X69208059Y-63480410D01*
X69063069Y-63692610D01*
X69012060Y-63944500D01*
X69012060Y-65397258D01*
X67356143Y-63741341D01*
X67609297Y-63741562D01*
X68164964Y-63511965D01*
X68590471Y-63087200D01*
X68630832Y-62990000D01*
X70485000Y-62990000D01*
X70775839Y-62932148D01*
X71022401Y-62767401D01*
X72833913Y-60955889D01*
X73363139Y-61175642D01*
X73954267Y-61176158D01*
X74500595Y-60950420D01*
X74918951Y-60532794D01*
X75145642Y-59986861D01*
X75146158Y-59395733D01*
X74952903Y-58928021D01*
X75282114Y-58928308D01*
X75935840Y-58658194D01*
X76436436Y-58158471D01*
X76707691Y-57505218D01*
X76708308Y-56797886D01*
X76438194Y-56144160D01*
X75938471Y-55643564D01*
X75285218Y-55372309D01*
X74577886Y-55371692D01*
X73924160Y-55641806D01*
X73423564Y-56141529D01*
X73152309Y-56794782D01*
X73151692Y-57502114D01*
X73421806Y-58155840D01*
X73469815Y-58203933D01*
X73365733Y-58203842D01*
X73150000Y-58292981D01*
X73150000Y-47625000D01*
X73092148Y-47334161D01*
X72927401Y-47087599D01*
X71957940Y-46118138D01*
X71957940Y-44894500D01*
X71913662Y-44659183D01*
X71774590Y-44443059D01*
X71562390Y-44298069D01*
X71310500Y-44247060D01*
X69659500Y-44247060D01*
X69424183Y-44291338D01*
X69208059Y-44430410D01*
X69063069Y-44642610D01*
X69012060Y-44894500D01*
X69012060Y-46545500D01*
X69056338Y-46780817D01*
X69195410Y-46996941D01*
X69407610Y-47141931D01*
X69659500Y-47192940D01*
X70883138Y-47192940D01*
X71630000Y-47939802D01*
X71630000Y-56229736D01*
X71313387Y-55912570D01*
X70776786Y-55689754D01*
X70195763Y-55689247D01*
X69658774Y-55911126D01*
X69247570Y-56321613D01*
X69024754Y-56858214D01*
X69024247Y-57439237D01*
X69246126Y-57976226D01*
X69656613Y-58387430D01*
X70193214Y-58610246D01*
X70774237Y-58610753D01*
X71311226Y-58388874D01*
X71630000Y-58070656D01*
X71630000Y-60010198D01*
X70170198Y-61470000D01*
X68631203Y-61470000D01*
X68591965Y-61375036D01*
X68177302Y-60959649D01*
X68590471Y-60547200D01*
X68821037Y-59991935D01*
X68821562Y-59390703D01*
X68591965Y-58835036D01*
X68177302Y-58419649D01*
X68590471Y-58007200D01*
X68821037Y-57451935D01*
X68821562Y-56850703D01*
X68591965Y-56295036D01*
X68177302Y-55879649D01*
X68590471Y-55467200D01*
X68821037Y-54911935D01*
X68821562Y-54310703D01*
X68591965Y-53755036D01*
X68177302Y-53339649D01*
X68590471Y-52927200D01*
X68821037Y-52371935D01*
X68821562Y-51770703D01*
X68591965Y-51215036D01*
X68177302Y-50799649D01*
X68590471Y-50387200D01*
X68821037Y-49831935D01*
X68821562Y-49230703D01*
X68591965Y-48675036D01*
X68177302Y-48259649D01*
X68590471Y-47847200D01*
X68821037Y-47291935D01*
X68821562Y-46690703D01*
X68591965Y-46135036D01*
X68177302Y-45719649D01*
X68590471Y-45307200D01*
X68821037Y-44751935D01*
X68821562Y-44150703D01*
X68591965Y-43595036D01*
X68177302Y-43179649D01*
X68590471Y-42767200D01*
X68821037Y-42211935D01*
X68821562Y-41610703D01*
X68591965Y-41055036D01*
X68471407Y-40934267D01*
X72173842Y-40934267D01*
X72399580Y-41480595D01*
X72817206Y-41898951D01*
X73363139Y-42125642D01*
X73954267Y-42126158D01*
X74500595Y-41900420D01*
X74918951Y-41482794D01*
X75145642Y-40936861D01*
X75146158Y-40345733D01*
X74952903Y-39878021D01*
X75282114Y-39878308D01*
X75935840Y-39608194D01*
X76436436Y-39108471D01*
X76707691Y-38455218D01*
X76708308Y-37747886D01*
X76438194Y-37094160D01*
X75938471Y-36593564D01*
X75285218Y-36322309D01*
X74577886Y-36321692D01*
X73924160Y-36591806D01*
X73423564Y-37091529D01*
X73152309Y-37744782D01*
X73151692Y-38452114D01*
X73421806Y-39105840D01*
X73469815Y-39153933D01*
X73365733Y-39153842D01*
X72819405Y-39379580D01*
X72401049Y-39797206D01*
X72174358Y-40343139D01*
X72173842Y-40934267D01*
X68471407Y-40934267D01*
X68177302Y-40639649D01*
X68590471Y-40227200D01*
X68821037Y-39671935D01*
X68821562Y-39070703D01*
X68591965Y-38515036D01*
X68466386Y-38389237D01*
X69024247Y-38389237D01*
X69246126Y-38926226D01*
X69656613Y-39337430D01*
X70193214Y-39560246D01*
X70774237Y-39560753D01*
X71311226Y-39338874D01*
X71722430Y-38928387D01*
X71945246Y-38391786D01*
X71945753Y-37810763D01*
X71723874Y-37273774D01*
X71313387Y-36862570D01*
X70776786Y-36639754D01*
X70195763Y-36639247D01*
X69658774Y-36861126D01*
X69247570Y-37271613D01*
X69024754Y-37808214D01*
X69024247Y-38389237D01*
X68466386Y-38389237D01*
X68167200Y-38089529D01*
X68133408Y-38075497D01*
X68193396Y-37893001D01*
X67310000Y-37009605D01*
X66426604Y-37893001D01*
X66486447Y-38075056D01*
X66455036Y-38088035D01*
X66029529Y-38512800D01*
X65798963Y-39068065D01*
X65798527Y-39567107D01*
X65612794Y-39381049D01*
X65066861Y-39154358D01*
X64475733Y-39153842D01*
X63929405Y-39379580D01*
X63511049Y-39797206D01*
X63284358Y-40343139D01*
X63283842Y-40934267D01*
X63509580Y-41480595D01*
X63927206Y-41898951D01*
X64473139Y-42125642D01*
X65064267Y-42126158D01*
X65610595Y-41900420D01*
X65798872Y-41712472D01*
X65798438Y-42209297D01*
X66028035Y-42764964D01*
X66442698Y-43180351D01*
X66029529Y-43592800D01*
X65798963Y-44148065D01*
X65798438Y-44749297D01*
X66028035Y-45304964D01*
X66442698Y-45720351D01*
X66029529Y-46132800D01*
X65798963Y-46688065D01*
X65798438Y-47289297D01*
X66028035Y-47844964D01*
X66442698Y-48260351D01*
X66029529Y-48672800D01*
X65798963Y-49228065D01*
X65798438Y-49829297D01*
X66028035Y-50384964D01*
X66442698Y-50800351D01*
X66029529Y-51212800D01*
X65798963Y-51768065D01*
X65798438Y-52369297D01*
X66028035Y-52924964D01*
X66442698Y-53340351D01*
X66029529Y-53752800D01*
X65798963Y-54308065D01*
X65798438Y-54909297D01*
X65838630Y-55006568D01*
X62990000Y-57855198D01*
X62990000Y-56219773D01*
X63235840Y-56118194D01*
X63736436Y-55618471D01*
X64007691Y-54965218D01*
X64008308Y-54257886D01*
X63738194Y-53604160D01*
X63238471Y-53103564D01*
X62585218Y-52832309D01*
X61877886Y-52831692D01*
X61629235Y-52934433D01*
X58957401Y-50262599D01*
X58710839Y-50097852D01*
X58420000Y-50040000D01*
X53904802Y-50040000D01*
X58559680Y-45385122D01*
X58605167Y-45385162D01*
X58948943Y-45243117D01*
X59212192Y-44980327D01*
X59354838Y-44636799D01*
X59355162Y-44264833D01*
X59213117Y-43921057D01*
X58950327Y-43657808D01*
X58606799Y-43515162D01*
X58234833Y-43514838D01*
X57891057Y-43656883D01*
X57627808Y-43919673D01*
X57485162Y-44263201D01*
X57485121Y-44310077D01*
X53236165Y-48559033D01*
X52937302Y-48259649D01*
X53350471Y-47847200D01*
X53581037Y-47291935D01*
X53581562Y-46690703D01*
X53541370Y-46593432D01*
X56417401Y-43717401D01*
X56582148Y-43470839D01*
X56640000Y-43180000D01*
X56640000Y-40954802D01*
X57061192Y-40533610D01*
X57060645Y-41160626D01*
X57460028Y-42127207D01*
X58198904Y-42867373D01*
X59164785Y-43268442D01*
X60210626Y-43269355D01*
X61177207Y-42869972D01*
X61917373Y-42131096D01*
X62318442Y-41165215D01*
X62319355Y-40119374D01*
X61919972Y-39152793D01*
X61181096Y-38412627D01*
X60215215Y-38011558D01*
X59583795Y-38011007D01*
X60875250Y-36719552D01*
X61221529Y-37066436D01*
X61874782Y-37337691D01*
X62582114Y-37338308D01*
X63235840Y-37068194D01*
X63709863Y-36594997D01*
X65787118Y-36594997D01*
X65813109Y-37195668D01*
X65992973Y-37629896D01*
X66246999Y-37713396D01*
X67130395Y-36830000D01*
X67489605Y-36830000D01*
X68373001Y-37713396D01*
X68627027Y-37629896D01*
X68832882Y-37065003D01*
X68806891Y-36464332D01*
X68627027Y-36030104D01*
X68373001Y-35946604D01*
X67489605Y-36830000D01*
X67130395Y-36830000D01*
X66246999Y-35946604D01*
X65992973Y-36030104D01*
X65787118Y-36594997D01*
X63709863Y-36594997D01*
X63736436Y-36568471D01*
X64007691Y-35915218D01*
X64008308Y-35207886D01*
X63943897Y-35052000D01*
X65989623Y-35052000D01*
X66028035Y-35144964D01*
G36*
X41402309Y-35204782D02*
X41401692Y-35912114D01*
X41671806Y-36565840D01*
X42171529Y-37066436D01*
X42420000Y-37169610D01*
X42420000Y-38702035D01*
X42131096Y-38412627D01*
X41165215Y-38011558D01*
X40119374Y-38010645D01*
X39152793Y-38410028D01*
X38412627Y-39148904D01*
X38011558Y-40114785D01*
X38010645Y-41160626D01*
X38410028Y-42127207D01*
X39148904Y-42867373D01*
X40114785Y-43268442D01*
X41160626Y-43269355D01*
X42127207Y-42869972D01*
X42420000Y-42577689D01*
X42420000Y-53000227D01*
X42174160Y-53101806D01*
X41673564Y-53601529D01*
X41402309Y-54254782D01*
X41401692Y-54962114D01*
X41671806Y-55615840D01*
X42171529Y-56116436D01*
X42420000Y-56219610D01*
X42420000Y-57752035D01*
X42131096Y-57462627D01*
X41165215Y-57061558D01*
X40119374Y-57060645D01*
X39152793Y-57460028D01*
X38412627Y-58198904D01*
X38011558Y-59164785D01*
X38010645Y-60210626D01*
X38410028Y-61177207D01*
X39148904Y-61917373D01*
X40114785Y-62318442D01*
X41160626Y-62319355D01*
X42127207Y-61919972D01*
X42420000Y-61627689D01*
X42420000Y-72050227D01*
X42174160Y-72151806D01*
X41673564Y-72651529D01*
X41402309Y-73304782D01*
X41401692Y-74012114D01*
X41671806Y-74665840D01*
X42171529Y-75166436D01*
X42420000Y-75269610D01*
X42420000Y-76802035D01*
X42131096Y-76512627D01*
X41165215Y-76111558D01*
X40119374Y-76110645D01*
X39152793Y-76510028D01*
X38412627Y-77248904D01*
X38011558Y-78214785D01*
X38010645Y-79260626D01*
X38410028Y-80227207D01*
X39148904Y-80967373D01*
X40114785Y-81368442D01*
X41160626Y-81369355D01*
X42127207Y-80969972D01*
X42420000Y-80677689D01*
X42420000Y-91100227D01*
X42174160Y-91201806D01*
X41673564Y-91701529D01*
X41402309Y-92354782D01*
X41401692Y-93062114D01*
X41671806Y-93715840D01*
X42171529Y-94216436D01*
X42218644Y-94236000D01*
X38862000Y-94236000D01*
X38571160Y-94293852D01*
X38404687Y-94405086D01*
X38338194Y-94244160D01*
X37838471Y-93743564D01*
X37185218Y-93472309D01*
X36477886Y-93471692D01*
X35824160Y-93741806D01*
X35635000Y-93930636D01*
X35635000Y-80225967D01*
X35854267Y-80226158D01*
X36400595Y-80000420D01*
X36818951Y-79582794D01*
X37045642Y-79036861D01*
X37046158Y-78445733D01*
X36852903Y-77978021D01*
X37182114Y-77978308D01*
X37835840Y-77708194D01*
X38336436Y-77208471D01*
X38607691Y-76555218D01*
X38608308Y-75847886D01*
X38338194Y-75194160D01*
X37838471Y-74693564D01*
X37185218Y-74422309D01*
X36477886Y-74421692D01*
X35824160Y-74691806D01*
X35635000Y-74880636D01*
X35635000Y-61175967D01*
X35854267Y-61176158D01*
X36400595Y-60950420D01*
X36818951Y-60532794D01*
X37045642Y-59986861D01*
X37046158Y-59395733D01*
X36852903Y-58928021D01*
X37182114Y-58928308D01*
X37835840Y-58658194D01*
X38336436Y-58158471D01*
X38607691Y-57505218D01*
X38608308Y-56797886D01*
X38338194Y-56144160D01*
X37838471Y-55643564D01*
X37185218Y-55372309D01*
X36477886Y-55371692D01*
X35824160Y-55641806D01*
X35635000Y-55830636D01*
X35635000Y-49819237D01*
X35877247Y-49819237D01*
X36099126Y-50356226D01*
X36509613Y-50767430D01*
X37046214Y-50990246D01*
X37627237Y-50990753D01*
X38164226Y-50768874D01*
X38575430Y-50358387D01*
X38798246Y-49821786D01*
X38798753Y-49240763D01*
X38576874Y-48703774D01*
X38166387Y-48292570D01*
X37629786Y-48069754D01*
X37048763Y-48069247D01*
X36511774Y-48291126D01*
X36100570Y-48701613D01*
X35877754Y-49238214D01*
X35877247Y-49819237D01*
X35635000Y-49819237D01*
X35635000Y-42125967D01*
X35854267Y-42126158D01*
X36400595Y-41900420D01*
X36818951Y-41482794D01*
X37045642Y-40936861D01*
X37046158Y-40345733D01*
X36852903Y-39878021D01*
X37182114Y-39878308D01*
X37835840Y-39608194D01*
X38336436Y-39108471D01*
X38607691Y-38455218D01*
X38608308Y-37747886D01*
X38338194Y-37094160D01*
X37838471Y-36593564D01*
X37185218Y-36322309D01*
X36477886Y-36321692D01*
X35824160Y-36591806D01*
X35635000Y-36780636D01*
X35635000Y-35052000D01*
X41465750Y-35052000D01*
X41402309Y-35204782D01*
X41402309Y-35204782D01*
G37*
X41402309Y-35204782D02*
X41401692Y-35912114D01*
X41671806Y-36565840D01*
X42171529Y-37066436D01*
X42420000Y-37169610D01*
X42420000Y-38702035D01*
X42131096Y-38412627D01*
X41165215Y-38011558D01*
X40119374Y-38010645D01*
X39152793Y-38410028D01*
X38412627Y-39148904D01*
X38011558Y-40114785D01*
X38010645Y-41160626D01*
X38410028Y-42127207D01*
X39148904Y-42867373D01*
X40114785Y-43268442D01*
X41160626Y-43269355D01*
X42127207Y-42869972D01*
X42420000Y-42577689D01*
X42420000Y-53000227D01*
X42174160Y-53101806D01*
X41673564Y-53601529D01*
X41402309Y-54254782D01*
X41401692Y-54962114D01*
X41671806Y-55615840D01*
X42171529Y-56116436D01*
X42420000Y-56219610D01*
X42420000Y-57752035D01*
X42131096Y-57462627D01*
X41165215Y-57061558D01*
X40119374Y-57060645D01*
X39152793Y-57460028D01*
X38412627Y-58198904D01*
X38011558Y-59164785D01*
X38010645Y-60210626D01*
X38410028Y-61177207D01*
X39148904Y-61917373D01*
X40114785Y-62318442D01*
X41160626Y-62319355D01*
X42127207Y-61919972D01*
X42420000Y-61627689D01*
X42420000Y-72050227D01*
X42174160Y-72151806D01*
X41673564Y-72651529D01*
X41402309Y-73304782D01*
X41401692Y-74012114D01*
X41671806Y-74665840D01*
X42171529Y-75166436D01*
X42420000Y-75269610D01*
X42420000Y-76802035D01*
X42131096Y-76512627D01*
X41165215Y-76111558D01*
X40119374Y-76110645D01*
X39152793Y-76510028D01*
X38412627Y-77248904D01*
X38011558Y-78214785D01*
X38010645Y-79260626D01*
X38410028Y-80227207D01*
X39148904Y-80967373D01*
X40114785Y-81368442D01*
X41160626Y-81369355D01*
X42127207Y-80969972D01*
X42420000Y-80677689D01*
X42420000Y-91100227D01*
X42174160Y-91201806D01*
X41673564Y-91701529D01*
X41402309Y-92354782D01*
X41401692Y-93062114D01*
X41671806Y-93715840D01*
X42171529Y-94216436D01*
X42218644Y-94236000D01*
X38862000Y-94236000D01*
X38571160Y-94293852D01*
X38404687Y-94405086D01*
X38338194Y-94244160D01*
X37838471Y-93743564D01*
X37185218Y-93472309D01*
X36477886Y-93471692D01*
X35824160Y-93741806D01*
X35635000Y-93930636D01*
X35635000Y-80225967D01*
X35854267Y-80226158D01*
X36400595Y-80000420D01*
X36818951Y-79582794D01*
X37045642Y-79036861D01*
X37046158Y-78445733D01*
X36852903Y-77978021D01*
X37182114Y-77978308D01*
X37835840Y-77708194D01*
X38336436Y-77208471D01*
X38607691Y-76555218D01*
X38608308Y-75847886D01*
X38338194Y-75194160D01*
X37838471Y-74693564D01*
X37185218Y-74422309D01*
X36477886Y-74421692D01*
X35824160Y-74691806D01*
X35635000Y-74880636D01*
X35635000Y-61175967D01*
X35854267Y-61176158D01*
X36400595Y-60950420D01*
X36818951Y-60532794D01*
X37045642Y-59986861D01*
X37046158Y-59395733D01*
X36852903Y-58928021D01*
X37182114Y-58928308D01*
X37835840Y-58658194D01*
X38336436Y-58158471D01*
X38607691Y-57505218D01*
X38608308Y-56797886D01*
X38338194Y-56144160D01*
X37838471Y-55643564D01*
X37185218Y-55372309D01*
X36477886Y-55371692D01*
X35824160Y-55641806D01*
X35635000Y-55830636D01*
X35635000Y-49819237D01*
X35877247Y-49819237D01*
X36099126Y-50356226D01*
X36509613Y-50767430D01*
X37046214Y-50990246D01*
X37627237Y-50990753D01*
X38164226Y-50768874D01*
X38575430Y-50358387D01*
X38798246Y-49821786D01*
X38798753Y-49240763D01*
X38576874Y-48703774D01*
X38166387Y-48292570D01*
X37629786Y-48069754D01*
X37048763Y-48069247D01*
X36511774Y-48291126D01*
X36100570Y-48701613D01*
X35877754Y-49238214D01*
X35877247Y-49819237D01*
X35635000Y-49819237D01*
X35635000Y-42125967D01*
X35854267Y-42126158D01*
X36400595Y-41900420D01*
X36818951Y-41482794D01*
X37045642Y-40936861D01*
X37046158Y-40345733D01*
X36852903Y-39878021D01*
X37182114Y-39878308D01*
X37835840Y-39608194D01*
X38336436Y-39108471D01*
X38607691Y-38455218D01*
X38608308Y-37747886D01*
X38338194Y-37094160D01*
X37838471Y-36593564D01*
X37185218Y-36322309D01*
X36477886Y-36321692D01*
X35824160Y-36591806D01*
X35635000Y-36780636D01*
X35635000Y-35052000D01*
X41465750Y-35052000D01*
X41402309Y-35204782D01*
G36*
X50546260Y-35166300D02*
X50590538Y-35401617D01*
X50729610Y-35617741D01*
X50941810Y-35762731D01*
X50990157Y-35772522D01*
X50789529Y-35972800D01*
X50558963Y-36528065D01*
X50558438Y-37129297D01*
X50788035Y-37684964D01*
X51212800Y-38110471D01*
X51246592Y-38124503D01*
X51186604Y-38306999D01*
X52070000Y-39190395D01*
X52953396Y-38306999D01*
X52893553Y-38124944D01*
X52924964Y-38111965D01*
X53350471Y-37687200D01*
X53581037Y-37131935D01*
X53581562Y-36530703D01*
X53351965Y-35975036D01*
X53152263Y-35774985D01*
X53181617Y-35769462D01*
X53397741Y-35630390D01*
X53542731Y-35418190D01*
X53593740Y-35166300D01*
X53593740Y-35052000D01*
X60393198Y-35052000D01*
X57658274Y-37786924D01*
X57658308Y-37747886D01*
X57388194Y-37094160D01*
X56888471Y-36593564D01*
X56235218Y-36322309D01*
X55527886Y-36321692D01*
X54874160Y-36591806D01*
X54373564Y-37091529D01*
X54102309Y-37744782D01*
X54101692Y-38452114D01*
X54371806Y-39105840D01*
X54419815Y-39153933D01*
X54315733Y-39153842D01*
X53769405Y-39379580D01*
X53590841Y-39557832D01*
X53566891Y-39004332D01*
X53387027Y-38570104D01*
X53133001Y-38486604D01*
X52249605Y-39370000D01*
X52263748Y-39384143D01*
X52084143Y-39563748D01*
X52070000Y-39549605D01*
X51186604Y-40433001D01*
X51246447Y-40615056D01*
X51215036Y-40628035D01*
X50789529Y-41052800D01*
X50558963Y-41608065D01*
X50558438Y-42209297D01*
X50788035Y-42764964D01*
X51202698Y-43180351D01*
X50789529Y-43592800D01*
X50558963Y-44148065D01*
X50558438Y-44749297D01*
X50598630Y-44846568D01*
X50367940Y-45077258D01*
X50367940Y-44894500D01*
X50323662Y-44659183D01*
X50184590Y-44443059D01*
X49972390Y-44298069D01*
X49720500Y-44247060D01*
X48069500Y-44247060D01*
X47834183Y-44291338D01*
X47618059Y-44430410D01*
X47473069Y-44642610D01*
X47422060Y-44894500D01*
X47422060Y-46545500D01*
X47466338Y-46780817D01*
X47605410Y-46996941D01*
X47817610Y-47141931D01*
X48069500Y-47192940D01*
X49405000Y-47192940D01*
X49405000Y-47310198D01*
X46430940Y-50284258D01*
X46430940Y-48704500D01*
X46386662Y-48469183D01*
X46247590Y-48253059D01*
X46035390Y-48108069D01*
X45783500Y-48057060D01*
X44132500Y-48057060D01*
X43940000Y-48093281D01*
X43940000Y-40934267D01*
X44233842Y-40934267D01*
X44459580Y-41480595D01*
X44877206Y-41898951D01*
X45423139Y-42125642D01*
X46014267Y-42126158D01*
X46560595Y-41900420D01*
X46978951Y-41482794D01*
X47205642Y-40936861D01*
X47206158Y-40345733D01*
X46980420Y-39799405D01*
X46562794Y-39381049D01*
X46016861Y-39154358D01*
X45425733Y-39153842D01*
X44879405Y-39379580D01*
X44461049Y-39797206D01*
X44234358Y-40343139D01*
X44233842Y-40934267D01*
X43940000Y-40934267D01*
X43940000Y-38389237D01*
X47434247Y-38389237D01*
X47656126Y-38926226D01*
X48066613Y-39337430D01*
X48603214Y-39560246D01*
X49184237Y-39560753D01*
X49721226Y-39338874D01*
X49925459Y-39134997D01*
X50547118Y-39134997D01*
X50573109Y-39735668D01*
X50752973Y-40169896D01*
X51006999Y-40253396D01*
X51890395Y-39370000D01*
X51006999Y-38486604D01*
X50752973Y-38570104D01*
X50547118Y-39134997D01*
X49925459Y-39134997D01*
X50132430Y-38928387D01*
X50355246Y-38391786D01*
X50355753Y-37810763D01*
X50133874Y-37273774D01*
X49723387Y-36862570D01*
X49186786Y-36639754D01*
X48605763Y-36639247D01*
X48068774Y-36861126D01*
X47657570Y-37271613D01*
X47434754Y-37808214D01*
X47434247Y-38389237D01*
X43940000Y-38389237D01*
X43940000Y-37169773D01*
X44185840Y-37068194D01*
X44686436Y-36568471D01*
X44957691Y-35915218D01*
X44958308Y-35207886D01*
X44893897Y-35052000D01*
X50546260Y-35052000D01*
X50546260Y-35166300D01*
X50546260Y-35166300D01*
G37*
X50546260Y-35166300D02*
X50590538Y-35401617D01*
X50729610Y-35617741D01*
X50941810Y-35762731D01*
X50990157Y-35772522D01*
X50789529Y-35972800D01*
X50558963Y-36528065D01*
X50558438Y-37129297D01*
X50788035Y-37684964D01*
X51212800Y-38110471D01*
X51246592Y-38124503D01*
X51186604Y-38306999D01*
X52070000Y-39190395D01*
X52953396Y-38306999D01*
X52893553Y-38124944D01*
X52924964Y-38111965D01*
X53350471Y-37687200D01*
X53581037Y-37131935D01*
X53581562Y-36530703D01*
X53351965Y-35975036D01*
X53152263Y-35774985D01*
X53181617Y-35769462D01*
X53397741Y-35630390D01*
X53542731Y-35418190D01*
X53593740Y-35166300D01*
X53593740Y-35052000D01*
X60393198Y-35052000D01*
X57658274Y-37786924D01*
X57658308Y-37747886D01*
X57388194Y-37094160D01*
X56888471Y-36593564D01*
X56235218Y-36322309D01*
X55527886Y-36321692D01*
X54874160Y-36591806D01*
X54373564Y-37091529D01*
X54102309Y-37744782D01*
X54101692Y-38452114D01*
X54371806Y-39105840D01*
X54419815Y-39153933D01*
X54315733Y-39153842D01*
X53769405Y-39379580D01*
X53590841Y-39557832D01*
X53566891Y-39004332D01*
X53387027Y-38570104D01*
X53133001Y-38486604D01*
X52249605Y-39370000D01*
X52263748Y-39384143D01*
X52084143Y-39563748D01*
X52070000Y-39549605D01*
X51186604Y-40433001D01*
X51246447Y-40615056D01*
X51215036Y-40628035D01*
X50789529Y-41052800D01*
X50558963Y-41608065D01*
X50558438Y-42209297D01*
X50788035Y-42764964D01*
X51202698Y-43180351D01*
X50789529Y-43592800D01*
X50558963Y-44148065D01*
X50558438Y-44749297D01*
X50598630Y-44846568D01*
X50367940Y-45077258D01*
X50367940Y-44894500D01*
X50323662Y-44659183D01*
X50184590Y-44443059D01*
X49972390Y-44298069D01*
X49720500Y-44247060D01*
X48069500Y-44247060D01*
X47834183Y-44291338D01*
X47618059Y-44430410D01*
X47473069Y-44642610D01*
X47422060Y-44894500D01*
X47422060Y-46545500D01*
X47466338Y-46780817D01*
X47605410Y-46996941D01*
X47817610Y-47141931D01*
X48069500Y-47192940D01*
X49405000Y-47192940D01*
X49405000Y-47310198D01*
X46430940Y-50284258D01*
X46430940Y-48704500D01*
X46386662Y-48469183D01*
X46247590Y-48253059D01*
X46035390Y-48108069D01*
X45783500Y-48057060D01*
X44132500Y-48057060D01*
X43940000Y-48093281D01*
X43940000Y-40934267D01*
X44233842Y-40934267D01*
X44459580Y-41480595D01*
X44877206Y-41898951D01*
X45423139Y-42125642D01*
X46014267Y-42126158D01*
X46560595Y-41900420D01*
X46978951Y-41482794D01*
X47205642Y-40936861D01*
X47206158Y-40345733D01*
X46980420Y-39799405D01*
X46562794Y-39381049D01*
X46016861Y-39154358D01*
X45425733Y-39153842D01*
X44879405Y-39379580D01*
X44461049Y-39797206D01*
X44234358Y-40343139D01*
X44233842Y-40934267D01*
X43940000Y-40934267D01*
X43940000Y-38389237D01*
X47434247Y-38389237D01*
X47656126Y-38926226D01*
X48066613Y-39337430D01*
X48603214Y-39560246D01*
X49184237Y-39560753D01*
X49721226Y-39338874D01*
X49925459Y-39134997D01*
X50547118Y-39134997D01*
X50573109Y-39735668D01*
X50752973Y-40169896D01*
X51006999Y-40253396D01*
X51890395Y-39370000D01*
X51006999Y-38486604D01*
X50752973Y-38570104D01*
X50547118Y-39134997D01*
X49925459Y-39134997D01*
X50132430Y-38928387D01*
X50355246Y-38391786D01*
X50355753Y-37810763D01*
X50133874Y-37273774D01*
X49723387Y-36862570D01*
X49186786Y-36639754D01*
X48605763Y-36639247D01*
X48068774Y-36861126D01*
X47657570Y-37271613D01*
X47434754Y-37808214D01*
X47434247Y-38389237D01*
X43940000Y-38389237D01*
X43940000Y-37169773D01*
X44185840Y-37068194D01*
X44686436Y-36568471D01*
X44957691Y-35915218D01*
X44958308Y-35207886D01*
X44893897Y-35052000D01*
X50546260Y-35052000D01*
X50546260Y-35166300D01*
M02*
