G04 #@! TF.FileFunction,Legend,Bot*
%FSLAX46Y46*%
G04 Gerber Fmt 4.6, Leading zero omitted, Abs format (unit mm)*
G04 Created by KiCad (PCBNEW 4.0.2-stable) date 5/31/2016 6:33:24 PM*
%MOMM*%
G01*
G04 APERTURE LIST*
%ADD10C,0.100000*%
%ADD11C,0.300000*%
%ADD12C,0.150000*%
%ADD13C,0.203200*%
%ADD14C,0.381000*%
%ADD15C,0.304800*%
G04 APERTURE END LIST*
D10*
D11*
X138370001Y-89622143D02*
X138370001Y-86622143D01*
X138370001Y-89479286D02*
X138655715Y-89622143D01*
X139227144Y-89622143D01*
X139512858Y-89479286D01*
X139655715Y-89336429D01*
X139798572Y-89050714D01*
X139798572Y-88193571D01*
X139655715Y-87907857D01*
X139512858Y-87765000D01*
X139227144Y-87622143D01*
X138655715Y-87622143D01*
X138370001Y-87765000D01*
X135798572Y-89479286D02*
X136084286Y-89622143D01*
X136655715Y-89622143D01*
X136941429Y-89479286D01*
X137084286Y-89193571D01*
X137084286Y-88050714D01*
X136941429Y-87765000D01*
X136655715Y-87622143D01*
X136084286Y-87622143D01*
X135798572Y-87765000D01*
X135655715Y-88050714D01*
X135655715Y-88336429D01*
X137084286Y-88622143D01*
X134512857Y-89479286D02*
X134227143Y-89622143D01*
X133655715Y-89622143D01*
X133370000Y-89479286D01*
X133227143Y-89193571D01*
X133227143Y-89050714D01*
X133370000Y-88765000D01*
X133655715Y-88622143D01*
X134084286Y-88622143D01*
X134370000Y-88479286D01*
X134512857Y-88193571D01*
X134512857Y-88050714D01*
X134370000Y-87765000D01*
X134084286Y-87622143D01*
X133655715Y-87622143D01*
X133370000Y-87765000D01*
X131941429Y-89622143D02*
X131941429Y-87622143D01*
X131941429Y-86622143D02*
X132084286Y-86765000D01*
X131941429Y-86907857D01*
X131798572Y-86765000D01*
X131941429Y-86622143D01*
X131941429Y-86907857D01*
X129227144Y-87622143D02*
X129227144Y-90050714D01*
X129370001Y-90336429D01*
X129512858Y-90479286D01*
X129798573Y-90622143D01*
X130227144Y-90622143D01*
X130512858Y-90479286D01*
X129227144Y-89479286D02*
X129512858Y-89622143D01*
X130084287Y-89622143D01*
X130370001Y-89479286D01*
X130512858Y-89336429D01*
X130655715Y-89050714D01*
X130655715Y-88193571D01*
X130512858Y-87907857D01*
X130370001Y-87765000D01*
X130084287Y-87622143D01*
X129512858Y-87622143D01*
X129227144Y-87765000D01*
X127798572Y-87622143D02*
X127798572Y-89622143D01*
X127798572Y-87907857D02*
X127655715Y-87765000D01*
X127370001Y-87622143D01*
X126941429Y-87622143D01*
X126655715Y-87765000D01*
X126512858Y-88050714D01*
X126512858Y-89622143D01*
X123941429Y-89479286D02*
X124227143Y-89622143D01*
X124798572Y-89622143D01*
X125084286Y-89479286D01*
X125227143Y-89193571D01*
X125227143Y-88050714D01*
X125084286Y-87765000D01*
X124798572Y-87622143D01*
X124227143Y-87622143D01*
X123941429Y-87765000D01*
X123798572Y-88050714D01*
X123798572Y-88336429D01*
X125227143Y-88622143D01*
X121227143Y-89622143D02*
X121227143Y-86622143D01*
X121227143Y-89479286D02*
X121512857Y-89622143D01*
X122084286Y-89622143D01*
X122370000Y-89479286D01*
X122512857Y-89336429D01*
X122655714Y-89050714D01*
X122655714Y-88193571D01*
X122512857Y-87907857D01*
X122370000Y-87765000D01*
X122084286Y-87622143D01*
X121512857Y-87622143D01*
X121227143Y-87765000D01*
X117512857Y-89622143D02*
X117512857Y-86622143D01*
X117512857Y-87765000D02*
X117227143Y-87622143D01*
X116655714Y-87622143D01*
X116370000Y-87765000D01*
X116227143Y-87907857D01*
X116084286Y-88193571D01*
X116084286Y-89050714D01*
X116227143Y-89336429D01*
X116370000Y-89479286D01*
X116655714Y-89622143D01*
X117227143Y-89622143D01*
X117512857Y-89479286D01*
X115084286Y-87622143D02*
X114370000Y-89622143D01*
X113655714Y-87622143D02*
X114370000Y-89622143D01*
X114655714Y-90336429D01*
X114798571Y-90479286D01*
X115084286Y-90622143D01*
X110227143Y-89622143D02*
X110227143Y-86622143D01*
X109227143Y-88765000D01*
X108227143Y-86622143D01*
X108227143Y-89622143D01*
X105512858Y-89622143D02*
X105512858Y-88050714D01*
X105655715Y-87765000D01*
X105941429Y-87622143D01*
X106512858Y-87622143D01*
X106798572Y-87765000D01*
X105512858Y-89479286D02*
X105798572Y-89622143D01*
X106512858Y-89622143D01*
X106798572Y-89479286D01*
X106941429Y-89193571D01*
X106941429Y-88907857D01*
X106798572Y-88622143D01*
X106512858Y-88479286D01*
X105798572Y-88479286D01*
X105512858Y-88336429D01*
X104370001Y-89622143D02*
X102798572Y-87622143D01*
X104370001Y-87622143D02*
X102798572Y-89622143D01*
X98084287Y-89622143D02*
X98084287Y-88050714D01*
X98227144Y-87765000D01*
X98512858Y-87622143D01*
X99084287Y-87622143D01*
X99370001Y-87765000D01*
X98084287Y-89479286D02*
X98370001Y-89622143D01*
X99084287Y-89622143D01*
X99370001Y-89479286D01*
X99512858Y-89193571D01*
X99512858Y-88907857D01*
X99370001Y-88622143D01*
X99084287Y-88479286D01*
X98370001Y-88479286D01*
X98084287Y-88336429D01*
X96655715Y-89622143D02*
X96655715Y-86622143D01*
X96370001Y-88479286D02*
X95512858Y-89622143D01*
X95512858Y-87622143D02*
X96655715Y-88765000D01*
X92941430Y-89622143D02*
X92941430Y-88050714D01*
X93084287Y-87765000D01*
X93370001Y-87622143D01*
X93941430Y-87622143D01*
X94227144Y-87765000D01*
X92941430Y-89479286D02*
X93227144Y-89622143D01*
X93941430Y-89622143D01*
X94227144Y-89479286D01*
X94370001Y-89193571D01*
X94370001Y-88907857D01*
X94227144Y-88622143D01*
X93941430Y-88479286D01*
X93227144Y-88479286D01*
X92941430Y-88336429D01*
X89512859Y-87622143D02*
X88941430Y-89622143D01*
X88370001Y-88193571D01*
X87798573Y-89622143D01*
X87227144Y-87622143D01*
X85655716Y-89622143D02*
X85941430Y-89479286D01*
X86084287Y-89336429D01*
X86227144Y-89050714D01*
X86227144Y-88193571D01*
X86084287Y-87907857D01*
X85941430Y-87765000D01*
X85655716Y-87622143D01*
X85227144Y-87622143D01*
X84941430Y-87765000D01*
X84798573Y-87907857D01*
X84655716Y-88193571D01*
X84655716Y-89050714D01*
X84798573Y-89336429D01*
X84941430Y-89479286D01*
X85227144Y-89622143D01*
X85655716Y-89622143D01*
X82941430Y-89622143D02*
X83227144Y-89479286D01*
X83370001Y-89336429D01*
X83512858Y-89050714D01*
X83512858Y-88193571D01*
X83370001Y-87907857D01*
X83227144Y-87765000D01*
X82941430Y-87622143D01*
X82512858Y-87622143D01*
X82227144Y-87765000D01*
X82084287Y-87907857D01*
X81941430Y-88193571D01*
X81941430Y-89050714D01*
X82084287Y-89336429D01*
X82227144Y-89479286D01*
X82512858Y-89622143D01*
X82941430Y-89622143D01*
X81084287Y-87622143D02*
X79941430Y-87622143D01*
X80655715Y-86622143D02*
X80655715Y-89193571D01*
X80512858Y-89479286D01*
X80227144Y-89622143D01*
X79941430Y-89622143D01*
X78941429Y-87622143D02*
X78941429Y-90622143D01*
X78941429Y-87765000D02*
X78655715Y-87622143D01*
X78084286Y-87622143D01*
X77798572Y-87765000D01*
X77655715Y-87907857D01*
X77512858Y-88193571D01*
X77512858Y-89050714D01*
X77655715Y-89336429D01*
X77798572Y-89479286D01*
X78084286Y-89622143D01*
X78655715Y-89622143D01*
X78941429Y-89479286D01*
X74941429Y-89622143D02*
X74941429Y-88050714D01*
X75084286Y-87765000D01*
X75370000Y-87622143D01*
X75941429Y-87622143D01*
X76227143Y-87765000D01*
X74941429Y-89479286D02*
X75227143Y-89622143D01*
X75941429Y-89622143D01*
X76227143Y-89479286D01*
X76370000Y-89193571D01*
X76370000Y-88907857D01*
X76227143Y-88622143D01*
X75941429Y-88479286D01*
X75227143Y-88479286D01*
X74941429Y-88336429D01*
X73941429Y-87622143D02*
X72798572Y-87622143D01*
X73512857Y-86622143D02*
X73512857Y-89193571D01*
X73370000Y-89479286D01*
X73084286Y-89622143D01*
X72798572Y-89622143D01*
X71370000Y-89622143D02*
X71655714Y-89479286D01*
X71798571Y-89336429D01*
X71941428Y-89050714D01*
X71941428Y-88193571D01*
X71798571Y-87907857D01*
X71655714Y-87765000D01*
X71370000Y-87622143D01*
X70941428Y-87622143D01*
X70655714Y-87765000D01*
X70512857Y-87907857D01*
X70370000Y-88193571D01*
X70370000Y-89050714D01*
X70512857Y-89336429D01*
X70655714Y-89479286D01*
X70941428Y-89622143D01*
X71370000Y-89622143D01*
X68655714Y-89622143D02*
X68941428Y-89479286D01*
X69084285Y-89336429D01*
X69227142Y-89050714D01*
X69227142Y-88193571D01*
X69084285Y-87907857D01*
X68941428Y-87765000D01*
X68655714Y-87622143D01*
X68227142Y-87622143D01*
X67941428Y-87765000D01*
X67798571Y-87907857D01*
X67655714Y-88193571D01*
X67655714Y-89050714D01*
X67798571Y-89336429D01*
X67941428Y-89479286D01*
X68227142Y-89622143D01*
X68655714Y-89622143D01*
X66798571Y-87622143D02*
X65655714Y-87622143D01*
X66369999Y-86622143D02*
X66369999Y-89193571D01*
X66227142Y-89479286D01*
X65941428Y-89622143D01*
X65655714Y-89622143D01*
X64178571Y-35466428D02*
X62678571Y-35466428D01*
X64178571Y-36109285D02*
X63392857Y-36109285D01*
X63250000Y-36037856D01*
X63178571Y-35894999D01*
X63178571Y-35680714D01*
X63250000Y-35537856D01*
X63321429Y-35466428D01*
X64107143Y-37394999D02*
X64178571Y-37252142D01*
X64178571Y-36966428D01*
X64107143Y-36823571D01*
X63964286Y-36752142D01*
X63392857Y-36752142D01*
X63250000Y-36823571D01*
X63178571Y-36966428D01*
X63178571Y-37252142D01*
X63250000Y-37394999D01*
X63392857Y-37466428D01*
X63535714Y-37466428D01*
X63678571Y-36752142D01*
X64178571Y-38752142D02*
X63392857Y-38752142D01*
X63250000Y-38680713D01*
X63178571Y-38537856D01*
X63178571Y-38252142D01*
X63250000Y-38109285D01*
X64107143Y-38752142D02*
X64178571Y-38609285D01*
X64178571Y-38252142D01*
X64107143Y-38109285D01*
X63964286Y-38037856D01*
X63821429Y-38037856D01*
X63678571Y-38109285D01*
X63607143Y-38252142D01*
X63607143Y-38609285D01*
X63535714Y-38752142D01*
X64178571Y-40109285D02*
X62678571Y-40109285D01*
X64107143Y-40109285D02*
X64178571Y-39966428D01*
X64178571Y-39680714D01*
X64107143Y-39537856D01*
X64035714Y-39466428D01*
X63892857Y-39394999D01*
X63464286Y-39394999D01*
X63321429Y-39466428D01*
X63250000Y-39537856D01*
X63178571Y-39680714D01*
X63178571Y-39966428D01*
X63250000Y-40109285D01*
X64107143Y-41394999D02*
X64178571Y-41252142D01*
X64178571Y-40966428D01*
X64107143Y-40823571D01*
X63964286Y-40752142D01*
X63392857Y-40752142D01*
X63250000Y-40823571D01*
X63178571Y-40966428D01*
X63178571Y-41252142D01*
X63250000Y-41394999D01*
X63392857Y-41466428D01*
X63535714Y-41466428D01*
X63678571Y-40752142D01*
X64178571Y-42109285D02*
X63178571Y-42109285D01*
X63464286Y-42109285D02*
X63321429Y-42180713D01*
X63250000Y-42252142D01*
X63178571Y-42394999D01*
X63178571Y-42537856D01*
X63178571Y-44180713D02*
X64678571Y-44180713D01*
X63250000Y-44180713D02*
X63178571Y-44323570D01*
X63178571Y-44609284D01*
X63250000Y-44752141D01*
X63321429Y-44823570D01*
X63464286Y-44894999D01*
X63892857Y-44894999D01*
X64035714Y-44823570D01*
X64107143Y-44752141D01*
X64178571Y-44609284D01*
X64178571Y-44323570D01*
X64107143Y-44180713D01*
X64178571Y-45537856D02*
X63178571Y-45537856D01*
X62678571Y-45537856D02*
X62750000Y-45466427D01*
X62821429Y-45537856D01*
X62750000Y-45609284D01*
X62678571Y-45537856D01*
X62821429Y-45537856D01*
X63178571Y-46252142D02*
X64178571Y-46252142D01*
X63321429Y-46252142D02*
X63250000Y-46323570D01*
X63178571Y-46466428D01*
X63178571Y-46680713D01*
X63250000Y-46823570D01*
X63392857Y-46894999D01*
X64178571Y-46894999D01*
X64107143Y-47537856D02*
X64178571Y-47680713D01*
X64178571Y-47966428D01*
X64107143Y-48109285D01*
X63964286Y-48180713D01*
X63892857Y-48180713D01*
X63750000Y-48109285D01*
X63678571Y-47966428D01*
X63678571Y-47752142D01*
X63607143Y-47609285D01*
X63464286Y-47537856D01*
X63392857Y-47537856D01*
X63250000Y-47609285D01*
X63178571Y-47752142D01*
X63178571Y-47966428D01*
X63250000Y-48109285D01*
X63178571Y-49752142D02*
X63178571Y-50323571D01*
X64178571Y-49966428D02*
X62892857Y-49966428D01*
X62750000Y-50037856D01*
X62678571Y-50180714D01*
X62678571Y-50323571D01*
X64178571Y-50823571D02*
X63178571Y-50823571D01*
X62678571Y-50823571D02*
X62750000Y-50752142D01*
X62821429Y-50823571D01*
X62750000Y-50894999D01*
X62678571Y-50823571D01*
X62821429Y-50823571D01*
X64178571Y-51537857D02*
X63178571Y-51537857D01*
X63464286Y-51537857D02*
X63321429Y-51609285D01*
X63250000Y-51680714D01*
X63178571Y-51823571D01*
X63178571Y-51966428D01*
X64107143Y-52394999D02*
X64178571Y-52537856D01*
X64178571Y-52823571D01*
X64107143Y-52966428D01*
X63964286Y-53037856D01*
X63892857Y-53037856D01*
X63750000Y-52966428D01*
X63678571Y-52823571D01*
X63678571Y-52609285D01*
X63607143Y-52466428D01*
X63464286Y-52394999D01*
X63392857Y-52394999D01*
X63250000Y-52466428D01*
X63178571Y-52609285D01*
X63178571Y-52823571D01*
X63250000Y-52966428D01*
X63178571Y-53466428D02*
X63178571Y-54037857D01*
X62678571Y-53680714D02*
X63964286Y-53680714D01*
X64107143Y-53752142D01*
X64178571Y-53895000D01*
X64178571Y-54037857D01*
X64178571Y-56323571D02*
X62678571Y-56323571D01*
X64107143Y-56323571D02*
X64178571Y-56180714D01*
X64178571Y-55895000D01*
X64107143Y-55752142D01*
X64035714Y-55680714D01*
X63892857Y-55609285D01*
X63464286Y-55609285D01*
X63321429Y-55680714D01*
X63250000Y-55752142D01*
X63178571Y-55895000D01*
X63178571Y-56180714D01*
X63250000Y-56323571D01*
X64178571Y-57037857D02*
X63178571Y-57037857D01*
X62678571Y-57037857D02*
X62750000Y-56966428D01*
X62821429Y-57037857D01*
X62750000Y-57109285D01*
X62678571Y-57037857D01*
X62821429Y-57037857D01*
X63178571Y-57752143D02*
X64178571Y-57752143D01*
X63321429Y-57752143D02*
X63250000Y-57823571D01*
X63178571Y-57966429D01*
X63178571Y-58180714D01*
X63250000Y-58323571D01*
X63392857Y-58395000D01*
X64178571Y-58395000D01*
X63178571Y-59752143D02*
X64392857Y-59752143D01*
X64535714Y-59680714D01*
X64607143Y-59609286D01*
X64678571Y-59466429D01*
X64678571Y-59252143D01*
X64607143Y-59109286D01*
X64107143Y-59752143D02*
X64178571Y-59609286D01*
X64178571Y-59323572D01*
X64107143Y-59180714D01*
X64035714Y-59109286D01*
X63892857Y-59037857D01*
X63464286Y-59037857D01*
X63321429Y-59109286D01*
X63250000Y-59180714D01*
X63178571Y-59323572D01*
X63178571Y-59609286D01*
X63250000Y-59752143D01*
X63178571Y-61109286D02*
X64178571Y-61109286D01*
X63178571Y-60466429D02*
X63964286Y-60466429D01*
X64107143Y-60537857D01*
X64178571Y-60680715D01*
X64178571Y-60895000D01*
X64107143Y-61037857D01*
X64035714Y-61109286D01*
X64107143Y-61752143D02*
X64178571Y-61895000D01*
X64178571Y-62180715D01*
X64107143Y-62323572D01*
X63964286Y-62395000D01*
X63892857Y-62395000D01*
X63750000Y-62323572D01*
X63678571Y-62180715D01*
X63678571Y-61966429D01*
X63607143Y-61823572D01*
X63464286Y-61752143D01*
X63392857Y-61752143D01*
X63250000Y-61823572D01*
X63178571Y-61966429D01*
X63178571Y-62180715D01*
X63250000Y-62323572D01*
X126918809Y-51791905D02*
X129299762Y-51791905D01*
X129299762Y-46791905D01*
X123347381Y-51553810D02*
X123823571Y-51791905D01*
X124775952Y-51791905D01*
X125252143Y-51553810D01*
X125490238Y-51077619D01*
X125490238Y-49172857D01*
X125252143Y-48696667D01*
X124775952Y-48458571D01*
X123823571Y-48458571D01*
X123347381Y-48696667D01*
X123109286Y-49172857D01*
X123109286Y-49649048D01*
X125490238Y-50125238D01*
X121680715Y-48458571D02*
X119775953Y-48458571D01*
X120966429Y-46791905D02*
X120966429Y-51077619D01*
X120728334Y-51553810D01*
X120252143Y-51791905D01*
X119775953Y-51791905D01*
X118347381Y-51553810D02*
X117871191Y-51791905D01*
X116918810Y-51791905D01*
X116442619Y-51553810D01*
X116204524Y-51077619D01*
X116204524Y-50839524D01*
X116442619Y-50363333D01*
X116918810Y-50125238D01*
X117633095Y-50125238D01*
X118109286Y-49887143D01*
X118347381Y-49410952D01*
X118347381Y-49172857D01*
X118109286Y-48696667D01*
X117633095Y-48458571D01*
X116918810Y-48458571D01*
X116442619Y-48696667D01*
X110490238Y-51553810D02*
X109775952Y-51791905D01*
X108585476Y-51791905D01*
X108109286Y-51553810D01*
X107871190Y-51315714D01*
X107633095Y-50839524D01*
X107633095Y-50363333D01*
X107871190Y-49887143D01*
X108109286Y-49649048D01*
X108585476Y-49410952D01*
X109537857Y-49172857D01*
X110014048Y-48934762D01*
X110252143Y-48696667D01*
X110490238Y-48220476D01*
X110490238Y-47744286D01*
X110252143Y-47268095D01*
X110014048Y-47030000D01*
X109537857Y-46791905D01*
X108347381Y-46791905D01*
X107633095Y-47030000D01*
X105490238Y-48458571D02*
X105490238Y-53458571D01*
X105490238Y-48696667D02*
X105014047Y-48458571D01*
X104061666Y-48458571D01*
X103585476Y-48696667D01*
X103347381Y-48934762D01*
X103109285Y-49410952D01*
X103109285Y-50839524D01*
X103347381Y-51315714D01*
X103585476Y-51553810D01*
X104061666Y-51791905D01*
X105014047Y-51791905D01*
X105490238Y-51553810D01*
X100252142Y-51791905D02*
X100728333Y-51553810D01*
X100966428Y-51077619D01*
X100966428Y-46791905D01*
X98347380Y-51791905D02*
X98347380Y-48458571D01*
X98347380Y-46791905D02*
X98585475Y-47030000D01*
X98347380Y-47268095D01*
X98109285Y-47030000D01*
X98347380Y-46791905D01*
X98347380Y-47268095D01*
X96680714Y-48458571D02*
X94775952Y-48458571D01*
X95966428Y-46791905D02*
X95966428Y-51077619D01*
X95728333Y-51553810D01*
X95252142Y-51791905D01*
X94775952Y-51791905D01*
D12*
X41540000Y-44620000D02*
X41540000Y-46820000D01*
X41740000Y-46820000D02*
X41740000Y-44620000D01*
X41940000Y-46720000D02*
X41940000Y-46820000D01*
X41940000Y-46820000D02*
X41940000Y-46720000D01*
X41940000Y-44620000D02*
X41940000Y-46720000D01*
D13*
X39116000Y-46863000D02*
X42164000Y-46863000D01*
X42164000Y-46863000D02*
X42164000Y-44577000D01*
X42164000Y-44577000D02*
X39116000Y-44577000D01*
X39116000Y-44577000D02*
X39116000Y-46863000D01*
D12*
X41540000Y-63670000D02*
X41540000Y-65870000D01*
X41740000Y-65870000D02*
X41740000Y-63670000D01*
X41940000Y-65770000D02*
X41940000Y-65870000D01*
X41940000Y-65870000D02*
X41940000Y-65770000D01*
X41940000Y-63670000D02*
X41940000Y-65770000D01*
D13*
X39116000Y-65913000D02*
X42164000Y-65913000D01*
X42164000Y-65913000D02*
X42164000Y-63627000D01*
X42164000Y-63627000D02*
X39116000Y-63627000D01*
X39116000Y-63627000D02*
X39116000Y-65913000D01*
D12*
X41540000Y-82720000D02*
X41540000Y-84920000D01*
X41740000Y-84920000D02*
X41740000Y-82720000D01*
X41940000Y-84820000D02*
X41940000Y-84920000D01*
X41940000Y-84920000D02*
X41940000Y-84820000D01*
X41940000Y-82720000D02*
X41940000Y-84820000D01*
D13*
X39116000Y-84963000D02*
X42164000Y-84963000D01*
X42164000Y-84963000D02*
X42164000Y-82677000D01*
X42164000Y-82677000D02*
X39116000Y-82677000D01*
X39116000Y-82677000D02*
X39116000Y-84963000D01*
D12*
X41540000Y-101770000D02*
X41540000Y-103970000D01*
X41740000Y-103970000D02*
X41740000Y-101770000D01*
X41940000Y-103870000D02*
X41940000Y-103970000D01*
X41940000Y-103970000D02*
X41940000Y-103870000D01*
X41940000Y-101770000D02*
X41940000Y-103870000D01*
D13*
X39116000Y-104013000D02*
X42164000Y-104013000D01*
X42164000Y-104013000D02*
X42164000Y-101727000D01*
X42164000Y-101727000D02*
X39116000Y-101727000D01*
X39116000Y-101727000D02*
X39116000Y-104013000D01*
D12*
X49995000Y-42810000D02*
X47795000Y-42810000D01*
X47795000Y-43010000D02*
X49995000Y-43010000D01*
X47895000Y-43210000D02*
X47795000Y-43210000D01*
X47795000Y-43210000D02*
X47895000Y-43210000D01*
X49995000Y-43210000D02*
X47895000Y-43210000D01*
D13*
X47752000Y-40386000D02*
X47752000Y-43434000D01*
X47752000Y-43434000D02*
X50038000Y-43434000D01*
X50038000Y-43434000D02*
X50038000Y-40386000D01*
X50038000Y-40386000D02*
X47752000Y-40386000D01*
D12*
X60590000Y-65575000D02*
X60590000Y-67775000D01*
X60790000Y-67775000D02*
X60790000Y-65575000D01*
X60990000Y-67675000D02*
X60990000Y-67775000D01*
X60990000Y-67775000D02*
X60990000Y-67675000D01*
X60990000Y-65575000D02*
X60990000Y-67675000D01*
D13*
X58166000Y-67818000D02*
X61214000Y-67818000D01*
X61214000Y-67818000D02*
X61214000Y-65532000D01*
X61214000Y-65532000D02*
X58166000Y-65532000D01*
X58166000Y-65532000D02*
X58166000Y-67818000D01*
D12*
X52535000Y-80910000D02*
X50335000Y-80910000D01*
X50335000Y-81110000D02*
X52535000Y-81110000D01*
X50435000Y-81310000D02*
X50335000Y-81310000D01*
X50335000Y-81310000D02*
X50435000Y-81310000D01*
X52535000Y-81310000D02*
X50435000Y-81310000D01*
D13*
X50292000Y-78486000D02*
X50292000Y-81534000D01*
X50292000Y-81534000D02*
X52578000Y-81534000D01*
X52578000Y-81534000D02*
X52578000Y-78486000D01*
X52578000Y-78486000D02*
X50292000Y-78486000D01*
D12*
X52535000Y-99960000D02*
X50335000Y-99960000D01*
X50335000Y-100160000D02*
X52535000Y-100160000D01*
X50435000Y-100360000D02*
X50335000Y-100360000D01*
X50335000Y-100360000D02*
X50435000Y-100360000D01*
X52535000Y-100360000D02*
X50435000Y-100360000D01*
D13*
X50292000Y-97536000D02*
X50292000Y-100584000D01*
X50292000Y-100584000D02*
X52578000Y-100584000D01*
X52578000Y-100584000D02*
X52578000Y-97536000D01*
X52578000Y-97536000D02*
X50292000Y-97536000D01*
D12*
X71585000Y-42810000D02*
X69385000Y-42810000D01*
X69385000Y-43010000D02*
X71585000Y-43010000D01*
X69485000Y-43210000D02*
X69385000Y-43210000D01*
X69385000Y-43210000D02*
X69485000Y-43210000D01*
X71585000Y-43210000D02*
X69485000Y-43210000D01*
D13*
X69342000Y-40386000D02*
X69342000Y-43434000D01*
X69342000Y-43434000D02*
X71628000Y-43434000D01*
X71628000Y-43434000D02*
X71628000Y-40386000D01*
X71628000Y-40386000D02*
X69342000Y-40386000D01*
D12*
X71585000Y-61860000D02*
X69385000Y-61860000D01*
X69385000Y-62060000D02*
X71585000Y-62060000D01*
X69485000Y-62260000D02*
X69385000Y-62260000D01*
X69385000Y-62260000D02*
X69485000Y-62260000D01*
X71585000Y-62260000D02*
X69485000Y-62260000D01*
D13*
X69342000Y-59436000D02*
X69342000Y-62484000D01*
X69342000Y-62484000D02*
X71628000Y-62484000D01*
X71628000Y-62484000D02*
X71628000Y-59436000D01*
X71628000Y-59436000D02*
X69342000Y-59436000D01*
D12*
X71585000Y-80910000D02*
X69385000Y-80910000D01*
X69385000Y-81110000D02*
X71585000Y-81110000D01*
X69485000Y-81310000D02*
X69385000Y-81310000D01*
X69385000Y-81310000D02*
X69485000Y-81310000D01*
X71585000Y-81310000D02*
X69485000Y-81310000D01*
D13*
X69342000Y-78486000D02*
X69342000Y-81534000D01*
X69342000Y-81534000D02*
X71628000Y-81534000D01*
X71628000Y-81534000D02*
X71628000Y-78486000D01*
X71628000Y-78486000D02*
X69342000Y-78486000D01*
D12*
X71585000Y-99960000D02*
X69385000Y-99960000D01*
X69385000Y-100160000D02*
X71585000Y-100160000D01*
X69485000Y-100360000D02*
X69385000Y-100360000D01*
X69385000Y-100360000D02*
X69485000Y-100360000D01*
X71585000Y-100360000D02*
X69485000Y-100360000D01*
D13*
X69342000Y-97536000D02*
X69342000Y-100584000D01*
X69342000Y-100584000D02*
X71628000Y-100584000D01*
X71628000Y-100584000D02*
X71628000Y-97536000D01*
X71628000Y-97536000D02*
X69342000Y-97536000D01*
D12*
X90635000Y-42810000D02*
X88435000Y-42810000D01*
X88435000Y-43010000D02*
X90635000Y-43010000D01*
X88535000Y-43210000D02*
X88435000Y-43210000D01*
X88435000Y-43210000D02*
X88535000Y-43210000D01*
X90635000Y-43210000D02*
X88535000Y-43210000D01*
D13*
X88392000Y-40386000D02*
X88392000Y-43434000D01*
X88392000Y-43434000D02*
X90678000Y-43434000D01*
X90678000Y-43434000D02*
X90678000Y-40386000D01*
X90678000Y-40386000D02*
X88392000Y-40386000D01*
D12*
X90635000Y-61860000D02*
X88435000Y-61860000D01*
X88435000Y-62060000D02*
X90635000Y-62060000D01*
X88535000Y-62260000D02*
X88435000Y-62260000D01*
X88435000Y-62260000D02*
X88535000Y-62260000D01*
X90635000Y-62260000D02*
X88535000Y-62260000D01*
D13*
X88392000Y-59436000D02*
X88392000Y-62484000D01*
X88392000Y-62484000D02*
X90678000Y-62484000D01*
X90678000Y-62484000D02*
X90678000Y-59436000D01*
X90678000Y-59436000D02*
X88392000Y-59436000D01*
D12*
X90635000Y-80910000D02*
X88435000Y-80910000D01*
X88435000Y-81110000D02*
X90635000Y-81110000D01*
X88535000Y-81310000D02*
X88435000Y-81310000D01*
X88435000Y-81310000D02*
X88535000Y-81310000D01*
X90635000Y-81310000D02*
X88535000Y-81310000D01*
D13*
X88392000Y-78486000D02*
X88392000Y-81534000D01*
X88392000Y-81534000D02*
X90678000Y-81534000D01*
X90678000Y-81534000D02*
X90678000Y-78486000D01*
X90678000Y-78486000D02*
X88392000Y-78486000D01*
D12*
X90635000Y-99960000D02*
X88435000Y-99960000D01*
X88435000Y-100160000D02*
X90635000Y-100160000D01*
X88535000Y-100360000D02*
X88435000Y-100360000D01*
X88435000Y-100360000D02*
X88535000Y-100360000D01*
X90635000Y-100360000D02*
X88535000Y-100360000D01*
D13*
X88392000Y-97536000D02*
X88392000Y-100584000D01*
X88392000Y-100584000D02*
X90678000Y-100584000D01*
X90678000Y-100584000D02*
X90678000Y-97536000D01*
X90678000Y-97536000D02*
X88392000Y-97536000D01*
D12*
X109685000Y-42810000D02*
X107485000Y-42810000D01*
X107485000Y-43010000D02*
X109685000Y-43010000D01*
X107585000Y-43210000D02*
X107485000Y-43210000D01*
X107485000Y-43210000D02*
X107585000Y-43210000D01*
X109685000Y-43210000D02*
X107585000Y-43210000D01*
D13*
X107442000Y-40386000D02*
X107442000Y-43434000D01*
X107442000Y-43434000D02*
X109728000Y-43434000D01*
X109728000Y-43434000D02*
X109728000Y-40386000D01*
X109728000Y-40386000D02*
X107442000Y-40386000D01*
D12*
X109685000Y-61860000D02*
X107485000Y-61860000D01*
X107485000Y-62060000D02*
X109685000Y-62060000D01*
X107585000Y-62260000D02*
X107485000Y-62260000D01*
X107485000Y-62260000D02*
X107585000Y-62260000D01*
X109685000Y-62260000D02*
X107585000Y-62260000D01*
D13*
X107442000Y-59436000D02*
X107442000Y-62484000D01*
X107442000Y-62484000D02*
X109728000Y-62484000D01*
X109728000Y-62484000D02*
X109728000Y-59436000D01*
X109728000Y-59436000D02*
X107442000Y-59436000D01*
D12*
X109685000Y-80910000D02*
X107485000Y-80910000D01*
X107485000Y-81110000D02*
X109685000Y-81110000D01*
X107585000Y-81310000D02*
X107485000Y-81310000D01*
X107485000Y-81310000D02*
X107585000Y-81310000D01*
X109685000Y-81310000D02*
X107585000Y-81310000D01*
D13*
X107442000Y-78486000D02*
X107442000Y-81534000D01*
X107442000Y-81534000D02*
X109728000Y-81534000D01*
X109728000Y-81534000D02*
X109728000Y-78486000D01*
X109728000Y-78486000D02*
X107442000Y-78486000D01*
D12*
X109685000Y-99960000D02*
X107485000Y-99960000D01*
X107485000Y-100160000D02*
X109685000Y-100160000D01*
X107585000Y-100360000D02*
X107485000Y-100360000D01*
X107485000Y-100360000D02*
X107585000Y-100360000D01*
X109685000Y-100360000D02*
X107585000Y-100360000D01*
D13*
X107442000Y-97536000D02*
X107442000Y-100584000D01*
X107442000Y-100584000D02*
X109728000Y-100584000D01*
X109728000Y-100584000D02*
X109728000Y-97536000D01*
X109728000Y-97536000D02*
X107442000Y-97536000D01*
D12*
X127370000Y-46185000D02*
X127370000Y-43985000D01*
X127170000Y-43985000D02*
X127170000Y-46185000D01*
X126970000Y-44085000D02*
X126970000Y-43985000D01*
X126970000Y-43985000D02*
X126970000Y-44085000D01*
X126970000Y-46185000D02*
X126970000Y-44085000D01*
D13*
X129794000Y-43942000D02*
X126746000Y-43942000D01*
X126746000Y-43942000D02*
X126746000Y-46228000D01*
X126746000Y-46228000D02*
X129794000Y-46228000D01*
X129794000Y-46228000D02*
X129794000Y-43942000D01*
D12*
X128735000Y-61860000D02*
X126535000Y-61860000D01*
X126535000Y-62060000D02*
X128735000Y-62060000D01*
X126635000Y-62260000D02*
X126535000Y-62260000D01*
X126535000Y-62260000D02*
X126635000Y-62260000D01*
X128735000Y-62260000D02*
X126635000Y-62260000D01*
D13*
X126492000Y-59436000D02*
X126492000Y-62484000D01*
X126492000Y-62484000D02*
X128778000Y-62484000D01*
X128778000Y-62484000D02*
X128778000Y-59436000D01*
X128778000Y-59436000D02*
X126492000Y-59436000D01*
D12*
X128735000Y-80910000D02*
X126535000Y-80910000D01*
X126535000Y-81110000D02*
X128735000Y-81110000D01*
X126635000Y-81310000D02*
X126535000Y-81310000D01*
X126535000Y-81310000D02*
X126635000Y-81310000D01*
X128735000Y-81310000D02*
X126635000Y-81310000D01*
D13*
X126492000Y-78486000D02*
X126492000Y-81534000D01*
X126492000Y-81534000D02*
X128778000Y-81534000D01*
X128778000Y-81534000D02*
X128778000Y-78486000D01*
X128778000Y-78486000D02*
X126492000Y-78486000D01*
D12*
X128735000Y-99960000D02*
X126535000Y-99960000D01*
X126535000Y-100160000D02*
X128735000Y-100160000D01*
X126635000Y-100360000D02*
X126535000Y-100360000D01*
X126535000Y-100360000D02*
X126635000Y-100360000D01*
X128735000Y-100360000D02*
X126635000Y-100360000D01*
D13*
X126492000Y-97536000D02*
X126492000Y-100584000D01*
X126492000Y-100584000D02*
X128778000Y-100584000D01*
X128778000Y-100584000D02*
X128778000Y-97536000D01*
X128778000Y-97536000D02*
X126492000Y-97536000D01*
D12*
X42514890Y-49614780D02*
X40014890Y-49614780D01*
X40014890Y-49614780D02*
X40014890Y-50714780D01*
X40014890Y-50714780D02*
X42514890Y-50714780D01*
X42514890Y-50714780D02*
X42514890Y-49614780D01*
X42764890Y-50964780D02*
X39764890Y-50964780D01*
X42764890Y-49364780D02*
X39764890Y-49364780D01*
X39764890Y-49364780D02*
X39764890Y-50964780D01*
X42764890Y-49364780D02*
X42764890Y-50964780D01*
X44264890Y-51914780D02*
X38264890Y-51914780D01*
X44264890Y-48414780D02*
X38264890Y-48414780D01*
X44264890Y-48414780D02*
X44264890Y-51914780D01*
X38264890Y-48414780D02*
X38264890Y-51914780D01*
D14*
X120929400Y-30480000D02*
X120929400Y-42545000D01*
X120929400Y-42545000D02*
X130530600Y-42545000D01*
X130530600Y-42545000D02*
X130530600Y-30480000D01*
D13*
X41764857Y-46294524D02*
X41764857Y-45024524D01*
X41402000Y-45024524D01*
X41184285Y-45085000D01*
X41039143Y-45205952D01*
X40966571Y-45326905D01*
X40894000Y-45568810D01*
X40894000Y-45750238D01*
X40966571Y-45992143D01*
X41039143Y-46113095D01*
X41184285Y-46234048D01*
X41402000Y-46294524D01*
X41764857Y-46294524D01*
X39442571Y-46294524D02*
X40313428Y-46294524D01*
X39878000Y-46294524D02*
X39878000Y-45024524D01*
X40023143Y-45205952D01*
X40168285Y-45326905D01*
X40313428Y-45387381D01*
X41764857Y-65344524D02*
X41764857Y-64074524D01*
X41402000Y-64074524D01*
X41184285Y-64135000D01*
X41039143Y-64255952D01*
X40966571Y-64376905D01*
X40894000Y-64618810D01*
X40894000Y-64800238D01*
X40966571Y-65042143D01*
X41039143Y-65163095D01*
X41184285Y-65284048D01*
X41402000Y-65344524D01*
X41764857Y-65344524D01*
X40313428Y-64195476D02*
X40240857Y-64135000D01*
X40095714Y-64074524D01*
X39732857Y-64074524D01*
X39587714Y-64135000D01*
X39515143Y-64195476D01*
X39442571Y-64316429D01*
X39442571Y-64437381D01*
X39515143Y-64618810D01*
X40386000Y-65344524D01*
X39442571Y-65344524D01*
X41764857Y-84394524D02*
X41764857Y-83124524D01*
X41402000Y-83124524D01*
X41184285Y-83185000D01*
X41039143Y-83305952D01*
X40966571Y-83426905D01*
X40894000Y-83668810D01*
X40894000Y-83850238D01*
X40966571Y-84092143D01*
X41039143Y-84213095D01*
X41184285Y-84334048D01*
X41402000Y-84394524D01*
X41764857Y-84394524D01*
X40386000Y-83124524D02*
X39442571Y-83124524D01*
X39950571Y-83608333D01*
X39732857Y-83608333D01*
X39587714Y-83668810D01*
X39515143Y-83729286D01*
X39442571Y-83850238D01*
X39442571Y-84152619D01*
X39515143Y-84273571D01*
X39587714Y-84334048D01*
X39732857Y-84394524D01*
X40168285Y-84394524D01*
X40313428Y-84334048D01*
X40386000Y-84273571D01*
X41764857Y-103444524D02*
X41764857Y-102174524D01*
X41402000Y-102174524D01*
X41184285Y-102235000D01*
X41039143Y-102355952D01*
X40966571Y-102476905D01*
X40894000Y-102718810D01*
X40894000Y-102900238D01*
X40966571Y-103142143D01*
X41039143Y-103263095D01*
X41184285Y-103384048D01*
X41402000Y-103444524D01*
X41764857Y-103444524D01*
X39587714Y-102597857D02*
X39587714Y-103444524D01*
X39950571Y-102114048D02*
X40313428Y-103021190D01*
X39370000Y-103021190D01*
X49469524Y-40785143D02*
X48199524Y-40785143D01*
X48199524Y-41148000D01*
X48260000Y-41365715D01*
X48380952Y-41510857D01*
X48501905Y-41583429D01*
X48743810Y-41656000D01*
X48925238Y-41656000D01*
X49167143Y-41583429D01*
X49288095Y-41510857D01*
X49409048Y-41365715D01*
X49469524Y-41148000D01*
X49469524Y-40785143D01*
X48199524Y-43034857D02*
X48199524Y-42309143D01*
X48804286Y-42236572D01*
X48743810Y-42309143D01*
X48683333Y-42454286D01*
X48683333Y-42817143D01*
X48743810Y-42962286D01*
X48804286Y-43034857D01*
X48925238Y-43107429D01*
X49227619Y-43107429D01*
X49348571Y-43034857D01*
X49409048Y-42962286D01*
X49469524Y-42817143D01*
X49469524Y-42454286D01*
X49409048Y-42309143D01*
X49348571Y-42236572D01*
X60814857Y-67249524D02*
X60814857Y-65979524D01*
X60452000Y-65979524D01*
X60234285Y-66040000D01*
X60089143Y-66160952D01*
X60016571Y-66281905D01*
X59944000Y-66523810D01*
X59944000Y-66705238D01*
X60016571Y-66947143D01*
X60089143Y-67068095D01*
X60234285Y-67189048D01*
X60452000Y-67249524D01*
X60814857Y-67249524D01*
X58637714Y-65979524D02*
X58928000Y-65979524D01*
X59073143Y-66040000D01*
X59145714Y-66100476D01*
X59290857Y-66281905D01*
X59363428Y-66523810D01*
X59363428Y-67007619D01*
X59290857Y-67128571D01*
X59218285Y-67189048D01*
X59073143Y-67249524D01*
X58782857Y-67249524D01*
X58637714Y-67189048D01*
X58565143Y-67128571D01*
X58492571Y-67007619D01*
X58492571Y-66705238D01*
X58565143Y-66584286D01*
X58637714Y-66523810D01*
X58782857Y-66463333D01*
X59073143Y-66463333D01*
X59218285Y-66523810D01*
X59290857Y-66584286D01*
X59363428Y-66705238D01*
X52009524Y-78885143D02*
X50739524Y-78885143D01*
X50739524Y-79248000D01*
X50800000Y-79465715D01*
X50920952Y-79610857D01*
X51041905Y-79683429D01*
X51283810Y-79756000D01*
X51465238Y-79756000D01*
X51707143Y-79683429D01*
X51828095Y-79610857D01*
X51949048Y-79465715D01*
X52009524Y-79248000D01*
X52009524Y-78885143D01*
X50739524Y-80264000D02*
X50739524Y-81280000D01*
X52009524Y-80626857D01*
X52009524Y-97935143D02*
X50739524Y-97935143D01*
X50739524Y-98298000D01*
X50800000Y-98515715D01*
X50920952Y-98660857D01*
X51041905Y-98733429D01*
X51283810Y-98806000D01*
X51465238Y-98806000D01*
X51707143Y-98733429D01*
X51828095Y-98660857D01*
X51949048Y-98515715D01*
X52009524Y-98298000D01*
X52009524Y-97935143D01*
X51283810Y-99676857D02*
X51223333Y-99531715D01*
X51162857Y-99459143D01*
X51041905Y-99386572D01*
X50981429Y-99386572D01*
X50860476Y-99459143D01*
X50800000Y-99531715D01*
X50739524Y-99676857D01*
X50739524Y-99967143D01*
X50800000Y-100112286D01*
X50860476Y-100184857D01*
X50981429Y-100257429D01*
X51041905Y-100257429D01*
X51162857Y-100184857D01*
X51223333Y-100112286D01*
X51283810Y-99967143D01*
X51283810Y-99676857D01*
X51344286Y-99531715D01*
X51404762Y-99459143D01*
X51525714Y-99386572D01*
X51767619Y-99386572D01*
X51888571Y-99459143D01*
X51949048Y-99531715D01*
X52009524Y-99676857D01*
X52009524Y-99967143D01*
X51949048Y-100112286D01*
X51888571Y-100184857D01*
X51767619Y-100257429D01*
X51525714Y-100257429D01*
X51404762Y-100184857D01*
X51344286Y-100112286D01*
X51283810Y-99967143D01*
X71059524Y-40785143D02*
X69789524Y-40785143D01*
X69789524Y-41148000D01*
X69850000Y-41365715D01*
X69970952Y-41510857D01*
X70091905Y-41583429D01*
X70333810Y-41656000D01*
X70515238Y-41656000D01*
X70757143Y-41583429D01*
X70878095Y-41510857D01*
X70999048Y-41365715D01*
X71059524Y-41148000D01*
X71059524Y-40785143D01*
X71059524Y-42381715D02*
X71059524Y-42672000D01*
X70999048Y-42817143D01*
X70938571Y-42889715D01*
X70757143Y-43034857D01*
X70515238Y-43107429D01*
X70031429Y-43107429D01*
X69910476Y-43034857D01*
X69850000Y-42962286D01*
X69789524Y-42817143D01*
X69789524Y-42526857D01*
X69850000Y-42381715D01*
X69910476Y-42309143D01*
X70031429Y-42236572D01*
X70333810Y-42236572D01*
X70454762Y-42309143D01*
X70515238Y-42381715D01*
X70575714Y-42526857D01*
X70575714Y-42817143D01*
X70515238Y-42962286D01*
X70454762Y-43034857D01*
X70333810Y-43107429D01*
X71059524Y-59109428D02*
X69789524Y-59109428D01*
X69789524Y-59472285D01*
X69850000Y-59690000D01*
X69970952Y-59835142D01*
X70091905Y-59907714D01*
X70333810Y-59980285D01*
X70515238Y-59980285D01*
X70757143Y-59907714D01*
X70878095Y-59835142D01*
X70999048Y-59690000D01*
X71059524Y-59472285D01*
X71059524Y-59109428D01*
X71059524Y-61431714D02*
X71059524Y-60560857D01*
X71059524Y-60996285D02*
X69789524Y-60996285D01*
X69970952Y-60851142D01*
X70091905Y-60706000D01*
X70152381Y-60560857D01*
X69789524Y-62375143D02*
X69789524Y-62520286D01*
X69850000Y-62665429D01*
X69910476Y-62738000D01*
X70031429Y-62810571D01*
X70273333Y-62883143D01*
X70575714Y-62883143D01*
X70817619Y-62810571D01*
X70938571Y-62738000D01*
X70999048Y-62665429D01*
X71059524Y-62520286D01*
X71059524Y-62375143D01*
X70999048Y-62230000D01*
X70938571Y-62157429D01*
X70817619Y-62084857D01*
X70575714Y-62012286D01*
X70273333Y-62012286D01*
X70031429Y-62084857D01*
X69910476Y-62157429D01*
X69850000Y-62230000D01*
X69789524Y-62375143D01*
X71059524Y-78159428D02*
X69789524Y-78159428D01*
X69789524Y-78522285D01*
X69850000Y-78740000D01*
X69970952Y-78885142D01*
X70091905Y-78957714D01*
X70333810Y-79030285D01*
X70515238Y-79030285D01*
X70757143Y-78957714D01*
X70878095Y-78885142D01*
X70999048Y-78740000D01*
X71059524Y-78522285D01*
X71059524Y-78159428D01*
X71059524Y-80481714D02*
X71059524Y-79610857D01*
X71059524Y-80046285D02*
X69789524Y-80046285D01*
X69970952Y-79901142D01*
X70091905Y-79756000D01*
X70152381Y-79610857D01*
X71059524Y-81933143D02*
X71059524Y-81062286D01*
X71059524Y-81497714D02*
X69789524Y-81497714D01*
X69970952Y-81352571D01*
X70091905Y-81207429D01*
X70152381Y-81062286D01*
X71059524Y-97209428D02*
X69789524Y-97209428D01*
X69789524Y-97572285D01*
X69850000Y-97790000D01*
X69970952Y-97935142D01*
X70091905Y-98007714D01*
X70333810Y-98080285D01*
X70515238Y-98080285D01*
X70757143Y-98007714D01*
X70878095Y-97935142D01*
X70999048Y-97790000D01*
X71059524Y-97572285D01*
X71059524Y-97209428D01*
X71059524Y-99531714D02*
X71059524Y-98660857D01*
X71059524Y-99096285D02*
X69789524Y-99096285D01*
X69970952Y-98951142D01*
X70091905Y-98806000D01*
X70152381Y-98660857D01*
X69910476Y-100112286D02*
X69850000Y-100184857D01*
X69789524Y-100330000D01*
X69789524Y-100692857D01*
X69850000Y-100838000D01*
X69910476Y-100910571D01*
X70031429Y-100983143D01*
X70152381Y-100983143D01*
X70333810Y-100910571D01*
X71059524Y-100039714D01*
X71059524Y-100983143D01*
X90109524Y-40059428D02*
X88839524Y-40059428D01*
X88839524Y-40422285D01*
X88900000Y-40640000D01*
X89020952Y-40785142D01*
X89141905Y-40857714D01*
X89383810Y-40930285D01*
X89565238Y-40930285D01*
X89807143Y-40857714D01*
X89928095Y-40785142D01*
X90049048Y-40640000D01*
X90109524Y-40422285D01*
X90109524Y-40059428D01*
X90109524Y-42381714D02*
X90109524Y-41510857D01*
X90109524Y-41946285D02*
X88839524Y-41946285D01*
X89020952Y-41801142D01*
X89141905Y-41656000D01*
X89202381Y-41510857D01*
X88839524Y-42889714D02*
X88839524Y-43833143D01*
X89323333Y-43325143D01*
X89323333Y-43542857D01*
X89383810Y-43688000D01*
X89444286Y-43760571D01*
X89565238Y-43833143D01*
X89867619Y-43833143D01*
X89988571Y-43760571D01*
X90049048Y-43688000D01*
X90109524Y-43542857D01*
X90109524Y-43107429D01*
X90049048Y-42962286D01*
X89988571Y-42889714D01*
X90109524Y-59109428D02*
X88839524Y-59109428D01*
X88839524Y-59472285D01*
X88900000Y-59690000D01*
X89020952Y-59835142D01*
X89141905Y-59907714D01*
X89383810Y-59980285D01*
X89565238Y-59980285D01*
X89807143Y-59907714D01*
X89928095Y-59835142D01*
X90049048Y-59690000D01*
X90109524Y-59472285D01*
X90109524Y-59109428D01*
X90109524Y-61431714D02*
X90109524Y-60560857D01*
X90109524Y-60996285D02*
X88839524Y-60996285D01*
X89020952Y-60851142D01*
X89141905Y-60706000D01*
X89202381Y-60560857D01*
X89262857Y-62738000D02*
X90109524Y-62738000D01*
X88779048Y-62375143D02*
X89686190Y-62012286D01*
X89686190Y-62955714D01*
X90109524Y-78159428D02*
X88839524Y-78159428D01*
X88839524Y-78522285D01*
X88900000Y-78740000D01*
X89020952Y-78885142D01*
X89141905Y-78957714D01*
X89383810Y-79030285D01*
X89565238Y-79030285D01*
X89807143Y-78957714D01*
X89928095Y-78885142D01*
X90049048Y-78740000D01*
X90109524Y-78522285D01*
X90109524Y-78159428D01*
X90109524Y-80481714D02*
X90109524Y-79610857D01*
X90109524Y-80046285D02*
X88839524Y-80046285D01*
X89020952Y-79901142D01*
X89141905Y-79756000D01*
X89202381Y-79610857D01*
X88839524Y-81860571D02*
X88839524Y-81134857D01*
X89444286Y-81062286D01*
X89383810Y-81134857D01*
X89323333Y-81280000D01*
X89323333Y-81642857D01*
X89383810Y-81788000D01*
X89444286Y-81860571D01*
X89565238Y-81933143D01*
X89867619Y-81933143D01*
X89988571Y-81860571D01*
X90049048Y-81788000D01*
X90109524Y-81642857D01*
X90109524Y-81280000D01*
X90049048Y-81134857D01*
X89988571Y-81062286D01*
X90109524Y-97209428D02*
X88839524Y-97209428D01*
X88839524Y-97572285D01*
X88900000Y-97790000D01*
X89020952Y-97935142D01*
X89141905Y-98007714D01*
X89383810Y-98080285D01*
X89565238Y-98080285D01*
X89807143Y-98007714D01*
X89928095Y-97935142D01*
X90049048Y-97790000D01*
X90109524Y-97572285D01*
X90109524Y-97209428D01*
X90109524Y-99531714D02*
X90109524Y-98660857D01*
X90109524Y-99096285D02*
X88839524Y-99096285D01*
X89020952Y-98951142D01*
X89141905Y-98806000D01*
X89202381Y-98660857D01*
X88839524Y-100838000D02*
X88839524Y-100547714D01*
X88900000Y-100402571D01*
X88960476Y-100330000D01*
X89141905Y-100184857D01*
X89383810Y-100112286D01*
X89867619Y-100112286D01*
X89988571Y-100184857D01*
X90049048Y-100257429D01*
X90109524Y-100402571D01*
X90109524Y-100692857D01*
X90049048Y-100838000D01*
X89988571Y-100910571D01*
X89867619Y-100983143D01*
X89565238Y-100983143D01*
X89444286Y-100910571D01*
X89383810Y-100838000D01*
X89323333Y-100692857D01*
X89323333Y-100402571D01*
X89383810Y-100257429D01*
X89444286Y-100184857D01*
X89565238Y-100112286D01*
X109159524Y-40059428D02*
X107889524Y-40059428D01*
X107889524Y-40422285D01*
X107950000Y-40640000D01*
X108070952Y-40785142D01*
X108191905Y-40857714D01*
X108433810Y-40930285D01*
X108615238Y-40930285D01*
X108857143Y-40857714D01*
X108978095Y-40785142D01*
X109099048Y-40640000D01*
X109159524Y-40422285D01*
X109159524Y-40059428D01*
X109159524Y-42381714D02*
X109159524Y-41510857D01*
X109159524Y-41946285D02*
X107889524Y-41946285D01*
X108070952Y-41801142D01*
X108191905Y-41656000D01*
X108252381Y-41510857D01*
X107889524Y-42889714D02*
X107889524Y-43905714D01*
X109159524Y-43252571D01*
X109159524Y-59109428D02*
X107889524Y-59109428D01*
X107889524Y-59472285D01*
X107950000Y-59690000D01*
X108070952Y-59835142D01*
X108191905Y-59907714D01*
X108433810Y-59980285D01*
X108615238Y-59980285D01*
X108857143Y-59907714D01*
X108978095Y-59835142D01*
X109099048Y-59690000D01*
X109159524Y-59472285D01*
X109159524Y-59109428D01*
X109159524Y-61431714D02*
X109159524Y-60560857D01*
X109159524Y-60996285D02*
X107889524Y-60996285D01*
X108070952Y-60851142D01*
X108191905Y-60706000D01*
X108252381Y-60560857D01*
X108433810Y-62302571D02*
X108373333Y-62157429D01*
X108312857Y-62084857D01*
X108191905Y-62012286D01*
X108131429Y-62012286D01*
X108010476Y-62084857D01*
X107950000Y-62157429D01*
X107889524Y-62302571D01*
X107889524Y-62592857D01*
X107950000Y-62738000D01*
X108010476Y-62810571D01*
X108131429Y-62883143D01*
X108191905Y-62883143D01*
X108312857Y-62810571D01*
X108373333Y-62738000D01*
X108433810Y-62592857D01*
X108433810Y-62302571D01*
X108494286Y-62157429D01*
X108554762Y-62084857D01*
X108675714Y-62012286D01*
X108917619Y-62012286D01*
X109038571Y-62084857D01*
X109099048Y-62157429D01*
X109159524Y-62302571D01*
X109159524Y-62592857D01*
X109099048Y-62738000D01*
X109038571Y-62810571D01*
X108917619Y-62883143D01*
X108675714Y-62883143D01*
X108554762Y-62810571D01*
X108494286Y-62738000D01*
X108433810Y-62592857D01*
X109159524Y-78159428D02*
X107889524Y-78159428D01*
X107889524Y-78522285D01*
X107950000Y-78740000D01*
X108070952Y-78885142D01*
X108191905Y-78957714D01*
X108433810Y-79030285D01*
X108615238Y-79030285D01*
X108857143Y-78957714D01*
X108978095Y-78885142D01*
X109099048Y-78740000D01*
X109159524Y-78522285D01*
X109159524Y-78159428D01*
X109159524Y-80481714D02*
X109159524Y-79610857D01*
X109159524Y-80046285D02*
X107889524Y-80046285D01*
X108070952Y-79901142D01*
X108191905Y-79756000D01*
X108252381Y-79610857D01*
X109159524Y-81207429D02*
X109159524Y-81497714D01*
X109099048Y-81642857D01*
X109038571Y-81715429D01*
X108857143Y-81860571D01*
X108615238Y-81933143D01*
X108131429Y-81933143D01*
X108010476Y-81860571D01*
X107950000Y-81788000D01*
X107889524Y-81642857D01*
X107889524Y-81352571D01*
X107950000Y-81207429D01*
X108010476Y-81134857D01*
X108131429Y-81062286D01*
X108433810Y-81062286D01*
X108554762Y-81134857D01*
X108615238Y-81207429D01*
X108675714Y-81352571D01*
X108675714Y-81642857D01*
X108615238Y-81788000D01*
X108554762Y-81860571D01*
X108433810Y-81933143D01*
X109159524Y-97209428D02*
X107889524Y-97209428D01*
X107889524Y-97572285D01*
X107950000Y-97790000D01*
X108070952Y-97935142D01*
X108191905Y-98007714D01*
X108433810Y-98080285D01*
X108615238Y-98080285D01*
X108857143Y-98007714D01*
X108978095Y-97935142D01*
X109099048Y-97790000D01*
X109159524Y-97572285D01*
X109159524Y-97209428D01*
X108010476Y-98660857D02*
X107950000Y-98733428D01*
X107889524Y-98878571D01*
X107889524Y-99241428D01*
X107950000Y-99386571D01*
X108010476Y-99459142D01*
X108131429Y-99531714D01*
X108252381Y-99531714D01*
X108433810Y-99459142D01*
X109159524Y-98588285D01*
X109159524Y-99531714D01*
X107889524Y-100475143D02*
X107889524Y-100620286D01*
X107950000Y-100765429D01*
X108010476Y-100838000D01*
X108131429Y-100910571D01*
X108373333Y-100983143D01*
X108675714Y-100983143D01*
X108917619Y-100910571D01*
X109038571Y-100838000D01*
X109099048Y-100765429D01*
X109159524Y-100620286D01*
X109159524Y-100475143D01*
X109099048Y-100330000D01*
X109038571Y-100257429D01*
X108917619Y-100184857D01*
X108675714Y-100112286D01*
X108373333Y-100112286D01*
X108131429Y-100184857D01*
X108010476Y-100257429D01*
X107950000Y-100330000D01*
X107889524Y-100475143D01*
X130120572Y-45659524D02*
X130120572Y-44389524D01*
X129757715Y-44389524D01*
X129540000Y-44450000D01*
X129394858Y-44570952D01*
X129322286Y-44691905D01*
X129249715Y-44933810D01*
X129249715Y-45115238D01*
X129322286Y-45357143D01*
X129394858Y-45478095D01*
X129540000Y-45599048D01*
X129757715Y-45659524D01*
X130120572Y-45659524D01*
X128669143Y-44510476D02*
X128596572Y-44450000D01*
X128451429Y-44389524D01*
X128088572Y-44389524D01*
X127943429Y-44450000D01*
X127870858Y-44510476D01*
X127798286Y-44631429D01*
X127798286Y-44752381D01*
X127870858Y-44933810D01*
X128741715Y-45659524D01*
X127798286Y-45659524D01*
X126346857Y-45659524D02*
X127217714Y-45659524D01*
X126782286Y-45659524D02*
X126782286Y-44389524D01*
X126927429Y-44570952D01*
X127072571Y-44691905D01*
X127217714Y-44752381D01*
X128209524Y-59109428D02*
X126939524Y-59109428D01*
X126939524Y-59472285D01*
X127000000Y-59690000D01*
X127120952Y-59835142D01*
X127241905Y-59907714D01*
X127483810Y-59980285D01*
X127665238Y-59980285D01*
X127907143Y-59907714D01*
X128028095Y-59835142D01*
X128149048Y-59690000D01*
X128209524Y-59472285D01*
X128209524Y-59109428D01*
X127060476Y-60560857D02*
X127000000Y-60633428D01*
X126939524Y-60778571D01*
X126939524Y-61141428D01*
X127000000Y-61286571D01*
X127060476Y-61359142D01*
X127181429Y-61431714D01*
X127302381Y-61431714D01*
X127483810Y-61359142D01*
X128209524Y-60488285D01*
X128209524Y-61431714D01*
X127060476Y-62012286D02*
X127000000Y-62084857D01*
X126939524Y-62230000D01*
X126939524Y-62592857D01*
X127000000Y-62738000D01*
X127060476Y-62810571D01*
X127181429Y-62883143D01*
X127302381Y-62883143D01*
X127483810Y-62810571D01*
X128209524Y-61939714D01*
X128209524Y-62883143D01*
X128209524Y-78159428D02*
X126939524Y-78159428D01*
X126939524Y-78522285D01*
X127000000Y-78740000D01*
X127120952Y-78885142D01*
X127241905Y-78957714D01*
X127483810Y-79030285D01*
X127665238Y-79030285D01*
X127907143Y-78957714D01*
X128028095Y-78885142D01*
X128149048Y-78740000D01*
X128209524Y-78522285D01*
X128209524Y-78159428D01*
X127060476Y-79610857D02*
X127000000Y-79683428D01*
X126939524Y-79828571D01*
X126939524Y-80191428D01*
X127000000Y-80336571D01*
X127060476Y-80409142D01*
X127181429Y-80481714D01*
X127302381Y-80481714D01*
X127483810Y-80409142D01*
X128209524Y-79538285D01*
X128209524Y-80481714D01*
X126939524Y-80989714D02*
X126939524Y-81933143D01*
X127423333Y-81425143D01*
X127423333Y-81642857D01*
X127483810Y-81788000D01*
X127544286Y-81860571D01*
X127665238Y-81933143D01*
X127967619Y-81933143D01*
X128088571Y-81860571D01*
X128149048Y-81788000D01*
X128209524Y-81642857D01*
X128209524Y-81207429D01*
X128149048Y-81062286D01*
X128088571Y-80989714D01*
X128209524Y-97209428D02*
X126939524Y-97209428D01*
X126939524Y-97572285D01*
X127000000Y-97790000D01*
X127120952Y-97935142D01*
X127241905Y-98007714D01*
X127483810Y-98080285D01*
X127665238Y-98080285D01*
X127907143Y-98007714D01*
X128028095Y-97935142D01*
X128149048Y-97790000D01*
X128209524Y-97572285D01*
X128209524Y-97209428D01*
X127060476Y-98660857D02*
X127000000Y-98733428D01*
X126939524Y-98878571D01*
X126939524Y-99241428D01*
X127000000Y-99386571D01*
X127060476Y-99459142D01*
X127181429Y-99531714D01*
X127302381Y-99531714D01*
X127483810Y-99459142D01*
X128209524Y-98588285D01*
X128209524Y-99531714D01*
X127362857Y-100838000D02*
X128209524Y-100838000D01*
X126879048Y-100475143D02*
X127786190Y-100112286D01*
X127786190Y-101055714D01*
D12*
X43074414Y-47969542D02*
X42931557Y-48017161D01*
X42693461Y-48017161D01*
X42598223Y-47969542D01*
X42550604Y-47921923D01*
X42502985Y-47826685D01*
X42502985Y-47731447D01*
X42550604Y-47636209D01*
X42598223Y-47588590D01*
X42693461Y-47540970D01*
X42883938Y-47493351D01*
X42979176Y-47445732D01*
X43026795Y-47398113D01*
X43074414Y-47302875D01*
X43074414Y-47207637D01*
X43026795Y-47112399D01*
X42979176Y-47064780D01*
X42883938Y-47017161D01*
X42645842Y-47017161D01*
X42502985Y-47064780D01*
X42169652Y-47017161D02*
X41931557Y-48017161D01*
X41741080Y-47302875D01*
X41550604Y-48017161D01*
X41312509Y-47017161D01*
X40979176Y-47112399D02*
X40931557Y-47064780D01*
X40836319Y-47017161D01*
X40598223Y-47017161D01*
X40502985Y-47064780D01*
X40455366Y-47112399D01*
X40407747Y-47207637D01*
X40407747Y-47302875D01*
X40455366Y-47445732D01*
X41026795Y-48017161D01*
X40407747Y-48017161D01*
X39502985Y-47017161D02*
X39979176Y-47017161D01*
X40026795Y-47493351D01*
X39979176Y-47445732D01*
X39883938Y-47398113D01*
X39645842Y-47398113D01*
X39550604Y-47445732D01*
X39502985Y-47493351D01*
X39455366Y-47588590D01*
X39455366Y-47826685D01*
X39502985Y-47921923D01*
X39550604Y-47969542D01*
X39645842Y-48017161D01*
X39883938Y-48017161D01*
X39979176Y-47969542D01*
X40026795Y-47921923D01*
D15*
X128777999Y-35360429D02*
X127592666Y-36884429D01*
X127592666Y-35360429D02*
X128777999Y-36884429D01*
X126068666Y-36884429D02*
X126915333Y-36884429D01*
X126915333Y-35360429D01*
X124460000Y-36884429D02*
X125052666Y-36158714D01*
X125476000Y-36884429D02*
X125476000Y-35360429D01*
X124798666Y-35360429D01*
X124629333Y-35433000D01*
X124544666Y-35505571D01*
X124460000Y-35650714D01*
X124460000Y-35868429D01*
X124544666Y-36013571D01*
X124629333Y-36086143D01*
X124798666Y-36158714D01*
X125476000Y-36158714D01*
X123867333Y-35360429D02*
X122766666Y-35360429D01*
X123359333Y-35941000D01*
X123105333Y-35941000D01*
X122936000Y-36013571D01*
X122851333Y-36086143D01*
X122766666Y-36231286D01*
X122766666Y-36594143D01*
X122851333Y-36739286D01*
X122936000Y-36811857D01*
X123105333Y-36884429D01*
X123613333Y-36884429D01*
X123782666Y-36811857D01*
X123867333Y-36739286D01*
M02*
