G04 #@! TF.FileFunction,Copper,L2,Bot,Signal*
%FSLAX46Y46*%
G04 Gerber Fmt 4.6, Leading zero omitted, Abs format (unit mm)*
G04 Created by KiCad (PCBNEW 4.0.2-stable) date 11/23/2016 1:41:37 PM*
%MOMM*%
G01*
G04 APERTURE LIST*
%ADD10C,0.100000*%
%ADD11R,1.752600X1.752600*%
%ADD12C,1.752600*%
%ADD13C,2.286000*%
%ADD14C,1.651000*%
%ADD15R,1.651000X1.651000*%
%ADD16O,2.057400X1.752600*%
%ADD17C,1.998980*%
%ADD18C,0.600000*%
%ADD19C,0.250000*%
%ADD20C,0.254000*%
G04 APERTURE END LIST*
D10*
D11*
X52070000Y-34290000D03*
D12*
X52070000Y-36830000D03*
X52070000Y-39370000D03*
X52070000Y-41910000D03*
X52070000Y-44450000D03*
X52070000Y-46990000D03*
X52070000Y-49530000D03*
X52070000Y-52070000D03*
X52070000Y-54610000D03*
X52070000Y-57150000D03*
X52070000Y-59690000D03*
X52070000Y-62230000D03*
X67310000Y-62230000D03*
X67310000Y-59690000D03*
X67310000Y-57150000D03*
X67310000Y-54610000D03*
X67310000Y-52070000D03*
X67310000Y-49530000D03*
X67310000Y-46990000D03*
X67310000Y-39370000D03*
X67310000Y-36830000D03*
X67310000Y-34290000D03*
X67310000Y-44450000D03*
X67310000Y-41910000D03*
D13*
X62230000Y-35560000D03*
X55880000Y-38100000D03*
D14*
X37338000Y-49530000D03*
D15*
X44958000Y-49530000D03*
D14*
X49022000Y-57404000D03*
D15*
X49022000Y-65024000D03*
D14*
X48768000Y-76200000D03*
D15*
X48768000Y-83820000D03*
D14*
X48768000Y-94996000D03*
D15*
X48768000Y-102616000D03*
D14*
X48895000Y-38100000D03*
D15*
X48895000Y-45720000D03*
D14*
X56134000Y-70104000D03*
D15*
X63754000Y-70104000D03*
D14*
X51435000Y-76200000D03*
D15*
X51435000Y-83820000D03*
D14*
X51435000Y-95250000D03*
D15*
X51435000Y-102870000D03*
D14*
X70485000Y-38100000D03*
D15*
X70485000Y-45720000D03*
D14*
X70485000Y-57150000D03*
D15*
X70485000Y-64770000D03*
D14*
X70485000Y-76200000D03*
D15*
X70485000Y-83820000D03*
D14*
X70485000Y-95250000D03*
D15*
X70485000Y-102870000D03*
D14*
X89535000Y-38100000D03*
D15*
X89535000Y-45720000D03*
D14*
X89535000Y-57150000D03*
D15*
X89535000Y-64770000D03*
D14*
X89535000Y-76200000D03*
D15*
X89535000Y-83820000D03*
D14*
X89535000Y-95250000D03*
D15*
X89535000Y-102870000D03*
D14*
X108585000Y-38100000D03*
D15*
X108585000Y-45720000D03*
D14*
X108585000Y-57150000D03*
D15*
X108585000Y-64770000D03*
D14*
X108585000Y-76200000D03*
D15*
X108585000Y-83820000D03*
D14*
X108585000Y-95250000D03*
D15*
X108585000Y-102870000D03*
D14*
X131826000Y-49276000D03*
D15*
X124206000Y-49276000D03*
D14*
X127635000Y-57150000D03*
D15*
X127635000Y-64770000D03*
D14*
X127635000Y-76200000D03*
D15*
X127635000Y-83820000D03*
D14*
X127635000Y-95250000D03*
D15*
X127635000Y-102870000D03*
D13*
X43180000Y-35560000D03*
X36830000Y-38100000D03*
X43180000Y-54610000D03*
X36830000Y-57150000D03*
X43180000Y-73660000D03*
X36830000Y-76200000D03*
X43180000Y-92710000D03*
X36830000Y-95250000D03*
X62230000Y-54610000D03*
X55880000Y-57150000D03*
X62230000Y-73660000D03*
X55880000Y-76200000D03*
X62230000Y-92710000D03*
X55880000Y-95250000D03*
X81280000Y-35560000D03*
X74930000Y-38100000D03*
X81280000Y-54610000D03*
X74930000Y-57150000D03*
X81280000Y-73660000D03*
X74930000Y-76200000D03*
X81280000Y-92710000D03*
X74930000Y-95250000D03*
X100330000Y-35560000D03*
X93980000Y-38100000D03*
X100330000Y-54610000D03*
X93980000Y-57150000D03*
X100330000Y-73660000D03*
X93980000Y-76200000D03*
X100330000Y-92710000D03*
X93980000Y-95250000D03*
X119380000Y-35560000D03*
X113030000Y-38100000D03*
X119380000Y-54610000D03*
X113030000Y-57150000D03*
X119380000Y-73660000D03*
X113030000Y-76200000D03*
X119380000Y-92710000D03*
X113030000Y-95250000D03*
X138430000Y-35560000D03*
X132080000Y-38100000D03*
X138430000Y-54610000D03*
X132080000Y-57150000D03*
X138430000Y-73660000D03*
X132080000Y-76200000D03*
X138430000Y-92710000D03*
X132080000Y-95250000D03*
D16*
X121081800Y-33375600D03*
D12*
X129336800Y-38379400D03*
X124129800Y-41478200D03*
D16*
X130378200Y-33375600D03*
D17*
X135000000Y-50000000D03*
D18*
X55880000Y-66548000D03*
X53975000Y-63500000D03*
X58420000Y-44450000D03*
X58420000Y-66040000D03*
X70358000Y-68072000D03*
X120396000Y-47498000D03*
X40100000Y-49200000D03*
X45400000Y-65700000D03*
X39800000Y-64500000D03*
D19*
X123825000Y-45720000D02*
X124460000Y-45085000D01*
X36830000Y-49022000D02*
X36830000Y-45720000D01*
X36830000Y-45720000D02*
X36830000Y-38100000D01*
X36830000Y-49022000D02*
X37338000Y-49530000D01*
X48895000Y-45720000D02*
X48895000Y-47879000D01*
X47244000Y-49530000D02*
X44958000Y-49530000D01*
X48895000Y-47879000D02*
X47244000Y-49530000D01*
X108585000Y-45720000D02*
X89535000Y-45720000D01*
X124206000Y-49276000D02*
X124206000Y-48006000D01*
X121920000Y-45720000D02*
X108585000Y-45720000D01*
X124206000Y-48006000D02*
X121920000Y-45720000D01*
X70485000Y-45720000D02*
X89535000Y-45720000D01*
X48895000Y-45720000D02*
X70485000Y-45720000D01*
X36830000Y-57150000D02*
X48006000Y-57150000D01*
X48006000Y-57150000D02*
X48260000Y-57404000D01*
X48260000Y-57404000D02*
X49022000Y-57404000D01*
X36830000Y-76200000D02*
X48768000Y-76200000D01*
X108585000Y-83820000D02*
X127635000Y-83820000D01*
X89535000Y-83820000D02*
X108585000Y-83820000D01*
X70485000Y-83820000D02*
X89535000Y-83820000D01*
X51435000Y-83820000D02*
X70485000Y-83820000D01*
X36830000Y-95250000D02*
X36830000Y-102870000D01*
X108585000Y-102870000D02*
X127635000Y-102870000D01*
X89535000Y-102870000D02*
X108585000Y-102870000D01*
X70485000Y-102870000D02*
X89535000Y-102870000D01*
X51435000Y-102870000D02*
X70485000Y-102870000D01*
X55880000Y-38100000D02*
X48895000Y-38100000D01*
X56134000Y-70104000D02*
X56134000Y-66802000D01*
X56134000Y-66802000D02*
X55880000Y-66548000D01*
X55880000Y-61595000D02*
X55880000Y-57150000D01*
X53975000Y-63500000D02*
X55880000Y-61595000D01*
X55880000Y-76200000D02*
X51435000Y-76200000D01*
X55880000Y-95250000D02*
X51435000Y-95250000D01*
X74930000Y-38100000D02*
X70485000Y-38100000D01*
X74930000Y-57150000D02*
X70485000Y-57150000D01*
X74930000Y-76200000D02*
X70485000Y-76200000D01*
X74930000Y-95250000D02*
X70485000Y-95250000D01*
X89535000Y-38100000D02*
X93980000Y-38100000D01*
X93980000Y-57150000D02*
X89535000Y-57150000D01*
X93980000Y-76200000D02*
X89535000Y-76200000D01*
X93980000Y-95250000D02*
X89535000Y-95250000D01*
X113030000Y-38100000D02*
X108585000Y-38100000D01*
X113030000Y-57150000D02*
X108585000Y-57150000D01*
X108585000Y-76200000D02*
X113030000Y-76200000D01*
X113030000Y-95250000D02*
X108585000Y-95250000D01*
X131826000Y-49276000D02*
X131826000Y-43180000D01*
X132080000Y-42926000D02*
X132080000Y-38100000D01*
X131826000Y-43180000D02*
X132080000Y-42926000D01*
X132080000Y-57150000D02*
X127635000Y-57150000D01*
X127635000Y-76200000D02*
X132080000Y-76200000D01*
X132080000Y-95250000D02*
X127635000Y-95250000D01*
X81280000Y-35560000D02*
X66040000Y-35560000D01*
X59690000Y-44450000D02*
X58420000Y-44450000D01*
X62230000Y-41910000D02*
X59690000Y-44450000D01*
X62230000Y-39370000D02*
X62230000Y-41910000D01*
X66040000Y-35560000D02*
X62230000Y-39370000D01*
X100330000Y-54610000D02*
X83820000Y-54610000D01*
X62230000Y-52070000D02*
X52070000Y-52070000D01*
X63500000Y-53340000D02*
X62230000Y-52070000D01*
X80010000Y-53340000D02*
X63500000Y-53340000D01*
X80645000Y-52705000D02*
X80010000Y-53340000D01*
X81915000Y-52705000D02*
X80645000Y-52705000D01*
X83820000Y-54610000D02*
X81915000Y-52705000D01*
X119380000Y-54610000D02*
X102870000Y-54610000D01*
X55880000Y-54610000D02*
X52070000Y-54610000D01*
X57785000Y-56515000D02*
X55880000Y-54610000D01*
X62865000Y-56515000D02*
X57785000Y-56515000D01*
X63500000Y-55880000D02*
X62865000Y-56515000D01*
X69215000Y-55880000D02*
X63500000Y-55880000D01*
X69850000Y-55245000D02*
X69215000Y-55880000D01*
X75565000Y-55245000D02*
X69850000Y-55245000D01*
X76835000Y-56515000D02*
X75565000Y-55245000D01*
X81915000Y-56515000D02*
X76835000Y-56515000D01*
X83185000Y-55245000D02*
X81915000Y-56515000D01*
X94615000Y-55245000D02*
X83185000Y-55245000D01*
X95885000Y-56515000D02*
X94615000Y-55245000D01*
X100965000Y-56515000D02*
X95885000Y-56515000D01*
X102870000Y-54610000D02*
X100965000Y-56515000D01*
X138430000Y-54610000D02*
X138430000Y-62230000D01*
X60960000Y-68580000D02*
X58420000Y-66040000D01*
X65405000Y-68580000D02*
X60960000Y-68580000D01*
X67310000Y-66675000D02*
X65405000Y-68580000D01*
X133985000Y-66675000D02*
X67310000Y-66675000D01*
X138430000Y-62230000D02*
X133985000Y-66675000D01*
X63754000Y-70104000D02*
X61214000Y-70104000D01*
X56134000Y-65024000D02*
X49022000Y-65024000D01*
X61214000Y-70104000D02*
X56134000Y-65024000D01*
X63754000Y-70104000D02*
X68326000Y-70104000D01*
X68326000Y-70104000D02*
X70358000Y-68072000D01*
X67310000Y-59690000D02*
X70612000Y-62992000D01*
X70612000Y-62992000D02*
X70612000Y-64643000D01*
X70612000Y-64643000D02*
X70485000Y-64770000D01*
X70485000Y-64770000D02*
X63500000Y-64770000D01*
X89535000Y-64770000D02*
X70485000Y-64770000D01*
X108585000Y-64770000D02*
X89535000Y-64770000D01*
X127635000Y-64770000D02*
X108585000Y-64770000D01*
X68580000Y-46990000D02*
X71120000Y-49530000D01*
X68580000Y-46990000D02*
X67310000Y-46990000D01*
X118364000Y-49530000D02*
X71120000Y-49530000D01*
X120396000Y-47498000D02*
X118364000Y-49530000D01*
X52070000Y-41910000D02*
X53340000Y-43180000D01*
X129336800Y-41478200D02*
X129336800Y-38379400D01*
X127635000Y-43180000D02*
X129336800Y-41478200D01*
X66040000Y-43180000D02*
X127635000Y-43180000D01*
X64135000Y-45085000D02*
X66040000Y-43180000D01*
X57150000Y-45085000D02*
X64135000Y-45085000D01*
X55245000Y-43180000D02*
X57150000Y-45085000D01*
X53340000Y-43180000D02*
X55245000Y-43180000D01*
X50730000Y-39370000D02*
X43200000Y-46900000D01*
X43200000Y-46900000D02*
X42400000Y-46900000D01*
X42400000Y-46900000D02*
X40100000Y-49200000D01*
X52070000Y-39370000D02*
X50730000Y-39370000D01*
X41000000Y-65700000D02*
X45400000Y-65700000D01*
X39800000Y-64500000D02*
X41000000Y-65700000D01*
D20*
G36*
X41402309Y-35204782D02*
X41401692Y-35912114D01*
X41671806Y-36565840D01*
X42171529Y-37066436D01*
X42824782Y-37337691D01*
X43532114Y-37338308D01*
X44185840Y-37068194D01*
X44686436Y-36568471D01*
X44957691Y-35915218D01*
X44958308Y-35207886D01*
X44893897Y-35052000D01*
X50546260Y-35052000D01*
X50546260Y-35166300D01*
X50590538Y-35401617D01*
X50729610Y-35617741D01*
X50941810Y-35762731D01*
X50990157Y-35772522D01*
X50789529Y-35972800D01*
X50558963Y-36528065D01*
X50558438Y-37129297D01*
X50645499Y-37340000D01*
X50161238Y-37340000D01*
X50133874Y-37273774D01*
X49723387Y-36862570D01*
X49186786Y-36639754D01*
X48605763Y-36639247D01*
X48068774Y-36861126D01*
X47657570Y-37271613D01*
X47434754Y-37808214D01*
X47434247Y-38389237D01*
X47656126Y-38926226D01*
X48066613Y-39337430D01*
X48603214Y-39560246D01*
X49184237Y-39560753D01*
X49721226Y-39338874D01*
X50132430Y-38928387D01*
X50160827Y-38860000D01*
X50647331Y-38860000D01*
X50547118Y-39134997D01*
X50573109Y-39735668D01*
X50752973Y-40169896D01*
X51006999Y-40253396D01*
X51890395Y-39370000D01*
X51876253Y-39355858D01*
X52055858Y-39176253D01*
X52070000Y-39190395D01*
X52084143Y-39176253D01*
X52263748Y-39355858D01*
X52249605Y-39370000D01*
X52263748Y-39384143D01*
X52084143Y-39563748D01*
X52070000Y-39549605D01*
X51186604Y-40433001D01*
X51246447Y-40615056D01*
X51215036Y-40628035D01*
X50789529Y-41052800D01*
X50558963Y-41608065D01*
X50558438Y-42209297D01*
X50788035Y-42764964D01*
X51202698Y-43180351D01*
X50789529Y-43592800D01*
X50558963Y-44148065D01*
X50558438Y-44749297D01*
X50645499Y-44960000D01*
X50367940Y-44960000D01*
X50367940Y-44894500D01*
X50323662Y-44659183D01*
X50184590Y-44443059D01*
X49972390Y-44298069D01*
X49720500Y-44247060D01*
X48069500Y-44247060D01*
X47834183Y-44291338D01*
X47618059Y-44430410D01*
X47473069Y-44642610D01*
X47422060Y-44894500D01*
X47422060Y-46545500D01*
X47466338Y-46780817D01*
X47605410Y-46996941D01*
X47817610Y-47141931D01*
X48069500Y-47192940D01*
X48135000Y-47192940D01*
X48135000Y-47564198D01*
X46929198Y-48770000D01*
X46430940Y-48770000D01*
X46430940Y-48704500D01*
X46386662Y-48469183D01*
X46247590Y-48253059D01*
X46035390Y-48108069D01*
X45783500Y-48057060D01*
X44132500Y-48057060D01*
X43897183Y-48101338D01*
X43681059Y-48240410D01*
X43536069Y-48452610D01*
X43485060Y-48704500D01*
X43485060Y-50355500D01*
X43529338Y-50590817D01*
X43668410Y-50806941D01*
X43880610Y-50951931D01*
X44132500Y-51002940D01*
X45783500Y-51002940D01*
X46018817Y-50958662D01*
X46234941Y-50819590D01*
X46379931Y-50607390D01*
X46430940Y-50355500D01*
X46430940Y-50290000D01*
X47244000Y-50290000D01*
X47534839Y-50232148D01*
X47781401Y-50067401D01*
X49432401Y-48416401D01*
X49597148Y-48169839D01*
X49655000Y-47879000D01*
X49655000Y-47192940D01*
X49720500Y-47192940D01*
X49955817Y-47148662D01*
X50171941Y-47009590D01*
X50316931Y-46797390D01*
X50367940Y-46545500D01*
X50367940Y-46480000D01*
X50645359Y-46480000D01*
X50558963Y-46688065D01*
X50558438Y-47289297D01*
X50788035Y-47844964D01*
X51202698Y-48260351D01*
X50789529Y-48672800D01*
X50558963Y-49228065D01*
X50558438Y-49829297D01*
X50788035Y-50384964D01*
X51202698Y-50800351D01*
X50789529Y-51212800D01*
X50558963Y-51768065D01*
X50558438Y-52369297D01*
X50788035Y-52924964D01*
X51202698Y-53340351D01*
X50789529Y-53752800D01*
X50558963Y-54308065D01*
X50558438Y-54909297D01*
X50788035Y-55464964D01*
X51202698Y-55880351D01*
X50789529Y-56292800D01*
X50558963Y-56848065D01*
X50558438Y-57449297D01*
X50788035Y-58004964D01*
X51202698Y-58420351D01*
X50789529Y-58832800D01*
X50558963Y-59388065D01*
X50558438Y-59989297D01*
X50788035Y-60544964D01*
X51202698Y-60960351D01*
X50789529Y-61372800D01*
X50558963Y-61928065D01*
X50558438Y-62529297D01*
X50788035Y-63084964D01*
X51212800Y-63510471D01*
X51768065Y-63741037D01*
X52369297Y-63741562D01*
X52924964Y-63511965D01*
X53040089Y-63397041D01*
X53039838Y-63685167D01*
X53181883Y-64028943D01*
X53416530Y-64264000D01*
X50494940Y-64264000D01*
X50494940Y-64198500D01*
X50450662Y-63963183D01*
X50311590Y-63747059D01*
X50099390Y-63602069D01*
X49847500Y-63551060D01*
X48196500Y-63551060D01*
X47961183Y-63595338D01*
X47745059Y-63734410D01*
X47600069Y-63946610D01*
X47549060Y-64198500D01*
X47549060Y-65849500D01*
X47593338Y-66084817D01*
X47732410Y-66300941D01*
X47944610Y-66445931D01*
X48196500Y-66496940D01*
X49847500Y-66496940D01*
X50082817Y-66452662D01*
X50298941Y-66313590D01*
X50443931Y-66101390D01*
X50494940Y-65849500D01*
X50494940Y-65784000D01*
X55321889Y-65784000D01*
X55087808Y-66017673D01*
X54945162Y-66361201D01*
X54944838Y-66733167D01*
X55086883Y-67076943D01*
X55349673Y-67340192D01*
X55374000Y-67350294D01*
X55374000Y-68837762D01*
X55307774Y-68865126D01*
X54896570Y-69275613D01*
X54673754Y-69812214D01*
X54673247Y-70393237D01*
X54895126Y-70930226D01*
X55305613Y-71341430D01*
X55842214Y-71564246D01*
X56423237Y-71564753D01*
X56960226Y-71342874D01*
X57371430Y-70932387D01*
X57594246Y-70395786D01*
X57594753Y-69814763D01*
X57372874Y-69277774D01*
X56962387Y-68866570D01*
X56894000Y-68838173D01*
X56894000Y-66858802D01*
X60676599Y-70641401D01*
X60923161Y-70806148D01*
X61214000Y-70864000D01*
X62281060Y-70864000D01*
X62281060Y-70929500D01*
X62325338Y-71164817D01*
X62464410Y-71380941D01*
X62676610Y-71525931D01*
X62928500Y-71576940D01*
X64579500Y-71576940D01*
X64814817Y-71532662D01*
X65030941Y-71393590D01*
X65175931Y-71181390D01*
X65226940Y-70929500D01*
X65226940Y-70864000D01*
X68326000Y-70864000D01*
X68616839Y-70806148D01*
X68863401Y-70641401D01*
X70497680Y-69007122D01*
X70543167Y-69007162D01*
X70886943Y-68865117D01*
X71150192Y-68602327D01*
X71292838Y-68258799D01*
X71293162Y-67886833D01*
X71151117Y-67543057D01*
X71043248Y-67435000D01*
X133985000Y-67435000D01*
X134275839Y-67377148D01*
X134522401Y-67212401D01*
X138967401Y-62767401D01*
X139132148Y-62520840D01*
X139190000Y-62230000D01*
X139190000Y-56219773D01*
X139435840Y-56118194D01*
X139936436Y-55618471D01*
X140207691Y-54965218D01*
X140208308Y-54257886D01*
X139938194Y-53604160D01*
X139438471Y-53103564D01*
X138785218Y-52832309D01*
X138077886Y-52831692D01*
X137424160Y-53101806D01*
X136923564Y-53601529D01*
X136652309Y-54254782D01*
X136651692Y-54962114D01*
X136921806Y-55615840D01*
X137421529Y-56116436D01*
X137670000Y-56219610D01*
X137670000Y-57752035D01*
X137381096Y-57462627D01*
X136415215Y-57061558D01*
X135369374Y-57060645D01*
X134402793Y-57460028D01*
X133662627Y-58198904D01*
X133261558Y-59164785D01*
X133260645Y-60210626D01*
X133660028Y-61177207D01*
X134398904Y-61917373D01*
X135364785Y-62318442D01*
X136410626Y-62319355D01*
X137377207Y-61919972D01*
X137670000Y-61627689D01*
X137670000Y-61915198D01*
X133670198Y-65915000D01*
X129010735Y-65915000D01*
X129056931Y-65847390D01*
X129107940Y-65595500D01*
X129107940Y-63944500D01*
X129063662Y-63709183D01*
X128924590Y-63493059D01*
X128712390Y-63348069D01*
X128460500Y-63297060D01*
X126809500Y-63297060D01*
X126574183Y-63341338D01*
X126358059Y-63480410D01*
X126213069Y-63692610D01*
X126162060Y-63944500D01*
X126162060Y-64010000D01*
X110057940Y-64010000D01*
X110057940Y-63944500D01*
X110013662Y-63709183D01*
X109874590Y-63493059D01*
X109662390Y-63348069D01*
X109410500Y-63297060D01*
X107759500Y-63297060D01*
X107524183Y-63341338D01*
X107308059Y-63480410D01*
X107163069Y-63692610D01*
X107112060Y-63944500D01*
X107112060Y-64010000D01*
X91007940Y-64010000D01*
X91007940Y-63944500D01*
X90963662Y-63709183D01*
X90824590Y-63493059D01*
X90612390Y-63348069D01*
X90360500Y-63297060D01*
X88709500Y-63297060D01*
X88474183Y-63341338D01*
X88258059Y-63480410D01*
X88113069Y-63692610D01*
X88062060Y-63944500D01*
X88062060Y-64010000D01*
X71957940Y-64010000D01*
X71957940Y-63944500D01*
X71913662Y-63709183D01*
X71774590Y-63493059D01*
X71562390Y-63348069D01*
X71372000Y-63309514D01*
X71372000Y-62992000D01*
X71314148Y-62701161D01*
X71314148Y-62701160D01*
X71149401Y-62454599D01*
X68781633Y-60086831D01*
X68821037Y-59991935D01*
X68821562Y-59390703D01*
X68591965Y-58835036D01*
X68177302Y-58419649D01*
X68590471Y-58007200D01*
X68821037Y-57451935D01*
X68821562Y-56850703D01*
X68734501Y-56640000D01*
X69115364Y-56640000D01*
X69024754Y-56858214D01*
X69024247Y-57439237D01*
X69246126Y-57976226D01*
X69656613Y-58387430D01*
X70193214Y-58610246D01*
X70774237Y-58610753D01*
X71311226Y-58388874D01*
X71722430Y-57978387D01*
X71750827Y-57910000D01*
X73320227Y-57910000D01*
X73421806Y-58155840D01*
X73469815Y-58203933D01*
X73365733Y-58203842D01*
X72819405Y-58429580D01*
X72401049Y-58847206D01*
X72174358Y-59393139D01*
X72173842Y-59984267D01*
X72399580Y-60530595D01*
X72817206Y-60948951D01*
X73363139Y-61175642D01*
X73954267Y-61176158D01*
X74500595Y-60950420D01*
X74918951Y-60532794D01*
X75145642Y-59986861D01*
X75146158Y-59395733D01*
X74952903Y-58928021D01*
X75282114Y-58928308D01*
X75935840Y-58658194D01*
X76436436Y-58158471D01*
X76707691Y-57505218D01*
X76707914Y-57249721D01*
X76835000Y-57275000D01*
X77700595Y-57275000D01*
X77252793Y-57460028D01*
X76512627Y-58198904D01*
X76111558Y-59164785D01*
X76110645Y-60210626D01*
X76510028Y-61177207D01*
X77248904Y-61917373D01*
X78214785Y-62318442D01*
X79260626Y-62319355D01*
X80227207Y-61919972D01*
X80967373Y-61181096D01*
X81368442Y-60215215D01*
X81368643Y-59984267D01*
X82333842Y-59984267D01*
X82559580Y-60530595D01*
X82977206Y-60948951D01*
X83523139Y-61175642D01*
X84114267Y-61176158D01*
X84660595Y-60950420D01*
X85078951Y-60532794D01*
X85305642Y-59986861D01*
X85306158Y-59395733D01*
X85080420Y-58849405D01*
X84662794Y-58431049D01*
X84116861Y-58204358D01*
X83525733Y-58203842D01*
X82979405Y-58429580D01*
X82561049Y-58847206D01*
X82334358Y-59393139D01*
X82333842Y-59984267D01*
X81368643Y-59984267D01*
X81369355Y-59169374D01*
X80969972Y-58202793D01*
X80231096Y-57462627D01*
X79779240Y-57275000D01*
X81915000Y-57275000D01*
X82205839Y-57217148D01*
X82452401Y-57052401D01*
X83499802Y-56005000D01*
X88614736Y-56005000D01*
X88297570Y-56321613D01*
X88074754Y-56858214D01*
X88074247Y-57439237D01*
X88296126Y-57976226D01*
X88706613Y-58387430D01*
X89243214Y-58610246D01*
X89824237Y-58610753D01*
X90361226Y-58388874D01*
X90772430Y-57978387D01*
X90800827Y-57910000D01*
X92370227Y-57910000D01*
X92471806Y-58155840D01*
X92519815Y-58203933D01*
X92415733Y-58203842D01*
X91869405Y-58429580D01*
X91451049Y-58847206D01*
X91224358Y-59393139D01*
X91223842Y-59984267D01*
X91449580Y-60530595D01*
X91867206Y-60948951D01*
X92413139Y-61175642D01*
X93004267Y-61176158D01*
X93550595Y-60950420D01*
X93968951Y-60532794D01*
X94195642Y-59986861D01*
X94196158Y-59395733D01*
X94002903Y-58928021D01*
X94332114Y-58928308D01*
X94985840Y-58658194D01*
X95486436Y-58158471D01*
X95757691Y-57505218D01*
X95757914Y-57249721D01*
X95885000Y-57275000D01*
X96750595Y-57275000D01*
X96302793Y-57460028D01*
X95562627Y-58198904D01*
X95161558Y-59164785D01*
X95160645Y-60210626D01*
X95560028Y-61177207D01*
X96298904Y-61917373D01*
X97264785Y-62318442D01*
X98310626Y-62319355D01*
X99277207Y-61919972D01*
X100017373Y-61181096D01*
X100418442Y-60215215D01*
X100418643Y-59984267D01*
X101383842Y-59984267D01*
X101609580Y-60530595D01*
X102027206Y-60948951D01*
X102573139Y-61175642D01*
X103164267Y-61176158D01*
X103710595Y-60950420D01*
X104128951Y-60532794D01*
X104355642Y-59986861D01*
X104356158Y-59395733D01*
X104130420Y-58849405D01*
X103712794Y-58431049D01*
X103166861Y-58204358D01*
X102575733Y-58203842D01*
X102029405Y-58429580D01*
X101611049Y-58847206D01*
X101384358Y-59393139D01*
X101383842Y-59984267D01*
X100418643Y-59984267D01*
X100419355Y-59169374D01*
X100019972Y-58202793D01*
X99281096Y-57462627D01*
X99224767Y-57439237D01*
X107124247Y-57439237D01*
X107346126Y-57976226D01*
X107756613Y-58387430D01*
X108293214Y-58610246D01*
X108874237Y-58610753D01*
X109411226Y-58388874D01*
X109822430Y-57978387D01*
X109850827Y-57910000D01*
X111420227Y-57910000D01*
X111521806Y-58155840D01*
X111569815Y-58203933D01*
X111465733Y-58203842D01*
X110919405Y-58429580D01*
X110501049Y-58847206D01*
X110274358Y-59393139D01*
X110273842Y-59984267D01*
X110499580Y-60530595D01*
X110917206Y-60948951D01*
X111463139Y-61175642D01*
X112054267Y-61176158D01*
X112600595Y-60950420D01*
X113018951Y-60532794D01*
X113152726Y-60210626D01*
X114210645Y-60210626D01*
X114610028Y-61177207D01*
X115348904Y-61917373D01*
X116314785Y-62318442D01*
X117360626Y-62319355D01*
X118327207Y-61919972D01*
X119067373Y-61181096D01*
X119468442Y-60215215D01*
X119468643Y-59984267D01*
X120433842Y-59984267D01*
X120659580Y-60530595D01*
X121077206Y-60948951D01*
X121623139Y-61175642D01*
X122214267Y-61176158D01*
X122760595Y-60950420D01*
X123178951Y-60532794D01*
X123405642Y-59986861D01*
X123406158Y-59395733D01*
X123180420Y-58849405D01*
X122762794Y-58431049D01*
X122216861Y-58204358D01*
X121625733Y-58203842D01*
X121079405Y-58429580D01*
X120661049Y-58847206D01*
X120434358Y-59393139D01*
X120433842Y-59984267D01*
X119468643Y-59984267D01*
X119469355Y-59169374D01*
X119069972Y-58202793D01*
X118331096Y-57462627D01*
X118274767Y-57439237D01*
X126174247Y-57439237D01*
X126396126Y-57976226D01*
X126806613Y-58387430D01*
X127343214Y-58610246D01*
X127924237Y-58610753D01*
X128461226Y-58388874D01*
X128872430Y-57978387D01*
X128900827Y-57910000D01*
X130470227Y-57910000D01*
X130571806Y-58155840D01*
X130619815Y-58203933D01*
X130515733Y-58203842D01*
X129969405Y-58429580D01*
X129551049Y-58847206D01*
X129324358Y-59393139D01*
X129323842Y-59984267D01*
X129549580Y-60530595D01*
X129967206Y-60948951D01*
X130513139Y-61175642D01*
X131104267Y-61176158D01*
X131650595Y-60950420D01*
X132068951Y-60532794D01*
X132295642Y-59986861D01*
X132296158Y-59395733D01*
X132102903Y-58928021D01*
X132432114Y-58928308D01*
X133085840Y-58658194D01*
X133586436Y-58158471D01*
X133857691Y-57505218D01*
X133858308Y-56797886D01*
X133588194Y-56144160D01*
X133088471Y-55643564D01*
X132435218Y-55372309D01*
X131727886Y-55371692D01*
X131074160Y-55641806D01*
X130573564Y-56141529D01*
X130470390Y-56390000D01*
X128901238Y-56390000D01*
X128873874Y-56323774D01*
X128463387Y-55912570D01*
X127926786Y-55689754D01*
X127345763Y-55689247D01*
X126808774Y-55911126D01*
X126397570Y-56321613D01*
X126174754Y-56858214D01*
X126174247Y-57439237D01*
X118274767Y-57439237D01*
X117365215Y-57061558D01*
X116319374Y-57060645D01*
X115352793Y-57460028D01*
X114612627Y-58198904D01*
X114211558Y-59164785D01*
X114210645Y-60210626D01*
X113152726Y-60210626D01*
X113245642Y-59986861D01*
X113246158Y-59395733D01*
X113052903Y-58928021D01*
X113382114Y-58928308D01*
X114035840Y-58658194D01*
X114536436Y-58158471D01*
X114807691Y-57505218D01*
X114808308Y-56797886D01*
X114538194Y-56144160D01*
X114038471Y-55643564D01*
X113385218Y-55372309D01*
X112677886Y-55371692D01*
X112024160Y-55641806D01*
X111523564Y-56141529D01*
X111420390Y-56390000D01*
X109851238Y-56390000D01*
X109823874Y-56323774D01*
X109413387Y-55912570D01*
X108876786Y-55689754D01*
X108295763Y-55689247D01*
X107758774Y-55911126D01*
X107347570Y-56321613D01*
X107124754Y-56858214D01*
X107124247Y-57439237D01*
X99224767Y-57439237D01*
X98829240Y-57275000D01*
X100965000Y-57275000D01*
X101255839Y-57217148D01*
X101502401Y-57052401D01*
X103184802Y-55370000D01*
X117770227Y-55370000D01*
X117871806Y-55615840D01*
X118371529Y-56116436D01*
X119024782Y-56387691D01*
X119732114Y-56388308D01*
X120385840Y-56118194D01*
X120886436Y-55618471D01*
X121157691Y-54965218D01*
X121158308Y-54257886D01*
X120888194Y-53604160D01*
X120388471Y-53103564D01*
X119735218Y-52832309D01*
X119027886Y-52831692D01*
X118374160Y-53101806D01*
X117873564Y-53601529D01*
X117770390Y-53850000D01*
X102870000Y-53850000D01*
X102579161Y-53907852D01*
X102332599Y-54072599D01*
X102108274Y-54296924D01*
X102108308Y-54257886D01*
X101838194Y-53604160D01*
X101338471Y-53103564D01*
X100685218Y-52832309D01*
X99977886Y-52831692D01*
X99324160Y-53101806D01*
X98823564Y-53601529D01*
X98720390Y-53850000D01*
X84134802Y-53850000D01*
X82452401Y-52167599D01*
X82205839Y-52002852D01*
X81915000Y-51945000D01*
X80645000Y-51945000D01*
X80354161Y-52002852D01*
X80107599Y-52167599D01*
X79695198Y-52580000D01*
X68734641Y-52580000D01*
X68821037Y-52371935D01*
X68821562Y-51770703D01*
X68591965Y-51215036D01*
X68177302Y-50799649D01*
X68590471Y-50387200D01*
X68821037Y-49831935D01*
X68821562Y-49230703D01*
X68591965Y-48675036D01*
X68177302Y-48259649D01*
X68476335Y-47961137D01*
X70582599Y-50067401D01*
X70829160Y-50232148D01*
X70877414Y-50241746D01*
X71120000Y-50290000D01*
X118364000Y-50290000D01*
X118654839Y-50232148D01*
X118901401Y-50067401D01*
X120535680Y-48433122D01*
X120581167Y-48433162D01*
X120924943Y-48291117D01*
X121188192Y-48028327D01*
X121330838Y-47684799D01*
X121331162Y-47312833D01*
X121189117Y-46969057D01*
X120926327Y-46705808D01*
X120582799Y-46563162D01*
X120210833Y-46562838D01*
X119867057Y-46704883D01*
X119603808Y-46967673D01*
X119461162Y-47311201D01*
X119461121Y-47358077D01*
X118049198Y-48770000D01*
X71434802Y-48770000D01*
X69857742Y-47192940D01*
X71310500Y-47192940D01*
X71545817Y-47148662D01*
X71761941Y-47009590D01*
X71906931Y-46797390D01*
X71957940Y-46545500D01*
X71957940Y-46480000D01*
X88062060Y-46480000D01*
X88062060Y-46545500D01*
X88106338Y-46780817D01*
X88245410Y-46996941D01*
X88457610Y-47141931D01*
X88709500Y-47192940D01*
X90360500Y-47192940D01*
X90595817Y-47148662D01*
X90811941Y-47009590D01*
X90956931Y-46797390D01*
X91007940Y-46545500D01*
X91007940Y-46480000D01*
X107112060Y-46480000D01*
X107112060Y-46545500D01*
X107156338Y-46780817D01*
X107295410Y-46996941D01*
X107507610Y-47141931D01*
X107759500Y-47192940D01*
X109410500Y-47192940D01*
X109645817Y-47148662D01*
X109861941Y-47009590D01*
X110006931Y-46797390D01*
X110057940Y-46545500D01*
X110057940Y-46480000D01*
X121605198Y-46480000D01*
X123040134Y-47914936D01*
X122929059Y-47986410D01*
X122784069Y-48198610D01*
X122733060Y-48450500D01*
X122733060Y-50101500D01*
X122777338Y-50336817D01*
X122916410Y-50552941D01*
X123128610Y-50697931D01*
X123380500Y-50748940D01*
X125031500Y-50748940D01*
X125266817Y-50704662D01*
X125482941Y-50565590D01*
X125627931Y-50353390D01*
X125678940Y-50101500D01*
X125678940Y-48450500D01*
X125634662Y-48215183D01*
X125495590Y-47999059D01*
X125283390Y-47854069D01*
X125031500Y-47803060D01*
X124925632Y-47803060D01*
X124908148Y-47715160D01*
X124743401Y-47468599D01*
X123737371Y-46462569D01*
X123825000Y-46480000D01*
X124115839Y-46422148D01*
X124362401Y-46257401D01*
X124997401Y-45622401D01*
X125162148Y-45375839D01*
X125220000Y-45085000D01*
X125162148Y-44794160D01*
X124997401Y-44547599D01*
X124750840Y-44382852D01*
X124460000Y-44325000D01*
X124169161Y-44382852D01*
X123922599Y-44547599D01*
X123287599Y-45182599D01*
X123122852Y-45429161D01*
X123065000Y-45720000D01*
X123082431Y-45807629D01*
X122457401Y-45182599D01*
X122210839Y-45017852D01*
X121920000Y-44960000D01*
X110057940Y-44960000D01*
X110057940Y-44894500D01*
X110013662Y-44659183D01*
X109874590Y-44443059D01*
X109662390Y-44298069D01*
X109410500Y-44247060D01*
X107759500Y-44247060D01*
X107524183Y-44291338D01*
X107308059Y-44430410D01*
X107163069Y-44642610D01*
X107112060Y-44894500D01*
X107112060Y-44960000D01*
X91007940Y-44960000D01*
X91007940Y-44894500D01*
X90963662Y-44659183D01*
X90824590Y-44443059D01*
X90612390Y-44298069D01*
X90360500Y-44247060D01*
X88709500Y-44247060D01*
X88474183Y-44291338D01*
X88258059Y-44430410D01*
X88113069Y-44642610D01*
X88062060Y-44894500D01*
X88062060Y-44960000D01*
X71957940Y-44960000D01*
X71957940Y-44894500D01*
X71913662Y-44659183D01*
X71774590Y-44443059D01*
X71562390Y-44298069D01*
X71310500Y-44247060D01*
X69659500Y-44247060D01*
X69424183Y-44291338D01*
X69208059Y-44430410D01*
X69063069Y-44642610D01*
X69012060Y-44894500D01*
X69012060Y-44960000D01*
X68734641Y-44960000D01*
X68821037Y-44751935D01*
X68821562Y-44150703D01*
X68734501Y-43940000D01*
X127635000Y-43940000D01*
X127925839Y-43882148D01*
X128172401Y-43717401D01*
X129874201Y-42015601D01*
X129958183Y-41889912D01*
X129967206Y-41898951D01*
X130513139Y-42125642D01*
X131104267Y-42126158D01*
X131320000Y-42037019D01*
X131320000Y-42611198D01*
X131288599Y-42642599D01*
X131123852Y-42889161D01*
X131066000Y-43180000D01*
X131066000Y-48009762D01*
X130999774Y-48037126D01*
X130588570Y-48447613D01*
X130365754Y-48984214D01*
X130365247Y-49565237D01*
X130587126Y-50102226D01*
X130997613Y-50513430D01*
X131534214Y-50736246D01*
X132115237Y-50736753D01*
X132652226Y-50514874D01*
X132843739Y-50323694D01*
X133365226Y-50323694D01*
X133613538Y-50924655D01*
X134072927Y-51384846D01*
X134673453Y-51634206D01*
X135323694Y-51634774D01*
X135924655Y-51386462D01*
X136384846Y-50927073D01*
X136634206Y-50326547D01*
X136634774Y-49676306D01*
X136386462Y-49075345D01*
X135927073Y-48615154D01*
X135326547Y-48365794D01*
X134676306Y-48365226D01*
X134075345Y-48613538D01*
X133615154Y-49072927D01*
X133365794Y-49673453D01*
X133365226Y-50323694D01*
X132843739Y-50323694D01*
X133063430Y-50104387D01*
X133286246Y-49567786D01*
X133286753Y-48986763D01*
X133064874Y-48449774D01*
X132654387Y-48038570D01*
X132586000Y-48010173D01*
X132586000Y-43494802D01*
X132617401Y-43463401D01*
X132782148Y-43216840D01*
X132840000Y-42926000D01*
X132840000Y-41160626D01*
X133260645Y-41160626D01*
X133660028Y-42127207D01*
X134398904Y-42867373D01*
X135364785Y-43268442D01*
X136410626Y-43269355D01*
X137377207Y-42869972D01*
X138117373Y-42131096D01*
X138518442Y-41165215D01*
X138519355Y-40119374D01*
X138119972Y-39152793D01*
X137381096Y-38412627D01*
X136415215Y-38011558D01*
X135369374Y-38010645D01*
X134402793Y-38410028D01*
X133662627Y-39148904D01*
X133261558Y-40114785D01*
X133260645Y-41160626D01*
X132840000Y-41160626D01*
X132840000Y-39709773D01*
X133085840Y-39608194D01*
X133586436Y-39108471D01*
X133857691Y-38455218D01*
X133858308Y-37747886D01*
X133588194Y-37094160D01*
X133088471Y-36593564D01*
X132435218Y-36322309D01*
X131727886Y-36321692D01*
X131074160Y-36591806D01*
X130573564Y-37091529D01*
X130459891Y-37365284D01*
X130194000Y-37098929D01*
X129638735Y-36868363D01*
X129037503Y-36867838D01*
X128481836Y-37097435D01*
X128056329Y-37522200D01*
X127825763Y-38077465D01*
X127825238Y-38678697D01*
X128054835Y-39234364D01*
X128479600Y-39659871D01*
X128576800Y-39700232D01*
X128576800Y-41163398D01*
X127320198Y-42420000D01*
X125251208Y-42420000D01*
X125192803Y-42361595D01*
X125446827Y-42278096D01*
X125652682Y-41713203D01*
X125626691Y-41112532D01*
X125446827Y-40678304D01*
X125192801Y-40594804D01*
X124309405Y-41478200D01*
X124323548Y-41492343D01*
X124143943Y-41671948D01*
X124129800Y-41657805D01*
X124115658Y-41671948D01*
X123936053Y-41492343D01*
X123950195Y-41478200D01*
X123936053Y-41464058D01*
X124115658Y-41284453D01*
X124129800Y-41298595D01*
X125013196Y-40415199D01*
X124929696Y-40161173D01*
X124364803Y-39955318D01*
X123764132Y-39981309D01*
X123329904Y-40161173D01*
X123329902Y-40161179D01*
X123180420Y-39799405D01*
X122762794Y-39381049D01*
X122216861Y-39154358D01*
X121625733Y-39153842D01*
X121079405Y-39379580D01*
X120661049Y-39797206D01*
X120434358Y-40343139D01*
X120433842Y-40934267D01*
X120659580Y-41480595D01*
X121077206Y-41898951D01*
X121623139Y-42125642D01*
X122214267Y-42126158D01*
X122671570Y-41937204D01*
X122812773Y-42278096D01*
X123066797Y-42361595D01*
X123008392Y-42420000D01*
X118777965Y-42420000D01*
X119067373Y-42131096D01*
X119468442Y-41165215D01*
X119469355Y-40119374D01*
X119069972Y-39152793D01*
X118521381Y-38603244D01*
X124599504Y-38603244D01*
X124771219Y-39018827D01*
X125088900Y-39337063D01*
X125504183Y-39509503D01*
X125953844Y-39509896D01*
X126369427Y-39338181D01*
X126687663Y-39020500D01*
X126860103Y-38605217D01*
X126860496Y-38155556D01*
X126688781Y-37739973D01*
X126371100Y-37421737D01*
X125955817Y-37249297D01*
X125506156Y-37248904D01*
X125090573Y-37420619D01*
X124772337Y-37738300D01*
X124599897Y-38153583D01*
X124599504Y-38603244D01*
X118521381Y-38603244D01*
X118331096Y-38412627D01*
X117365215Y-38011558D01*
X116319374Y-38010645D01*
X115352793Y-38410028D01*
X114612627Y-39148904D01*
X114211558Y-40114785D01*
X114210645Y-41160626D01*
X114610028Y-42127207D01*
X114902311Y-42420000D01*
X99727965Y-42420000D01*
X100017373Y-42131096D01*
X100418442Y-41165215D01*
X100418643Y-40934267D01*
X101383842Y-40934267D01*
X101609580Y-41480595D01*
X102027206Y-41898951D01*
X102573139Y-42125642D01*
X103164267Y-42126158D01*
X103710595Y-41900420D01*
X104128951Y-41482794D01*
X104355642Y-40936861D01*
X104356158Y-40345733D01*
X104130420Y-39799405D01*
X103712794Y-39381049D01*
X103166861Y-39154358D01*
X102575733Y-39153842D01*
X102029405Y-39379580D01*
X101611049Y-39797206D01*
X101384358Y-40343139D01*
X101383842Y-40934267D01*
X100418643Y-40934267D01*
X100419355Y-40119374D01*
X100019972Y-39152793D01*
X99281096Y-38412627D01*
X99224767Y-38389237D01*
X107124247Y-38389237D01*
X107346126Y-38926226D01*
X107756613Y-39337430D01*
X108293214Y-39560246D01*
X108874237Y-39560753D01*
X109411226Y-39338874D01*
X109822430Y-38928387D01*
X109850827Y-38860000D01*
X111420227Y-38860000D01*
X111521806Y-39105840D01*
X111569815Y-39153933D01*
X111465733Y-39153842D01*
X110919405Y-39379580D01*
X110501049Y-39797206D01*
X110274358Y-40343139D01*
X110273842Y-40934267D01*
X110499580Y-41480595D01*
X110917206Y-41898951D01*
X111463139Y-42125642D01*
X112054267Y-42126158D01*
X112600595Y-41900420D01*
X113018951Y-41482794D01*
X113245642Y-40936861D01*
X113246158Y-40345733D01*
X113052903Y-39878021D01*
X113382114Y-39878308D01*
X114035840Y-39608194D01*
X114536436Y-39108471D01*
X114807691Y-38455218D01*
X114808308Y-37747886D01*
X114538194Y-37094160D01*
X114038471Y-36593564D01*
X113385218Y-36322309D01*
X112677886Y-36321692D01*
X112024160Y-36591806D01*
X111523564Y-37091529D01*
X111420390Y-37340000D01*
X109851238Y-37340000D01*
X109823874Y-37273774D01*
X109413387Y-36862570D01*
X108876786Y-36639754D01*
X108295763Y-36639247D01*
X107758774Y-36861126D01*
X107347570Y-37271613D01*
X107124754Y-37808214D01*
X107124247Y-38389237D01*
X99224767Y-38389237D01*
X98315215Y-38011558D01*
X97269374Y-38010645D01*
X96302793Y-38410028D01*
X95562627Y-39148904D01*
X95161558Y-40114785D01*
X95160645Y-41160626D01*
X95560028Y-42127207D01*
X95852311Y-42420000D01*
X80677965Y-42420000D01*
X80967373Y-42131096D01*
X81368442Y-41165215D01*
X81368643Y-40934267D01*
X82333842Y-40934267D01*
X82559580Y-41480595D01*
X82977206Y-41898951D01*
X83523139Y-42125642D01*
X84114267Y-42126158D01*
X84660595Y-41900420D01*
X85078951Y-41482794D01*
X85305642Y-40936861D01*
X85306158Y-40345733D01*
X85080420Y-39799405D01*
X84662794Y-39381049D01*
X84116861Y-39154358D01*
X83525733Y-39153842D01*
X82979405Y-39379580D01*
X82561049Y-39797206D01*
X82334358Y-40343139D01*
X82333842Y-40934267D01*
X81368643Y-40934267D01*
X81369355Y-40119374D01*
X80969972Y-39152793D01*
X80231096Y-38412627D01*
X80174767Y-38389237D01*
X88074247Y-38389237D01*
X88296126Y-38926226D01*
X88706613Y-39337430D01*
X89243214Y-39560246D01*
X89824237Y-39560753D01*
X90361226Y-39338874D01*
X90772430Y-38928387D01*
X90800827Y-38860000D01*
X92370227Y-38860000D01*
X92471806Y-39105840D01*
X92519815Y-39153933D01*
X92415733Y-39153842D01*
X91869405Y-39379580D01*
X91451049Y-39797206D01*
X91224358Y-40343139D01*
X91223842Y-40934267D01*
X91449580Y-41480595D01*
X91867206Y-41898951D01*
X92413139Y-42125642D01*
X93004267Y-42126158D01*
X93550595Y-41900420D01*
X93968951Y-41482794D01*
X94195642Y-40936861D01*
X94196158Y-40345733D01*
X94002903Y-39878021D01*
X94332114Y-39878308D01*
X94985840Y-39608194D01*
X95486436Y-39108471D01*
X95757691Y-38455218D01*
X95758308Y-37747886D01*
X95488194Y-37094160D01*
X94988471Y-36593564D01*
X94335218Y-36322309D01*
X93627886Y-36321692D01*
X92974160Y-36591806D01*
X92473564Y-37091529D01*
X92370390Y-37340000D01*
X90801238Y-37340000D01*
X90773874Y-37273774D01*
X90363387Y-36862570D01*
X89826786Y-36639754D01*
X89245763Y-36639247D01*
X88708774Y-36861126D01*
X88297570Y-37271613D01*
X88074754Y-37808214D01*
X88074247Y-38389237D01*
X80174767Y-38389237D01*
X79265215Y-38011558D01*
X78219374Y-38010645D01*
X77252793Y-38410028D01*
X76512627Y-39148904D01*
X76111558Y-40114785D01*
X76110645Y-41160626D01*
X76510028Y-42127207D01*
X76802311Y-42420000D01*
X68734641Y-42420000D01*
X68821037Y-42211935D01*
X68821562Y-41610703D01*
X68591965Y-41055036D01*
X68177302Y-40639649D01*
X68590471Y-40227200D01*
X68821037Y-39671935D01*
X68821562Y-39070703D01*
X68591965Y-38515036D01*
X68466386Y-38389237D01*
X69024247Y-38389237D01*
X69246126Y-38926226D01*
X69656613Y-39337430D01*
X70193214Y-39560246D01*
X70774237Y-39560753D01*
X71311226Y-39338874D01*
X71722430Y-38928387D01*
X71750827Y-38860000D01*
X73320227Y-38860000D01*
X73421806Y-39105840D01*
X73469815Y-39153933D01*
X73365733Y-39153842D01*
X72819405Y-39379580D01*
X72401049Y-39797206D01*
X72174358Y-40343139D01*
X72173842Y-40934267D01*
X72399580Y-41480595D01*
X72817206Y-41898951D01*
X73363139Y-42125642D01*
X73954267Y-42126158D01*
X74500595Y-41900420D01*
X74918951Y-41482794D01*
X75145642Y-40936861D01*
X75146158Y-40345733D01*
X74952903Y-39878021D01*
X75282114Y-39878308D01*
X75935840Y-39608194D01*
X76436436Y-39108471D01*
X76707691Y-38455218D01*
X76708308Y-37747886D01*
X76438194Y-37094160D01*
X75938471Y-36593564D01*
X75285218Y-36322309D01*
X74577886Y-36321692D01*
X73924160Y-36591806D01*
X73423564Y-37091529D01*
X73320390Y-37340000D01*
X71751238Y-37340000D01*
X71723874Y-37273774D01*
X71313387Y-36862570D01*
X70776786Y-36639754D01*
X70195763Y-36639247D01*
X69658774Y-36861126D01*
X69247570Y-37271613D01*
X69024754Y-37808214D01*
X69024247Y-38389237D01*
X68466386Y-38389237D01*
X68167200Y-38089529D01*
X68133408Y-38075497D01*
X68193396Y-37893001D01*
X67310000Y-37009605D01*
X66426604Y-37893001D01*
X66486447Y-38075056D01*
X66455036Y-38088035D01*
X66029529Y-38512800D01*
X65798963Y-39068065D01*
X65798527Y-39567107D01*
X65612794Y-39381049D01*
X65066861Y-39154358D01*
X64475733Y-39153842D01*
X63929405Y-39379580D01*
X63511049Y-39797206D01*
X63284358Y-40343139D01*
X63283842Y-40934267D01*
X63509580Y-41480595D01*
X63927206Y-41898951D01*
X64473139Y-42125642D01*
X65064267Y-42126158D01*
X65610595Y-41900420D01*
X65798872Y-41712472D01*
X65798438Y-42209297D01*
X65897233Y-42448398D01*
X65749161Y-42477852D01*
X65502599Y-42642599D01*
X63820198Y-44325000D01*
X60889802Y-44325000D01*
X62767401Y-42447401D01*
X62932148Y-42200840D01*
X62968994Y-42015601D01*
X62990000Y-41910000D01*
X62990000Y-39684802D01*
X65799257Y-36875545D01*
X65813109Y-37195668D01*
X65992973Y-37629896D01*
X66246999Y-37713396D01*
X67130395Y-36830000D01*
X67116253Y-36815858D01*
X67295858Y-36636253D01*
X67310000Y-36650395D01*
X67324143Y-36636253D01*
X67503748Y-36815858D01*
X67489605Y-36830000D01*
X68373001Y-37713396D01*
X68627027Y-37629896D01*
X68832882Y-37065003D01*
X68806891Y-36464332D01*
X68747106Y-36320000D01*
X79670227Y-36320000D01*
X79771806Y-36565840D01*
X80271529Y-37066436D01*
X80924782Y-37337691D01*
X81632114Y-37338308D01*
X82285840Y-37068194D01*
X82786436Y-36568471D01*
X83057691Y-35915218D01*
X83058308Y-35207886D01*
X82993897Y-35052000D01*
X98615750Y-35052000D01*
X98552309Y-35204782D01*
X98551692Y-35912114D01*
X98821806Y-36565840D01*
X99321529Y-37066436D01*
X99974782Y-37337691D01*
X100682114Y-37338308D01*
X101335840Y-37068194D01*
X101836436Y-36568471D01*
X102107691Y-35915218D01*
X102108308Y-35207886D01*
X102043897Y-35052000D01*
X117665750Y-35052000D01*
X117602309Y-35204782D01*
X117601692Y-35912114D01*
X117871806Y-36565840D01*
X118371529Y-37066436D01*
X119024782Y-37337691D01*
X119732114Y-37338308D01*
X120385840Y-37068194D01*
X120886436Y-36568471D01*
X121157691Y-35915218D01*
X121158308Y-35207886D01*
X121093897Y-35052000D01*
X136715750Y-35052000D01*
X136652309Y-35204782D01*
X136651692Y-35912114D01*
X136921806Y-36565840D01*
X137421529Y-37066436D01*
X138074782Y-37337691D01*
X138782114Y-37338308D01*
X139435840Y-37068194D01*
X139936436Y-36568471D01*
X140207691Y-35915218D01*
X140208308Y-35207886D01*
X140143897Y-35052000D01*
X140895000Y-35052000D01*
X140895000Y-39154033D01*
X140675733Y-39153842D01*
X140129405Y-39379580D01*
X139711049Y-39797206D01*
X139484358Y-40343139D01*
X139483842Y-40934267D01*
X139709580Y-41480595D01*
X140127206Y-41898951D01*
X140673139Y-42125642D01*
X140895000Y-42125836D01*
X140895000Y-58204033D01*
X140675733Y-58203842D01*
X140129405Y-58429580D01*
X139711049Y-58847206D01*
X139484358Y-59393139D01*
X139483842Y-59984267D01*
X139709580Y-60530595D01*
X140127206Y-60948951D01*
X140673139Y-61175642D01*
X140895000Y-61175836D01*
X140895000Y-77254033D01*
X140675733Y-77253842D01*
X140129405Y-77479580D01*
X139711049Y-77897206D01*
X139484358Y-78443139D01*
X139483842Y-79034267D01*
X139709580Y-79580595D01*
X140127206Y-79998951D01*
X140673139Y-80225642D01*
X140895000Y-80225836D01*
X140895000Y-96304033D01*
X140675733Y-96303842D01*
X140129405Y-96529580D01*
X139711049Y-96947206D01*
X139484358Y-97493139D01*
X139483842Y-98084267D01*
X139709580Y-98630595D01*
X140127206Y-99048951D01*
X140673139Y-99275642D01*
X140895000Y-99275836D01*
X140895000Y-103378000D01*
X129107940Y-103378000D01*
X129107940Y-102044500D01*
X129063662Y-101809183D01*
X128924590Y-101593059D01*
X128712390Y-101448069D01*
X128460500Y-101397060D01*
X126809500Y-101397060D01*
X126574183Y-101441338D01*
X126358059Y-101580410D01*
X126213069Y-101792610D01*
X126162060Y-102044500D01*
X126162060Y-102110000D01*
X110057940Y-102110000D01*
X110057940Y-102044500D01*
X110013662Y-101809183D01*
X109874590Y-101593059D01*
X109662390Y-101448069D01*
X109410500Y-101397060D01*
X107759500Y-101397060D01*
X107524183Y-101441338D01*
X107308059Y-101580410D01*
X107163069Y-101792610D01*
X107112060Y-102044500D01*
X107112060Y-102110000D01*
X91007940Y-102110000D01*
X91007940Y-102044500D01*
X90963662Y-101809183D01*
X90824590Y-101593059D01*
X90612390Y-101448069D01*
X90360500Y-101397060D01*
X88709500Y-101397060D01*
X88474183Y-101441338D01*
X88258059Y-101580410D01*
X88113069Y-101792610D01*
X88062060Y-102044500D01*
X88062060Y-102110000D01*
X71957940Y-102110000D01*
X71957940Y-102044500D01*
X71913662Y-101809183D01*
X71774590Y-101593059D01*
X71562390Y-101448069D01*
X71310500Y-101397060D01*
X69659500Y-101397060D01*
X69424183Y-101441338D01*
X69208059Y-101580410D01*
X69063069Y-101792610D01*
X69012060Y-102044500D01*
X69012060Y-102110000D01*
X52907940Y-102110000D01*
X52907940Y-102044500D01*
X52863662Y-101809183D01*
X52724590Y-101593059D01*
X52512390Y-101448069D01*
X52260500Y-101397060D01*
X50609500Y-101397060D01*
X50374183Y-101441338D01*
X50196727Y-101555528D01*
X50196662Y-101555183D01*
X50057590Y-101339059D01*
X49845390Y-101194069D01*
X49593500Y-101143060D01*
X47942500Y-101143060D01*
X47707183Y-101187338D01*
X47491059Y-101326410D01*
X47346069Y-101538610D01*
X47295060Y-101790500D01*
X47295060Y-103378000D01*
X37387046Y-103378000D01*
X37532148Y-103160839D01*
X37590000Y-102870000D01*
X37590000Y-98310626D01*
X38010645Y-98310626D01*
X38410028Y-99277207D01*
X39148904Y-100017373D01*
X40114785Y-100418442D01*
X41160626Y-100419355D01*
X42127207Y-100019972D01*
X42867373Y-99281096D01*
X43268442Y-98315215D01*
X43268643Y-98084267D01*
X44233842Y-98084267D01*
X44459580Y-98630595D01*
X44877206Y-99048951D01*
X45423139Y-99275642D01*
X46014267Y-99276158D01*
X46560595Y-99050420D01*
X46978951Y-98632794D01*
X47205642Y-98086861D01*
X47206158Y-97495733D01*
X46980420Y-96949405D01*
X46562794Y-96531049D01*
X46016861Y-96304358D01*
X45425733Y-96303842D01*
X44879405Y-96529580D01*
X44461049Y-96947206D01*
X44234358Y-97493139D01*
X44233842Y-98084267D01*
X43268643Y-98084267D01*
X43269355Y-97269374D01*
X42869972Y-96302793D01*
X42131096Y-95562627D01*
X41463067Y-95285237D01*
X47307247Y-95285237D01*
X47529126Y-95822226D01*
X47939613Y-96233430D01*
X48476214Y-96456246D01*
X49057237Y-96456753D01*
X49594226Y-96234874D01*
X50005430Y-95824387D01*
X50048856Y-95719805D01*
X50196126Y-96076226D01*
X50606613Y-96487430D01*
X51143214Y-96710246D01*
X51724237Y-96710753D01*
X52261226Y-96488874D01*
X52672430Y-96078387D01*
X52700827Y-96010000D01*
X54270227Y-96010000D01*
X54371806Y-96255840D01*
X54419815Y-96303933D01*
X54315733Y-96303842D01*
X53769405Y-96529580D01*
X53351049Y-96947206D01*
X53124358Y-97493139D01*
X53123842Y-98084267D01*
X53349580Y-98630595D01*
X53767206Y-99048951D01*
X54313139Y-99275642D01*
X54904267Y-99276158D01*
X55450595Y-99050420D01*
X55868951Y-98632794D01*
X56002726Y-98310626D01*
X57060645Y-98310626D01*
X57460028Y-99277207D01*
X58198904Y-100017373D01*
X59164785Y-100418442D01*
X60210626Y-100419355D01*
X61177207Y-100019972D01*
X61917373Y-99281096D01*
X62318442Y-98315215D01*
X62318643Y-98084267D01*
X63283842Y-98084267D01*
X63509580Y-98630595D01*
X63927206Y-99048951D01*
X64473139Y-99275642D01*
X65064267Y-99276158D01*
X65610595Y-99050420D01*
X66028951Y-98632794D01*
X66255642Y-98086861D01*
X66256158Y-97495733D01*
X66030420Y-96949405D01*
X65612794Y-96531049D01*
X65066861Y-96304358D01*
X64475733Y-96303842D01*
X63929405Y-96529580D01*
X63511049Y-96947206D01*
X63284358Y-97493139D01*
X63283842Y-98084267D01*
X62318643Y-98084267D01*
X62319355Y-97269374D01*
X61919972Y-96302793D01*
X61181096Y-95562627D01*
X61124767Y-95539237D01*
X69024247Y-95539237D01*
X69246126Y-96076226D01*
X69656613Y-96487430D01*
X70193214Y-96710246D01*
X70774237Y-96710753D01*
X71311226Y-96488874D01*
X71722430Y-96078387D01*
X71750827Y-96010000D01*
X73320227Y-96010000D01*
X73421806Y-96255840D01*
X73469815Y-96303933D01*
X73365733Y-96303842D01*
X72819405Y-96529580D01*
X72401049Y-96947206D01*
X72174358Y-97493139D01*
X72173842Y-98084267D01*
X72399580Y-98630595D01*
X72817206Y-99048951D01*
X73363139Y-99275642D01*
X73954267Y-99276158D01*
X74500595Y-99050420D01*
X74918951Y-98632794D01*
X75052726Y-98310626D01*
X76110645Y-98310626D01*
X76510028Y-99277207D01*
X77248904Y-100017373D01*
X78214785Y-100418442D01*
X79260626Y-100419355D01*
X80227207Y-100019972D01*
X80967373Y-99281096D01*
X81368442Y-98315215D01*
X81368643Y-98084267D01*
X82333842Y-98084267D01*
X82559580Y-98630595D01*
X82977206Y-99048951D01*
X83523139Y-99275642D01*
X84114267Y-99276158D01*
X84660595Y-99050420D01*
X85078951Y-98632794D01*
X85305642Y-98086861D01*
X85306158Y-97495733D01*
X85080420Y-96949405D01*
X84662794Y-96531049D01*
X84116861Y-96304358D01*
X83525733Y-96303842D01*
X82979405Y-96529580D01*
X82561049Y-96947206D01*
X82334358Y-97493139D01*
X82333842Y-98084267D01*
X81368643Y-98084267D01*
X81369355Y-97269374D01*
X80969972Y-96302793D01*
X80231096Y-95562627D01*
X80174767Y-95539237D01*
X88074247Y-95539237D01*
X88296126Y-96076226D01*
X88706613Y-96487430D01*
X89243214Y-96710246D01*
X89824237Y-96710753D01*
X90361226Y-96488874D01*
X90772430Y-96078387D01*
X90800827Y-96010000D01*
X92370227Y-96010000D01*
X92471806Y-96255840D01*
X92519815Y-96303933D01*
X92415733Y-96303842D01*
X91869405Y-96529580D01*
X91451049Y-96947206D01*
X91224358Y-97493139D01*
X91223842Y-98084267D01*
X91449580Y-98630595D01*
X91867206Y-99048951D01*
X92413139Y-99275642D01*
X93004267Y-99276158D01*
X93550595Y-99050420D01*
X93968951Y-98632794D01*
X94102726Y-98310626D01*
X95160645Y-98310626D01*
X95560028Y-99277207D01*
X96298904Y-100017373D01*
X97264785Y-100418442D01*
X98310626Y-100419355D01*
X99277207Y-100019972D01*
X100017373Y-99281096D01*
X100418442Y-98315215D01*
X100418643Y-98084267D01*
X101383842Y-98084267D01*
X101609580Y-98630595D01*
X102027206Y-99048951D01*
X102573139Y-99275642D01*
X103164267Y-99276158D01*
X103710595Y-99050420D01*
X104128951Y-98632794D01*
X104355642Y-98086861D01*
X104356158Y-97495733D01*
X104130420Y-96949405D01*
X103712794Y-96531049D01*
X103166861Y-96304358D01*
X102575733Y-96303842D01*
X102029405Y-96529580D01*
X101611049Y-96947206D01*
X101384358Y-97493139D01*
X101383842Y-98084267D01*
X100418643Y-98084267D01*
X100419355Y-97269374D01*
X100019972Y-96302793D01*
X99281096Y-95562627D01*
X99224767Y-95539237D01*
X107124247Y-95539237D01*
X107346126Y-96076226D01*
X107756613Y-96487430D01*
X108293214Y-96710246D01*
X108874237Y-96710753D01*
X109411226Y-96488874D01*
X109822430Y-96078387D01*
X109850827Y-96010000D01*
X111420227Y-96010000D01*
X111521806Y-96255840D01*
X111569815Y-96303933D01*
X111465733Y-96303842D01*
X110919405Y-96529580D01*
X110501049Y-96947206D01*
X110274358Y-97493139D01*
X110273842Y-98084267D01*
X110499580Y-98630595D01*
X110917206Y-99048951D01*
X111463139Y-99275642D01*
X112054267Y-99276158D01*
X112600595Y-99050420D01*
X113018951Y-98632794D01*
X113152726Y-98310626D01*
X114210645Y-98310626D01*
X114610028Y-99277207D01*
X115348904Y-100017373D01*
X116314785Y-100418442D01*
X117360626Y-100419355D01*
X118327207Y-100019972D01*
X119067373Y-99281096D01*
X119468442Y-98315215D01*
X119468643Y-98084267D01*
X120433842Y-98084267D01*
X120659580Y-98630595D01*
X121077206Y-99048951D01*
X121623139Y-99275642D01*
X122214267Y-99276158D01*
X122760595Y-99050420D01*
X123178951Y-98632794D01*
X123405642Y-98086861D01*
X123406158Y-97495733D01*
X123180420Y-96949405D01*
X122762794Y-96531049D01*
X122216861Y-96304358D01*
X121625733Y-96303842D01*
X121079405Y-96529580D01*
X120661049Y-96947206D01*
X120434358Y-97493139D01*
X120433842Y-98084267D01*
X119468643Y-98084267D01*
X119469355Y-97269374D01*
X119069972Y-96302793D01*
X118331096Y-95562627D01*
X118274767Y-95539237D01*
X126174247Y-95539237D01*
X126396126Y-96076226D01*
X126806613Y-96487430D01*
X127343214Y-96710246D01*
X127924237Y-96710753D01*
X128461226Y-96488874D01*
X128872430Y-96078387D01*
X128900827Y-96010000D01*
X130470227Y-96010000D01*
X130571806Y-96255840D01*
X130619815Y-96303933D01*
X130515733Y-96303842D01*
X129969405Y-96529580D01*
X129551049Y-96947206D01*
X129324358Y-97493139D01*
X129323842Y-98084267D01*
X129549580Y-98630595D01*
X129967206Y-99048951D01*
X130513139Y-99275642D01*
X131104267Y-99276158D01*
X131650595Y-99050420D01*
X132068951Y-98632794D01*
X132202726Y-98310626D01*
X133260645Y-98310626D01*
X133660028Y-99277207D01*
X134398904Y-100017373D01*
X135364785Y-100418442D01*
X136410626Y-100419355D01*
X137377207Y-100019972D01*
X138117373Y-99281096D01*
X138518442Y-98315215D01*
X138519355Y-97269374D01*
X138119972Y-96302793D01*
X137381096Y-95562627D01*
X136415215Y-95161558D01*
X135369374Y-95160645D01*
X134402793Y-95560028D01*
X133662627Y-96298904D01*
X133261558Y-97264785D01*
X133260645Y-98310626D01*
X132202726Y-98310626D01*
X132295642Y-98086861D01*
X132296158Y-97495733D01*
X132102903Y-97028021D01*
X132432114Y-97028308D01*
X133085840Y-96758194D01*
X133586436Y-96258471D01*
X133857691Y-95605218D01*
X133858308Y-94897886D01*
X133588194Y-94244160D01*
X133088471Y-93743564D01*
X132435218Y-93472309D01*
X131727886Y-93471692D01*
X131074160Y-93741806D01*
X130573564Y-94241529D01*
X130470390Y-94490000D01*
X128901238Y-94490000D01*
X128873874Y-94423774D01*
X128463387Y-94012570D01*
X127926786Y-93789754D01*
X127345763Y-93789247D01*
X126808774Y-94011126D01*
X126397570Y-94421613D01*
X126174754Y-94958214D01*
X126174247Y-95539237D01*
X118274767Y-95539237D01*
X117365215Y-95161558D01*
X116319374Y-95160645D01*
X115352793Y-95560028D01*
X114612627Y-96298904D01*
X114211558Y-97264785D01*
X114210645Y-98310626D01*
X113152726Y-98310626D01*
X113245642Y-98086861D01*
X113246158Y-97495733D01*
X113052903Y-97028021D01*
X113382114Y-97028308D01*
X114035840Y-96758194D01*
X114536436Y-96258471D01*
X114807691Y-95605218D01*
X114808308Y-94897886D01*
X114538194Y-94244160D01*
X114038471Y-93743564D01*
X113385218Y-93472309D01*
X112677886Y-93471692D01*
X112024160Y-93741806D01*
X111523564Y-94241529D01*
X111420390Y-94490000D01*
X109851238Y-94490000D01*
X109823874Y-94423774D01*
X109413387Y-94012570D01*
X108876786Y-93789754D01*
X108295763Y-93789247D01*
X107758774Y-94011126D01*
X107347570Y-94421613D01*
X107124754Y-94958214D01*
X107124247Y-95539237D01*
X99224767Y-95539237D01*
X98315215Y-95161558D01*
X97269374Y-95160645D01*
X96302793Y-95560028D01*
X95562627Y-96298904D01*
X95161558Y-97264785D01*
X95160645Y-98310626D01*
X94102726Y-98310626D01*
X94195642Y-98086861D01*
X94196158Y-97495733D01*
X94002903Y-97028021D01*
X94332114Y-97028308D01*
X94985840Y-96758194D01*
X95486436Y-96258471D01*
X95757691Y-95605218D01*
X95758308Y-94897886D01*
X95488194Y-94244160D01*
X94988471Y-93743564D01*
X94335218Y-93472309D01*
X93627886Y-93471692D01*
X92974160Y-93741806D01*
X92473564Y-94241529D01*
X92370390Y-94490000D01*
X90801238Y-94490000D01*
X90773874Y-94423774D01*
X90363387Y-94012570D01*
X89826786Y-93789754D01*
X89245763Y-93789247D01*
X88708774Y-94011126D01*
X88297570Y-94421613D01*
X88074754Y-94958214D01*
X88074247Y-95539237D01*
X80174767Y-95539237D01*
X79265215Y-95161558D01*
X78219374Y-95160645D01*
X77252793Y-95560028D01*
X76512627Y-96298904D01*
X76111558Y-97264785D01*
X76110645Y-98310626D01*
X75052726Y-98310626D01*
X75145642Y-98086861D01*
X75146158Y-97495733D01*
X74952903Y-97028021D01*
X75282114Y-97028308D01*
X75935840Y-96758194D01*
X76436436Y-96258471D01*
X76707691Y-95605218D01*
X76708308Y-94897886D01*
X76438194Y-94244160D01*
X75938471Y-93743564D01*
X75285218Y-93472309D01*
X74577886Y-93471692D01*
X73924160Y-93741806D01*
X73423564Y-94241529D01*
X73320390Y-94490000D01*
X71751238Y-94490000D01*
X71723874Y-94423774D01*
X71313387Y-94012570D01*
X70776786Y-93789754D01*
X70195763Y-93789247D01*
X69658774Y-94011126D01*
X69247570Y-94421613D01*
X69024754Y-94958214D01*
X69024247Y-95539237D01*
X61124767Y-95539237D01*
X60215215Y-95161558D01*
X59169374Y-95160645D01*
X58202793Y-95560028D01*
X57462627Y-96298904D01*
X57061558Y-97264785D01*
X57060645Y-98310626D01*
X56002726Y-98310626D01*
X56095642Y-98086861D01*
X56096158Y-97495733D01*
X55902903Y-97028021D01*
X56232114Y-97028308D01*
X56885840Y-96758194D01*
X57386436Y-96258471D01*
X57657691Y-95605218D01*
X57658308Y-94897886D01*
X57388194Y-94244160D01*
X56888471Y-93743564D01*
X56235218Y-93472309D01*
X55527886Y-93471692D01*
X54874160Y-93741806D01*
X54373564Y-94241529D01*
X54270390Y-94490000D01*
X52701238Y-94490000D01*
X52673874Y-94423774D01*
X52263387Y-94012570D01*
X51726786Y-93789754D01*
X51145763Y-93789247D01*
X50608774Y-94011126D01*
X50197570Y-94421613D01*
X50154144Y-94526195D01*
X50006874Y-94169774D01*
X49596387Y-93758570D01*
X49059786Y-93535754D01*
X48478763Y-93535247D01*
X47941774Y-93757126D01*
X47530570Y-94167613D01*
X47307754Y-94704214D01*
X47307247Y-95285237D01*
X41463067Y-95285237D01*
X41165215Y-95161558D01*
X40119374Y-95160645D01*
X39152793Y-95560028D01*
X38412627Y-96298904D01*
X38011558Y-97264785D01*
X38010645Y-98310626D01*
X37590000Y-98310626D01*
X37590000Y-96859773D01*
X37835840Y-96758194D01*
X38336436Y-96258471D01*
X38607691Y-95605218D01*
X38608308Y-94897886D01*
X38338194Y-94244160D01*
X37838471Y-93743564D01*
X37185218Y-93472309D01*
X36477886Y-93471692D01*
X35824160Y-93741806D01*
X35635000Y-93930636D01*
X35635000Y-93062114D01*
X41401692Y-93062114D01*
X41671806Y-93715840D01*
X42171529Y-94216436D01*
X42824782Y-94487691D01*
X43532114Y-94488308D01*
X44185840Y-94218194D01*
X44686436Y-93718471D01*
X44957691Y-93065218D01*
X44957693Y-93062114D01*
X60451692Y-93062114D01*
X60721806Y-93715840D01*
X61221529Y-94216436D01*
X61874782Y-94487691D01*
X62582114Y-94488308D01*
X63235840Y-94218194D01*
X63736436Y-93718471D01*
X64007691Y-93065218D01*
X64007693Y-93062114D01*
X79501692Y-93062114D01*
X79771806Y-93715840D01*
X80271529Y-94216436D01*
X80924782Y-94487691D01*
X81632114Y-94488308D01*
X82285840Y-94218194D01*
X82786436Y-93718471D01*
X83057691Y-93065218D01*
X83057693Y-93062114D01*
X98551692Y-93062114D01*
X98821806Y-93715840D01*
X99321529Y-94216436D01*
X99974782Y-94487691D01*
X100682114Y-94488308D01*
X101335840Y-94218194D01*
X101836436Y-93718471D01*
X102107691Y-93065218D01*
X102107693Y-93062114D01*
X117601692Y-93062114D01*
X117871806Y-93715840D01*
X118371529Y-94216436D01*
X119024782Y-94487691D01*
X119732114Y-94488308D01*
X120385840Y-94218194D01*
X120886436Y-93718471D01*
X121157691Y-93065218D01*
X121157693Y-93062114D01*
X136651692Y-93062114D01*
X136921806Y-93715840D01*
X137421529Y-94216436D01*
X138074782Y-94487691D01*
X138782114Y-94488308D01*
X139435840Y-94218194D01*
X139936436Y-93718471D01*
X140207691Y-93065218D01*
X140208308Y-92357886D01*
X139938194Y-91704160D01*
X139438471Y-91203564D01*
X138785218Y-90932309D01*
X138077886Y-90931692D01*
X137424160Y-91201806D01*
X136923564Y-91701529D01*
X136652309Y-92354782D01*
X136651692Y-93062114D01*
X121157693Y-93062114D01*
X121158308Y-92357886D01*
X120888194Y-91704160D01*
X120388471Y-91203564D01*
X119735218Y-90932309D01*
X119027886Y-90931692D01*
X118374160Y-91201806D01*
X117873564Y-91701529D01*
X117602309Y-92354782D01*
X117601692Y-93062114D01*
X102107693Y-93062114D01*
X102108308Y-92357886D01*
X101838194Y-91704160D01*
X101338471Y-91203564D01*
X100685218Y-90932309D01*
X99977886Y-90931692D01*
X99324160Y-91201806D01*
X98823564Y-91701529D01*
X98552309Y-92354782D01*
X98551692Y-93062114D01*
X83057693Y-93062114D01*
X83058308Y-92357886D01*
X82788194Y-91704160D01*
X82288471Y-91203564D01*
X81635218Y-90932309D01*
X80927886Y-90931692D01*
X80274160Y-91201806D01*
X79773564Y-91701529D01*
X79502309Y-92354782D01*
X79501692Y-93062114D01*
X64007693Y-93062114D01*
X64008308Y-92357886D01*
X63738194Y-91704160D01*
X63238471Y-91203564D01*
X62585218Y-90932309D01*
X61877886Y-90931692D01*
X61224160Y-91201806D01*
X60723564Y-91701529D01*
X60452309Y-92354782D01*
X60451692Y-93062114D01*
X44957693Y-93062114D01*
X44958308Y-92357886D01*
X44688194Y-91704160D01*
X44188471Y-91203564D01*
X43535218Y-90932309D01*
X42827886Y-90931692D01*
X42174160Y-91201806D01*
X41673564Y-91701529D01*
X41402309Y-92354782D01*
X41401692Y-93062114D01*
X35635000Y-93062114D01*
X35635000Y-82994500D01*
X47295060Y-82994500D01*
X47295060Y-84645500D01*
X47339338Y-84880817D01*
X47478410Y-85096941D01*
X47690610Y-85241931D01*
X47942500Y-85292940D01*
X49593500Y-85292940D01*
X49828817Y-85248662D01*
X50044941Y-85109590D01*
X50100874Y-85027730D01*
X50145410Y-85096941D01*
X50357610Y-85241931D01*
X50609500Y-85292940D01*
X52260500Y-85292940D01*
X52495817Y-85248662D01*
X52711941Y-85109590D01*
X52856931Y-84897390D01*
X52907940Y-84645500D01*
X52907940Y-84580000D01*
X69012060Y-84580000D01*
X69012060Y-84645500D01*
X69056338Y-84880817D01*
X69195410Y-85096941D01*
X69407610Y-85241931D01*
X69659500Y-85292940D01*
X71310500Y-85292940D01*
X71545817Y-85248662D01*
X71761941Y-85109590D01*
X71906931Y-84897390D01*
X71957940Y-84645500D01*
X71957940Y-84580000D01*
X88062060Y-84580000D01*
X88062060Y-84645500D01*
X88106338Y-84880817D01*
X88245410Y-85096941D01*
X88457610Y-85241931D01*
X88709500Y-85292940D01*
X90360500Y-85292940D01*
X90595817Y-85248662D01*
X90811941Y-85109590D01*
X90956931Y-84897390D01*
X91007940Y-84645500D01*
X91007940Y-84580000D01*
X107112060Y-84580000D01*
X107112060Y-84645500D01*
X107156338Y-84880817D01*
X107295410Y-85096941D01*
X107507610Y-85241931D01*
X107759500Y-85292940D01*
X109410500Y-85292940D01*
X109645817Y-85248662D01*
X109861941Y-85109590D01*
X110006931Y-84897390D01*
X110057940Y-84645500D01*
X110057940Y-84580000D01*
X126162060Y-84580000D01*
X126162060Y-84645500D01*
X126206338Y-84880817D01*
X126345410Y-85096941D01*
X126557610Y-85241931D01*
X126809500Y-85292940D01*
X128460500Y-85292940D01*
X128695817Y-85248662D01*
X128911941Y-85109590D01*
X129056931Y-84897390D01*
X129107940Y-84645500D01*
X129107940Y-82994500D01*
X129063662Y-82759183D01*
X128924590Y-82543059D01*
X128712390Y-82398069D01*
X128460500Y-82347060D01*
X126809500Y-82347060D01*
X126574183Y-82391338D01*
X126358059Y-82530410D01*
X126213069Y-82742610D01*
X126162060Y-82994500D01*
X126162060Y-83060000D01*
X110057940Y-83060000D01*
X110057940Y-82994500D01*
X110013662Y-82759183D01*
X109874590Y-82543059D01*
X109662390Y-82398069D01*
X109410500Y-82347060D01*
X107759500Y-82347060D01*
X107524183Y-82391338D01*
X107308059Y-82530410D01*
X107163069Y-82742610D01*
X107112060Y-82994500D01*
X107112060Y-83060000D01*
X91007940Y-83060000D01*
X91007940Y-82994500D01*
X90963662Y-82759183D01*
X90824590Y-82543059D01*
X90612390Y-82398069D01*
X90360500Y-82347060D01*
X88709500Y-82347060D01*
X88474183Y-82391338D01*
X88258059Y-82530410D01*
X88113069Y-82742610D01*
X88062060Y-82994500D01*
X88062060Y-83060000D01*
X71957940Y-83060000D01*
X71957940Y-82994500D01*
X71913662Y-82759183D01*
X71774590Y-82543059D01*
X71562390Y-82398069D01*
X71310500Y-82347060D01*
X69659500Y-82347060D01*
X69424183Y-82391338D01*
X69208059Y-82530410D01*
X69063069Y-82742610D01*
X69012060Y-82994500D01*
X69012060Y-83060000D01*
X52907940Y-83060000D01*
X52907940Y-82994500D01*
X52863662Y-82759183D01*
X52724590Y-82543059D01*
X52512390Y-82398069D01*
X52260500Y-82347060D01*
X50609500Y-82347060D01*
X50374183Y-82391338D01*
X50158059Y-82530410D01*
X50102126Y-82612270D01*
X50057590Y-82543059D01*
X49845390Y-82398069D01*
X49593500Y-82347060D01*
X47942500Y-82347060D01*
X47707183Y-82391338D01*
X47491059Y-82530410D01*
X47346069Y-82742610D01*
X47295060Y-82994500D01*
X35635000Y-82994500D01*
X35635000Y-80225967D01*
X35854267Y-80226158D01*
X36400595Y-80000420D01*
X36818951Y-79582794D01*
X37045642Y-79036861D01*
X37046158Y-78445733D01*
X36852903Y-77978021D01*
X37182114Y-77978308D01*
X37835840Y-77708194D01*
X38336436Y-77208471D01*
X38439610Y-76960000D01*
X38702035Y-76960000D01*
X38412627Y-77248904D01*
X38011558Y-78214785D01*
X38010645Y-79260626D01*
X38410028Y-80227207D01*
X39148904Y-80967373D01*
X40114785Y-81368442D01*
X41160626Y-81369355D01*
X42127207Y-80969972D01*
X42867373Y-80231096D01*
X43268442Y-79265215D01*
X43268643Y-79034267D01*
X44233842Y-79034267D01*
X44459580Y-79580595D01*
X44877206Y-79998951D01*
X45423139Y-80225642D01*
X46014267Y-80226158D01*
X46560595Y-80000420D01*
X46978951Y-79582794D01*
X47205642Y-79036861D01*
X47206158Y-78445733D01*
X46980420Y-77899405D01*
X46562794Y-77481049D01*
X46016861Y-77254358D01*
X45425733Y-77253842D01*
X44879405Y-77479580D01*
X44461049Y-77897206D01*
X44234358Y-78443139D01*
X44233842Y-79034267D01*
X43268643Y-79034267D01*
X43269355Y-78219374D01*
X42869972Y-77252793D01*
X42577689Y-76960000D01*
X47501762Y-76960000D01*
X47529126Y-77026226D01*
X47939613Y-77437430D01*
X48476214Y-77660246D01*
X49057237Y-77660753D01*
X49594226Y-77438874D01*
X50005430Y-77028387D01*
X50101461Y-76797119D01*
X50196126Y-77026226D01*
X50606613Y-77437430D01*
X51143214Y-77660246D01*
X51724237Y-77660753D01*
X52261226Y-77438874D01*
X52672430Y-77028387D01*
X52700827Y-76960000D01*
X54270227Y-76960000D01*
X54371806Y-77205840D01*
X54419815Y-77253933D01*
X54315733Y-77253842D01*
X53769405Y-77479580D01*
X53351049Y-77897206D01*
X53124358Y-78443139D01*
X53123842Y-79034267D01*
X53349580Y-79580595D01*
X53767206Y-79998951D01*
X54313139Y-80225642D01*
X54904267Y-80226158D01*
X55450595Y-80000420D01*
X55868951Y-79582794D01*
X56002726Y-79260626D01*
X57060645Y-79260626D01*
X57460028Y-80227207D01*
X58198904Y-80967373D01*
X59164785Y-81368442D01*
X60210626Y-81369355D01*
X61177207Y-80969972D01*
X61917373Y-80231096D01*
X62318442Y-79265215D01*
X62318643Y-79034267D01*
X63283842Y-79034267D01*
X63509580Y-79580595D01*
X63927206Y-79998951D01*
X64473139Y-80225642D01*
X65064267Y-80226158D01*
X65610595Y-80000420D01*
X66028951Y-79582794D01*
X66255642Y-79036861D01*
X66256158Y-78445733D01*
X66030420Y-77899405D01*
X65612794Y-77481049D01*
X65066861Y-77254358D01*
X64475733Y-77253842D01*
X63929405Y-77479580D01*
X63511049Y-77897206D01*
X63284358Y-78443139D01*
X63283842Y-79034267D01*
X62318643Y-79034267D01*
X62319355Y-78219374D01*
X61919972Y-77252793D01*
X61181096Y-76512627D01*
X61124767Y-76489237D01*
X69024247Y-76489237D01*
X69246126Y-77026226D01*
X69656613Y-77437430D01*
X70193214Y-77660246D01*
X70774237Y-77660753D01*
X71311226Y-77438874D01*
X71722430Y-77028387D01*
X71750827Y-76960000D01*
X73320227Y-76960000D01*
X73421806Y-77205840D01*
X73469815Y-77253933D01*
X73365733Y-77253842D01*
X72819405Y-77479580D01*
X72401049Y-77897206D01*
X72174358Y-78443139D01*
X72173842Y-79034267D01*
X72399580Y-79580595D01*
X72817206Y-79998951D01*
X73363139Y-80225642D01*
X73954267Y-80226158D01*
X74500595Y-80000420D01*
X74918951Y-79582794D01*
X75052726Y-79260626D01*
X76110645Y-79260626D01*
X76510028Y-80227207D01*
X77248904Y-80967373D01*
X78214785Y-81368442D01*
X79260626Y-81369355D01*
X80227207Y-80969972D01*
X80967373Y-80231096D01*
X81368442Y-79265215D01*
X81368643Y-79034267D01*
X82333842Y-79034267D01*
X82559580Y-79580595D01*
X82977206Y-79998951D01*
X83523139Y-80225642D01*
X84114267Y-80226158D01*
X84660595Y-80000420D01*
X85078951Y-79582794D01*
X85305642Y-79036861D01*
X85306158Y-78445733D01*
X85080420Y-77899405D01*
X84662794Y-77481049D01*
X84116861Y-77254358D01*
X83525733Y-77253842D01*
X82979405Y-77479580D01*
X82561049Y-77897206D01*
X82334358Y-78443139D01*
X82333842Y-79034267D01*
X81368643Y-79034267D01*
X81369355Y-78219374D01*
X80969972Y-77252793D01*
X80231096Y-76512627D01*
X80174767Y-76489237D01*
X88074247Y-76489237D01*
X88296126Y-77026226D01*
X88706613Y-77437430D01*
X89243214Y-77660246D01*
X89824237Y-77660753D01*
X90361226Y-77438874D01*
X90772430Y-77028387D01*
X90800827Y-76960000D01*
X92370227Y-76960000D01*
X92471806Y-77205840D01*
X92519815Y-77253933D01*
X92415733Y-77253842D01*
X91869405Y-77479580D01*
X91451049Y-77897206D01*
X91224358Y-78443139D01*
X91223842Y-79034267D01*
X91449580Y-79580595D01*
X91867206Y-79998951D01*
X92413139Y-80225642D01*
X93004267Y-80226158D01*
X93550595Y-80000420D01*
X93968951Y-79582794D01*
X94102726Y-79260626D01*
X95160645Y-79260626D01*
X95560028Y-80227207D01*
X96298904Y-80967373D01*
X97264785Y-81368442D01*
X98310626Y-81369355D01*
X99277207Y-80969972D01*
X100017373Y-80231096D01*
X100418442Y-79265215D01*
X100418643Y-79034267D01*
X101383842Y-79034267D01*
X101609580Y-79580595D01*
X102027206Y-79998951D01*
X102573139Y-80225642D01*
X103164267Y-80226158D01*
X103710595Y-80000420D01*
X104128951Y-79582794D01*
X104355642Y-79036861D01*
X104356158Y-78445733D01*
X104130420Y-77899405D01*
X103712794Y-77481049D01*
X103166861Y-77254358D01*
X102575733Y-77253842D01*
X102029405Y-77479580D01*
X101611049Y-77897206D01*
X101384358Y-78443139D01*
X101383842Y-79034267D01*
X100418643Y-79034267D01*
X100419355Y-78219374D01*
X100019972Y-77252793D01*
X99281096Y-76512627D01*
X99224767Y-76489237D01*
X107124247Y-76489237D01*
X107346126Y-77026226D01*
X107756613Y-77437430D01*
X108293214Y-77660246D01*
X108874237Y-77660753D01*
X109411226Y-77438874D01*
X109822430Y-77028387D01*
X109850827Y-76960000D01*
X111420227Y-76960000D01*
X111521806Y-77205840D01*
X111569815Y-77253933D01*
X111465733Y-77253842D01*
X110919405Y-77479580D01*
X110501049Y-77897206D01*
X110274358Y-78443139D01*
X110273842Y-79034267D01*
X110499580Y-79580595D01*
X110917206Y-79998951D01*
X111463139Y-80225642D01*
X112054267Y-80226158D01*
X112600595Y-80000420D01*
X113018951Y-79582794D01*
X113152726Y-79260626D01*
X114210645Y-79260626D01*
X114610028Y-80227207D01*
X115348904Y-80967373D01*
X116314785Y-81368442D01*
X117360626Y-81369355D01*
X118327207Y-80969972D01*
X119067373Y-80231096D01*
X119468442Y-79265215D01*
X119468643Y-79034267D01*
X120433842Y-79034267D01*
X120659580Y-79580595D01*
X121077206Y-79998951D01*
X121623139Y-80225642D01*
X122214267Y-80226158D01*
X122760595Y-80000420D01*
X123178951Y-79582794D01*
X123405642Y-79036861D01*
X123406158Y-78445733D01*
X123180420Y-77899405D01*
X122762794Y-77481049D01*
X122216861Y-77254358D01*
X121625733Y-77253842D01*
X121079405Y-77479580D01*
X120661049Y-77897206D01*
X120434358Y-78443139D01*
X120433842Y-79034267D01*
X119468643Y-79034267D01*
X119469355Y-78219374D01*
X119069972Y-77252793D01*
X118331096Y-76512627D01*
X118274767Y-76489237D01*
X126174247Y-76489237D01*
X126396126Y-77026226D01*
X126806613Y-77437430D01*
X127343214Y-77660246D01*
X127924237Y-77660753D01*
X128461226Y-77438874D01*
X128872430Y-77028387D01*
X128900827Y-76960000D01*
X130470227Y-76960000D01*
X130571806Y-77205840D01*
X130619815Y-77253933D01*
X130515733Y-77253842D01*
X129969405Y-77479580D01*
X129551049Y-77897206D01*
X129324358Y-78443139D01*
X129323842Y-79034267D01*
X129549580Y-79580595D01*
X129967206Y-79998951D01*
X130513139Y-80225642D01*
X131104267Y-80226158D01*
X131650595Y-80000420D01*
X132068951Y-79582794D01*
X132202726Y-79260626D01*
X133260645Y-79260626D01*
X133660028Y-80227207D01*
X134398904Y-80967373D01*
X135364785Y-81368442D01*
X136410626Y-81369355D01*
X137377207Y-80969972D01*
X138117373Y-80231096D01*
X138518442Y-79265215D01*
X138519355Y-78219374D01*
X138119972Y-77252793D01*
X137381096Y-76512627D01*
X136415215Y-76111558D01*
X135369374Y-76110645D01*
X134402793Y-76510028D01*
X133662627Y-77248904D01*
X133261558Y-78214785D01*
X133260645Y-79260626D01*
X132202726Y-79260626D01*
X132295642Y-79036861D01*
X132296158Y-78445733D01*
X132102903Y-77978021D01*
X132432114Y-77978308D01*
X133085840Y-77708194D01*
X133586436Y-77208471D01*
X133857691Y-76555218D01*
X133858308Y-75847886D01*
X133588194Y-75194160D01*
X133088471Y-74693564D01*
X132435218Y-74422309D01*
X131727886Y-74421692D01*
X131074160Y-74691806D01*
X130573564Y-75191529D01*
X130470390Y-75440000D01*
X128901238Y-75440000D01*
X128873874Y-75373774D01*
X128463387Y-74962570D01*
X127926786Y-74739754D01*
X127345763Y-74739247D01*
X126808774Y-74961126D01*
X126397570Y-75371613D01*
X126174754Y-75908214D01*
X126174247Y-76489237D01*
X118274767Y-76489237D01*
X117365215Y-76111558D01*
X116319374Y-76110645D01*
X115352793Y-76510028D01*
X114612627Y-77248904D01*
X114211558Y-78214785D01*
X114210645Y-79260626D01*
X113152726Y-79260626D01*
X113245642Y-79036861D01*
X113246158Y-78445733D01*
X113052903Y-77978021D01*
X113382114Y-77978308D01*
X114035840Y-77708194D01*
X114536436Y-77208471D01*
X114807691Y-76555218D01*
X114808308Y-75847886D01*
X114538194Y-75194160D01*
X114038471Y-74693564D01*
X113385218Y-74422309D01*
X112677886Y-74421692D01*
X112024160Y-74691806D01*
X111523564Y-75191529D01*
X111420390Y-75440000D01*
X109851238Y-75440000D01*
X109823874Y-75373774D01*
X109413387Y-74962570D01*
X108876786Y-74739754D01*
X108295763Y-74739247D01*
X107758774Y-74961126D01*
X107347570Y-75371613D01*
X107124754Y-75908214D01*
X107124247Y-76489237D01*
X99224767Y-76489237D01*
X98315215Y-76111558D01*
X97269374Y-76110645D01*
X96302793Y-76510028D01*
X95562627Y-77248904D01*
X95161558Y-78214785D01*
X95160645Y-79260626D01*
X94102726Y-79260626D01*
X94195642Y-79036861D01*
X94196158Y-78445733D01*
X94002903Y-77978021D01*
X94332114Y-77978308D01*
X94985840Y-77708194D01*
X95486436Y-77208471D01*
X95757691Y-76555218D01*
X95758308Y-75847886D01*
X95488194Y-75194160D01*
X94988471Y-74693564D01*
X94335218Y-74422309D01*
X93627886Y-74421692D01*
X92974160Y-74691806D01*
X92473564Y-75191529D01*
X92370390Y-75440000D01*
X90801238Y-75440000D01*
X90773874Y-75373774D01*
X90363387Y-74962570D01*
X89826786Y-74739754D01*
X89245763Y-74739247D01*
X88708774Y-74961126D01*
X88297570Y-75371613D01*
X88074754Y-75908214D01*
X88074247Y-76489237D01*
X80174767Y-76489237D01*
X79265215Y-76111558D01*
X78219374Y-76110645D01*
X77252793Y-76510028D01*
X76512627Y-77248904D01*
X76111558Y-78214785D01*
X76110645Y-79260626D01*
X75052726Y-79260626D01*
X75145642Y-79036861D01*
X75146158Y-78445733D01*
X74952903Y-77978021D01*
X75282114Y-77978308D01*
X75935840Y-77708194D01*
X76436436Y-77208471D01*
X76707691Y-76555218D01*
X76708308Y-75847886D01*
X76438194Y-75194160D01*
X75938471Y-74693564D01*
X75285218Y-74422309D01*
X74577886Y-74421692D01*
X73924160Y-74691806D01*
X73423564Y-75191529D01*
X73320390Y-75440000D01*
X71751238Y-75440000D01*
X71723874Y-75373774D01*
X71313387Y-74962570D01*
X70776786Y-74739754D01*
X70195763Y-74739247D01*
X69658774Y-74961126D01*
X69247570Y-75371613D01*
X69024754Y-75908214D01*
X69024247Y-76489237D01*
X61124767Y-76489237D01*
X60215215Y-76111558D01*
X59169374Y-76110645D01*
X58202793Y-76510028D01*
X57462627Y-77248904D01*
X57061558Y-78214785D01*
X57060645Y-79260626D01*
X56002726Y-79260626D01*
X56095642Y-79036861D01*
X56096158Y-78445733D01*
X55902903Y-77978021D01*
X56232114Y-77978308D01*
X56885840Y-77708194D01*
X57386436Y-77208471D01*
X57657691Y-76555218D01*
X57658308Y-75847886D01*
X57388194Y-75194160D01*
X56888471Y-74693564D01*
X56235218Y-74422309D01*
X55527886Y-74421692D01*
X54874160Y-74691806D01*
X54373564Y-75191529D01*
X54270390Y-75440000D01*
X52701238Y-75440000D01*
X52673874Y-75373774D01*
X52263387Y-74962570D01*
X51726786Y-74739754D01*
X51145763Y-74739247D01*
X50608774Y-74961126D01*
X50197570Y-75371613D01*
X50101539Y-75602881D01*
X50006874Y-75373774D01*
X49596387Y-74962570D01*
X49059786Y-74739754D01*
X48478763Y-74739247D01*
X47941774Y-74961126D01*
X47530570Y-75371613D01*
X47502173Y-75440000D01*
X38439773Y-75440000D01*
X38338194Y-75194160D01*
X37838471Y-74693564D01*
X37185218Y-74422309D01*
X36477886Y-74421692D01*
X35824160Y-74691806D01*
X35635000Y-74880636D01*
X35635000Y-74012114D01*
X41401692Y-74012114D01*
X41671806Y-74665840D01*
X42171529Y-75166436D01*
X42824782Y-75437691D01*
X43532114Y-75438308D01*
X44185840Y-75168194D01*
X44686436Y-74668471D01*
X44957691Y-74015218D01*
X44957693Y-74012114D01*
X60451692Y-74012114D01*
X60721806Y-74665840D01*
X61221529Y-75166436D01*
X61874782Y-75437691D01*
X62582114Y-75438308D01*
X63235840Y-75168194D01*
X63736436Y-74668471D01*
X64007691Y-74015218D01*
X64007693Y-74012114D01*
X79501692Y-74012114D01*
X79771806Y-74665840D01*
X80271529Y-75166436D01*
X80924782Y-75437691D01*
X81632114Y-75438308D01*
X82285840Y-75168194D01*
X82786436Y-74668471D01*
X83057691Y-74015218D01*
X83057693Y-74012114D01*
X98551692Y-74012114D01*
X98821806Y-74665840D01*
X99321529Y-75166436D01*
X99974782Y-75437691D01*
X100682114Y-75438308D01*
X101335840Y-75168194D01*
X101836436Y-74668471D01*
X102107691Y-74015218D01*
X102107693Y-74012114D01*
X117601692Y-74012114D01*
X117871806Y-74665840D01*
X118371529Y-75166436D01*
X119024782Y-75437691D01*
X119732114Y-75438308D01*
X120385840Y-75168194D01*
X120886436Y-74668471D01*
X121157691Y-74015218D01*
X121157693Y-74012114D01*
X136651692Y-74012114D01*
X136921806Y-74665840D01*
X137421529Y-75166436D01*
X138074782Y-75437691D01*
X138782114Y-75438308D01*
X139435840Y-75168194D01*
X139936436Y-74668471D01*
X140207691Y-74015218D01*
X140208308Y-73307886D01*
X139938194Y-72654160D01*
X139438471Y-72153564D01*
X138785218Y-71882309D01*
X138077886Y-71881692D01*
X137424160Y-72151806D01*
X136923564Y-72651529D01*
X136652309Y-73304782D01*
X136651692Y-74012114D01*
X121157693Y-74012114D01*
X121158308Y-73307886D01*
X120888194Y-72654160D01*
X120388471Y-72153564D01*
X119735218Y-71882309D01*
X119027886Y-71881692D01*
X118374160Y-72151806D01*
X117873564Y-72651529D01*
X117602309Y-73304782D01*
X117601692Y-74012114D01*
X102107693Y-74012114D01*
X102108308Y-73307886D01*
X101838194Y-72654160D01*
X101338471Y-72153564D01*
X100685218Y-71882309D01*
X99977886Y-71881692D01*
X99324160Y-72151806D01*
X98823564Y-72651529D01*
X98552309Y-73304782D01*
X98551692Y-74012114D01*
X83057693Y-74012114D01*
X83058308Y-73307886D01*
X82788194Y-72654160D01*
X82288471Y-72153564D01*
X81635218Y-71882309D01*
X80927886Y-71881692D01*
X80274160Y-72151806D01*
X79773564Y-72651529D01*
X79502309Y-73304782D01*
X79501692Y-74012114D01*
X64007693Y-74012114D01*
X64008308Y-73307886D01*
X63738194Y-72654160D01*
X63238471Y-72153564D01*
X62585218Y-71882309D01*
X61877886Y-71881692D01*
X61224160Y-72151806D01*
X60723564Y-72651529D01*
X60452309Y-73304782D01*
X60451692Y-74012114D01*
X44957693Y-74012114D01*
X44958308Y-73307886D01*
X44688194Y-72654160D01*
X44188471Y-72153564D01*
X43535218Y-71882309D01*
X42827886Y-71881692D01*
X42174160Y-72151806D01*
X41673564Y-72651529D01*
X41402309Y-73304782D01*
X41401692Y-74012114D01*
X35635000Y-74012114D01*
X35635000Y-61175967D01*
X35854267Y-61176158D01*
X36400595Y-60950420D01*
X36818951Y-60532794D01*
X37045642Y-59986861D01*
X37046158Y-59395733D01*
X36852903Y-58928021D01*
X37182114Y-58928308D01*
X37835840Y-58658194D01*
X38336436Y-58158471D01*
X38439610Y-57910000D01*
X38702035Y-57910000D01*
X38412627Y-58198904D01*
X38011558Y-59164785D01*
X38010645Y-60210626D01*
X38410028Y-61177207D01*
X39148904Y-61917373D01*
X40114785Y-62318442D01*
X41160626Y-62319355D01*
X42127207Y-61919972D01*
X42867373Y-61181096D01*
X43268442Y-60215215D01*
X43268643Y-59984267D01*
X44233842Y-59984267D01*
X44459580Y-60530595D01*
X44877206Y-60948951D01*
X45423139Y-61175642D01*
X46014267Y-61176158D01*
X46560595Y-60950420D01*
X46978951Y-60532794D01*
X47205642Y-59986861D01*
X47206158Y-59395733D01*
X46980420Y-58849405D01*
X46562794Y-58431049D01*
X46016861Y-58204358D01*
X45425733Y-58203842D01*
X44879405Y-58429580D01*
X44461049Y-58847206D01*
X44234358Y-59393139D01*
X44233842Y-59984267D01*
X43268643Y-59984267D01*
X43269355Y-59169374D01*
X42869972Y-58202793D01*
X42577689Y-57910000D01*
X47650812Y-57910000D01*
X47783126Y-58230226D01*
X48193613Y-58641430D01*
X48730214Y-58864246D01*
X49311237Y-58864753D01*
X49848226Y-58642874D01*
X50259430Y-58232387D01*
X50482246Y-57695786D01*
X50482753Y-57114763D01*
X50260874Y-56577774D01*
X49850387Y-56166570D01*
X49313786Y-55943754D01*
X48732763Y-55943247D01*
X48195774Y-56165126D01*
X47970507Y-56390000D01*
X38439773Y-56390000D01*
X38338194Y-56144160D01*
X37838471Y-55643564D01*
X37185218Y-55372309D01*
X36477886Y-55371692D01*
X35824160Y-55641806D01*
X35635000Y-55830636D01*
X35635000Y-54962114D01*
X41401692Y-54962114D01*
X41671806Y-55615840D01*
X42171529Y-56116436D01*
X42824782Y-56387691D01*
X43532114Y-56388308D01*
X44185840Y-56118194D01*
X44686436Y-55618471D01*
X44957691Y-54965218D01*
X44958308Y-54257886D01*
X44688194Y-53604160D01*
X44188471Y-53103564D01*
X43535218Y-52832309D01*
X42827886Y-52831692D01*
X42174160Y-53101806D01*
X41673564Y-53601529D01*
X41402309Y-54254782D01*
X41401692Y-54962114D01*
X35635000Y-54962114D01*
X35635000Y-42125967D01*
X35854267Y-42126158D01*
X36070000Y-42037019D01*
X36070000Y-48775234D01*
X35877754Y-49238214D01*
X35877247Y-49819237D01*
X36099126Y-50356226D01*
X36509613Y-50767430D01*
X37046214Y-50990246D01*
X37627237Y-50990753D01*
X38164226Y-50768874D01*
X38575430Y-50358387D01*
X38798246Y-49821786D01*
X38798753Y-49240763D01*
X38576874Y-48703774D01*
X38166387Y-48292570D01*
X37629786Y-48069754D01*
X37590000Y-48069719D01*
X37590000Y-41160626D01*
X38010645Y-41160626D01*
X38410028Y-42127207D01*
X39148904Y-42867373D01*
X40114785Y-43268442D01*
X41160626Y-43269355D01*
X42127207Y-42869972D01*
X42867373Y-42131096D01*
X43268442Y-41165215D01*
X43268643Y-40934267D01*
X44233842Y-40934267D01*
X44459580Y-41480595D01*
X44877206Y-41898951D01*
X45423139Y-42125642D01*
X46014267Y-42126158D01*
X46560595Y-41900420D01*
X46978951Y-41482794D01*
X47205642Y-40936861D01*
X47206158Y-40345733D01*
X46980420Y-39799405D01*
X46562794Y-39381049D01*
X46016861Y-39154358D01*
X45425733Y-39153842D01*
X44879405Y-39379580D01*
X44461049Y-39797206D01*
X44234358Y-40343139D01*
X44233842Y-40934267D01*
X43268643Y-40934267D01*
X43269355Y-40119374D01*
X42869972Y-39152793D01*
X42131096Y-38412627D01*
X41165215Y-38011558D01*
X40119374Y-38010645D01*
X39152793Y-38410028D01*
X38412627Y-39148904D01*
X38011558Y-40114785D01*
X38010645Y-41160626D01*
X37590000Y-41160626D01*
X37590000Y-39709773D01*
X37835840Y-39608194D01*
X38336436Y-39108471D01*
X38607691Y-38455218D01*
X38608308Y-37747886D01*
X38338194Y-37094160D01*
X37838471Y-36593564D01*
X37185218Y-36322309D01*
X36477886Y-36321692D01*
X35824160Y-36591806D01*
X35635000Y-36780636D01*
X35635000Y-35052000D01*
X41465750Y-35052000D01*
X41402309Y-35204782D01*
X41402309Y-35204782D01*
G37*
X41402309Y-35204782D02*
X41401692Y-35912114D01*
X41671806Y-36565840D01*
X42171529Y-37066436D01*
X42824782Y-37337691D01*
X43532114Y-37338308D01*
X44185840Y-37068194D01*
X44686436Y-36568471D01*
X44957691Y-35915218D01*
X44958308Y-35207886D01*
X44893897Y-35052000D01*
X50546260Y-35052000D01*
X50546260Y-35166300D01*
X50590538Y-35401617D01*
X50729610Y-35617741D01*
X50941810Y-35762731D01*
X50990157Y-35772522D01*
X50789529Y-35972800D01*
X50558963Y-36528065D01*
X50558438Y-37129297D01*
X50645499Y-37340000D01*
X50161238Y-37340000D01*
X50133874Y-37273774D01*
X49723387Y-36862570D01*
X49186786Y-36639754D01*
X48605763Y-36639247D01*
X48068774Y-36861126D01*
X47657570Y-37271613D01*
X47434754Y-37808214D01*
X47434247Y-38389237D01*
X47656126Y-38926226D01*
X48066613Y-39337430D01*
X48603214Y-39560246D01*
X49184237Y-39560753D01*
X49721226Y-39338874D01*
X50132430Y-38928387D01*
X50160827Y-38860000D01*
X50647331Y-38860000D01*
X50547118Y-39134997D01*
X50573109Y-39735668D01*
X50752973Y-40169896D01*
X51006999Y-40253396D01*
X51890395Y-39370000D01*
X51876253Y-39355858D01*
X52055858Y-39176253D01*
X52070000Y-39190395D01*
X52084143Y-39176253D01*
X52263748Y-39355858D01*
X52249605Y-39370000D01*
X52263748Y-39384143D01*
X52084143Y-39563748D01*
X52070000Y-39549605D01*
X51186604Y-40433001D01*
X51246447Y-40615056D01*
X51215036Y-40628035D01*
X50789529Y-41052800D01*
X50558963Y-41608065D01*
X50558438Y-42209297D01*
X50788035Y-42764964D01*
X51202698Y-43180351D01*
X50789529Y-43592800D01*
X50558963Y-44148065D01*
X50558438Y-44749297D01*
X50645499Y-44960000D01*
X50367940Y-44960000D01*
X50367940Y-44894500D01*
X50323662Y-44659183D01*
X50184590Y-44443059D01*
X49972390Y-44298069D01*
X49720500Y-44247060D01*
X48069500Y-44247060D01*
X47834183Y-44291338D01*
X47618059Y-44430410D01*
X47473069Y-44642610D01*
X47422060Y-44894500D01*
X47422060Y-46545500D01*
X47466338Y-46780817D01*
X47605410Y-46996941D01*
X47817610Y-47141931D01*
X48069500Y-47192940D01*
X48135000Y-47192940D01*
X48135000Y-47564198D01*
X46929198Y-48770000D01*
X46430940Y-48770000D01*
X46430940Y-48704500D01*
X46386662Y-48469183D01*
X46247590Y-48253059D01*
X46035390Y-48108069D01*
X45783500Y-48057060D01*
X44132500Y-48057060D01*
X43897183Y-48101338D01*
X43681059Y-48240410D01*
X43536069Y-48452610D01*
X43485060Y-48704500D01*
X43485060Y-50355500D01*
X43529338Y-50590817D01*
X43668410Y-50806941D01*
X43880610Y-50951931D01*
X44132500Y-51002940D01*
X45783500Y-51002940D01*
X46018817Y-50958662D01*
X46234941Y-50819590D01*
X46379931Y-50607390D01*
X46430940Y-50355500D01*
X46430940Y-50290000D01*
X47244000Y-50290000D01*
X47534839Y-50232148D01*
X47781401Y-50067401D01*
X49432401Y-48416401D01*
X49597148Y-48169839D01*
X49655000Y-47879000D01*
X49655000Y-47192940D01*
X49720500Y-47192940D01*
X49955817Y-47148662D01*
X50171941Y-47009590D01*
X50316931Y-46797390D01*
X50367940Y-46545500D01*
X50367940Y-46480000D01*
X50645359Y-46480000D01*
X50558963Y-46688065D01*
X50558438Y-47289297D01*
X50788035Y-47844964D01*
X51202698Y-48260351D01*
X50789529Y-48672800D01*
X50558963Y-49228065D01*
X50558438Y-49829297D01*
X50788035Y-50384964D01*
X51202698Y-50800351D01*
X50789529Y-51212800D01*
X50558963Y-51768065D01*
X50558438Y-52369297D01*
X50788035Y-52924964D01*
X51202698Y-53340351D01*
X50789529Y-53752800D01*
X50558963Y-54308065D01*
X50558438Y-54909297D01*
X50788035Y-55464964D01*
X51202698Y-55880351D01*
X50789529Y-56292800D01*
X50558963Y-56848065D01*
X50558438Y-57449297D01*
X50788035Y-58004964D01*
X51202698Y-58420351D01*
X50789529Y-58832800D01*
X50558963Y-59388065D01*
X50558438Y-59989297D01*
X50788035Y-60544964D01*
X51202698Y-60960351D01*
X50789529Y-61372800D01*
X50558963Y-61928065D01*
X50558438Y-62529297D01*
X50788035Y-63084964D01*
X51212800Y-63510471D01*
X51768065Y-63741037D01*
X52369297Y-63741562D01*
X52924964Y-63511965D01*
X53040089Y-63397041D01*
X53039838Y-63685167D01*
X53181883Y-64028943D01*
X53416530Y-64264000D01*
X50494940Y-64264000D01*
X50494940Y-64198500D01*
X50450662Y-63963183D01*
X50311590Y-63747059D01*
X50099390Y-63602069D01*
X49847500Y-63551060D01*
X48196500Y-63551060D01*
X47961183Y-63595338D01*
X47745059Y-63734410D01*
X47600069Y-63946610D01*
X47549060Y-64198500D01*
X47549060Y-65849500D01*
X47593338Y-66084817D01*
X47732410Y-66300941D01*
X47944610Y-66445931D01*
X48196500Y-66496940D01*
X49847500Y-66496940D01*
X50082817Y-66452662D01*
X50298941Y-66313590D01*
X50443931Y-66101390D01*
X50494940Y-65849500D01*
X50494940Y-65784000D01*
X55321889Y-65784000D01*
X55087808Y-66017673D01*
X54945162Y-66361201D01*
X54944838Y-66733167D01*
X55086883Y-67076943D01*
X55349673Y-67340192D01*
X55374000Y-67350294D01*
X55374000Y-68837762D01*
X55307774Y-68865126D01*
X54896570Y-69275613D01*
X54673754Y-69812214D01*
X54673247Y-70393237D01*
X54895126Y-70930226D01*
X55305613Y-71341430D01*
X55842214Y-71564246D01*
X56423237Y-71564753D01*
X56960226Y-71342874D01*
X57371430Y-70932387D01*
X57594246Y-70395786D01*
X57594753Y-69814763D01*
X57372874Y-69277774D01*
X56962387Y-68866570D01*
X56894000Y-68838173D01*
X56894000Y-66858802D01*
X60676599Y-70641401D01*
X60923161Y-70806148D01*
X61214000Y-70864000D01*
X62281060Y-70864000D01*
X62281060Y-70929500D01*
X62325338Y-71164817D01*
X62464410Y-71380941D01*
X62676610Y-71525931D01*
X62928500Y-71576940D01*
X64579500Y-71576940D01*
X64814817Y-71532662D01*
X65030941Y-71393590D01*
X65175931Y-71181390D01*
X65226940Y-70929500D01*
X65226940Y-70864000D01*
X68326000Y-70864000D01*
X68616839Y-70806148D01*
X68863401Y-70641401D01*
X70497680Y-69007122D01*
X70543167Y-69007162D01*
X70886943Y-68865117D01*
X71150192Y-68602327D01*
X71292838Y-68258799D01*
X71293162Y-67886833D01*
X71151117Y-67543057D01*
X71043248Y-67435000D01*
X133985000Y-67435000D01*
X134275839Y-67377148D01*
X134522401Y-67212401D01*
X138967401Y-62767401D01*
X139132148Y-62520840D01*
X139190000Y-62230000D01*
X139190000Y-56219773D01*
X139435840Y-56118194D01*
X139936436Y-55618471D01*
X140207691Y-54965218D01*
X140208308Y-54257886D01*
X139938194Y-53604160D01*
X139438471Y-53103564D01*
X138785218Y-52832309D01*
X138077886Y-52831692D01*
X137424160Y-53101806D01*
X136923564Y-53601529D01*
X136652309Y-54254782D01*
X136651692Y-54962114D01*
X136921806Y-55615840D01*
X137421529Y-56116436D01*
X137670000Y-56219610D01*
X137670000Y-57752035D01*
X137381096Y-57462627D01*
X136415215Y-57061558D01*
X135369374Y-57060645D01*
X134402793Y-57460028D01*
X133662627Y-58198904D01*
X133261558Y-59164785D01*
X133260645Y-60210626D01*
X133660028Y-61177207D01*
X134398904Y-61917373D01*
X135364785Y-62318442D01*
X136410626Y-62319355D01*
X137377207Y-61919972D01*
X137670000Y-61627689D01*
X137670000Y-61915198D01*
X133670198Y-65915000D01*
X129010735Y-65915000D01*
X129056931Y-65847390D01*
X129107940Y-65595500D01*
X129107940Y-63944500D01*
X129063662Y-63709183D01*
X128924590Y-63493059D01*
X128712390Y-63348069D01*
X128460500Y-63297060D01*
X126809500Y-63297060D01*
X126574183Y-63341338D01*
X126358059Y-63480410D01*
X126213069Y-63692610D01*
X126162060Y-63944500D01*
X126162060Y-64010000D01*
X110057940Y-64010000D01*
X110057940Y-63944500D01*
X110013662Y-63709183D01*
X109874590Y-63493059D01*
X109662390Y-63348069D01*
X109410500Y-63297060D01*
X107759500Y-63297060D01*
X107524183Y-63341338D01*
X107308059Y-63480410D01*
X107163069Y-63692610D01*
X107112060Y-63944500D01*
X107112060Y-64010000D01*
X91007940Y-64010000D01*
X91007940Y-63944500D01*
X90963662Y-63709183D01*
X90824590Y-63493059D01*
X90612390Y-63348069D01*
X90360500Y-63297060D01*
X88709500Y-63297060D01*
X88474183Y-63341338D01*
X88258059Y-63480410D01*
X88113069Y-63692610D01*
X88062060Y-63944500D01*
X88062060Y-64010000D01*
X71957940Y-64010000D01*
X71957940Y-63944500D01*
X71913662Y-63709183D01*
X71774590Y-63493059D01*
X71562390Y-63348069D01*
X71372000Y-63309514D01*
X71372000Y-62992000D01*
X71314148Y-62701161D01*
X71314148Y-62701160D01*
X71149401Y-62454599D01*
X68781633Y-60086831D01*
X68821037Y-59991935D01*
X68821562Y-59390703D01*
X68591965Y-58835036D01*
X68177302Y-58419649D01*
X68590471Y-58007200D01*
X68821037Y-57451935D01*
X68821562Y-56850703D01*
X68734501Y-56640000D01*
X69115364Y-56640000D01*
X69024754Y-56858214D01*
X69024247Y-57439237D01*
X69246126Y-57976226D01*
X69656613Y-58387430D01*
X70193214Y-58610246D01*
X70774237Y-58610753D01*
X71311226Y-58388874D01*
X71722430Y-57978387D01*
X71750827Y-57910000D01*
X73320227Y-57910000D01*
X73421806Y-58155840D01*
X73469815Y-58203933D01*
X73365733Y-58203842D01*
X72819405Y-58429580D01*
X72401049Y-58847206D01*
X72174358Y-59393139D01*
X72173842Y-59984267D01*
X72399580Y-60530595D01*
X72817206Y-60948951D01*
X73363139Y-61175642D01*
X73954267Y-61176158D01*
X74500595Y-60950420D01*
X74918951Y-60532794D01*
X75145642Y-59986861D01*
X75146158Y-59395733D01*
X74952903Y-58928021D01*
X75282114Y-58928308D01*
X75935840Y-58658194D01*
X76436436Y-58158471D01*
X76707691Y-57505218D01*
X76707914Y-57249721D01*
X76835000Y-57275000D01*
X77700595Y-57275000D01*
X77252793Y-57460028D01*
X76512627Y-58198904D01*
X76111558Y-59164785D01*
X76110645Y-60210626D01*
X76510028Y-61177207D01*
X77248904Y-61917373D01*
X78214785Y-62318442D01*
X79260626Y-62319355D01*
X80227207Y-61919972D01*
X80967373Y-61181096D01*
X81368442Y-60215215D01*
X81368643Y-59984267D01*
X82333842Y-59984267D01*
X82559580Y-60530595D01*
X82977206Y-60948951D01*
X83523139Y-61175642D01*
X84114267Y-61176158D01*
X84660595Y-60950420D01*
X85078951Y-60532794D01*
X85305642Y-59986861D01*
X85306158Y-59395733D01*
X85080420Y-58849405D01*
X84662794Y-58431049D01*
X84116861Y-58204358D01*
X83525733Y-58203842D01*
X82979405Y-58429580D01*
X82561049Y-58847206D01*
X82334358Y-59393139D01*
X82333842Y-59984267D01*
X81368643Y-59984267D01*
X81369355Y-59169374D01*
X80969972Y-58202793D01*
X80231096Y-57462627D01*
X79779240Y-57275000D01*
X81915000Y-57275000D01*
X82205839Y-57217148D01*
X82452401Y-57052401D01*
X83499802Y-56005000D01*
X88614736Y-56005000D01*
X88297570Y-56321613D01*
X88074754Y-56858214D01*
X88074247Y-57439237D01*
X88296126Y-57976226D01*
X88706613Y-58387430D01*
X89243214Y-58610246D01*
X89824237Y-58610753D01*
X90361226Y-58388874D01*
X90772430Y-57978387D01*
X90800827Y-57910000D01*
X92370227Y-57910000D01*
X92471806Y-58155840D01*
X92519815Y-58203933D01*
X92415733Y-58203842D01*
X91869405Y-58429580D01*
X91451049Y-58847206D01*
X91224358Y-59393139D01*
X91223842Y-59984267D01*
X91449580Y-60530595D01*
X91867206Y-60948951D01*
X92413139Y-61175642D01*
X93004267Y-61176158D01*
X93550595Y-60950420D01*
X93968951Y-60532794D01*
X94195642Y-59986861D01*
X94196158Y-59395733D01*
X94002903Y-58928021D01*
X94332114Y-58928308D01*
X94985840Y-58658194D01*
X95486436Y-58158471D01*
X95757691Y-57505218D01*
X95757914Y-57249721D01*
X95885000Y-57275000D01*
X96750595Y-57275000D01*
X96302793Y-57460028D01*
X95562627Y-58198904D01*
X95161558Y-59164785D01*
X95160645Y-60210626D01*
X95560028Y-61177207D01*
X96298904Y-61917373D01*
X97264785Y-62318442D01*
X98310626Y-62319355D01*
X99277207Y-61919972D01*
X100017373Y-61181096D01*
X100418442Y-60215215D01*
X100418643Y-59984267D01*
X101383842Y-59984267D01*
X101609580Y-60530595D01*
X102027206Y-60948951D01*
X102573139Y-61175642D01*
X103164267Y-61176158D01*
X103710595Y-60950420D01*
X104128951Y-60532794D01*
X104355642Y-59986861D01*
X104356158Y-59395733D01*
X104130420Y-58849405D01*
X103712794Y-58431049D01*
X103166861Y-58204358D01*
X102575733Y-58203842D01*
X102029405Y-58429580D01*
X101611049Y-58847206D01*
X101384358Y-59393139D01*
X101383842Y-59984267D01*
X100418643Y-59984267D01*
X100419355Y-59169374D01*
X100019972Y-58202793D01*
X99281096Y-57462627D01*
X99224767Y-57439237D01*
X107124247Y-57439237D01*
X107346126Y-57976226D01*
X107756613Y-58387430D01*
X108293214Y-58610246D01*
X108874237Y-58610753D01*
X109411226Y-58388874D01*
X109822430Y-57978387D01*
X109850827Y-57910000D01*
X111420227Y-57910000D01*
X111521806Y-58155840D01*
X111569815Y-58203933D01*
X111465733Y-58203842D01*
X110919405Y-58429580D01*
X110501049Y-58847206D01*
X110274358Y-59393139D01*
X110273842Y-59984267D01*
X110499580Y-60530595D01*
X110917206Y-60948951D01*
X111463139Y-61175642D01*
X112054267Y-61176158D01*
X112600595Y-60950420D01*
X113018951Y-60532794D01*
X113152726Y-60210626D01*
X114210645Y-60210626D01*
X114610028Y-61177207D01*
X115348904Y-61917373D01*
X116314785Y-62318442D01*
X117360626Y-62319355D01*
X118327207Y-61919972D01*
X119067373Y-61181096D01*
X119468442Y-60215215D01*
X119468643Y-59984267D01*
X120433842Y-59984267D01*
X120659580Y-60530595D01*
X121077206Y-60948951D01*
X121623139Y-61175642D01*
X122214267Y-61176158D01*
X122760595Y-60950420D01*
X123178951Y-60532794D01*
X123405642Y-59986861D01*
X123406158Y-59395733D01*
X123180420Y-58849405D01*
X122762794Y-58431049D01*
X122216861Y-58204358D01*
X121625733Y-58203842D01*
X121079405Y-58429580D01*
X120661049Y-58847206D01*
X120434358Y-59393139D01*
X120433842Y-59984267D01*
X119468643Y-59984267D01*
X119469355Y-59169374D01*
X119069972Y-58202793D01*
X118331096Y-57462627D01*
X118274767Y-57439237D01*
X126174247Y-57439237D01*
X126396126Y-57976226D01*
X126806613Y-58387430D01*
X127343214Y-58610246D01*
X127924237Y-58610753D01*
X128461226Y-58388874D01*
X128872430Y-57978387D01*
X128900827Y-57910000D01*
X130470227Y-57910000D01*
X130571806Y-58155840D01*
X130619815Y-58203933D01*
X130515733Y-58203842D01*
X129969405Y-58429580D01*
X129551049Y-58847206D01*
X129324358Y-59393139D01*
X129323842Y-59984267D01*
X129549580Y-60530595D01*
X129967206Y-60948951D01*
X130513139Y-61175642D01*
X131104267Y-61176158D01*
X131650595Y-60950420D01*
X132068951Y-60532794D01*
X132295642Y-59986861D01*
X132296158Y-59395733D01*
X132102903Y-58928021D01*
X132432114Y-58928308D01*
X133085840Y-58658194D01*
X133586436Y-58158471D01*
X133857691Y-57505218D01*
X133858308Y-56797886D01*
X133588194Y-56144160D01*
X133088471Y-55643564D01*
X132435218Y-55372309D01*
X131727886Y-55371692D01*
X131074160Y-55641806D01*
X130573564Y-56141529D01*
X130470390Y-56390000D01*
X128901238Y-56390000D01*
X128873874Y-56323774D01*
X128463387Y-55912570D01*
X127926786Y-55689754D01*
X127345763Y-55689247D01*
X126808774Y-55911126D01*
X126397570Y-56321613D01*
X126174754Y-56858214D01*
X126174247Y-57439237D01*
X118274767Y-57439237D01*
X117365215Y-57061558D01*
X116319374Y-57060645D01*
X115352793Y-57460028D01*
X114612627Y-58198904D01*
X114211558Y-59164785D01*
X114210645Y-60210626D01*
X113152726Y-60210626D01*
X113245642Y-59986861D01*
X113246158Y-59395733D01*
X113052903Y-58928021D01*
X113382114Y-58928308D01*
X114035840Y-58658194D01*
X114536436Y-58158471D01*
X114807691Y-57505218D01*
X114808308Y-56797886D01*
X114538194Y-56144160D01*
X114038471Y-55643564D01*
X113385218Y-55372309D01*
X112677886Y-55371692D01*
X112024160Y-55641806D01*
X111523564Y-56141529D01*
X111420390Y-56390000D01*
X109851238Y-56390000D01*
X109823874Y-56323774D01*
X109413387Y-55912570D01*
X108876786Y-55689754D01*
X108295763Y-55689247D01*
X107758774Y-55911126D01*
X107347570Y-56321613D01*
X107124754Y-56858214D01*
X107124247Y-57439237D01*
X99224767Y-57439237D01*
X98829240Y-57275000D01*
X100965000Y-57275000D01*
X101255839Y-57217148D01*
X101502401Y-57052401D01*
X103184802Y-55370000D01*
X117770227Y-55370000D01*
X117871806Y-55615840D01*
X118371529Y-56116436D01*
X119024782Y-56387691D01*
X119732114Y-56388308D01*
X120385840Y-56118194D01*
X120886436Y-55618471D01*
X121157691Y-54965218D01*
X121158308Y-54257886D01*
X120888194Y-53604160D01*
X120388471Y-53103564D01*
X119735218Y-52832309D01*
X119027886Y-52831692D01*
X118374160Y-53101806D01*
X117873564Y-53601529D01*
X117770390Y-53850000D01*
X102870000Y-53850000D01*
X102579161Y-53907852D01*
X102332599Y-54072599D01*
X102108274Y-54296924D01*
X102108308Y-54257886D01*
X101838194Y-53604160D01*
X101338471Y-53103564D01*
X100685218Y-52832309D01*
X99977886Y-52831692D01*
X99324160Y-53101806D01*
X98823564Y-53601529D01*
X98720390Y-53850000D01*
X84134802Y-53850000D01*
X82452401Y-52167599D01*
X82205839Y-52002852D01*
X81915000Y-51945000D01*
X80645000Y-51945000D01*
X80354161Y-52002852D01*
X80107599Y-52167599D01*
X79695198Y-52580000D01*
X68734641Y-52580000D01*
X68821037Y-52371935D01*
X68821562Y-51770703D01*
X68591965Y-51215036D01*
X68177302Y-50799649D01*
X68590471Y-50387200D01*
X68821037Y-49831935D01*
X68821562Y-49230703D01*
X68591965Y-48675036D01*
X68177302Y-48259649D01*
X68476335Y-47961137D01*
X70582599Y-50067401D01*
X70829160Y-50232148D01*
X70877414Y-50241746D01*
X71120000Y-50290000D01*
X118364000Y-50290000D01*
X118654839Y-50232148D01*
X118901401Y-50067401D01*
X120535680Y-48433122D01*
X120581167Y-48433162D01*
X120924943Y-48291117D01*
X121188192Y-48028327D01*
X121330838Y-47684799D01*
X121331162Y-47312833D01*
X121189117Y-46969057D01*
X120926327Y-46705808D01*
X120582799Y-46563162D01*
X120210833Y-46562838D01*
X119867057Y-46704883D01*
X119603808Y-46967673D01*
X119461162Y-47311201D01*
X119461121Y-47358077D01*
X118049198Y-48770000D01*
X71434802Y-48770000D01*
X69857742Y-47192940D01*
X71310500Y-47192940D01*
X71545817Y-47148662D01*
X71761941Y-47009590D01*
X71906931Y-46797390D01*
X71957940Y-46545500D01*
X71957940Y-46480000D01*
X88062060Y-46480000D01*
X88062060Y-46545500D01*
X88106338Y-46780817D01*
X88245410Y-46996941D01*
X88457610Y-47141931D01*
X88709500Y-47192940D01*
X90360500Y-47192940D01*
X90595817Y-47148662D01*
X90811941Y-47009590D01*
X90956931Y-46797390D01*
X91007940Y-46545500D01*
X91007940Y-46480000D01*
X107112060Y-46480000D01*
X107112060Y-46545500D01*
X107156338Y-46780817D01*
X107295410Y-46996941D01*
X107507610Y-47141931D01*
X107759500Y-47192940D01*
X109410500Y-47192940D01*
X109645817Y-47148662D01*
X109861941Y-47009590D01*
X110006931Y-46797390D01*
X110057940Y-46545500D01*
X110057940Y-46480000D01*
X121605198Y-46480000D01*
X123040134Y-47914936D01*
X122929059Y-47986410D01*
X122784069Y-48198610D01*
X122733060Y-48450500D01*
X122733060Y-50101500D01*
X122777338Y-50336817D01*
X122916410Y-50552941D01*
X123128610Y-50697931D01*
X123380500Y-50748940D01*
X125031500Y-50748940D01*
X125266817Y-50704662D01*
X125482941Y-50565590D01*
X125627931Y-50353390D01*
X125678940Y-50101500D01*
X125678940Y-48450500D01*
X125634662Y-48215183D01*
X125495590Y-47999059D01*
X125283390Y-47854069D01*
X125031500Y-47803060D01*
X124925632Y-47803060D01*
X124908148Y-47715160D01*
X124743401Y-47468599D01*
X123737371Y-46462569D01*
X123825000Y-46480000D01*
X124115839Y-46422148D01*
X124362401Y-46257401D01*
X124997401Y-45622401D01*
X125162148Y-45375839D01*
X125220000Y-45085000D01*
X125162148Y-44794160D01*
X124997401Y-44547599D01*
X124750840Y-44382852D01*
X124460000Y-44325000D01*
X124169161Y-44382852D01*
X123922599Y-44547599D01*
X123287599Y-45182599D01*
X123122852Y-45429161D01*
X123065000Y-45720000D01*
X123082431Y-45807629D01*
X122457401Y-45182599D01*
X122210839Y-45017852D01*
X121920000Y-44960000D01*
X110057940Y-44960000D01*
X110057940Y-44894500D01*
X110013662Y-44659183D01*
X109874590Y-44443059D01*
X109662390Y-44298069D01*
X109410500Y-44247060D01*
X107759500Y-44247060D01*
X107524183Y-44291338D01*
X107308059Y-44430410D01*
X107163069Y-44642610D01*
X107112060Y-44894500D01*
X107112060Y-44960000D01*
X91007940Y-44960000D01*
X91007940Y-44894500D01*
X90963662Y-44659183D01*
X90824590Y-44443059D01*
X90612390Y-44298069D01*
X90360500Y-44247060D01*
X88709500Y-44247060D01*
X88474183Y-44291338D01*
X88258059Y-44430410D01*
X88113069Y-44642610D01*
X88062060Y-44894500D01*
X88062060Y-44960000D01*
X71957940Y-44960000D01*
X71957940Y-44894500D01*
X71913662Y-44659183D01*
X71774590Y-44443059D01*
X71562390Y-44298069D01*
X71310500Y-44247060D01*
X69659500Y-44247060D01*
X69424183Y-44291338D01*
X69208059Y-44430410D01*
X69063069Y-44642610D01*
X69012060Y-44894500D01*
X69012060Y-44960000D01*
X68734641Y-44960000D01*
X68821037Y-44751935D01*
X68821562Y-44150703D01*
X68734501Y-43940000D01*
X127635000Y-43940000D01*
X127925839Y-43882148D01*
X128172401Y-43717401D01*
X129874201Y-42015601D01*
X129958183Y-41889912D01*
X129967206Y-41898951D01*
X130513139Y-42125642D01*
X131104267Y-42126158D01*
X131320000Y-42037019D01*
X131320000Y-42611198D01*
X131288599Y-42642599D01*
X131123852Y-42889161D01*
X131066000Y-43180000D01*
X131066000Y-48009762D01*
X130999774Y-48037126D01*
X130588570Y-48447613D01*
X130365754Y-48984214D01*
X130365247Y-49565237D01*
X130587126Y-50102226D01*
X130997613Y-50513430D01*
X131534214Y-50736246D01*
X132115237Y-50736753D01*
X132652226Y-50514874D01*
X132843739Y-50323694D01*
X133365226Y-50323694D01*
X133613538Y-50924655D01*
X134072927Y-51384846D01*
X134673453Y-51634206D01*
X135323694Y-51634774D01*
X135924655Y-51386462D01*
X136384846Y-50927073D01*
X136634206Y-50326547D01*
X136634774Y-49676306D01*
X136386462Y-49075345D01*
X135927073Y-48615154D01*
X135326547Y-48365794D01*
X134676306Y-48365226D01*
X134075345Y-48613538D01*
X133615154Y-49072927D01*
X133365794Y-49673453D01*
X133365226Y-50323694D01*
X132843739Y-50323694D01*
X133063430Y-50104387D01*
X133286246Y-49567786D01*
X133286753Y-48986763D01*
X133064874Y-48449774D01*
X132654387Y-48038570D01*
X132586000Y-48010173D01*
X132586000Y-43494802D01*
X132617401Y-43463401D01*
X132782148Y-43216840D01*
X132840000Y-42926000D01*
X132840000Y-41160626D01*
X133260645Y-41160626D01*
X133660028Y-42127207D01*
X134398904Y-42867373D01*
X135364785Y-43268442D01*
X136410626Y-43269355D01*
X137377207Y-42869972D01*
X138117373Y-42131096D01*
X138518442Y-41165215D01*
X138519355Y-40119374D01*
X138119972Y-39152793D01*
X137381096Y-38412627D01*
X136415215Y-38011558D01*
X135369374Y-38010645D01*
X134402793Y-38410028D01*
X133662627Y-39148904D01*
X133261558Y-40114785D01*
X133260645Y-41160626D01*
X132840000Y-41160626D01*
X132840000Y-39709773D01*
X133085840Y-39608194D01*
X133586436Y-39108471D01*
X133857691Y-38455218D01*
X133858308Y-37747886D01*
X133588194Y-37094160D01*
X133088471Y-36593564D01*
X132435218Y-36322309D01*
X131727886Y-36321692D01*
X131074160Y-36591806D01*
X130573564Y-37091529D01*
X130459891Y-37365284D01*
X130194000Y-37098929D01*
X129638735Y-36868363D01*
X129037503Y-36867838D01*
X128481836Y-37097435D01*
X128056329Y-37522200D01*
X127825763Y-38077465D01*
X127825238Y-38678697D01*
X128054835Y-39234364D01*
X128479600Y-39659871D01*
X128576800Y-39700232D01*
X128576800Y-41163398D01*
X127320198Y-42420000D01*
X125251208Y-42420000D01*
X125192803Y-42361595D01*
X125446827Y-42278096D01*
X125652682Y-41713203D01*
X125626691Y-41112532D01*
X125446827Y-40678304D01*
X125192801Y-40594804D01*
X124309405Y-41478200D01*
X124323548Y-41492343D01*
X124143943Y-41671948D01*
X124129800Y-41657805D01*
X124115658Y-41671948D01*
X123936053Y-41492343D01*
X123950195Y-41478200D01*
X123936053Y-41464058D01*
X124115658Y-41284453D01*
X124129800Y-41298595D01*
X125013196Y-40415199D01*
X124929696Y-40161173D01*
X124364803Y-39955318D01*
X123764132Y-39981309D01*
X123329904Y-40161173D01*
X123329902Y-40161179D01*
X123180420Y-39799405D01*
X122762794Y-39381049D01*
X122216861Y-39154358D01*
X121625733Y-39153842D01*
X121079405Y-39379580D01*
X120661049Y-39797206D01*
X120434358Y-40343139D01*
X120433842Y-40934267D01*
X120659580Y-41480595D01*
X121077206Y-41898951D01*
X121623139Y-42125642D01*
X122214267Y-42126158D01*
X122671570Y-41937204D01*
X122812773Y-42278096D01*
X123066797Y-42361595D01*
X123008392Y-42420000D01*
X118777965Y-42420000D01*
X119067373Y-42131096D01*
X119468442Y-41165215D01*
X119469355Y-40119374D01*
X119069972Y-39152793D01*
X118521381Y-38603244D01*
X124599504Y-38603244D01*
X124771219Y-39018827D01*
X125088900Y-39337063D01*
X125504183Y-39509503D01*
X125953844Y-39509896D01*
X126369427Y-39338181D01*
X126687663Y-39020500D01*
X126860103Y-38605217D01*
X126860496Y-38155556D01*
X126688781Y-37739973D01*
X126371100Y-37421737D01*
X125955817Y-37249297D01*
X125506156Y-37248904D01*
X125090573Y-37420619D01*
X124772337Y-37738300D01*
X124599897Y-38153583D01*
X124599504Y-38603244D01*
X118521381Y-38603244D01*
X118331096Y-38412627D01*
X117365215Y-38011558D01*
X116319374Y-38010645D01*
X115352793Y-38410028D01*
X114612627Y-39148904D01*
X114211558Y-40114785D01*
X114210645Y-41160626D01*
X114610028Y-42127207D01*
X114902311Y-42420000D01*
X99727965Y-42420000D01*
X100017373Y-42131096D01*
X100418442Y-41165215D01*
X100418643Y-40934267D01*
X101383842Y-40934267D01*
X101609580Y-41480595D01*
X102027206Y-41898951D01*
X102573139Y-42125642D01*
X103164267Y-42126158D01*
X103710595Y-41900420D01*
X104128951Y-41482794D01*
X104355642Y-40936861D01*
X104356158Y-40345733D01*
X104130420Y-39799405D01*
X103712794Y-39381049D01*
X103166861Y-39154358D01*
X102575733Y-39153842D01*
X102029405Y-39379580D01*
X101611049Y-39797206D01*
X101384358Y-40343139D01*
X101383842Y-40934267D01*
X100418643Y-40934267D01*
X100419355Y-40119374D01*
X100019972Y-39152793D01*
X99281096Y-38412627D01*
X99224767Y-38389237D01*
X107124247Y-38389237D01*
X107346126Y-38926226D01*
X107756613Y-39337430D01*
X108293214Y-39560246D01*
X108874237Y-39560753D01*
X109411226Y-39338874D01*
X109822430Y-38928387D01*
X109850827Y-38860000D01*
X111420227Y-38860000D01*
X111521806Y-39105840D01*
X111569815Y-39153933D01*
X111465733Y-39153842D01*
X110919405Y-39379580D01*
X110501049Y-39797206D01*
X110274358Y-40343139D01*
X110273842Y-40934267D01*
X110499580Y-41480595D01*
X110917206Y-41898951D01*
X111463139Y-42125642D01*
X112054267Y-42126158D01*
X112600595Y-41900420D01*
X113018951Y-41482794D01*
X113245642Y-40936861D01*
X113246158Y-40345733D01*
X113052903Y-39878021D01*
X113382114Y-39878308D01*
X114035840Y-39608194D01*
X114536436Y-39108471D01*
X114807691Y-38455218D01*
X114808308Y-37747886D01*
X114538194Y-37094160D01*
X114038471Y-36593564D01*
X113385218Y-36322309D01*
X112677886Y-36321692D01*
X112024160Y-36591806D01*
X111523564Y-37091529D01*
X111420390Y-37340000D01*
X109851238Y-37340000D01*
X109823874Y-37273774D01*
X109413387Y-36862570D01*
X108876786Y-36639754D01*
X108295763Y-36639247D01*
X107758774Y-36861126D01*
X107347570Y-37271613D01*
X107124754Y-37808214D01*
X107124247Y-38389237D01*
X99224767Y-38389237D01*
X98315215Y-38011558D01*
X97269374Y-38010645D01*
X96302793Y-38410028D01*
X95562627Y-39148904D01*
X95161558Y-40114785D01*
X95160645Y-41160626D01*
X95560028Y-42127207D01*
X95852311Y-42420000D01*
X80677965Y-42420000D01*
X80967373Y-42131096D01*
X81368442Y-41165215D01*
X81368643Y-40934267D01*
X82333842Y-40934267D01*
X82559580Y-41480595D01*
X82977206Y-41898951D01*
X83523139Y-42125642D01*
X84114267Y-42126158D01*
X84660595Y-41900420D01*
X85078951Y-41482794D01*
X85305642Y-40936861D01*
X85306158Y-40345733D01*
X85080420Y-39799405D01*
X84662794Y-39381049D01*
X84116861Y-39154358D01*
X83525733Y-39153842D01*
X82979405Y-39379580D01*
X82561049Y-39797206D01*
X82334358Y-40343139D01*
X82333842Y-40934267D01*
X81368643Y-40934267D01*
X81369355Y-40119374D01*
X80969972Y-39152793D01*
X80231096Y-38412627D01*
X80174767Y-38389237D01*
X88074247Y-38389237D01*
X88296126Y-38926226D01*
X88706613Y-39337430D01*
X89243214Y-39560246D01*
X89824237Y-39560753D01*
X90361226Y-39338874D01*
X90772430Y-38928387D01*
X90800827Y-38860000D01*
X92370227Y-38860000D01*
X92471806Y-39105840D01*
X92519815Y-39153933D01*
X92415733Y-39153842D01*
X91869405Y-39379580D01*
X91451049Y-39797206D01*
X91224358Y-40343139D01*
X91223842Y-40934267D01*
X91449580Y-41480595D01*
X91867206Y-41898951D01*
X92413139Y-42125642D01*
X93004267Y-42126158D01*
X93550595Y-41900420D01*
X93968951Y-41482794D01*
X94195642Y-40936861D01*
X94196158Y-40345733D01*
X94002903Y-39878021D01*
X94332114Y-39878308D01*
X94985840Y-39608194D01*
X95486436Y-39108471D01*
X95757691Y-38455218D01*
X95758308Y-37747886D01*
X95488194Y-37094160D01*
X94988471Y-36593564D01*
X94335218Y-36322309D01*
X93627886Y-36321692D01*
X92974160Y-36591806D01*
X92473564Y-37091529D01*
X92370390Y-37340000D01*
X90801238Y-37340000D01*
X90773874Y-37273774D01*
X90363387Y-36862570D01*
X89826786Y-36639754D01*
X89245763Y-36639247D01*
X88708774Y-36861126D01*
X88297570Y-37271613D01*
X88074754Y-37808214D01*
X88074247Y-38389237D01*
X80174767Y-38389237D01*
X79265215Y-38011558D01*
X78219374Y-38010645D01*
X77252793Y-38410028D01*
X76512627Y-39148904D01*
X76111558Y-40114785D01*
X76110645Y-41160626D01*
X76510028Y-42127207D01*
X76802311Y-42420000D01*
X68734641Y-42420000D01*
X68821037Y-42211935D01*
X68821562Y-41610703D01*
X68591965Y-41055036D01*
X68177302Y-40639649D01*
X68590471Y-40227200D01*
X68821037Y-39671935D01*
X68821562Y-39070703D01*
X68591965Y-38515036D01*
X68466386Y-38389237D01*
X69024247Y-38389237D01*
X69246126Y-38926226D01*
X69656613Y-39337430D01*
X70193214Y-39560246D01*
X70774237Y-39560753D01*
X71311226Y-39338874D01*
X71722430Y-38928387D01*
X71750827Y-38860000D01*
X73320227Y-38860000D01*
X73421806Y-39105840D01*
X73469815Y-39153933D01*
X73365733Y-39153842D01*
X72819405Y-39379580D01*
X72401049Y-39797206D01*
X72174358Y-40343139D01*
X72173842Y-40934267D01*
X72399580Y-41480595D01*
X72817206Y-41898951D01*
X73363139Y-42125642D01*
X73954267Y-42126158D01*
X74500595Y-41900420D01*
X74918951Y-41482794D01*
X75145642Y-40936861D01*
X75146158Y-40345733D01*
X74952903Y-39878021D01*
X75282114Y-39878308D01*
X75935840Y-39608194D01*
X76436436Y-39108471D01*
X76707691Y-38455218D01*
X76708308Y-37747886D01*
X76438194Y-37094160D01*
X75938471Y-36593564D01*
X75285218Y-36322309D01*
X74577886Y-36321692D01*
X73924160Y-36591806D01*
X73423564Y-37091529D01*
X73320390Y-37340000D01*
X71751238Y-37340000D01*
X71723874Y-37273774D01*
X71313387Y-36862570D01*
X70776786Y-36639754D01*
X70195763Y-36639247D01*
X69658774Y-36861126D01*
X69247570Y-37271613D01*
X69024754Y-37808214D01*
X69024247Y-38389237D01*
X68466386Y-38389237D01*
X68167200Y-38089529D01*
X68133408Y-38075497D01*
X68193396Y-37893001D01*
X67310000Y-37009605D01*
X66426604Y-37893001D01*
X66486447Y-38075056D01*
X66455036Y-38088035D01*
X66029529Y-38512800D01*
X65798963Y-39068065D01*
X65798527Y-39567107D01*
X65612794Y-39381049D01*
X65066861Y-39154358D01*
X64475733Y-39153842D01*
X63929405Y-39379580D01*
X63511049Y-39797206D01*
X63284358Y-40343139D01*
X63283842Y-40934267D01*
X63509580Y-41480595D01*
X63927206Y-41898951D01*
X64473139Y-42125642D01*
X65064267Y-42126158D01*
X65610595Y-41900420D01*
X65798872Y-41712472D01*
X65798438Y-42209297D01*
X65897233Y-42448398D01*
X65749161Y-42477852D01*
X65502599Y-42642599D01*
X63820198Y-44325000D01*
X60889802Y-44325000D01*
X62767401Y-42447401D01*
X62932148Y-42200840D01*
X62968994Y-42015601D01*
X62990000Y-41910000D01*
X62990000Y-39684802D01*
X65799257Y-36875545D01*
X65813109Y-37195668D01*
X65992973Y-37629896D01*
X66246999Y-37713396D01*
X67130395Y-36830000D01*
X67116253Y-36815858D01*
X67295858Y-36636253D01*
X67310000Y-36650395D01*
X67324143Y-36636253D01*
X67503748Y-36815858D01*
X67489605Y-36830000D01*
X68373001Y-37713396D01*
X68627027Y-37629896D01*
X68832882Y-37065003D01*
X68806891Y-36464332D01*
X68747106Y-36320000D01*
X79670227Y-36320000D01*
X79771806Y-36565840D01*
X80271529Y-37066436D01*
X80924782Y-37337691D01*
X81632114Y-37338308D01*
X82285840Y-37068194D01*
X82786436Y-36568471D01*
X83057691Y-35915218D01*
X83058308Y-35207886D01*
X82993897Y-35052000D01*
X98615750Y-35052000D01*
X98552309Y-35204782D01*
X98551692Y-35912114D01*
X98821806Y-36565840D01*
X99321529Y-37066436D01*
X99974782Y-37337691D01*
X100682114Y-37338308D01*
X101335840Y-37068194D01*
X101836436Y-36568471D01*
X102107691Y-35915218D01*
X102108308Y-35207886D01*
X102043897Y-35052000D01*
X117665750Y-35052000D01*
X117602309Y-35204782D01*
X117601692Y-35912114D01*
X117871806Y-36565840D01*
X118371529Y-37066436D01*
X119024782Y-37337691D01*
X119732114Y-37338308D01*
X120385840Y-37068194D01*
X120886436Y-36568471D01*
X121157691Y-35915218D01*
X121158308Y-35207886D01*
X121093897Y-35052000D01*
X136715750Y-35052000D01*
X136652309Y-35204782D01*
X136651692Y-35912114D01*
X136921806Y-36565840D01*
X137421529Y-37066436D01*
X138074782Y-37337691D01*
X138782114Y-37338308D01*
X139435840Y-37068194D01*
X139936436Y-36568471D01*
X140207691Y-35915218D01*
X140208308Y-35207886D01*
X140143897Y-35052000D01*
X140895000Y-35052000D01*
X140895000Y-39154033D01*
X140675733Y-39153842D01*
X140129405Y-39379580D01*
X139711049Y-39797206D01*
X139484358Y-40343139D01*
X139483842Y-40934267D01*
X139709580Y-41480595D01*
X140127206Y-41898951D01*
X140673139Y-42125642D01*
X140895000Y-42125836D01*
X140895000Y-58204033D01*
X140675733Y-58203842D01*
X140129405Y-58429580D01*
X139711049Y-58847206D01*
X139484358Y-59393139D01*
X139483842Y-59984267D01*
X139709580Y-60530595D01*
X140127206Y-60948951D01*
X140673139Y-61175642D01*
X140895000Y-61175836D01*
X140895000Y-77254033D01*
X140675733Y-77253842D01*
X140129405Y-77479580D01*
X139711049Y-77897206D01*
X139484358Y-78443139D01*
X139483842Y-79034267D01*
X139709580Y-79580595D01*
X140127206Y-79998951D01*
X140673139Y-80225642D01*
X140895000Y-80225836D01*
X140895000Y-96304033D01*
X140675733Y-96303842D01*
X140129405Y-96529580D01*
X139711049Y-96947206D01*
X139484358Y-97493139D01*
X139483842Y-98084267D01*
X139709580Y-98630595D01*
X140127206Y-99048951D01*
X140673139Y-99275642D01*
X140895000Y-99275836D01*
X140895000Y-103378000D01*
X129107940Y-103378000D01*
X129107940Y-102044500D01*
X129063662Y-101809183D01*
X128924590Y-101593059D01*
X128712390Y-101448069D01*
X128460500Y-101397060D01*
X126809500Y-101397060D01*
X126574183Y-101441338D01*
X126358059Y-101580410D01*
X126213069Y-101792610D01*
X126162060Y-102044500D01*
X126162060Y-102110000D01*
X110057940Y-102110000D01*
X110057940Y-102044500D01*
X110013662Y-101809183D01*
X109874590Y-101593059D01*
X109662390Y-101448069D01*
X109410500Y-101397060D01*
X107759500Y-101397060D01*
X107524183Y-101441338D01*
X107308059Y-101580410D01*
X107163069Y-101792610D01*
X107112060Y-102044500D01*
X107112060Y-102110000D01*
X91007940Y-102110000D01*
X91007940Y-102044500D01*
X90963662Y-101809183D01*
X90824590Y-101593059D01*
X90612390Y-101448069D01*
X90360500Y-101397060D01*
X88709500Y-101397060D01*
X88474183Y-101441338D01*
X88258059Y-101580410D01*
X88113069Y-101792610D01*
X88062060Y-102044500D01*
X88062060Y-102110000D01*
X71957940Y-102110000D01*
X71957940Y-102044500D01*
X71913662Y-101809183D01*
X71774590Y-101593059D01*
X71562390Y-101448069D01*
X71310500Y-101397060D01*
X69659500Y-101397060D01*
X69424183Y-101441338D01*
X69208059Y-101580410D01*
X69063069Y-101792610D01*
X69012060Y-102044500D01*
X69012060Y-102110000D01*
X52907940Y-102110000D01*
X52907940Y-102044500D01*
X52863662Y-101809183D01*
X52724590Y-101593059D01*
X52512390Y-101448069D01*
X52260500Y-101397060D01*
X50609500Y-101397060D01*
X50374183Y-101441338D01*
X50196727Y-101555528D01*
X50196662Y-101555183D01*
X50057590Y-101339059D01*
X49845390Y-101194069D01*
X49593500Y-101143060D01*
X47942500Y-101143060D01*
X47707183Y-101187338D01*
X47491059Y-101326410D01*
X47346069Y-101538610D01*
X47295060Y-101790500D01*
X47295060Y-103378000D01*
X37387046Y-103378000D01*
X37532148Y-103160839D01*
X37590000Y-102870000D01*
X37590000Y-98310626D01*
X38010645Y-98310626D01*
X38410028Y-99277207D01*
X39148904Y-100017373D01*
X40114785Y-100418442D01*
X41160626Y-100419355D01*
X42127207Y-100019972D01*
X42867373Y-99281096D01*
X43268442Y-98315215D01*
X43268643Y-98084267D01*
X44233842Y-98084267D01*
X44459580Y-98630595D01*
X44877206Y-99048951D01*
X45423139Y-99275642D01*
X46014267Y-99276158D01*
X46560595Y-99050420D01*
X46978951Y-98632794D01*
X47205642Y-98086861D01*
X47206158Y-97495733D01*
X46980420Y-96949405D01*
X46562794Y-96531049D01*
X46016861Y-96304358D01*
X45425733Y-96303842D01*
X44879405Y-96529580D01*
X44461049Y-96947206D01*
X44234358Y-97493139D01*
X44233842Y-98084267D01*
X43268643Y-98084267D01*
X43269355Y-97269374D01*
X42869972Y-96302793D01*
X42131096Y-95562627D01*
X41463067Y-95285237D01*
X47307247Y-95285237D01*
X47529126Y-95822226D01*
X47939613Y-96233430D01*
X48476214Y-96456246D01*
X49057237Y-96456753D01*
X49594226Y-96234874D01*
X50005430Y-95824387D01*
X50048856Y-95719805D01*
X50196126Y-96076226D01*
X50606613Y-96487430D01*
X51143214Y-96710246D01*
X51724237Y-96710753D01*
X52261226Y-96488874D01*
X52672430Y-96078387D01*
X52700827Y-96010000D01*
X54270227Y-96010000D01*
X54371806Y-96255840D01*
X54419815Y-96303933D01*
X54315733Y-96303842D01*
X53769405Y-96529580D01*
X53351049Y-96947206D01*
X53124358Y-97493139D01*
X53123842Y-98084267D01*
X53349580Y-98630595D01*
X53767206Y-99048951D01*
X54313139Y-99275642D01*
X54904267Y-99276158D01*
X55450595Y-99050420D01*
X55868951Y-98632794D01*
X56002726Y-98310626D01*
X57060645Y-98310626D01*
X57460028Y-99277207D01*
X58198904Y-100017373D01*
X59164785Y-100418442D01*
X60210626Y-100419355D01*
X61177207Y-100019972D01*
X61917373Y-99281096D01*
X62318442Y-98315215D01*
X62318643Y-98084267D01*
X63283842Y-98084267D01*
X63509580Y-98630595D01*
X63927206Y-99048951D01*
X64473139Y-99275642D01*
X65064267Y-99276158D01*
X65610595Y-99050420D01*
X66028951Y-98632794D01*
X66255642Y-98086861D01*
X66256158Y-97495733D01*
X66030420Y-96949405D01*
X65612794Y-96531049D01*
X65066861Y-96304358D01*
X64475733Y-96303842D01*
X63929405Y-96529580D01*
X63511049Y-96947206D01*
X63284358Y-97493139D01*
X63283842Y-98084267D01*
X62318643Y-98084267D01*
X62319355Y-97269374D01*
X61919972Y-96302793D01*
X61181096Y-95562627D01*
X61124767Y-95539237D01*
X69024247Y-95539237D01*
X69246126Y-96076226D01*
X69656613Y-96487430D01*
X70193214Y-96710246D01*
X70774237Y-96710753D01*
X71311226Y-96488874D01*
X71722430Y-96078387D01*
X71750827Y-96010000D01*
X73320227Y-96010000D01*
X73421806Y-96255840D01*
X73469815Y-96303933D01*
X73365733Y-96303842D01*
X72819405Y-96529580D01*
X72401049Y-96947206D01*
X72174358Y-97493139D01*
X72173842Y-98084267D01*
X72399580Y-98630595D01*
X72817206Y-99048951D01*
X73363139Y-99275642D01*
X73954267Y-99276158D01*
X74500595Y-99050420D01*
X74918951Y-98632794D01*
X75052726Y-98310626D01*
X76110645Y-98310626D01*
X76510028Y-99277207D01*
X77248904Y-100017373D01*
X78214785Y-100418442D01*
X79260626Y-100419355D01*
X80227207Y-100019972D01*
X80967373Y-99281096D01*
X81368442Y-98315215D01*
X81368643Y-98084267D01*
X82333842Y-98084267D01*
X82559580Y-98630595D01*
X82977206Y-99048951D01*
X83523139Y-99275642D01*
X84114267Y-99276158D01*
X84660595Y-99050420D01*
X85078951Y-98632794D01*
X85305642Y-98086861D01*
X85306158Y-97495733D01*
X85080420Y-96949405D01*
X84662794Y-96531049D01*
X84116861Y-96304358D01*
X83525733Y-96303842D01*
X82979405Y-96529580D01*
X82561049Y-96947206D01*
X82334358Y-97493139D01*
X82333842Y-98084267D01*
X81368643Y-98084267D01*
X81369355Y-97269374D01*
X80969972Y-96302793D01*
X80231096Y-95562627D01*
X80174767Y-95539237D01*
X88074247Y-95539237D01*
X88296126Y-96076226D01*
X88706613Y-96487430D01*
X89243214Y-96710246D01*
X89824237Y-96710753D01*
X90361226Y-96488874D01*
X90772430Y-96078387D01*
X90800827Y-96010000D01*
X92370227Y-96010000D01*
X92471806Y-96255840D01*
X92519815Y-96303933D01*
X92415733Y-96303842D01*
X91869405Y-96529580D01*
X91451049Y-96947206D01*
X91224358Y-97493139D01*
X91223842Y-98084267D01*
X91449580Y-98630595D01*
X91867206Y-99048951D01*
X92413139Y-99275642D01*
X93004267Y-99276158D01*
X93550595Y-99050420D01*
X93968951Y-98632794D01*
X94102726Y-98310626D01*
X95160645Y-98310626D01*
X95560028Y-99277207D01*
X96298904Y-100017373D01*
X97264785Y-100418442D01*
X98310626Y-100419355D01*
X99277207Y-100019972D01*
X100017373Y-99281096D01*
X100418442Y-98315215D01*
X100418643Y-98084267D01*
X101383842Y-98084267D01*
X101609580Y-98630595D01*
X102027206Y-99048951D01*
X102573139Y-99275642D01*
X103164267Y-99276158D01*
X103710595Y-99050420D01*
X104128951Y-98632794D01*
X104355642Y-98086861D01*
X104356158Y-97495733D01*
X104130420Y-96949405D01*
X103712794Y-96531049D01*
X103166861Y-96304358D01*
X102575733Y-96303842D01*
X102029405Y-96529580D01*
X101611049Y-96947206D01*
X101384358Y-97493139D01*
X101383842Y-98084267D01*
X100418643Y-98084267D01*
X100419355Y-97269374D01*
X100019972Y-96302793D01*
X99281096Y-95562627D01*
X99224767Y-95539237D01*
X107124247Y-95539237D01*
X107346126Y-96076226D01*
X107756613Y-96487430D01*
X108293214Y-96710246D01*
X108874237Y-96710753D01*
X109411226Y-96488874D01*
X109822430Y-96078387D01*
X109850827Y-96010000D01*
X111420227Y-96010000D01*
X111521806Y-96255840D01*
X111569815Y-96303933D01*
X111465733Y-96303842D01*
X110919405Y-96529580D01*
X110501049Y-96947206D01*
X110274358Y-97493139D01*
X110273842Y-98084267D01*
X110499580Y-98630595D01*
X110917206Y-99048951D01*
X111463139Y-99275642D01*
X112054267Y-99276158D01*
X112600595Y-99050420D01*
X113018951Y-98632794D01*
X113152726Y-98310626D01*
X114210645Y-98310626D01*
X114610028Y-99277207D01*
X115348904Y-100017373D01*
X116314785Y-100418442D01*
X117360626Y-100419355D01*
X118327207Y-100019972D01*
X119067373Y-99281096D01*
X119468442Y-98315215D01*
X119468643Y-98084267D01*
X120433842Y-98084267D01*
X120659580Y-98630595D01*
X121077206Y-99048951D01*
X121623139Y-99275642D01*
X122214267Y-99276158D01*
X122760595Y-99050420D01*
X123178951Y-98632794D01*
X123405642Y-98086861D01*
X123406158Y-97495733D01*
X123180420Y-96949405D01*
X122762794Y-96531049D01*
X122216861Y-96304358D01*
X121625733Y-96303842D01*
X121079405Y-96529580D01*
X120661049Y-96947206D01*
X120434358Y-97493139D01*
X120433842Y-98084267D01*
X119468643Y-98084267D01*
X119469355Y-97269374D01*
X119069972Y-96302793D01*
X118331096Y-95562627D01*
X118274767Y-95539237D01*
X126174247Y-95539237D01*
X126396126Y-96076226D01*
X126806613Y-96487430D01*
X127343214Y-96710246D01*
X127924237Y-96710753D01*
X128461226Y-96488874D01*
X128872430Y-96078387D01*
X128900827Y-96010000D01*
X130470227Y-96010000D01*
X130571806Y-96255840D01*
X130619815Y-96303933D01*
X130515733Y-96303842D01*
X129969405Y-96529580D01*
X129551049Y-96947206D01*
X129324358Y-97493139D01*
X129323842Y-98084267D01*
X129549580Y-98630595D01*
X129967206Y-99048951D01*
X130513139Y-99275642D01*
X131104267Y-99276158D01*
X131650595Y-99050420D01*
X132068951Y-98632794D01*
X132202726Y-98310626D01*
X133260645Y-98310626D01*
X133660028Y-99277207D01*
X134398904Y-100017373D01*
X135364785Y-100418442D01*
X136410626Y-100419355D01*
X137377207Y-100019972D01*
X138117373Y-99281096D01*
X138518442Y-98315215D01*
X138519355Y-97269374D01*
X138119972Y-96302793D01*
X137381096Y-95562627D01*
X136415215Y-95161558D01*
X135369374Y-95160645D01*
X134402793Y-95560028D01*
X133662627Y-96298904D01*
X133261558Y-97264785D01*
X133260645Y-98310626D01*
X132202726Y-98310626D01*
X132295642Y-98086861D01*
X132296158Y-97495733D01*
X132102903Y-97028021D01*
X132432114Y-97028308D01*
X133085840Y-96758194D01*
X133586436Y-96258471D01*
X133857691Y-95605218D01*
X133858308Y-94897886D01*
X133588194Y-94244160D01*
X133088471Y-93743564D01*
X132435218Y-93472309D01*
X131727886Y-93471692D01*
X131074160Y-93741806D01*
X130573564Y-94241529D01*
X130470390Y-94490000D01*
X128901238Y-94490000D01*
X128873874Y-94423774D01*
X128463387Y-94012570D01*
X127926786Y-93789754D01*
X127345763Y-93789247D01*
X126808774Y-94011126D01*
X126397570Y-94421613D01*
X126174754Y-94958214D01*
X126174247Y-95539237D01*
X118274767Y-95539237D01*
X117365215Y-95161558D01*
X116319374Y-95160645D01*
X115352793Y-95560028D01*
X114612627Y-96298904D01*
X114211558Y-97264785D01*
X114210645Y-98310626D01*
X113152726Y-98310626D01*
X113245642Y-98086861D01*
X113246158Y-97495733D01*
X113052903Y-97028021D01*
X113382114Y-97028308D01*
X114035840Y-96758194D01*
X114536436Y-96258471D01*
X114807691Y-95605218D01*
X114808308Y-94897886D01*
X114538194Y-94244160D01*
X114038471Y-93743564D01*
X113385218Y-93472309D01*
X112677886Y-93471692D01*
X112024160Y-93741806D01*
X111523564Y-94241529D01*
X111420390Y-94490000D01*
X109851238Y-94490000D01*
X109823874Y-94423774D01*
X109413387Y-94012570D01*
X108876786Y-93789754D01*
X108295763Y-93789247D01*
X107758774Y-94011126D01*
X107347570Y-94421613D01*
X107124754Y-94958214D01*
X107124247Y-95539237D01*
X99224767Y-95539237D01*
X98315215Y-95161558D01*
X97269374Y-95160645D01*
X96302793Y-95560028D01*
X95562627Y-96298904D01*
X95161558Y-97264785D01*
X95160645Y-98310626D01*
X94102726Y-98310626D01*
X94195642Y-98086861D01*
X94196158Y-97495733D01*
X94002903Y-97028021D01*
X94332114Y-97028308D01*
X94985840Y-96758194D01*
X95486436Y-96258471D01*
X95757691Y-95605218D01*
X95758308Y-94897886D01*
X95488194Y-94244160D01*
X94988471Y-93743564D01*
X94335218Y-93472309D01*
X93627886Y-93471692D01*
X92974160Y-93741806D01*
X92473564Y-94241529D01*
X92370390Y-94490000D01*
X90801238Y-94490000D01*
X90773874Y-94423774D01*
X90363387Y-94012570D01*
X89826786Y-93789754D01*
X89245763Y-93789247D01*
X88708774Y-94011126D01*
X88297570Y-94421613D01*
X88074754Y-94958214D01*
X88074247Y-95539237D01*
X80174767Y-95539237D01*
X79265215Y-95161558D01*
X78219374Y-95160645D01*
X77252793Y-95560028D01*
X76512627Y-96298904D01*
X76111558Y-97264785D01*
X76110645Y-98310626D01*
X75052726Y-98310626D01*
X75145642Y-98086861D01*
X75146158Y-97495733D01*
X74952903Y-97028021D01*
X75282114Y-97028308D01*
X75935840Y-96758194D01*
X76436436Y-96258471D01*
X76707691Y-95605218D01*
X76708308Y-94897886D01*
X76438194Y-94244160D01*
X75938471Y-93743564D01*
X75285218Y-93472309D01*
X74577886Y-93471692D01*
X73924160Y-93741806D01*
X73423564Y-94241529D01*
X73320390Y-94490000D01*
X71751238Y-94490000D01*
X71723874Y-94423774D01*
X71313387Y-94012570D01*
X70776786Y-93789754D01*
X70195763Y-93789247D01*
X69658774Y-94011126D01*
X69247570Y-94421613D01*
X69024754Y-94958214D01*
X69024247Y-95539237D01*
X61124767Y-95539237D01*
X60215215Y-95161558D01*
X59169374Y-95160645D01*
X58202793Y-95560028D01*
X57462627Y-96298904D01*
X57061558Y-97264785D01*
X57060645Y-98310626D01*
X56002726Y-98310626D01*
X56095642Y-98086861D01*
X56096158Y-97495733D01*
X55902903Y-97028021D01*
X56232114Y-97028308D01*
X56885840Y-96758194D01*
X57386436Y-96258471D01*
X57657691Y-95605218D01*
X57658308Y-94897886D01*
X57388194Y-94244160D01*
X56888471Y-93743564D01*
X56235218Y-93472309D01*
X55527886Y-93471692D01*
X54874160Y-93741806D01*
X54373564Y-94241529D01*
X54270390Y-94490000D01*
X52701238Y-94490000D01*
X52673874Y-94423774D01*
X52263387Y-94012570D01*
X51726786Y-93789754D01*
X51145763Y-93789247D01*
X50608774Y-94011126D01*
X50197570Y-94421613D01*
X50154144Y-94526195D01*
X50006874Y-94169774D01*
X49596387Y-93758570D01*
X49059786Y-93535754D01*
X48478763Y-93535247D01*
X47941774Y-93757126D01*
X47530570Y-94167613D01*
X47307754Y-94704214D01*
X47307247Y-95285237D01*
X41463067Y-95285237D01*
X41165215Y-95161558D01*
X40119374Y-95160645D01*
X39152793Y-95560028D01*
X38412627Y-96298904D01*
X38011558Y-97264785D01*
X38010645Y-98310626D01*
X37590000Y-98310626D01*
X37590000Y-96859773D01*
X37835840Y-96758194D01*
X38336436Y-96258471D01*
X38607691Y-95605218D01*
X38608308Y-94897886D01*
X38338194Y-94244160D01*
X37838471Y-93743564D01*
X37185218Y-93472309D01*
X36477886Y-93471692D01*
X35824160Y-93741806D01*
X35635000Y-93930636D01*
X35635000Y-93062114D01*
X41401692Y-93062114D01*
X41671806Y-93715840D01*
X42171529Y-94216436D01*
X42824782Y-94487691D01*
X43532114Y-94488308D01*
X44185840Y-94218194D01*
X44686436Y-93718471D01*
X44957691Y-93065218D01*
X44957693Y-93062114D01*
X60451692Y-93062114D01*
X60721806Y-93715840D01*
X61221529Y-94216436D01*
X61874782Y-94487691D01*
X62582114Y-94488308D01*
X63235840Y-94218194D01*
X63736436Y-93718471D01*
X64007691Y-93065218D01*
X64007693Y-93062114D01*
X79501692Y-93062114D01*
X79771806Y-93715840D01*
X80271529Y-94216436D01*
X80924782Y-94487691D01*
X81632114Y-94488308D01*
X82285840Y-94218194D01*
X82786436Y-93718471D01*
X83057691Y-93065218D01*
X83057693Y-93062114D01*
X98551692Y-93062114D01*
X98821806Y-93715840D01*
X99321529Y-94216436D01*
X99974782Y-94487691D01*
X100682114Y-94488308D01*
X101335840Y-94218194D01*
X101836436Y-93718471D01*
X102107691Y-93065218D01*
X102107693Y-93062114D01*
X117601692Y-93062114D01*
X117871806Y-93715840D01*
X118371529Y-94216436D01*
X119024782Y-94487691D01*
X119732114Y-94488308D01*
X120385840Y-94218194D01*
X120886436Y-93718471D01*
X121157691Y-93065218D01*
X121157693Y-93062114D01*
X136651692Y-93062114D01*
X136921806Y-93715840D01*
X137421529Y-94216436D01*
X138074782Y-94487691D01*
X138782114Y-94488308D01*
X139435840Y-94218194D01*
X139936436Y-93718471D01*
X140207691Y-93065218D01*
X140208308Y-92357886D01*
X139938194Y-91704160D01*
X139438471Y-91203564D01*
X138785218Y-90932309D01*
X138077886Y-90931692D01*
X137424160Y-91201806D01*
X136923564Y-91701529D01*
X136652309Y-92354782D01*
X136651692Y-93062114D01*
X121157693Y-93062114D01*
X121158308Y-92357886D01*
X120888194Y-91704160D01*
X120388471Y-91203564D01*
X119735218Y-90932309D01*
X119027886Y-90931692D01*
X118374160Y-91201806D01*
X117873564Y-91701529D01*
X117602309Y-92354782D01*
X117601692Y-93062114D01*
X102107693Y-93062114D01*
X102108308Y-92357886D01*
X101838194Y-91704160D01*
X101338471Y-91203564D01*
X100685218Y-90932309D01*
X99977886Y-90931692D01*
X99324160Y-91201806D01*
X98823564Y-91701529D01*
X98552309Y-92354782D01*
X98551692Y-93062114D01*
X83057693Y-93062114D01*
X83058308Y-92357886D01*
X82788194Y-91704160D01*
X82288471Y-91203564D01*
X81635218Y-90932309D01*
X80927886Y-90931692D01*
X80274160Y-91201806D01*
X79773564Y-91701529D01*
X79502309Y-92354782D01*
X79501692Y-93062114D01*
X64007693Y-93062114D01*
X64008308Y-92357886D01*
X63738194Y-91704160D01*
X63238471Y-91203564D01*
X62585218Y-90932309D01*
X61877886Y-90931692D01*
X61224160Y-91201806D01*
X60723564Y-91701529D01*
X60452309Y-92354782D01*
X60451692Y-93062114D01*
X44957693Y-93062114D01*
X44958308Y-92357886D01*
X44688194Y-91704160D01*
X44188471Y-91203564D01*
X43535218Y-90932309D01*
X42827886Y-90931692D01*
X42174160Y-91201806D01*
X41673564Y-91701529D01*
X41402309Y-92354782D01*
X41401692Y-93062114D01*
X35635000Y-93062114D01*
X35635000Y-82994500D01*
X47295060Y-82994500D01*
X47295060Y-84645500D01*
X47339338Y-84880817D01*
X47478410Y-85096941D01*
X47690610Y-85241931D01*
X47942500Y-85292940D01*
X49593500Y-85292940D01*
X49828817Y-85248662D01*
X50044941Y-85109590D01*
X50100874Y-85027730D01*
X50145410Y-85096941D01*
X50357610Y-85241931D01*
X50609500Y-85292940D01*
X52260500Y-85292940D01*
X52495817Y-85248662D01*
X52711941Y-85109590D01*
X52856931Y-84897390D01*
X52907940Y-84645500D01*
X52907940Y-84580000D01*
X69012060Y-84580000D01*
X69012060Y-84645500D01*
X69056338Y-84880817D01*
X69195410Y-85096941D01*
X69407610Y-85241931D01*
X69659500Y-85292940D01*
X71310500Y-85292940D01*
X71545817Y-85248662D01*
X71761941Y-85109590D01*
X71906931Y-84897390D01*
X71957940Y-84645500D01*
X71957940Y-84580000D01*
X88062060Y-84580000D01*
X88062060Y-84645500D01*
X88106338Y-84880817D01*
X88245410Y-85096941D01*
X88457610Y-85241931D01*
X88709500Y-85292940D01*
X90360500Y-85292940D01*
X90595817Y-85248662D01*
X90811941Y-85109590D01*
X90956931Y-84897390D01*
X91007940Y-84645500D01*
X91007940Y-84580000D01*
X107112060Y-84580000D01*
X107112060Y-84645500D01*
X107156338Y-84880817D01*
X107295410Y-85096941D01*
X107507610Y-85241931D01*
X107759500Y-85292940D01*
X109410500Y-85292940D01*
X109645817Y-85248662D01*
X109861941Y-85109590D01*
X110006931Y-84897390D01*
X110057940Y-84645500D01*
X110057940Y-84580000D01*
X126162060Y-84580000D01*
X126162060Y-84645500D01*
X126206338Y-84880817D01*
X126345410Y-85096941D01*
X126557610Y-85241931D01*
X126809500Y-85292940D01*
X128460500Y-85292940D01*
X128695817Y-85248662D01*
X128911941Y-85109590D01*
X129056931Y-84897390D01*
X129107940Y-84645500D01*
X129107940Y-82994500D01*
X129063662Y-82759183D01*
X128924590Y-82543059D01*
X128712390Y-82398069D01*
X128460500Y-82347060D01*
X126809500Y-82347060D01*
X126574183Y-82391338D01*
X126358059Y-82530410D01*
X126213069Y-82742610D01*
X126162060Y-82994500D01*
X126162060Y-83060000D01*
X110057940Y-83060000D01*
X110057940Y-82994500D01*
X110013662Y-82759183D01*
X109874590Y-82543059D01*
X109662390Y-82398069D01*
X109410500Y-82347060D01*
X107759500Y-82347060D01*
X107524183Y-82391338D01*
X107308059Y-82530410D01*
X107163069Y-82742610D01*
X107112060Y-82994500D01*
X107112060Y-83060000D01*
X91007940Y-83060000D01*
X91007940Y-82994500D01*
X90963662Y-82759183D01*
X90824590Y-82543059D01*
X90612390Y-82398069D01*
X90360500Y-82347060D01*
X88709500Y-82347060D01*
X88474183Y-82391338D01*
X88258059Y-82530410D01*
X88113069Y-82742610D01*
X88062060Y-82994500D01*
X88062060Y-83060000D01*
X71957940Y-83060000D01*
X71957940Y-82994500D01*
X71913662Y-82759183D01*
X71774590Y-82543059D01*
X71562390Y-82398069D01*
X71310500Y-82347060D01*
X69659500Y-82347060D01*
X69424183Y-82391338D01*
X69208059Y-82530410D01*
X69063069Y-82742610D01*
X69012060Y-82994500D01*
X69012060Y-83060000D01*
X52907940Y-83060000D01*
X52907940Y-82994500D01*
X52863662Y-82759183D01*
X52724590Y-82543059D01*
X52512390Y-82398069D01*
X52260500Y-82347060D01*
X50609500Y-82347060D01*
X50374183Y-82391338D01*
X50158059Y-82530410D01*
X50102126Y-82612270D01*
X50057590Y-82543059D01*
X49845390Y-82398069D01*
X49593500Y-82347060D01*
X47942500Y-82347060D01*
X47707183Y-82391338D01*
X47491059Y-82530410D01*
X47346069Y-82742610D01*
X47295060Y-82994500D01*
X35635000Y-82994500D01*
X35635000Y-80225967D01*
X35854267Y-80226158D01*
X36400595Y-80000420D01*
X36818951Y-79582794D01*
X37045642Y-79036861D01*
X37046158Y-78445733D01*
X36852903Y-77978021D01*
X37182114Y-77978308D01*
X37835840Y-77708194D01*
X38336436Y-77208471D01*
X38439610Y-76960000D01*
X38702035Y-76960000D01*
X38412627Y-77248904D01*
X38011558Y-78214785D01*
X38010645Y-79260626D01*
X38410028Y-80227207D01*
X39148904Y-80967373D01*
X40114785Y-81368442D01*
X41160626Y-81369355D01*
X42127207Y-80969972D01*
X42867373Y-80231096D01*
X43268442Y-79265215D01*
X43268643Y-79034267D01*
X44233842Y-79034267D01*
X44459580Y-79580595D01*
X44877206Y-79998951D01*
X45423139Y-80225642D01*
X46014267Y-80226158D01*
X46560595Y-80000420D01*
X46978951Y-79582794D01*
X47205642Y-79036861D01*
X47206158Y-78445733D01*
X46980420Y-77899405D01*
X46562794Y-77481049D01*
X46016861Y-77254358D01*
X45425733Y-77253842D01*
X44879405Y-77479580D01*
X44461049Y-77897206D01*
X44234358Y-78443139D01*
X44233842Y-79034267D01*
X43268643Y-79034267D01*
X43269355Y-78219374D01*
X42869972Y-77252793D01*
X42577689Y-76960000D01*
X47501762Y-76960000D01*
X47529126Y-77026226D01*
X47939613Y-77437430D01*
X48476214Y-77660246D01*
X49057237Y-77660753D01*
X49594226Y-77438874D01*
X50005430Y-77028387D01*
X50101461Y-76797119D01*
X50196126Y-77026226D01*
X50606613Y-77437430D01*
X51143214Y-77660246D01*
X51724237Y-77660753D01*
X52261226Y-77438874D01*
X52672430Y-77028387D01*
X52700827Y-76960000D01*
X54270227Y-76960000D01*
X54371806Y-77205840D01*
X54419815Y-77253933D01*
X54315733Y-77253842D01*
X53769405Y-77479580D01*
X53351049Y-77897206D01*
X53124358Y-78443139D01*
X53123842Y-79034267D01*
X53349580Y-79580595D01*
X53767206Y-79998951D01*
X54313139Y-80225642D01*
X54904267Y-80226158D01*
X55450595Y-80000420D01*
X55868951Y-79582794D01*
X56002726Y-79260626D01*
X57060645Y-79260626D01*
X57460028Y-80227207D01*
X58198904Y-80967373D01*
X59164785Y-81368442D01*
X60210626Y-81369355D01*
X61177207Y-80969972D01*
X61917373Y-80231096D01*
X62318442Y-79265215D01*
X62318643Y-79034267D01*
X63283842Y-79034267D01*
X63509580Y-79580595D01*
X63927206Y-79998951D01*
X64473139Y-80225642D01*
X65064267Y-80226158D01*
X65610595Y-80000420D01*
X66028951Y-79582794D01*
X66255642Y-79036861D01*
X66256158Y-78445733D01*
X66030420Y-77899405D01*
X65612794Y-77481049D01*
X65066861Y-77254358D01*
X64475733Y-77253842D01*
X63929405Y-77479580D01*
X63511049Y-77897206D01*
X63284358Y-78443139D01*
X63283842Y-79034267D01*
X62318643Y-79034267D01*
X62319355Y-78219374D01*
X61919972Y-77252793D01*
X61181096Y-76512627D01*
X61124767Y-76489237D01*
X69024247Y-76489237D01*
X69246126Y-77026226D01*
X69656613Y-77437430D01*
X70193214Y-77660246D01*
X70774237Y-77660753D01*
X71311226Y-77438874D01*
X71722430Y-77028387D01*
X71750827Y-76960000D01*
X73320227Y-76960000D01*
X73421806Y-77205840D01*
X73469815Y-77253933D01*
X73365733Y-77253842D01*
X72819405Y-77479580D01*
X72401049Y-77897206D01*
X72174358Y-78443139D01*
X72173842Y-79034267D01*
X72399580Y-79580595D01*
X72817206Y-79998951D01*
X73363139Y-80225642D01*
X73954267Y-80226158D01*
X74500595Y-80000420D01*
X74918951Y-79582794D01*
X75052726Y-79260626D01*
X76110645Y-79260626D01*
X76510028Y-80227207D01*
X77248904Y-80967373D01*
X78214785Y-81368442D01*
X79260626Y-81369355D01*
X80227207Y-80969972D01*
X80967373Y-80231096D01*
X81368442Y-79265215D01*
X81368643Y-79034267D01*
X82333842Y-79034267D01*
X82559580Y-79580595D01*
X82977206Y-79998951D01*
X83523139Y-80225642D01*
X84114267Y-80226158D01*
X84660595Y-80000420D01*
X85078951Y-79582794D01*
X85305642Y-79036861D01*
X85306158Y-78445733D01*
X85080420Y-77899405D01*
X84662794Y-77481049D01*
X84116861Y-77254358D01*
X83525733Y-77253842D01*
X82979405Y-77479580D01*
X82561049Y-77897206D01*
X82334358Y-78443139D01*
X82333842Y-79034267D01*
X81368643Y-79034267D01*
X81369355Y-78219374D01*
X80969972Y-77252793D01*
X80231096Y-76512627D01*
X80174767Y-76489237D01*
X88074247Y-76489237D01*
X88296126Y-77026226D01*
X88706613Y-77437430D01*
X89243214Y-77660246D01*
X89824237Y-77660753D01*
X90361226Y-77438874D01*
X90772430Y-77028387D01*
X90800827Y-76960000D01*
X92370227Y-76960000D01*
X92471806Y-77205840D01*
X92519815Y-77253933D01*
X92415733Y-77253842D01*
X91869405Y-77479580D01*
X91451049Y-77897206D01*
X91224358Y-78443139D01*
X91223842Y-79034267D01*
X91449580Y-79580595D01*
X91867206Y-79998951D01*
X92413139Y-80225642D01*
X93004267Y-80226158D01*
X93550595Y-80000420D01*
X93968951Y-79582794D01*
X94102726Y-79260626D01*
X95160645Y-79260626D01*
X95560028Y-80227207D01*
X96298904Y-80967373D01*
X97264785Y-81368442D01*
X98310626Y-81369355D01*
X99277207Y-80969972D01*
X100017373Y-80231096D01*
X100418442Y-79265215D01*
X100418643Y-79034267D01*
X101383842Y-79034267D01*
X101609580Y-79580595D01*
X102027206Y-79998951D01*
X102573139Y-80225642D01*
X103164267Y-80226158D01*
X103710595Y-80000420D01*
X104128951Y-79582794D01*
X104355642Y-79036861D01*
X104356158Y-78445733D01*
X104130420Y-77899405D01*
X103712794Y-77481049D01*
X103166861Y-77254358D01*
X102575733Y-77253842D01*
X102029405Y-77479580D01*
X101611049Y-77897206D01*
X101384358Y-78443139D01*
X101383842Y-79034267D01*
X100418643Y-79034267D01*
X100419355Y-78219374D01*
X100019972Y-77252793D01*
X99281096Y-76512627D01*
X99224767Y-76489237D01*
X107124247Y-76489237D01*
X107346126Y-77026226D01*
X107756613Y-77437430D01*
X108293214Y-77660246D01*
X108874237Y-77660753D01*
X109411226Y-77438874D01*
X109822430Y-77028387D01*
X109850827Y-76960000D01*
X111420227Y-76960000D01*
X111521806Y-77205840D01*
X111569815Y-77253933D01*
X111465733Y-77253842D01*
X110919405Y-77479580D01*
X110501049Y-77897206D01*
X110274358Y-78443139D01*
X110273842Y-79034267D01*
X110499580Y-79580595D01*
X110917206Y-79998951D01*
X111463139Y-80225642D01*
X112054267Y-80226158D01*
X112600595Y-80000420D01*
X113018951Y-79582794D01*
X113152726Y-79260626D01*
X114210645Y-79260626D01*
X114610028Y-80227207D01*
X115348904Y-80967373D01*
X116314785Y-81368442D01*
X117360626Y-81369355D01*
X118327207Y-80969972D01*
X119067373Y-80231096D01*
X119468442Y-79265215D01*
X119468643Y-79034267D01*
X120433842Y-79034267D01*
X120659580Y-79580595D01*
X121077206Y-79998951D01*
X121623139Y-80225642D01*
X122214267Y-80226158D01*
X122760595Y-80000420D01*
X123178951Y-79582794D01*
X123405642Y-79036861D01*
X123406158Y-78445733D01*
X123180420Y-77899405D01*
X122762794Y-77481049D01*
X122216861Y-77254358D01*
X121625733Y-77253842D01*
X121079405Y-77479580D01*
X120661049Y-77897206D01*
X120434358Y-78443139D01*
X120433842Y-79034267D01*
X119468643Y-79034267D01*
X119469355Y-78219374D01*
X119069972Y-77252793D01*
X118331096Y-76512627D01*
X118274767Y-76489237D01*
X126174247Y-76489237D01*
X126396126Y-77026226D01*
X126806613Y-77437430D01*
X127343214Y-77660246D01*
X127924237Y-77660753D01*
X128461226Y-77438874D01*
X128872430Y-77028387D01*
X128900827Y-76960000D01*
X130470227Y-76960000D01*
X130571806Y-77205840D01*
X130619815Y-77253933D01*
X130515733Y-77253842D01*
X129969405Y-77479580D01*
X129551049Y-77897206D01*
X129324358Y-78443139D01*
X129323842Y-79034267D01*
X129549580Y-79580595D01*
X129967206Y-79998951D01*
X130513139Y-80225642D01*
X131104267Y-80226158D01*
X131650595Y-80000420D01*
X132068951Y-79582794D01*
X132202726Y-79260626D01*
X133260645Y-79260626D01*
X133660028Y-80227207D01*
X134398904Y-80967373D01*
X135364785Y-81368442D01*
X136410626Y-81369355D01*
X137377207Y-80969972D01*
X138117373Y-80231096D01*
X138518442Y-79265215D01*
X138519355Y-78219374D01*
X138119972Y-77252793D01*
X137381096Y-76512627D01*
X136415215Y-76111558D01*
X135369374Y-76110645D01*
X134402793Y-76510028D01*
X133662627Y-77248904D01*
X133261558Y-78214785D01*
X133260645Y-79260626D01*
X132202726Y-79260626D01*
X132295642Y-79036861D01*
X132296158Y-78445733D01*
X132102903Y-77978021D01*
X132432114Y-77978308D01*
X133085840Y-77708194D01*
X133586436Y-77208471D01*
X133857691Y-76555218D01*
X133858308Y-75847886D01*
X133588194Y-75194160D01*
X133088471Y-74693564D01*
X132435218Y-74422309D01*
X131727886Y-74421692D01*
X131074160Y-74691806D01*
X130573564Y-75191529D01*
X130470390Y-75440000D01*
X128901238Y-75440000D01*
X128873874Y-75373774D01*
X128463387Y-74962570D01*
X127926786Y-74739754D01*
X127345763Y-74739247D01*
X126808774Y-74961126D01*
X126397570Y-75371613D01*
X126174754Y-75908214D01*
X126174247Y-76489237D01*
X118274767Y-76489237D01*
X117365215Y-76111558D01*
X116319374Y-76110645D01*
X115352793Y-76510028D01*
X114612627Y-77248904D01*
X114211558Y-78214785D01*
X114210645Y-79260626D01*
X113152726Y-79260626D01*
X113245642Y-79036861D01*
X113246158Y-78445733D01*
X113052903Y-77978021D01*
X113382114Y-77978308D01*
X114035840Y-77708194D01*
X114536436Y-77208471D01*
X114807691Y-76555218D01*
X114808308Y-75847886D01*
X114538194Y-75194160D01*
X114038471Y-74693564D01*
X113385218Y-74422309D01*
X112677886Y-74421692D01*
X112024160Y-74691806D01*
X111523564Y-75191529D01*
X111420390Y-75440000D01*
X109851238Y-75440000D01*
X109823874Y-75373774D01*
X109413387Y-74962570D01*
X108876786Y-74739754D01*
X108295763Y-74739247D01*
X107758774Y-74961126D01*
X107347570Y-75371613D01*
X107124754Y-75908214D01*
X107124247Y-76489237D01*
X99224767Y-76489237D01*
X98315215Y-76111558D01*
X97269374Y-76110645D01*
X96302793Y-76510028D01*
X95562627Y-77248904D01*
X95161558Y-78214785D01*
X95160645Y-79260626D01*
X94102726Y-79260626D01*
X94195642Y-79036861D01*
X94196158Y-78445733D01*
X94002903Y-77978021D01*
X94332114Y-77978308D01*
X94985840Y-77708194D01*
X95486436Y-77208471D01*
X95757691Y-76555218D01*
X95758308Y-75847886D01*
X95488194Y-75194160D01*
X94988471Y-74693564D01*
X94335218Y-74422309D01*
X93627886Y-74421692D01*
X92974160Y-74691806D01*
X92473564Y-75191529D01*
X92370390Y-75440000D01*
X90801238Y-75440000D01*
X90773874Y-75373774D01*
X90363387Y-74962570D01*
X89826786Y-74739754D01*
X89245763Y-74739247D01*
X88708774Y-74961126D01*
X88297570Y-75371613D01*
X88074754Y-75908214D01*
X88074247Y-76489237D01*
X80174767Y-76489237D01*
X79265215Y-76111558D01*
X78219374Y-76110645D01*
X77252793Y-76510028D01*
X76512627Y-77248904D01*
X76111558Y-78214785D01*
X76110645Y-79260626D01*
X75052726Y-79260626D01*
X75145642Y-79036861D01*
X75146158Y-78445733D01*
X74952903Y-77978021D01*
X75282114Y-77978308D01*
X75935840Y-77708194D01*
X76436436Y-77208471D01*
X76707691Y-76555218D01*
X76708308Y-75847886D01*
X76438194Y-75194160D01*
X75938471Y-74693564D01*
X75285218Y-74422309D01*
X74577886Y-74421692D01*
X73924160Y-74691806D01*
X73423564Y-75191529D01*
X73320390Y-75440000D01*
X71751238Y-75440000D01*
X71723874Y-75373774D01*
X71313387Y-74962570D01*
X70776786Y-74739754D01*
X70195763Y-74739247D01*
X69658774Y-74961126D01*
X69247570Y-75371613D01*
X69024754Y-75908214D01*
X69024247Y-76489237D01*
X61124767Y-76489237D01*
X60215215Y-76111558D01*
X59169374Y-76110645D01*
X58202793Y-76510028D01*
X57462627Y-77248904D01*
X57061558Y-78214785D01*
X57060645Y-79260626D01*
X56002726Y-79260626D01*
X56095642Y-79036861D01*
X56096158Y-78445733D01*
X55902903Y-77978021D01*
X56232114Y-77978308D01*
X56885840Y-77708194D01*
X57386436Y-77208471D01*
X57657691Y-76555218D01*
X57658308Y-75847886D01*
X57388194Y-75194160D01*
X56888471Y-74693564D01*
X56235218Y-74422309D01*
X55527886Y-74421692D01*
X54874160Y-74691806D01*
X54373564Y-75191529D01*
X54270390Y-75440000D01*
X52701238Y-75440000D01*
X52673874Y-75373774D01*
X52263387Y-74962570D01*
X51726786Y-74739754D01*
X51145763Y-74739247D01*
X50608774Y-74961126D01*
X50197570Y-75371613D01*
X50101539Y-75602881D01*
X50006874Y-75373774D01*
X49596387Y-74962570D01*
X49059786Y-74739754D01*
X48478763Y-74739247D01*
X47941774Y-74961126D01*
X47530570Y-75371613D01*
X47502173Y-75440000D01*
X38439773Y-75440000D01*
X38338194Y-75194160D01*
X37838471Y-74693564D01*
X37185218Y-74422309D01*
X36477886Y-74421692D01*
X35824160Y-74691806D01*
X35635000Y-74880636D01*
X35635000Y-74012114D01*
X41401692Y-74012114D01*
X41671806Y-74665840D01*
X42171529Y-75166436D01*
X42824782Y-75437691D01*
X43532114Y-75438308D01*
X44185840Y-75168194D01*
X44686436Y-74668471D01*
X44957691Y-74015218D01*
X44957693Y-74012114D01*
X60451692Y-74012114D01*
X60721806Y-74665840D01*
X61221529Y-75166436D01*
X61874782Y-75437691D01*
X62582114Y-75438308D01*
X63235840Y-75168194D01*
X63736436Y-74668471D01*
X64007691Y-74015218D01*
X64007693Y-74012114D01*
X79501692Y-74012114D01*
X79771806Y-74665840D01*
X80271529Y-75166436D01*
X80924782Y-75437691D01*
X81632114Y-75438308D01*
X82285840Y-75168194D01*
X82786436Y-74668471D01*
X83057691Y-74015218D01*
X83057693Y-74012114D01*
X98551692Y-74012114D01*
X98821806Y-74665840D01*
X99321529Y-75166436D01*
X99974782Y-75437691D01*
X100682114Y-75438308D01*
X101335840Y-75168194D01*
X101836436Y-74668471D01*
X102107691Y-74015218D01*
X102107693Y-74012114D01*
X117601692Y-74012114D01*
X117871806Y-74665840D01*
X118371529Y-75166436D01*
X119024782Y-75437691D01*
X119732114Y-75438308D01*
X120385840Y-75168194D01*
X120886436Y-74668471D01*
X121157691Y-74015218D01*
X121157693Y-74012114D01*
X136651692Y-74012114D01*
X136921806Y-74665840D01*
X137421529Y-75166436D01*
X138074782Y-75437691D01*
X138782114Y-75438308D01*
X139435840Y-75168194D01*
X139936436Y-74668471D01*
X140207691Y-74015218D01*
X140208308Y-73307886D01*
X139938194Y-72654160D01*
X139438471Y-72153564D01*
X138785218Y-71882309D01*
X138077886Y-71881692D01*
X137424160Y-72151806D01*
X136923564Y-72651529D01*
X136652309Y-73304782D01*
X136651692Y-74012114D01*
X121157693Y-74012114D01*
X121158308Y-73307886D01*
X120888194Y-72654160D01*
X120388471Y-72153564D01*
X119735218Y-71882309D01*
X119027886Y-71881692D01*
X118374160Y-72151806D01*
X117873564Y-72651529D01*
X117602309Y-73304782D01*
X117601692Y-74012114D01*
X102107693Y-74012114D01*
X102108308Y-73307886D01*
X101838194Y-72654160D01*
X101338471Y-72153564D01*
X100685218Y-71882309D01*
X99977886Y-71881692D01*
X99324160Y-72151806D01*
X98823564Y-72651529D01*
X98552309Y-73304782D01*
X98551692Y-74012114D01*
X83057693Y-74012114D01*
X83058308Y-73307886D01*
X82788194Y-72654160D01*
X82288471Y-72153564D01*
X81635218Y-71882309D01*
X80927886Y-71881692D01*
X80274160Y-72151806D01*
X79773564Y-72651529D01*
X79502309Y-73304782D01*
X79501692Y-74012114D01*
X64007693Y-74012114D01*
X64008308Y-73307886D01*
X63738194Y-72654160D01*
X63238471Y-72153564D01*
X62585218Y-71882309D01*
X61877886Y-71881692D01*
X61224160Y-72151806D01*
X60723564Y-72651529D01*
X60452309Y-73304782D01*
X60451692Y-74012114D01*
X44957693Y-74012114D01*
X44958308Y-73307886D01*
X44688194Y-72654160D01*
X44188471Y-72153564D01*
X43535218Y-71882309D01*
X42827886Y-71881692D01*
X42174160Y-72151806D01*
X41673564Y-72651529D01*
X41402309Y-73304782D01*
X41401692Y-74012114D01*
X35635000Y-74012114D01*
X35635000Y-61175967D01*
X35854267Y-61176158D01*
X36400595Y-60950420D01*
X36818951Y-60532794D01*
X37045642Y-59986861D01*
X37046158Y-59395733D01*
X36852903Y-58928021D01*
X37182114Y-58928308D01*
X37835840Y-58658194D01*
X38336436Y-58158471D01*
X38439610Y-57910000D01*
X38702035Y-57910000D01*
X38412627Y-58198904D01*
X38011558Y-59164785D01*
X38010645Y-60210626D01*
X38410028Y-61177207D01*
X39148904Y-61917373D01*
X40114785Y-62318442D01*
X41160626Y-62319355D01*
X42127207Y-61919972D01*
X42867373Y-61181096D01*
X43268442Y-60215215D01*
X43268643Y-59984267D01*
X44233842Y-59984267D01*
X44459580Y-60530595D01*
X44877206Y-60948951D01*
X45423139Y-61175642D01*
X46014267Y-61176158D01*
X46560595Y-60950420D01*
X46978951Y-60532794D01*
X47205642Y-59986861D01*
X47206158Y-59395733D01*
X46980420Y-58849405D01*
X46562794Y-58431049D01*
X46016861Y-58204358D01*
X45425733Y-58203842D01*
X44879405Y-58429580D01*
X44461049Y-58847206D01*
X44234358Y-59393139D01*
X44233842Y-59984267D01*
X43268643Y-59984267D01*
X43269355Y-59169374D01*
X42869972Y-58202793D01*
X42577689Y-57910000D01*
X47650812Y-57910000D01*
X47783126Y-58230226D01*
X48193613Y-58641430D01*
X48730214Y-58864246D01*
X49311237Y-58864753D01*
X49848226Y-58642874D01*
X50259430Y-58232387D01*
X50482246Y-57695786D01*
X50482753Y-57114763D01*
X50260874Y-56577774D01*
X49850387Y-56166570D01*
X49313786Y-55943754D01*
X48732763Y-55943247D01*
X48195774Y-56165126D01*
X47970507Y-56390000D01*
X38439773Y-56390000D01*
X38338194Y-56144160D01*
X37838471Y-55643564D01*
X37185218Y-55372309D01*
X36477886Y-55371692D01*
X35824160Y-55641806D01*
X35635000Y-55830636D01*
X35635000Y-54962114D01*
X41401692Y-54962114D01*
X41671806Y-55615840D01*
X42171529Y-56116436D01*
X42824782Y-56387691D01*
X43532114Y-56388308D01*
X44185840Y-56118194D01*
X44686436Y-55618471D01*
X44957691Y-54965218D01*
X44958308Y-54257886D01*
X44688194Y-53604160D01*
X44188471Y-53103564D01*
X43535218Y-52832309D01*
X42827886Y-52831692D01*
X42174160Y-53101806D01*
X41673564Y-53601529D01*
X41402309Y-54254782D01*
X41401692Y-54962114D01*
X35635000Y-54962114D01*
X35635000Y-42125967D01*
X35854267Y-42126158D01*
X36070000Y-42037019D01*
X36070000Y-48775234D01*
X35877754Y-49238214D01*
X35877247Y-49819237D01*
X36099126Y-50356226D01*
X36509613Y-50767430D01*
X37046214Y-50990246D01*
X37627237Y-50990753D01*
X38164226Y-50768874D01*
X38575430Y-50358387D01*
X38798246Y-49821786D01*
X38798753Y-49240763D01*
X38576874Y-48703774D01*
X38166387Y-48292570D01*
X37629786Y-48069754D01*
X37590000Y-48069719D01*
X37590000Y-41160626D01*
X38010645Y-41160626D01*
X38410028Y-42127207D01*
X39148904Y-42867373D01*
X40114785Y-43268442D01*
X41160626Y-43269355D01*
X42127207Y-42869972D01*
X42867373Y-42131096D01*
X43268442Y-41165215D01*
X43268643Y-40934267D01*
X44233842Y-40934267D01*
X44459580Y-41480595D01*
X44877206Y-41898951D01*
X45423139Y-42125642D01*
X46014267Y-42126158D01*
X46560595Y-41900420D01*
X46978951Y-41482794D01*
X47205642Y-40936861D01*
X47206158Y-40345733D01*
X46980420Y-39799405D01*
X46562794Y-39381049D01*
X46016861Y-39154358D01*
X45425733Y-39153842D01*
X44879405Y-39379580D01*
X44461049Y-39797206D01*
X44234358Y-40343139D01*
X44233842Y-40934267D01*
X43268643Y-40934267D01*
X43269355Y-40119374D01*
X42869972Y-39152793D01*
X42131096Y-38412627D01*
X41165215Y-38011558D01*
X40119374Y-38010645D01*
X39152793Y-38410028D01*
X38412627Y-39148904D01*
X38011558Y-40114785D01*
X38010645Y-41160626D01*
X37590000Y-41160626D01*
X37590000Y-39709773D01*
X37835840Y-39608194D01*
X38336436Y-39108471D01*
X38607691Y-38455218D01*
X38608308Y-37747886D01*
X38338194Y-37094160D01*
X37838471Y-36593564D01*
X37185218Y-36322309D01*
X36477886Y-36321692D01*
X35824160Y-36591806D01*
X35635000Y-36780636D01*
X35635000Y-35052000D01*
X41465750Y-35052000D01*
X41402309Y-35204782D01*
M02*
