G04 #@! TF.FileFunction,Soldermask,Top*
%FSLAX46Y46*%
G04 Gerber Fmt 4.6, Leading zero omitted, Abs format (unit mm)*
G04 Created by KiCad (PCBNEW 4.0.2-stable) date 5/31/2016 6:33:24 PM*
%MOMM*%
G01*
G04 APERTURE LIST*
%ADD10C,0.100000*%
%ADD11R,2.152600X2.152600*%
%ADD12C,2.152600*%
%ADD13C,2.686000*%
%ADD14C,2.051000*%
%ADD15R,2.051000X2.051000*%
%ADD16O,2.457400X2.152600*%
%ADD17C,1.390600*%
G04 APERTURE END LIST*
D10*
D11*
X52070000Y-34290000D03*
D12*
X52070000Y-36830000D03*
X52070000Y-39370000D03*
X52070000Y-41910000D03*
X52070000Y-44450000D03*
X52070000Y-46990000D03*
X52070000Y-49530000D03*
X52070000Y-52070000D03*
X52070000Y-54610000D03*
X52070000Y-57150000D03*
X52070000Y-59690000D03*
X52070000Y-62230000D03*
X67310000Y-62230000D03*
X67310000Y-59690000D03*
X67310000Y-57150000D03*
X67310000Y-54610000D03*
X67310000Y-52070000D03*
X67310000Y-49530000D03*
X67310000Y-46990000D03*
X67310000Y-39370000D03*
X67310000Y-36830000D03*
X67310000Y-34290000D03*
X67310000Y-44450000D03*
X67310000Y-41910000D03*
D13*
X62230000Y-35560000D03*
X55880000Y-38100000D03*
D14*
X36830000Y-45720000D03*
D15*
X44450000Y-45720000D03*
D14*
X36830000Y-64770000D03*
D15*
X44450000Y-64770000D03*
D14*
X36830000Y-83820000D03*
D15*
X44450000Y-83820000D03*
D14*
X36830000Y-102870000D03*
D15*
X44450000Y-102870000D03*
D14*
X48895000Y-38100000D03*
D15*
X48895000Y-45720000D03*
D14*
X55880000Y-66675000D03*
D15*
X63500000Y-66675000D03*
D14*
X51435000Y-76200000D03*
D15*
X51435000Y-83820000D03*
D14*
X51435000Y-95250000D03*
D15*
X51435000Y-102870000D03*
D14*
X70485000Y-38100000D03*
D15*
X70485000Y-45720000D03*
D14*
X70485000Y-57150000D03*
D15*
X70485000Y-64770000D03*
D14*
X70485000Y-76200000D03*
D15*
X70485000Y-83820000D03*
D14*
X70485000Y-95250000D03*
D15*
X70485000Y-102870000D03*
D14*
X89535000Y-38100000D03*
D15*
X89535000Y-45720000D03*
D14*
X89535000Y-57150000D03*
D15*
X89535000Y-64770000D03*
D14*
X89535000Y-76200000D03*
D15*
X89535000Y-83820000D03*
D14*
X89535000Y-95250000D03*
D15*
X89535000Y-102870000D03*
D14*
X108585000Y-38100000D03*
D15*
X108585000Y-45720000D03*
D14*
X108585000Y-57150000D03*
D15*
X108585000Y-64770000D03*
D14*
X108585000Y-76200000D03*
D15*
X108585000Y-83820000D03*
D14*
X108585000Y-95250000D03*
D15*
X108585000Y-102870000D03*
D14*
X132080000Y-45085000D03*
D15*
X124460000Y-45085000D03*
D14*
X127635000Y-57150000D03*
D15*
X127635000Y-64770000D03*
D14*
X127635000Y-76200000D03*
D15*
X127635000Y-83820000D03*
D14*
X127635000Y-95250000D03*
D15*
X127635000Y-102870000D03*
D13*
X43180000Y-35560000D03*
X36830000Y-38100000D03*
X43180000Y-54610000D03*
X36830000Y-57150000D03*
X43180000Y-73660000D03*
X36830000Y-76200000D03*
X43180000Y-92710000D03*
X36830000Y-95250000D03*
X62230000Y-54610000D03*
X55880000Y-57150000D03*
X62230000Y-73660000D03*
X55880000Y-76200000D03*
X62230000Y-92710000D03*
X55880000Y-95250000D03*
X81280000Y-35560000D03*
X74930000Y-38100000D03*
X81280000Y-54610000D03*
X74930000Y-57150000D03*
X81280000Y-73660000D03*
X74930000Y-76200000D03*
X81280000Y-92710000D03*
X74930000Y-95250000D03*
X100330000Y-35560000D03*
X93980000Y-38100000D03*
X100330000Y-54610000D03*
X93980000Y-57150000D03*
X100330000Y-73660000D03*
X93980000Y-76200000D03*
X100330000Y-92710000D03*
X93980000Y-95250000D03*
X119380000Y-35560000D03*
X113030000Y-38100000D03*
X119380000Y-54610000D03*
X113030000Y-57150000D03*
X119380000Y-73660000D03*
X113030000Y-76200000D03*
X119380000Y-92710000D03*
X113030000Y-95250000D03*
X138430000Y-35560000D03*
X132080000Y-38100000D03*
X138430000Y-54610000D03*
X132080000Y-57150000D03*
X138430000Y-73660000D03*
X132080000Y-76200000D03*
X138430000Y-92710000D03*
X132080000Y-95250000D03*
D16*
X121081800Y-33375600D03*
D12*
X129336800Y-38379400D03*
X124129800Y-41478200D03*
D16*
X130378200Y-33375600D03*
D12*
X127330200Y-41478200D03*
X122123200Y-38379400D03*
D17*
X125730000Y-33375600D03*
X125730000Y-38379400D03*
M02*
