G04 #@! TF.FileFunction,Legend,Bot*
%FSLAX46Y46*%
G04 Gerber Fmt 4.6, Leading zero omitted, Abs format (unit mm)*
G04 Created by KiCad (PCBNEW 4.0.2-stable) date 11/23/2016 1:41:37 PM*
%MOMM*%
G01*
G04 APERTURE LIST*
%ADD10C,0.100000*%
%ADD11C,0.300000*%
%ADD12C,0.150000*%
%ADD13C,0.203200*%
%ADD14C,0.381000*%
%ADD15C,0.304800*%
G04 APERTURE END LIST*
D10*
D11*
X114328429Y-86864143D02*
X114328429Y-83864143D01*
X113614144Y-83864143D01*
X113185572Y-84007000D01*
X112899858Y-84292714D01*
X112757001Y-84578429D01*
X112614144Y-85149857D01*
X112614144Y-85578429D01*
X112757001Y-86149857D01*
X112899858Y-86435571D01*
X113185572Y-86721286D01*
X113614144Y-86864143D01*
X114328429Y-86864143D01*
X110185572Y-86721286D02*
X110471286Y-86864143D01*
X111042715Y-86864143D01*
X111328429Y-86721286D01*
X111471286Y-86435571D01*
X111471286Y-85292714D01*
X111328429Y-85007000D01*
X111042715Y-84864143D01*
X110471286Y-84864143D01*
X110185572Y-85007000D01*
X110042715Y-85292714D01*
X110042715Y-85578429D01*
X111471286Y-85864143D01*
X108899857Y-86721286D02*
X108614143Y-86864143D01*
X108042715Y-86864143D01*
X107757000Y-86721286D01*
X107614143Y-86435571D01*
X107614143Y-86292714D01*
X107757000Y-86007000D01*
X108042715Y-85864143D01*
X108471286Y-85864143D01*
X108757000Y-85721286D01*
X108899857Y-85435571D01*
X108899857Y-85292714D01*
X108757000Y-85007000D01*
X108471286Y-84864143D01*
X108042715Y-84864143D01*
X107757000Y-85007000D01*
X106328429Y-86864143D02*
X106328429Y-84864143D01*
X106328429Y-83864143D02*
X106471286Y-84007000D01*
X106328429Y-84149857D01*
X106185572Y-84007000D01*
X106328429Y-83864143D01*
X106328429Y-84149857D01*
X103614144Y-84864143D02*
X103614144Y-87292714D01*
X103757001Y-87578429D01*
X103899858Y-87721286D01*
X104185573Y-87864143D01*
X104614144Y-87864143D01*
X104899858Y-87721286D01*
X103614144Y-86721286D02*
X103899858Y-86864143D01*
X104471287Y-86864143D01*
X104757001Y-86721286D01*
X104899858Y-86578429D01*
X105042715Y-86292714D01*
X105042715Y-85435571D01*
X104899858Y-85149857D01*
X104757001Y-85007000D01*
X104471287Y-84864143D01*
X103899858Y-84864143D01*
X103614144Y-85007000D01*
X102185572Y-84864143D02*
X102185572Y-86864143D01*
X102185572Y-85149857D02*
X102042715Y-85007000D01*
X101757001Y-84864143D01*
X101328429Y-84864143D01*
X101042715Y-85007000D01*
X100899858Y-85292714D01*
X100899858Y-86864143D01*
X98328429Y-86721286D02*
X98614143Y-86864143D01*
X99185572Y-86864143D01*
X99471286Y-86721286D01*
X99614143Y-86435571D01*
X99614143Y-85292714D01*
X99471286Y-85007000D01*
X99185572Y-84864143D01*
X98614143Y-84864143D01*
X98328429Y-85007000D01*
X98185572Y-85292714D01*
X98185572Y-85578429D01*
X99614143Y-85864143D01*
X95614143Y-86864143D02*
X95614143Y-83864143D01*
X95614143Y-86721286D02*
X95899857Y-86864143D01*
X96471286Y-86864143D01*
X96757000Y-86721286D01*
X96899857Y-86578429D01*
X97042714Y-86292714D01*
X97042714Y-85435571D01*
X96899857Y-85149857D01*
X96757000Y-85007000D01*
X96471286Y-84864143D01*
X95899857Y-84864143D01*
X95614143Y-85007000D01*
X91899857Y-86864143D02*
X91899857Y-83864143D01*
X91899857Y-85007000D02*
X91614143Y-84864143D01*
X91042714Y-84864143D01*
X90757000Y-85007000D01*
X90614143Y-85149857D01*
X90471286Y-85435571D01*
X90471286Y-86292714D01*
X90614143Y-86578429D01*
X90757000Y-86721286D01*
X91042714Y-86864143D01*
X91614143Y-86864143D01*
X91899857Y-86721286D01*
X89471286Y-84864143D02*
X88757000Y-86864143D01*
X88042714Y-84864143D02*
X88757000Y-86864143D01*
X89042714Y-87578429D01*
X89185571Y-87721286D01*
X89471286Y-87864143D01*
X84899858Y-83864143D02*
X84185572Y-86864143D01*
X83614143Y-84721286D01*
X83042715Y-86864143D01*
X82328429Y-83864143D01*
X80757001Y-86864143D02*
X81042715Y-86721286D01*
X81185572Y-86578429D01*
X81328429Y-86292714D01*
X81328429Y-85435571D01*
X81185572Y-85149857D01*
X81042715Y-85007000D01*
X80757001Y-84864143D01*
X80328429Y-84864143D01*
X80042715Y-85007000D01*
X79899858Y-85149857D01*
X79757001Y-85435571D01*
X79757001Y-86292714D01*
X79899858Y-86578429D01*
X80042715Y-86721286D01*
X80328429Y-86864143D01*
X80757001Y-86864143D01*
X78042715Y-86864143D02*
X78328429Y-86721286D01*
X78471286Y-86578429D01*
X78614143Y-86292714D01*
X78614143Y-85435571D01*
X78471286Y-85149857D01*
X78328429Y-85007000D01*
X78042715Y-84864143D01*
X77614143Y-84864143D01*
X77328429Y-85007000D01*
X77185572Y-85149857D01*
X77042715Y-85435571D01*
X77042715Y-86292714D01*
X77185572Y-86578429D01*
X77328429Y-86721286D01*
X77614143Y-86864143D01*
X78042715Y-86864143D01*
X76185572Y-84864143D02*
X75042715Y-84864143D01*
X75757000Y-83864143D02*
X75757000Y-86435571D01*
X75614143Y-86721286D01*
X75328429Y-86864143D01*
X75042715Y-86864143D01*
X74042714Y-84864143D02*
X74042714Y-87864143D01*
X74042714Y-85007000D02*
X73757000Y-84864143D01*
X73185571Y-84864143D01*
X72899857Y-85007000D01*
X72757000Y-85149857D01*
X72614143Y-85435571D01*
X72614143Y-86292714D01*
X72757000Y-86578429D01*
X72899857Y-86721286D01*
X73185571Y-86864143D01*
X73757000Y-86864143D01*
X74042714Y-86721286D01*
X70042714Y-86864143D02*
X70042714Y-85292714D01*
X70185571Y-85007000D01*
X70471285Y-84864143D01*
X71042714Y-84864143D01*
X71328428Y-85007000D01*
X70042714Y-86721286D02*
X70328428Y-86864143D01*
X71042714Y-86864143D01*
X71328428Y-86721286D01*
X71471285Y-86435571D01*
X71471285Y-86149857D01*
X71328428Y-85864143D01*
X71042714Y-85721286D01*
X70328428Y-85721286D01*
X70042714Y-85578429D01*
X69042714Y-84864143D02*
X67899857Y-84864143D01*
X68614142Y-83864143D02*
X68614142Y-86435571D01*
X68471285Y-86721286D01*
X68185571Y-86864143D01*
X67899857Y-86864143D01*
X66471285Y-86864143D02*
X66756999Y-86721286D01*
X66899856Y-86578429D01*
X67042713Y-86292714D01*
X67042713Y-85435571D01*
X66899856Y-85149857D01*
X66756999Y-85007000D01*
X66471285Y-84864143D01*
X66042713Y-84864143D01*
X65756999Y-85007000D01*
X65614142Y-85149857D01*
X65471285Y-85435571D01*
X65471285Y-86292714D01*
X65614142Y-86578429D01*
X65756999Y-86721286D01*
X66042713Y-86864143D01*
X66471285Y-86864143D01*
X63756999Y-86864143D02*
X64042713Y-86721286D01*
X64185570Y-86578429D01*
X64328427Y-86292714D01*
X64328427Y-85435571D01*
X64185570Y-85149857D01*
X64042713Y-85007000D01*
X63756999Y-84864143D01*
X63328427Y-84864143D01*
X63042713Y-85007000D01*
X62899856Y-85149857D01*
X62756999Y-85435571D01*
X62756999Y-86292714D01*
X62899856Y-86578429D01*
X63042713Y-86721286D01*
X63328427Y-86864143D01*
X63756999Y-86864143D01*
X61899856Y-84864143D02*
X60756999Y-84864143D01*
X61471284Y-83864143D02*
X61471284Y-86435571D01*
X61328427Y-86721286D01*
X61042713Y-86864143D01*
X60756999Y-86864143D01*
X115114145Y-89364143D02*
X113971288Y-89364143D01*
X114685573Y-91364143D02*
X114685573Y-88792714D01*
X114542716Y-88507000D01*
X114257002Y-88364143D01*
X113971288Y-88364143D01*
X112542716Y-91364143D02*
X112828430Y-91221286D01*
X112971287Y-91078429D01*
X113114144Y-90792714D01*
X113114144Y-89935571D01*
X112971287Y-89649857D01*
X112828430Y-89507000D01*
X112542716Y-89364143D01*
X112114144Y-89364143D01*
X111828430Y-89507000D01*
X111685573Y-89649857D01*
X111542716Y-89935571D01*
X111542716Y-90792714D01*
X111685573Y-91078429D01*
X111828430Y-91221286D01*
X112114144Y-91364143D01*
X112542716Y-91364143D01*
X110257001Y-91364143D02*
X110257001Y-89364143D01*
X110257001Y-89935571D02*
X110114144Y-89649857D01*
X109971287Y-89507000D01*
X109685573Y-89364143D01*
X109399858Y-89364143D01*
X104828430Y-91364143D02*
X104828430Y-89792714D01*
X104971287Y-89507000D01*
X105257001Y-89364143D01*
X105828430Y-89364143D01*
X106114144Y-89507000D01*
X104828430Y-91221286D02*
X105114144Y-91364143D01*
X105828430Y-91364143D01*
X106114144Y-91221286D01*
X106257001Y-90935571D01*
X106257001Y-90649857D01*
X106114144Y-90364143D01*
X105828430Y-90221286D01*
X105114144Y-90221286D01*
X104828430Y-90078429D01*
X102971287Y-91364143D02*
X103257001Y-91221286D01*
X103399858Y-90935571D01*
X103399858Y-88364143D01*
X101399858Y-91364143D02*
X101685572Y-91221286D01*
X101828429Y-90935571D01*
X101828429Y-88364143D01*
X98399858Y-89364143D02*
X97257001Y-89364143D01*
X97971286Y-88364143D02*
X97971286Y-90935571D01*
X97828429Y-91221286D01*
X97542715Y-91364143D01*
X97257001Y-91364143D01*
X96257000Y-91364143D02*
X96257000Y-88364143D01*
X94971286Y-91364143D02*
X94971286Y-89792714D01*
X95114143Y-89507000D01*
X95399857Y-89364143D01*
X95828429Y-89364143D01*
X96114143Y-89507000D01*
X96257000Y-89649857D01*
X92399857Y-91221286D02*
X92685571Y-91364143D01*
X93257000Y-91364143D01*
X93542714Y-91221286D01*
X93685571Y-90935571D01*
X93685571Y-89792714D01*
X93542714Y-89507000D01*
X93257000Y-89364143D01*
X92685571Y-89364143D01*
X92399857Y-89507000D01*
X92257000Y-89792714D01*
X92257000Y-90078429D01*
X93685571Y-90364143D01*
X87399857Y-91221286D02*
X87685571Y-91364143D01*
X88257000Y-91364143D01*
X88542714Y-91221286D01*
X88685571Y-91078429D01*
X88828428Y-90792714D01*
X88828428Y-89935571D01*
X88685571Y-89649857D01*
X88542714Y-89507000D01*
X88257000Y-89364143D01*
X87685571Y-89364143D01*
X87399857Y-89507000D01*
X86114142Y-91364143D02*
X86114142Y-88364143D01*
X84828428Y-91364143D02*
X84828428Y-89792714D01*
X84971285Y-89507000D01*
X85256999Y-89364143D01*
X85685571Y-89364143D01*
X85971285Y-89507000D01*
X86114142Y-89649857D01*
X82256999Y-91221286D02*
X82542713Y-91364143D01*
X83114142Y-91364143D01*
X83399856Y-91221286D01*
X83542713Y-90935571D01*
X83542713Y-89792714D01*
X83399856Y-89507000D01*
X83114142Y-89364143D01*
X82542713Y-89364143D01*
X82256999Y-89507000D01*
X82114142Y-89792714D01*
X82114142Y-90078429D01*
X83542713Y-90364143D01*
X79542713Y-91364143D02*
X79542713Y-89792714D01*
X79685570Y-89507000D01*
X79971284Y-89364143D01*
X80542713Y-89364143D01*
X80828427Y-89507000D01*
X79542713Y-91221286D02*
X79828427Y-91364143D01*
X80542713Y-91364143D01*
X80828427Y-91221286D01*
X80971284Y-90935571D01*
X80971284Y-90649857D01*
X80828427Y-90364143D01*
X80542713Y-90221286D01*
X79828427Y-90221286D01*
X79542713Y-90078429D01*
X78114141Y-89364143D02*
X78114141Y-92364143D01*
X78114141Y-89507000D02*
X77828427Y-89364143D01*
X77256998Y-89364143D01*
X76971284Y-89507000D01*
X76828427Y-89649857D01*
X76685570Y-89935571D01*
X76685570Y-90792714D01*
X76828427Y-91078429D01*
X76971284Y-91221286D01*
X77256998Y-91364143D01*
X77828427Y-91364143D01*
X78114141Y-91221286D01*
X73114141Y-91364143D02*
X73114141Y-89364143D01*
X73114141Y-89649857D02*
X72971284Y-89507000D01*
X72685570Y-89364143D01*
X72256998Y-89364143D01*
X71971284Y-89507000D01*
X71828427Y-89792714D01*
X71828427Y-91364143D01*
X71828427Y-89792714D02*
X71685570Y-89507000D01*
X71399856Y-89364143D01*
X70971284Y-89364143D01*
X70685570Y-89507000D01*
X70542713Y-89792714D01*
X70542713Y-91364143D01*
X67828427Y-91364143D02*
X67828427Y-89792714D01*
X67971284Y-89507000D01*
X68256998Y-89364143D01*
X68828427Y-89364143D01*
X69114141Y-89507000D01*
X67828427Y-91221286D02*
X68114141Y-91364143D01*
X68828427Y-91364143D01*
X69114141Y-91221286D01*
X69256998Y-90935571D01*
X69256998Y-90649857D01*
X69114141Y-90364143D01*
X68828427Y-90221286D01*
X68114141Y-90221286D01*
X67828427Y-90078429D01*
X66399855Y-91364143D02*
X66399855Y-88364143D01*
X66114141Y-90221286D02*
X65256998Y-91364143D01*
X65256998Y-89364143D02*
X66399855Y-90507000D01*
X62828427Y-91221286D02*
X63114141Y-91364143D01*
X63685570Y-91364143D01*
X63971284Y-91221286D01*
X64114141Y-90935571D01*
X64114141Y-89792714D01*
X63971284Y-89507000D01*
X63685570Y-89364143D01*
X63114141Y-89364143D01*
X62828427Y-89507000D01*
X62685570Y-89792714D01*
X62685570Y-90078429D01*
X64114141Y-90364143D01*
X61399855Y-91364143D02*
X61399855Y-89364143D01*
X61399855Y-89935571D02*
X61256998Y-89649857D01*
X61114141Y-89507000D01*
X60828427Y-89364143D01*
X60542712Y-89364143D01*
X59685569Y-91221286D02*
X59399855Y-91364143D01*
X58828427Y-91364143D01*
X58542712Y-91221286D01*
X58399855Y-90935571D01*
X58399855Y-90792714D01*
X58542712Y-90507000D01*
X58828427Y-90364143D01*
X59256998Y-90364143D01*
X59542712Y-90221286D01*
X59685569Y-89935571D01*
X59685569Y-89792714D01*
X59542712Y-89507000D01*
X59256998Y-89364143D01*
X58828427Y-89364143D01*
X58542712Y-89507000D01*
X54666571Y-42224429D02*
X54666571Y-41367286D01*
X54666571Y-41795858D02*
X53166571Y-41795858D01*
X53380857Y-41653001D01*
X53523714Y-41510143D01*
X53595143Y-41367286D01*
X54523714Y-42867286D02*
X54595143Y-42938714D01*
X54666571Y-42867286D01*
X54595143Y-42795857D01*
X54523714Y-42867286D01*
X54666571Y-42867286D01*
X54666571Y-44724429D02*
X53166571Y-44724429D01*
X54666571Y-45367286D02*
X53880857Y-45367286D01*
X53738000Y-45295857D01*
X53666571Y-45153000D01*
X53666571Y-44938715D01*
X53738000Y-44795857D01*
X53809429Y-44724429D01*
X54595143Y-46653000D02*
X54666571Y-46510143D01*
X54666571Y-46224429D01*
X54595143Y-46081572D01*
X54452286Y-46010143D01*
X53880857Y-46010143D01*
X53738000Y-46081572D01*
X53666571Y-46224429D01*
X53666571Y-46510143D01*
X53738000Y-46653000D01*
X53880857Y-46724429D01*
X54023714Y-46724429D01*
X54166571Y-46010143D01*
X54666571Y-48010143D02*
X53880857Y-48010143D01*
X53738000Y-47938714D01*
X53666571Y-47795857D01*
X53666571Y-47510143D01*
X53738000Y-47367286D01*
X54595143Y-48010143D02*
X54666571Y-47867286D01*
X54666571Y-47510143D01*
X54595143Y-47367286D01*
X54452286Y-47295857D01*
X54309429Y-47295857D01*
X54166571Y-47367286D01*
X54095143Y-47510143D01*
X54095143Y-47867286D01*
X54023714Y-48010143D01*
X54666571Y-49367286D02*
X53166571Y-49367286D01*
X54595143Y-49367286D02*
X54666571Y-49224429D01*
X54666571Y-48938715D01*
X54595143Y-48795857D01*
X54523714Y-48724429D01*
X54380857Y-48653000D01*
X53952286Y-48653000D01*
X53809429Y-48724429D01*
X53738000Y-48795857D01*
X53666571Y-48938715D01*
X53666571Y-49224429D01*
X53738000Y-49367286D01*
X54595143Y-50653000D02*
X54666571Y-50510143D01*
X54666571Y-50224429D01*
X54595143Y-50081572D01*
X54452286Y-50010143D01*
X53880857Y-50010143D01*
X53738000Y-50081572D01*
X53666571Y-50224429D01*
X53666571Y-50510143D01*
X53738000Y-50653000D01*
X53880857Y-50724429D01*
X54023714Y-50724429D01*
X54166571Y-50010143D01*
X54666571Y-51367286D02*
X53666571Y-51367286D01*
X53952286Y-51367286D02*
X53809429Y-51438714D01*
X53738000Y-51510143D01*
X53666571Y-51653000D01*
X53666571Y-51795857D01*
X53666571Y-53438714D02*
X55166571Y-53438714D01*
X53738000Y-53438714D02*
X53666571Y-53581571D01*
X53666571Y-53867285D01*
X53738000Y-54010142D01*
X53809429Y-54081571D01*
X53952286Y-54153000D01*
X54380857Y-54153000D01*
X54523714Y-54081571D01*
X54595143Y-54010142D01*
X54666571Y-53867285D01*
X54666571Y-53581571D01*
X54595143Y-53438714D01*
X54666571Y-54795857D02*
X53666571Y-54795857D01*
X53166571Y-54795857D02*
X53238000Y-54724428D01*
X53309429Y-54795857D01*
X53238000Y-54867285D01*
X53166571Y-54795857D01*
X53309429Y-54795857D01*
X53666571Y-55510143D02*
X54666571Y-55510143D01*
X53809429Y-55510143D02*
X53738000Y-55581571D01*
X53666571Y-55724429D01*
X53666571Y-55938714D01*
X53738000Y-56081571D01*
X53880857Y-56153000D01*
X54666571Y-56153000D01*
X54595143Y-56795857D02*
X54666571Y-56938714D01*
X54666571Y-57224429D01*
X54595143Y-57367286D01*
X54452286Y-57438714D01*
X54380857Y-57438714D01*
X54238000Y-57367286D01*
X54166571Y-57224429D01*
X54166571Y-57010143D01*
X54095143Y-56867286D01*
X53952286Y-56795857D01*
X53880857Y-56795857D01*
X53738000Y-56867286D01*
X53666571Y-57010143D01*
X53666571Y-57224429D01*
X53738000Y-57367286D01*
X55709429Y-43295857D02*
X55638000Y-43367286D01*
X55566571Y-43510143D01*
X55566571Y-43867286D01*
X55638000Y-44010143D01*
X55709429Y-44081572D01*
X55852286Y-44153000D01*
X55995143Y-44153000D01*
X56209429Y-44081572D01*
X57066571Y-43224429D01*
X57066571Y-44153000D01*
X56923714Y-44795857D02*
X56995143Y-44867285D01*
X57066571Y-44795857D01*
X56995143Y-44724428D01*
X56923714Y-44795857D01*
X57066571Y-44795857D01*
X56995143Y-46581571D02*
X57066571Y-46724428D01*
X57066571Y-47010143D01*
X56995143Y-47153000D01*
X56852286Y-47224428D01*
X56780857Y-47224428D01*
X56638000Y-47153000D01*
X56566571Y-47010143D01*
X56566571Y-46795857D01*
X56495143Y-46653000D01*
X56352286Y-46581571D01*
X56280857Y-46581571D01*
X56138000Y-46653000D01*
X56066571Y-46795857D01*
X56066571Y-47010143D01*
X56138000Y-47153000D01*
X56066571Y-47724429D02*
X57066571Y-48010143D01*
X56352286Y-48295857D01*
X57066571Y-48581572D01*
X56066571Y-48867286D01*
X57066571Y-49438715D02*
X56066571Y-49438715D01*
X55566571Y-49438715D02*
X55638000Y-49367286D01*
X55709429Y-49438715D01*
X55638000Y-49510143D01*
X55566571Y-49438715D01*
X55709429Y-49438715D01*
X56066571Y-49938715D02*
X56066571Y-50510144D01*
X55566571Y-50153001D02*
X56852286Y-50153001D01*
X56995143Y-50224429D01*
X57066571Y-50367287D01*
X57066571Y-50510144D01*
X56995143Y-51653001D02*
X57066571Y-51510144D01*
X57066571Y-51224430D01*
X56995143Y-51081572D01*
X56923714Y-51010144D01*
X56780857Y-50938715D01*
X56352286Y-50938715D01*
X56209429Y-51010144D01*
X56138000Y-51081572D01*
X56066571Y-51224430D01*
X56066571Y-51510144D01*
X56138000Y-51653001D01*
X57066571Y-52295858D02*
X55566571Y-52295858D01*
X57066571Y-52938715D02*
X56280857Y-52938715D01*
X56138000Y-52867286D01*
X56066571Y-52724429D01*
X56066571Y-52510144D01*
X56138000Y-52367286D01*
X56209429Y-52295858D01*
X56995143Y-54224429D02*
X57066571Y-54081572D01*
X57066571Y-53795858D01*
X56995143Y-53653001D01*
X56852286Y-53581572D01*
X56280857Y-53581572D01*
X56138000Y-53653001D01*
X56066571Y-53795858D01*
X56066571Y-54081572D01*
X56138000Y-54224429D01*
X56280857Y-54295858D01*
X56423714Y-54295858D01*
X56566571Y-53581572D01*
X56995143Y-54867286D02*
X57066571Y-55010143D01*
X57066571Y-55295858D01*
X56995143Y-55438715D01*
X56852286Y-55510143D01*
X56780857Y-55510143D01*
X56638000Y-55438715D01*
X56566571Y-55295858D01*
X56566571Y-55081572D01*
X56495143Y-54938715D01*
X56352286Y-54867286D01*
X56280857Y-54867286D01*
X56138000Y-54938715D01*
X56066571Y-55081572D01*
X56066571Y-55295858D01*
X56138000Y-55438715D01*
X57966571Y-43010144D02*
X57966571Y-43938715D01*
X58538000Y-43438715D01*
X58538000Y-43653001D01*
X58609429Y-43795858D01*
X58680857Y-43867287D01*
X58823714Y-43938715D01*
X59180857Y-43938715D01*
X59323714Y-43867287D01*
X59395143Y-43795858D01*
X59466571Y-43653001D01*
X59466571Y-43224429D01*
X59395143Y-43081572D01*
X59323714Y-43010144D01*
X59323714Y-44581572D02*
X59395143Y-44653000D01*
X59466571Y-44581572D01*
X59395143Y-44510143D01*
X59323714Y-44581572D01*
X59466571Y-44581572D01*
X58466571Y-45295858D02*
X59966571Y-45295858D01*
X58538000Y-45295858D02*
X58466571Y-45438715D01*
X58466571Y-45724429D01*
X58538000Y-45867286D01*
X58609429Y-45938715D01*
X58752286Y-46010144D01*
X59180857Y-46010144D01*
X59323714Y-45938715D01*
X59395143Y-45867286D01*
X59466571Y-45724429D01*
X59466571Y-45438715D01*
X59395143Y-45295858D01*
X59466571Y-46653001D02*
X58466571Y-46653001D01*
X58752286Y-46653001D02*
X58609429Y-46724429D01*
X58538000Y-46795858D01*
X58466571Y-46938715D01*
X58466571Y-47081572D01*
X59466571Y-47795858D02*
X59395143Y-47653000D01*
X59323714Y-47581572D01*
X59180857Y-47510143D01*
X58752286Y-47510143D01*
X58609429Y-47581572D01*
X58538000Y-47653000D01*
X58466571Y-47795858D01*
X58466571Y-48010143D01*
X58538000Y-48153000D01*
X58609429Y-48224429D01*
X58752286Y-48295858D01*
X59180857Y-48295858D01*
X59323714Y-48224429D01*
X59395143Y-48153000D01*
X59466571Y-48010143D01*
X59466571Y-47795858D01*
X59466571Y-50081572D02*
X58466571Y-50081572D01*
X58609429Y-50081572D02*
X58538000Y-50153000D01*
X58466571Y-50295858D01*
X58466571Y-50510143D01*
X58538000Y-50653000D01*
X58680857Y-50724429D01*
X59466571Y-50724429D01*
X58680857Y-50724429D02*
X58538000Y-50795858D01*
X58466571Y-50938715D01*
X58466571Y-51153000D01*
X58538000Y-51295858D01*
X58680857Y-51367286D01*
X59466571Y-51367286D01*
X59466571Y-52081572D02*
X58466571Y-52081572D01*
X57966571Y-52081572D02*
X58038000Y-52010143D01*
X58109429Y-52081572D01*
X58038000Y-52153000D01*
X57966571Y-52081572D01*
X58109429Y-52081572D01*
X59395143Y-53438715D02*
X59466571Y-53295858D01*
X59466571Y-53010144D01*
X59395143Y-52867286D01*
X59323714Y-52795858D01*
X59180857Y-52724429D01*
X58752286Y-52724429D01*
X58609429Y-52795858D01*
X58538000Y-52867286D01*
X58466571Y-53010144D01*
X58466571Y-53295858D01*
X58538000Y-53438715D01*
X59466571Y-54081572D02*
X58466571Y-54081572D01*
X58752286Y-54081572D02*
X58609429Y-54153000D01*
X58538000Y-54224429D01*
X58466571Y-54367286D01*
X58466571Y-54510143D01*
X59466571Y-55224429D02*
X59395143Y-55081571D01*
X59323714Y-55010143D01*
X59180857Y-54938714D01*
X58752286Y-54938714D01*
X58609429Y-55010143D01*
X58538000Y-55081571D01*
X58466571Y-55224429D01*
X58466571Y-55438714D01*
X58538000Y-55581571D01*
X58609429Y-55653000D01*
X58752286Y-55724429D01*
X59180857Y-55724429D01*
X59323714Y-55653000D01*
X59395143Y-55581571D01*
X59466571Y-55438714D01*
X59466571Y-55224429D01*
X119552809Y-52934905D02*
X121933762Y-52934905D01*
X121933762Y-47934905D01*
X115981381Y-52696810D02*
X116457571Y-52934905D01*
X117409952Y-52934905D01*
X117886143Y-52696810D01*
X118124238Y-52220619D01*
X118124238Y-50315857D01*
X117886143Y-49839667D01*
X117409952Y-49601571D01*
X116457571Y-49601571D01*
X115981381Y-49839667D01*
X115743286Y-50315857D01*
X115743286Y-50792048D01*
X118124238Y-51268238D01*
X114314715Y-49601571D02*
X112409953Y-49601571D01*
X113600429Y-47934905D02*
X113600429Y-52220619D01*
X113362334Y-52696810D01*
X112886143Y-52934905D01*
X112409953Y-52934905D01*
X110981381Y-52696810D02*
X110505191Y-52934905D01*
X109552810Y-52934905D01*
X109076619Y-52696810D01*
X108838524Y-52220619D01*
X108838524Y-51982524D01*
X109076619Y-51506333D01*
X109552810Y-51268238D01*
X110267095Y-51268238D01*
X110743286Y-51030143D01*
X110981381Y-50553952D01*
X110981381Y-50315857D01*
X110743286Y-49839667D01*
X110267095Y-49601571D01*
X109552810Y-49601571D01*
X109076619Y-49839667D01*
X103124238Y-52696810D02*
X102409952Y-52934905D01*
X101219476Y-52934905D01*
X100743286Y-52696810D01*
X100505190Y-52458714D01*
X100267095Y-51982524D01*
X100267095Y-51506333D01*
X100505190Y-51030143D01*
X100743286Y-50792048D01*
X101219476Y-50553952D01*
X102171857Y-50315857D01*
X102648048Y-50077762D01*
X102886143Y-49839667D01*
X103124238Y-49363476D01*
X103124238Y-48887286D01*
X102886143Y-48411095D01*
X102648048Y-48173000D01*
X102171857Y-47934905D01*
X100981381Y-47934905D01*
X100267095Y-48173000D01*
X98124238Y-49601571D02*
X98124238Y-54601571D01*
X98124238Y-49839667D02*
X97648047Y-49601571D01*
X96695666Y-49601571D01*
X96219476Y-49839667D01*
X95981381Y-50077762D01*
X95743285Y-50553952D01*
X95743285Y-51982524D01*
X95981381Y-52458714D01*
X96219476Y-52696810D01*
X96695666Y-52934905D01*
X97648047Y-52934905D01*
X98124238Y-52696810D01*
X92886142Y-52934905D02*
X93362333Y-52696810D01*
X93600428Y-52220619D01*
X93600428Y-47934905D01*
X90981380Y-52934905D02*
X90981380Y-49601571D01*
X90981380Y-47934905D02*
X91219475Y-48173000D01*
X90981380Y-48411095D01*
X90743285Y-48173000D01*
X90981380Y-47934905D01*
X90981380Y-48411095D01*
X89314714Y-49601571D02*
X87409952Y-49601571D01*
X88600428Y-47934905D02*
X88600428Y-52220619D01*
X88362333Y-52696810D01*
X87886142Y-52934905D01*
X87409952Y-52934905D01*
D12*
X42048000Y-48430000D02*
X42048000Y-50630000D01*
X42248000Y-50630000D02*
X42248000Y-48430000D01*
X42448000Y-50530000D02*
X42448000Y-50630000D01*
X42448000Y-50630000D02*
X42448000Y-50530000D01*
X42448000Y-48430000D02*
X42448000Y-50530000D01*
D13*
X39624000Y-50673000D02*
X42672000Y-50673000D01*
X42672000Y-50673000D02*
X42672000Y-48387000D01*
X42672000Y-48387000D02*
X39624000Y-48387000D01*
X39624000Y-48387000D02*
X39624000Y-50673000D01*
D12*
X50122000Y-62114000D02*
X47922000Y-62114000D01*
X47922000Y-62314000D02*
X50122000Y-62314000D01*
X48022000Y-62514000D02*
X47922000Y-62514000D01*
X47922000Y-62514000D02*
X48022000Y-62514000D01*
X50122000Y-62514000D02*
X48022000Y-62514000D01*
D13*
X47879000Y-59690000D02*
X47879000Y-62738000D01*
X47879000Y-62738000D02*
X50165000Y-62738000D01*
X50165000Y-62738000D02*
X50165000Y-59690000D01*
X50165000Y-59690000D02*
X47879000Y-59690000D01*
D12*
X49868000Y-80910000D02*
X47668000Y-80910000D01*
X47668000Y-81110000D02*
X49868000Y-81110000D01*
X47768000Y-81310000D02*
X47668000Y-81310000D01*
X47668000Y-81310000D02*
X47768000Y-81310000D01*
X49868000Y-81310000D02*
X47768000Y-81310000D01*
D13*
X47625000Y-78486000D02*
X47625000Y-81534000D01*
X47625000Y-81534000D02*
X49911000Y-81534000D01*
X49911000Y-81534000D02*
X49911000Y-78486000D01*
X49911000Y-78486000D02*
X47625000Y-78486000D01*
D12*
X49868000Y-99706000D02*
X47668000Y-99706000D01*
X47668000Y-99906000D02*
X49868000Y-99906000D01*
X47768000Y-100106000D02*
X47668000Y-100106000D01*
X47668000Y-100106000D02*
X47768000Y-100106000D01*
X49868000Y-100106000D02*
X47768000Y-100106000D01*
D13*
X47625000Y-97282000D02*
X47625000Y-100330000D01*
X47625000Y-100330000D02*
X49911000Y-100330000D01*
X49911000Y-100330000D02*
X49911000Y-97282000D01*
X49911000Y-97282000D02*
X47625000Y-97282000D01*
D12*
X49995000Y-42810000D02*
X47795000Y-42810000D01*
X47795000Y-43010000D02*
X49995000Y-43010000D01*
X47895000Y-43210000D02*
X47795000Y-43210000D01*
X47795000Y-43210000D02*
X47895000Y-43210000D01*
X49995000Y-43210000D02*
X47895000Y-43210000D01*
D13*
X47752000Y-40386000D02*
X47752000Y-43434000D01*
X47752000Y-43434000D02*
X50038000Y-43434000D01*
X50038000Y-43434000D02*
X50038000Y-40386000D01*
X50038000Y-40386000D02*
X47752000Y-40386000D01*
D12*
X60844000Y-69004000D02*
X60844000Y-71204000D01*
X61044000Y-71204000D02*
X61044000Y-69004000D01*
X61244000Y-71104000D02*
X61244000Y-71204000D01*
X61244000Y-71204000D02*
X61244000Y-71104000D01*
X61244000Y-69004000D02*
X61244000Y-71104000D01*
D13*
X58420000Y-71247000D02*
X61468000Y-71247000D01*
X61468000Y-71247000D02*
X61468000Y-68961000D01*
X61468000Y-68961000D02*
X58420000Y-68961000D01*
X58420000Y-68961000D02*
X58420000Y-71247000D01*
D12*
X52535000Y-80910000D02*
X50335000Y-80910000D01*
X50335000Y-81110000D02*
X52535000Y-81110000D01*
X50435000Y-81310000D02*
X50335000Y-81310000D01*
X50335000Y-81310000D02*
X50435000Y-81310000D01*
X52535000Y-81310000D02*
X50435000Y-81310000D01*
D13*
X50292000Y-78486000D02*
X50292000Y-81534000D01*
X50292000Y-81534000D02*
X52578000Y-81534000D01*
X52578000Y-81534000D02*
X52578000Y-78486000D01*
X52578000Y-78486000D02*
X50292000Y-78486000D01*
D12*
X52535000Y-99960000D02*
X50335000Y-99960000D01*
X50335000Y-100160000D02*
X52535000Y-100160000D01*
X50435000Y-100360000D02*
X50335000Y-100360000D01*
X50335000Y-100360000D02*
X50435000Y-100360000D01*
X52535000Y-100360000D02*
X50435000Y-100360000D01*
D13*
X50292000Y-97536000D02*
X50292000Y-100584000D01*
X50292000Y-100584000D02*
X52578000Y-100584000D01*
X52578000Y-100584000D02*
X52578000Y-97536000D01*
X52578000Y-97536000D02*
X50292000Y-97536000D01*
D12*
X71585000Y-42810000D02*
X69385000Y-42810000D01*
X69385000Y-43010000D02*
X71585000Y-43010000D01*
X69485000Y-43210000D02*
X69385000Y-43210000D01*
X69385000Y-43210000D02*
X69485000Y-43210000D01*
X71585000Y-43210000D02*
X69485000Y-43210000D01*
D13*
X69342000Y-40386000D02*
X69342000Y-43434000D01*
X69342000Y-43434000D02*
X71628000Y-43434000D01*
X71628000Y-43434000D02*
X71628000Y-40386000D01*
X71628000Y-40386000D02*
X69342000Y-40386000D01*
D12*
X71585000Y-61860000D02*
X69385000Y-61860000D01*
X69385000Y-62060000D02*
X71585000Y-62060000D01*
X69485000Y-62260000D02*
X69385000Y-62260000D01*
X69385000Y-62260000D02*
X69485000Y-62260000D01*
X71585000Y-62260000D02*
X69485000Y-62260000D01*
D13*
X69342000Y-59436000D02*
X69342000Y-62484000D01*
X69342000Y-62484000D02*
X71628000Y-62484000D01*
X71628000Y-62484000D02*
X71628000Y-59436000D01*
X71628000Y-59436000D02*
X69342000Y-59436000D01*
D12*
X71585000Y-80910000D02*
X69385000Y-80910000D01*
X69385000Y-81110000D02*
X71585000Y-81110000D01*
X69485000Y-81310000D02*
X69385000Y-81310000D01*
X69385000Y-81310000D02*
X69485000Y-81310000D01*
X71585000Y-81310000D02*
X69485000Y-81310000D01*
D13*
X69342000Y-78486000D02*
X69342000Y-81534000D01*
X69342000Y-81534000D02*
X71628000Y-81534000D01*
X71628000Y-81534000D02*
X71628000Y-78486000D01*
X71628000Y-78486000D02*
X69342000Y-78486000D01*
D12*
X71585000Y-99960000D02*
X69385000Y-99960000D01*
X69385000Y-100160000D02*
X71585000Y-100160000D01*
X69485000Y-100360000D02*
X69385000Y-100360000D01*
X69385000Y-100360000D02*
X69485000Y-100360000D01*
X71585000Y-100360000D02*
X69485000Y-100360000D01*
D13*
X69342000Y-97536000D02*
X69342000Y-100584000D01*
X69342000Y-100584000D02*
X71628000Y-100584000D01*
X71628000Y-100584000D02*
X71628000Y-97536000D01*
X71628000Y-97536000D02*
X69342000Y-97536000D01*
D12*
X90635000Y-42810000D02*
X88435000Y-42810000D01*
X88435000Y-43010000D02*
X90635000Y-43010000D01*
X88535000Y-43210000D02*
X88435000Y-43210000D01*
X88435000Y-43210000D02*
X88535000Y-43210000D01*
X90635000Y-43210000D02*
X88535000Y-43210000D01*
D13*
X88392000Y-40386000D02*
X88392000Y-43434000D01*
X88392000Y-43434000D02*
X90678000Y-43434000D01*
X90678000Y-43434000D02*
X90678000Y-40386000D01*
X90678000Y-40386000D02*
X88392000Y-40386000D01*
D12*
X90635000Y-61860000D02*
X88435000Y-61860000D01*
X88435000Y-62060000D02*
X90635000Y-62060000D01*
X88535000Y-62260000D02*
X88435000Y-62260000D01*
X88435000Y-62260000D02*
X88535000Y-62260000D01*
X90635000Y-62260000D02*
X88535000Y-62260000D01*
D13*
X88392000Y-59436000D02*
X88392000Y-62484000D01*
X88392000Y-62484000D02*
X90678000Y-62484000D01*
X90678000Y-62484000D02*
X90678000Y-59436000D01*
X90678000Y-59436000D02*
X88392000Y-59436000D01*
D12*
X90635000Y-80910000D02*
X88435000Y-80910000D01*
X88435000Y-81110000D02*
X90635000Y-81110000D01*
X88535000Y-81310000D02*
X88435000Y-81310000D01*
X88435000Y-81310000D02*
X88535000Y-81310000D01*
X90635000Y-81310000D02*
X88535000Y-81310000D01*
D13*
X88392000Y-78486000D02*
X88392000Y-81534000D01*
X88392000Y-81534000D02*
X90678000Y-81534000D01*
X90678000Y-81534000D02*
X90678000Y-78486000D01*
X90678000Y-78486000D02*
X88392000Y-78486000D01*
D12*
X90635000Y-99960000D02*
X88435000Y-99960000D01*
X88435000Y-100160000D02*
X90635000Y-100160000D01*
X88535000Y-100360000D02*
X88435000Y-100360000D01*
X88435000Y-100360000D02*
X88535000Y-100360000D01*
X90635000Y-100360000D02*
X88535000Y-100360000D01*
D13*
X88392000Y-97536000D02*
X88392000Y-100584000D01*
X88392000Y-100584000D02*
X90678000Y-100584000D01*
X90678000Y-100584000D02*
X90678000Y-97536000D01*
X90678000Y-97536000D02*
X88392000Y-97536000D01*
D12*
X109685000Y-42810000D02*
X107485000Y-42810000D01*
X107485000Y-43010000D02*
X109685000Y-43010000D01*
X107585000Y-43210000D02*
X107485000Y-43210000D01*
X107485000Y-43210000D02*
X107585000Y-43210000D01*
X109685000Y-43210000D02*
X107585000Y-43210000D01*
D13*
X107442000Y-40386000D02*
X107442000Y-43434000D01*
X107442000Y-43434000D02*
X109728000Y-43434000D01*
X109728000Y-43434000D02*
X109728000Y-40386000D01*
X109728000Y-40386000D02*
X107442000Y-40386000D01*
D12*
X109685000Y-61860000D02*
X107485000Y-61860000D01*
X107485000Y-62060000D02*
X109685000Y-62060000D01*
X107585000Y-62260000D02*
X107485000Y-62260000D01*
X107485000Y-62260000D02*
X107585000Y-62260000D01*
X109685000Y-62260000D02*
X107585000Y-62260000D01*
D13*
X107442000Y-59436000D02*
X107442000Y-62484000D01*
X107442000Y-62484000D02*
X109728000Y-62484000D01*
X109728000Y-62484000D02*
X109728000Y-59436000D01*
X109728000Y-59436000D02*
X107442000Y-59436000D01*
D12*
X109685000Y-80910000D02*
X107485000Y-80910000D01*
X107485000Y-81110000D02*
X109685000Y-81110000D01*
X107585000Y-81310000D02*
X107485000Y-81310000D01*
X107485000Y-81310000D02*
X107585000Y-81310000D01*
X109685000Y-81310000D02*
X107585000Y-81310000D01*
D13*
X107442000Y-78486000D02*
X107442000Y-81534000D01*
X107442000Y-81534000D02*
X109728000Y-81534000D01*
X109728000Y-81534000D02*
X109728000Y-78486000D01*
X109728000Y-78486000D02*
X107442000Y-78486000D01*
D12*
X109685000Y-99960000D02*
X107485000Y-99960000D01*
X107485000Y-100160000D02*
X109685000Y-100160000D01*
X107585000Y-100360000D02*
X107485000Y-100360000D01*
X107485000Y-100360000D02*
X107585000Y-100360000D01*
X109685000Y-100360000D02*
X107585000Y-100360000D01*
D13*
X107442000Y-97536000D02*
X107442000Y-100584000D01*
X107442000Y-100584000D02*
X109728000Y-100584000D01*
X109728000Y-100584000D02*
X109728000Y-97536000D01*
X109728000Y-97536000D02*
X107442000Y-97536000D01*
D12*
X127116000Y-50376000D02*
X127116000Y-48176000D01*
X126916000Y-48176000D02*
X126916000Y-50376000D01*
X126716000Y-48276000D02*
X126716000Y-48176000D01*
X126716000Y-48176000D02*
X126716000Y-48276000D01*
X126716000Y-50376000D02*
X126716000Y-48276000D01*
D13*
X129540000Y-48133000D02*
X126492000Y-48133000D01*
X126492000Y-48133000D02*
X126492000Y-50419000D01*
X126492000Y-50419000D02*
X129540000Y-50419000D01*
X129540000Y-50419000D02*
X129540000Y-48133000D01*
D12*
X128735000Y-61860000D02*
X126535000Y-61860000D01*
X126535000Y-62060000D02*
X128735000Y-62060000D01*
X126635000Y-62260000D02*
X126535000Y-62260000D01*
X126535000Y-62260000D02*
X126635000Y-62260000D01*
X128735000Y-62260000D02*
X126635000Y-62260000D01*
D13*
X126492000Y-59436000D02*
X126492000Y-62484000D01*
X126492000Y-62484000D02*
X128778000Y-62484000D01*
X128778000Y-62484000D02*
X128778000Y-59436000D01*
X128778000Y-59436000D02*
X126492000Y-59436000D01*
D12*
X128735000Y-80910000D02*
X126535000Y-80910000D01*
X126535000Y-81110000D02*
X128735000Y-81110000D01*
X126635000Y-81310000D02*
X126535000Y-81310000D01*
X126535000Y-81310000D02*
X126635000Y-81310000D01*
X128735000Y-81310000D02*
X126635000Y-81310000D01*
D13*
X126492000Y-78486000D02*
X126492000Y-81534000D01*
X126492000Y-81534000D02*
X128778000Y-81534000D01*
X128778000Y-81534000D02*
X128778000Y-78486000D01*
X128778000Y-78486000D02*
X126492000Y-78486000D01*
D12*
X128735000Y-99960000D02*
X126535000Y-99960000D01*
X126535000Y-100160000D02*
X128735000Y-100160000D01*
X126635000Y-100360000D02*
X126535000Y-100360000D01*
X126535000Y-100360000D02*
X126635000Y-100360000D01*
X128735000Y-100360000D02*
X126635000Y-100360000D01*
D13*
X126492000Y-97536000D02*
X126492000Y-100584000D01*
X126492000Y-100584000D02*
X128778000Y-100584000D01*
X128778000Y-100584000D02*
X128778000Y-97536000D01*
X128778000Y-97536000D02*
X126492000Y-97536000D01*
D14*
X120929400Y-30480000D02*
X120929400Y-42545000D01*
X120929400Y-42545000D02*
X130530600Y-42545000D01*
X130530600Y-42545000D02*
X130530600Y-30480000D01*
D13*
X42272857Y-50104524D02*
X42272857Y-48834524D01*
X41910000Y-48834524D01*
X41692285Y-48895000D01*
X41547143Y-49015952D01*
X41474571Y-49136905D01*
X41402000Y-49378810D01*
X41402000Y-49560238D01*
X41474571Y-49802143D01*
X41547143Y-49923095D01*
X41692285Y-50044048D01*
X41910000Y-50104524D01*
X42272857Y-50104524D01*
X39950571Y-50104524D02*
X40821428Y-50104524D01*
X40386000Y-50104524D02*
X40386000Y-48834524D01*
X40531143Y-49015952D01*
X40676285Y-49136905D01*
X40821428Y-49197381D01*
X49596524Y-60089143D02*
X48326524Y-60089143D01*
X48326524Y-60452000D01*
X48387000Y-60669715D01*
X48507952Y-60814857D01*
X48628905Y-60887429D01*
X48870810Y-60960000D01*
X49052238Y-60960000D01*
X49294143Y-60887429D01*
X49415095Y-60814857D01*
X49536048Y-60669715D01*
X49596524Y-60452000D01*
X49596524Y-60089143D01*
X48447476Y-61540572D02*
X48387000Y-61613143D01*
X48326524Y-61758286D01*
X48326524Y-62121143D01*
X48387000Y-62266286D01*
X48447476Y-62338857D01*
X48568429Y-62411429D01*
X48689381Y-62411429D01*
X48870810Y-62338857D01*
X49596524Y-61468000D01*
X49596524Y-62411429D01*
X49342524Y-78885143D02*
X48072524Y-78885143D01*
X48072524Y-79248000D01*
X48133000Y-79465715D01*
X48253952Y-79610857D01*
X48374905Y-79683429D01*
X48616810Y-79756000D01*
X48798238Y-79756000D01*
X49040143Y-79683429D01*
X49161095Y-79610857D01*
X49282048Y-79465715D01*
X49342524Y-79248000D01*
X49342524Y-78885143D01*
X48072524Y-80264000D02*
X48072524Y-81207429D01*
X48556333Y-80699429D01*
X48556333Y-80917143D01*
X48616810Y-81062286D01*
X48677286Y-81134857D01*
X48798238Y-81207429D01*
X49100619Y-81207429D01*
X49221571Y-81134857D01*
X49282048Y-81062286D01*
X49342524Y-80917143D01*
X49342524Y-80481715D01*
X49282048Y-80336572D01*
X49221571Y-80264000D01*
X49342524Y-97681143D02*
X48072524Y-97681143D01*
X48072524Y-98044000D01*
X48133000Y-98261715D01*
X48253952Y-98406857D01*
X48374905Y-98479429D01*
X48616810Y-98552000D01*
X48798238Y-98552000D01*
X49040143Y-98479429D01*
X49161095Y-98406857D01*
X49282048Y-98261715D01*
X49342524Y-98044000D01*
X49342524Y-97681143D01*
X48495857Y-99858286D02*
X49342524Y-99858286D01*
X48012048Y-99495429D02*
X48919190Y-99132572D01*
X48919190Y-100076000D01*
X49469524Y-40785143D02*
X48199524Y-40785143D01*
X48199524Y-41148000D01*
X48260000Y-41365715D01*
X48380952Y-41510857D01*
X48501905Y-41583429D01*
X48743810Y-41656000D01*
X48925238Y-41656000D01*
X49167143Y-41583429D01*
X49288095Y-41510857D01*
X49409048Y-41365715D01*
X49469524Y-41148000D01*
X49469524Y-40785143D01*
X48199524Y-43034857D02*
X48199524Y-42309143D01*
X48804286Y-42236572D01*
X48743810Y-42309143D01*
X48683333Y-42454286D01*
X48683333Y-42817143D01*
X48743810Y-42962286D01*
X48804286Y-43034857D01*
X48925238Y-43107429D01*
X49227619Y-43107429D01*
X49348571Y-43034857D01*
X49409048Y-42962286D01*
X49469524Y-42817143D01*
X49469524Y-42454286D01*
X49409048Y-42309143D01*
X49348571Y-42236572D01*
X61068857Y-70678524D02*
X61068857Y-69408524D01*
X60706000Y-69408524D01*
X60488285Y-69469000D01*
X60343143Y-69589952D01*
X60270571Y-69710905D01*
X60198000Y-69952810D01*
X60198000Y-70134238D01*
X60270571Y-70376143D01*
X60343143Y-70497095D01*
X60488285Y-70618048D01*
X60706000Y-70678524D01*
X61068857Y-70678524D01*
X58891714Y-69408524D02*
X59182000Y-69408524D01*
X59327143Y-69469000D01*
X59399714Y-69529476D01*
X59544857Y-69710905D01*
X59617428Y-69952810D01*
X59617428Y-70436619D01*
X59544857Y-70557571D01*
X59472285Y-70618048D01*
X59327143Y-70678524D01*
X59036857Y-70678524D01*
X58891714Y-70618048D01*
X58819143Y-70557571D01*
X58746571Y-70436619D01*
X58746571Y-70134238D01*
X58819143Y-70013286D01*
X58891714Y-69952810D01*
X59036857Y-69892333D01*
X59327143Y-69892333D01*
X59472285Y-69952810D01*
X59544857Y-70013286D01*
X59617428Y-70134238D01*
X52009524Y-78885143D02*
X50739524Y-78885143D01*
X50739524Y-79248000D01*
X50800000Y-79465715D01*
X50920952Y-79610857D01*
X51041905Y-79683429D01*
X51283810Y-79756000D01*
X51465238Y-79756000D01*
X51707143Y-79683429D01*
X51828095Y-79610857D01*
X51949048Y-79465715D01*
X52009524Y-79248000D01*
X52009524Y-78885143D01*
X50739524Y-80264000D02*
X50739524Y-81280000D01*
X52009524Y-80626857D01*
X52009524Y-97935143D02*
X50739524Y-97935143D01*
X50739524Y-98298000D01*
X50800000Y-98515715D01*
X50920952Y-98660857D01*
X51041905Y-98733429D01*
X51283810Y-98806000D01*
X51465238Y-98806000D01*
X51707143Y-98733429D01*
X51828095Y-98660857D01*
X51949048Y-98515715D01*
X52009524Y-98298000D01*
X52009524Y-97935143D01*
X51283810Y-99676857D02*
X51223333Y-99531715D01*
X51162857Y-99459143D01*
X51041905Y-99386572D01*
X50981429Y-99386572D01*
X50860476Y-99459143D01*
X50800000Y-99531715D01*
X50739524Y-99676857D01*
X50739524Y-99967143D01*
X50800000Y-100112286D01*
X50860476Y-100184857D01*
X50981429Y-100257429D01*
X51041905Y-100257429D01*
X51162857Y-100184857D01*
X51223333Y-100112286D01*
X51283810Y-99967143D01*
X51283810Y-99676857D01*
X51344286Y-99531715D01*
X51404762Y-99459143D01*
X51525714Y-99386572D01*
X51767619Y-99386572D01*
X51888571Y-99459143D01*
X51949048Y-99531715D01*
X52009524Y-99676857D01*
X52009524Y-99967143D01*
X51949048Y-100112286D01*
X51888571Y-100184857D01*
X51767619Y-100257429D01*
X51525714Y-100257429D01*
X51404762Y-100184857D01*
X51344286Y-100112286D01*
X51283810Y-99967143D01*
X71059524Y-40785143D02*
X69789524Y-40785143D01*
X69789524Y-41148000D01*
X69850000Y-41365715D01*
X69970952Y-41510857D01*
X70091905Y-41583429D01*
X70333810Y-41656000D01*
X70515238Y-41656000D01*
X70757143Y-41583429D01*
X70878095Y-41510857D01*
X70999048Y-41365715D01*
X71059524Y-41148000D01*
X71059524Y-40785143D01*
X71059524Y-42381715D02*
X71059524Y-42672000D01*
X70999048Y-42817143D01*
X70938571Y-42889715D01*
X70757143Y-43034857D01*
X70515238Y-43107429D01*
X70031429Y-43107429D01*
X69910476Y-43034857D01*
X69850000Y-42962286D01*
X69789524Y-42817143D01*
X69789524Y-42526857D01*
X69850000Y-42381715D01*
X69910476Y-42309143D01*
X70031429Y-42236572D01*
X70333810Y-42236572D01*
X70454762Y-42309143D01*
X70515238Y-42381715D01*
X70575714Y-42526857D01*
X70575714Y-42817143D01*
X70515238Y-42962286D01*
X70454762Y-43034857D01*
X70333810Y-43107429D01*
X71059524Y-59109428D02*
X69789524Y-59109428D01*
X69789524Y-59472285D01*
X69850000Y-59690000D01*
X69970952Y-59835142D01*
X70091905Y-59907714D01*
X70333810Y-59980285D01*
X70515238Y-59980285D01*
X70757143Y-59907714D01*
X70878095Y-59835142D01*
X70999048Y-59690000D01*
X71059524Y-59472285D01*
X71059524Y-59109428D01*
X71059524Y-61431714D02*
X71059524Y-60560857D01*
X71059524Y-60996285D02*
X69789524Y-60996285D01*
X69970952Y-60851142D01*
X70091905Y-60706000D01*
X70152381Y-60560857D01*
X69789524Y-62375143D02*
X69789524Y-62520286D01*
X69850000Y-62665429D01*
X69910476Y-62738000D01*
X70031429Y-62810571D01*
X70273333Y-62883143D01*
X70575714Y-62883143D01*
X70817619Y-62810571D01*
X70938571Y-62738000D01*
X70999048Y-62665429D01*
X71059524Y-62520286D01*
X71059524Y-62375143D01*
X70999048Y-62230000D01*
X70938571Y-62157429D01*
X70817619Y-62084857D01*
X70575714Y-62012286D01*
X70273333Y-62012286D01*
X70031429Y-62084857D01*
X69910476Y-62157429D01*
X69850000Y-62230000D01*
X69789524Y-62375143D01*
X71059524Y-78159428D02*
X69789524Y-78159428D01*
X69789524Y-78522285D01*
X69850000Y-78740000D01*
X69970952Y-78885142D01*
X70091905Y-78957714D01*
X70333810Y-79030285D01*
X70515238Y-79030285D01*
X70757143Y-78957714D01*
X70878095Y-78885142D01*
X70999048Y-78740000D01*
X71059524Y-78522285D01*
X71059524Y-78159428D01*
X71059524Y-80481714D02*
X71059524Y-79610857D01*
X71059524Y-80046285D02*
X69789524Y-80046285D01*
X69970952Y-79901142D01*
X70091905Y-79756000D01*
X70152381Y-79610857D01*
X71059524Y-81933143D02*
X71059524Y-81062286D01*
X71059524Y-81497714D02*
X69789524Y-81497714D01*
X69970952Y-81352571D01*
X70091905Y-81207429D01*
X70152381Y-81062286D01*
X71059524Y-97209428D02*
X69789524Y-97209428D01*
X69789524Y-97572285D01*
X69850000Y-97790000D01*
X69970952Y-97935142D01*
X70091905Y-98007714D01*
X70333810Y-98080285D01*
X70515238Y-98080285D01*
X70757143Y-98007714D01*
X70878095Y-97935142D01*
X70999048Y-97790000D01*
X71059524Y-97572285D01*
X71059524Y-97209428D01*
X71059524Y-99531714D02*
X71059524Y-98660857D01*
X71059524Y-99096285D02*
X69789524Y-99096285D01*
X69970952Y-98951142D01*
X70091905Y-98806000D01*
X70152381Y-98660857D01*
X69910476Y-100112286D02*
X69850000Y-100184857D01*
X69789524Y-100330000D01*
X69789524Y-100692857D01*
X69850000Y-100838000D01*
X69910476Y-100910571D01*
X70031429Y-100983143D01*
X70152381Y-100983143D01*
X70333810Y-100910571D01*
X71059524Y-100039714D01*
X71059524Y-100983143D01*
X90109524Y-40059428D02*
X88839524Y-40059428D01*
X88839524Y-40422285D01*
X88900000Y-40640000D01*
X89020952Y-40785142D01*
X89141905Y-40857714D01*
X89383810Y-40930285D01*
X89565238Y-40930285D01*
X89807143Y-40857714D01*
X89928095Y-40785142D01*
X90049048Y-40640000D01*
X90109524Y-40422285D01*
X90109524Y-40059428D01*
X90109524Y-42381714D02*
X90109524Y-41510857D01*
X90109524Y-41946285D02*
X88839524Y-41946285D01*
X89020952Y-41801142D01*
X89141905Y-41656000D01*
X89202381Y-41510857D01*
X88839524Y-42889714D02*
X88839524Y-43833143D01*
X89323333Y-43325143D01*
X89323333Y-43542857D01*
X89383810Y-43688000D01*
X89444286Y-43760571D01*
X89565238Y-43833143D01*
X89867619Y-43833143D01*
X89988571Y-43760571D01*
X90049048Y-43688000D01*
X90109524Y-43542857D01*
X90109524Y-43107429D01*
X90049048Y-42962286D01*
X89988571Y-42889714D01*
X90109524Y-59109428D02*
X88839524Y-59109428D01*
X88839524Y-59472285D01*
X88900000Y-59690000D01*
X89020952Y-59835142D01*
X89141905Y-59907714D01*
X89383810Y-59980285D01*
X89565238Y-59980285D01*
X89807143Y-59907714D01*
X89928095Y-59835142D01*
X90049048Y-59690000D01*
X90109524Y-59472285D01*
X90109524Y-59109428D01*
X90109524Y-61431714D02*
X90109524Y-60560857D01*
X90109524Y-60996285D02*
X88839524Y-60996285D01*
X89020952Y-60851142D01*
X89141905Y-60706000D01*
X89202381Y-60560857D01*
X89262857Y-62738000D02*
X90109524Y-62738000D01*
X88779048Y-62375143D02*
X89686190Y-62012286D01*
X89686190Y-62955714D01*
X90109524Y-78159428D02*
X88839524Y-78159428D01*
X88839524Y-78522285D01*
X88900000Y-78740000D01*
X89020952Y-78885142D01*
X89141905Y-78957714D01*
X89383810Y-79030285D01*
X89565238Y-79030285D01*
X89807143Y-78957714D01*
X89928095Y-78885142D01*
X90049048Y-78740000D01*
X90109524Y-78522285D01*
X90109524Y-78159428D01*
X90109524Y-80481714D02*
X90109524Y-79610857D01*
X90109524Y-80046285D02*
X88839524Y-80046285D01*
X89020952Y-79901142D01*
X89141905Y-79756000D01*
X89202381Y-79610857D01*
X88839524Y-81860571D02*
X88839524Y-81134857D01*
X89444286Y-81062286D01*
X89383810Y-81134857D01*
X89323333Y-81280000D01*
X89323333Y-81642857D01*
X89383810Y-81788000D01*
X89444286Y-81860571D01*
X89565238Y-81933143D01*
X89867619Y-81933143D01*
X89988571Y-81860571D01*
X90049048Y-81788000D01*
X90109524Y-81642857D01*
X90109524Y-81280000D01*
X90049048Y-81134857D01*
X89988571Y-81062286D01*
X90109524Y-97209428D02*
X88839524Y-97209428D01*
X88839524Y-97572285D01*
X88900000Y-97790000D01*
X89020952Y-97935142D01*
X89141905Y-98007714D01*
X89383810Y-98080285D01*
X89565238Y-98080285D01*
X89807143Y-98007714D01*
X89928095Y-97935142D01*
X90049048Y-97790000D01*
X90109524Y-97572285D01*
X90109524Y-97209428D01*
X90109524Y-99531714D02*
X90109524Y-98660857D01*
X90109524Y-99096285D02*
X88839524Y-99096285D01*
X89020952Y-98951142D01*
X89141905Y-98806000D01*
X89202381Y-98660857D01*
X88839524Y-100838000D02*
X88839524Y-100547714D01*
X88900000Y-100402571D01*
X88960476Y-100330000D01*
X89141905Y-100184857D01*
X89383810Y-100112286D01*
X89867619Y-100112286D01*
X89988571Y-100184857D01*
X90049048Y-100257429D01*
X90109524Y-100402571D01*
X90109524Y-100692857D01*
X90049048Y-100838000D01*
X89988571Y-100910571D01*
X89867619Y-100983143D01*
X89565238Y-100983143D01*
X89444286Y-100910571D01*
X89383810Y-100838000D01*
X89323333Y-100692857D01*
X89323333Y-100402571D01*
X89383810Y-100257429D01*
X89444286Y-100184857D01*
X89565238Y-100112286D01*
X109159524Y-40059428D02*
X107889524Y-40059428D01*
X107889524Y-40422285D01*
X107950000Y-40640000D01*
X108070952Y-40785142D01*
X108191905Y-40857714D01*
X108433810Y-40930285D01*
X108615238Y-40930285D01*
X108857143Y-40857714D01*
X108978095Y-40785142D01*
X109099048Y-40640000D01*
X109159524Y-40422285D01*
X109159524Y-40059428D01*
X109159524Y-42381714D02*
X109159524Y-41510857D01*
X109159524Y-41946285D02*
X107889524Y-41946285D01*
X108070952Y-41801142D01*
X108191905Y-41656000D01*
X108252381Y-41510857D01*
X107889524Y-42889714D02*
X107889524Y-43905714D01*
X109159524Y-43252571D01*
X109159524Y-59109428D02*
X107889524Y-59109428D01*
X107889524Y-59472285D01*
X107950000Y-59690000D01*
X108070952Y-59835142D01*
X108191905Y-59907714D01*
X108433810Y-59980285D01*
X108615238Y-59980285D01*
X108857143Y-59907714D01*
X108978095Y-59835142D01*
X109099048Y-59690000D01*
X109159524Y-59472285D01*
X109159524Y-59109428D01*
X109159524Y-61431714D02*
X109159524Y-60560857D01*
X109159524Y-60996285D02*
X107889524Y-60996285D01*
X108070952Y-60851142D01*
X108191905Y-60706000D01*
X108252381Y-60560857D01*
X108433810Y-62302571D02*
X108373333Y-62157429D01*
X108312857Y-62084857D01*
X108191905Y-62012286D01*
X108131429Y-62012286D01*
X108010476Y-62084857D01*
X107950000Y-62157429D01*
X107889524Y-62302571D01*
X107889524Y-62592857D01*
X107950000Y-62738000D01*
X108010476Y-62810571D01*
X108131429Y-62883143D01*
X108191905Y-62883143D01*
X108312857Y-62810571D01*
X108373333Y-62738000D01*
X108433810Y-62592857D01*
X108433810Y-62302571D01*
X108494286Y-62157429D01*
X108554762Y-62084857D01*
X108675714Y-62012286D01*
X108917619Y-62012286D01*
X109038571Y-62084857D01*
X109099048Y-62157429D01*
X109159524Y-62302571D01*
X109159524Y-62592857D01*
X109099048Y-62738000D01*
X109038571Y-62810571D01*
X108917619Y-62883143D01*
X108675714Y-62883143D01*
X108554762Y-62810571D01*
X108494286Y-62738000D01*
X108433810Y-62592857D01*
X109159524Y-78159428D02*
X107889524Y-78159428D01*
X107889524Y-78522285D01*
X107950000Y-78740000D01*
X108070952Y-78885142D01*
X108191905Y-78957714D01*
X108433810Y-79030285D01*
X108615238Y-79030285D01*
X108857143Y-78957714D01*
X108978095Y-78885142D01*
X109099048Y-78740000D01*
X109159524Y-78522285D01*
X109159524Y-78159428D01*
X109159524Y-80481714D02*
X109159524Y-79610857D01*
X109159524Y-80046285D02*
X107889524Y-80046285D01*
X108070952Y-79901142D01*
X108191905Y-79756000D01*
X108252381Y-79610857D01*
X109159524Y-81207429D02*
X109159524Y-81497714D01*
X109099048Y-81642857D01*
X109038571Y-81715429D01*
X108857143Y-81860571D01*
X108615238Y-81933143D01*
X108131429Y-81933143D01*
X108010476Y-81860571D01*
X107950000Y-81788000D01*
X107889524Y-81642857D01*
X107889524Y-81352571D01*
X107950000Y-81207429D01*
X108010476Y-81134857D01*
X108131429Y-81062286D01*
X108433810Y-81062286D01*
X108554762Y-81134857D01*
X108615238Y-81207429D01*
X108675714Y-81352571D01*
X108675714Y-81642857D01*
X108615238Y-81788000D01*
X108554762Y-81860571D01*
X108433810Y-81933143D01*
X109159524Y-97209428D02*
X107889524Y-97209428D01*
X107889524Y-97572285D01*
X107950000Y-97790000D01*
X108070952Y-97935142D01*
X108191905Y-98007714D01*
X108433810Y-98080285D01*
X108615238Y-98080285D01*
X108857143Y-98007714D01*
X108978095Y-97935142D01*
X109099048Y-97790000D01*
X109159524Y-97572285D01*
X109159524Y-97209428D01*
X108010476Y-98660857D02*
X107950000Y-98733428D01*
X107889524Y-98878571D01*
X107889524Y-99241428D01*
X107950000Y-99386571D01*
X108010476Y-99459142D01*
X108131429Y-99531714D01*
X108252381Y-99531714D01*
X108433810Y-99459142D01*
X109159524Y-98588285D01*
X109159524Y-99531714D01*
X107889524Y-100475143D02*
X107889524Y-100620286D01*
X107950000Y-100765429D01*
X108010476Y-100838000D01*
X108131429Y-100910571D01*
X108373333Y-100983143D01*
X108675714Y-100983143D01*
X108917619Y-100910571D01*
X109038571Y-100838000D01*
X109099048Y-100765429D01*
X109159524Y-100620286D01*
X109159524Y-100475143D01*
X109099048Y-100330000D01*
X109038571Y-100257429D01*
X108917619Y-100184857D01*
X108675714Y-100112286D01*
X108373333Y-100112286D01*
X108131429Y-100184857D01*
X108010476Y-100257429D01*
X107950000Y-100330000D01*
X107889524Y-100475143D01*
X129866572Y-49850524D02*
X129866572Y-48580524D01*
X129503715Y-48580524D01*
X129286000Y-48641000D01*
X129140858Y-48761952D01*
X129068286Y-48882905D01*
X128995715Y-49124810D01*
X128995715Y-49306238D01*
X129068286Y-49548143D01*
X129140858Y-49669095D01*
X129286000Y-49790048D01*
X129503715Y-49850524D01*
X129866572Y-49850524D01*
X128415143Y-48701476D02*
X128342572Y-48641000D01*
X128197429Y-48580524D01*
X127834572Y-48580524D01*
X127689429Y-48641000D01*
X127616858Y-48701476D01*
X127544286Y-48822429D01*
X127544286Y-48943381D01*
X127616858Y-49124810D01*
X128487715Y-49850524D01*
X127544286Y-49850524D01*
X126092857Y-49850524D02*
X126963714Y-49850524D01*
X126528286Y-49850524D02*
X126528286Y-48580524D01*
X126673429Y-48761952D01*
X126818571Y-48882905D01*
X126963714Y-48943381D01*
X128209524Y-59109428D02*
X126939524Y-59109428D01*
X126939524Y-59472285D01*
X127000000Y-59690000D01*
X127120952Y-59835142D01*
X127241905Y-59907714D01*
X127483810Y-59980285D01*
X127665238Y-59980285D01*
X127907143Y-59907714D01*
X128028095Y-59835142D01*
X128149048Y-59690000D01*
X128209524Y-59472285D01*
X128209524Y-59109428D01*
X127060476Y-60560857D02*
X127000000Y-60633428D01*
X126939524Y-60778571D01*
X126939524Y-61141428D01*
X127000000Y-61286571D01*
X127060476Y-61359142D01*
X127181429Y-61431714D01*
X127302381Y-61431714D01*
X127483810Y-61359142D01*
X128209524Y-60488285D01*
X128209524Y-61431714D01*
X127060476Y-62012286D02*
X127000000Y-62084857D01*
X126939524Y-62230000D01*
X126939524Y-62592857D01*
X127000000Y-62738000D01*
X127060476Y-62810571D01*
X127181429Y-62883143D01*
X127302381Y-62883143D01*
X127483810Y-62810571D01*
X128209524Y-61939714D01*
X128209524Y-62883143D01*
X128209524Y-78159428D02*
X126939524Y-78159428D01*
X126939524Y-78522285D01*
X127000000Y-78740000D01*
X127120952Y-78885142D01*
X127241905Y-78957714D01*
X127483810Y-79030285D01*
X127665238Y-79030285D01*
X127907143Y-78957714D01*
X128028095Y-78885142D01*
X128149048Y-78740000D01*
X128209524Y-78522285D01*
X128209524Y-78159428D01*
X127060476Y-79610857D02*
X127000000Y-79683428D01*
X126939524Y-79828571D01*
X126939524Y-80191428D01*
X127000000Y-80336571D01*
X127060476Y-80409142D01*
X127181429Y-80481714D01*
X127302381Y-80481714D01*
X127483810Y-80409142D01*
X128209524Y-79538285D01*
X128209524Y-80481714D01*
X126939524Y-80989714D02*
X126939524Y-81933143D01*
X127423333Y-81425143D01*
X127423333Y-81642857D01*
X127483810Y-81788000D01*
X127544286Y-81860571D01*
X127665238Y-81933143D01*
X127967619Y-81933143D01*
X128088571Y-81860571D01*
X128149048Y-81788000D01*
X128209524Y-81642857D01*
X128209524Y-81207429D01*
X128149048Y-81062286D01*
X128088571Y-80989714D01*
X128209524Y-97209428D02*
X126939524Y-97209428D01*
X126939524Y-97572285D01*
X127000000Y-97790000D01*
X127120952Y-97935142D01*
X127241905Y-98007714D01*
X127483810Y-98080285D01*
X127665238Y-98080285D01*
X127907143Y-98007714D01*
X128028095Y-97935142D01*
X128149048Y-97790000D01*
X128209524Y-97572285D01*
X128209524Y-97209428D01*
X127060476Y-98660857D02*
X127000000Y-98733428D01*
X126939524Y-98878571D01*
X126939524Y-99241428D01*
X127000000Y-99386571D01*
X127060476Y-99459142D01*
X127181429Y-99531714D01*
X127302381Y-99531714D01*
X127483810Y-99459142D01*
X128209524Y-98588285D01*
X128209524Y-99531714D01*
X127362857Y-100838000D02*
X128209524Y-100838000D01*
X126879048Y-100475143D02*
X127786190Y-100112286D01*
X127786190Y-101055714D01*
D15*
X128777999Y-35360429D02*
X127592666Y-36884429D01*
X127592666Y-35360429D02*
X128777999Y-36884429D01*
X126068666Y-36884429D02*
X126915333Y-36884429D01*
X126915333Y-35360429D01*
X124460000Y-36884429D02*
X125052666Y-36158714D01*
X125476000Y-36884429D02*
X125476000Y-35360429D01*
X124798666Y-35360429D01*
X124629333Y-35433000D01*
X124544666Y-35505571D01*
X124460000Y-35650714D01*
X124460000Y-35868429D01*
X124544666Y-36013571D01*
X124629333Y-36086143D01*
X124798666Y-36158714D01*
X125476000Y-36158714D01*
X123867333Y-35360429D02*
X122766666Y-35360429D01*
X123359333Y-35941000D01*
X123105333Y-35941000D01*
X122936000Y-36013571D01*
X122851333Y-36086143D01*
X122766666Y-36231286D01*
X122766666Y-36594143D01*
X122851333Y-36739286D01*
X122936000Y-36811857D01*
X123105333Y-36884429D01*
X123613333Y-36884429D01*
X123782666Y-36811857D01*
X123867333Y-36739286D01*
D12*
X140047620Y-52404762D02*
X140142858Y-52452381D01*
X140333335Y-52452381D01*
X140428573Y-52404762D01*
X140476192Y-52309524D01*
X140476192Y-51928571D01*
X140428573Y-51833333D01*
X140333335Y-51785714D01*
X140142858Y-51785714D01*
X140047620Y-51833333D01*
X140000001Y-51928571D01*
X140000001Y-52023810D01*
X140476192Y-52119048D01*
X139666668Y-52452381D02*
X139142858Y-51785714D01*
X139666668Y-51785714D02*
X139142858Y-52452381D01*
X138904763Y-51785714D02*
X138523811Y-51785714D01*
X138761906Y-51452381D02*
X138761906Y-52309524D01*
X138714287Y-52404762D01*
X138619049Y-52452381D01*
X138523811Y-52452381D01*
X138190477Y-52452381D02*
X138190477Y-51785714D01*
X138190477Y-51976190D02*
X138142858Y-51880952D01*
X138095239Y-51833333D01*
X138000001Y-51785714D01*
X137904762Y-51785714D01*
X137142857Y-52452381D02*
X137142857Y-51928571D01*
X137190476Y-51833333D01*
X137285714Y-51785714D01*
X137476191Y-51785714D01*
X137571429Y-51833333D01*
X137142857Y-52404762D02*
X137238095Y-52452381D01*
X137476191Y-52452381D01*
X137571429Y-52404762D01*
X137619048Y-52309524D01*
X137619048Y-52214286D01*
X137571429Y-52119048D01*
X137476191Y-52071429D01*
X137238095Y-52071429D01*
X137142857Y-52023810D01*
X135476190Y-52452381D02*
X135476190Y-51452381D01*
X135476190Y-52404762D02*
X135571428Y-52452381D01*
X135761905Y-52452381D01*
X135857143Y-52404762D01*
X135904762Y-52357143D01*
X135952381Y-52261905D01*
X135952381Y-51976190D01*
X135904762Y-51880952D01*
X135857143Y-51833333D01*
X135761905Y-51785714D01*
X135571428Y-51785714D01*
X135476190Y-51833333D01*
X134571428Y-52452381D02*
X134571428Y-51928571D01*
X134619047Y-51833333D01*
X134714285Y-51785714D01*
X134904762Y-51785714D01*
X135000000Y-51833333D01*
X134571428Y-52404762D02*
X134666666Y-52452381D01*
X134904762Y-52452381D01*
X135000000Y-52404762D01*
X135047619Y-52309524D01*
X135047619Y-52214286D01*
X135000000Y-52119048D01*
X134904762Y-52071429D01*
X134666666Y-52071429D01*
X134571428Y-52023810D01*
X134238095Y-51785714D02*
X133857143Y-51785714D01*
X134095238Y-51452381D02*
X134095238Y-52309524D01*
X134047619Y-52404762D01*
X133952381Y-52452381D01*
X133857143Y-52452381D01*
X133095237Y-52452381D02*
X133095237Y-51928571D01*
X133142856Y-51833333D01*
X133238094Y-51785714D01*
X133428571Y-51785714D01*
X133523809Y-51833333D01*
X133095237Y-52404762D02*
X133190475Y-52452381D01*
X133428571Y-52452381D01*
X133523809Y-52404762D01*
X133571428Y-52309524D01*
X133571428Y-52214286D01*
X133523809Y-52119048D01*
X133428571Y-52071429D01*
X133190475Y-52071429D01*
X133095237Y-52023810D01*
X131714285Y-52452381D02*
X131809523Y-52404762D01*
X131857142Y-52309524D01*
X131857142Y-51452381D01*
X131333332Y-52452381D02*
X131333332Y-51785714D01*
X131333332Y-51452381D02*
X131380951Y-51500000D01*
X131333332Y-51547619D01*
X131285713Y-51500000D01*
X131333332Y-51452381D01*
X131333332Y-51547619D01*
X130857142Y-51785714D02*
X130857142Y-52452381D01*
X130857142Y-51880952D02*
X130809523Y-51833333D01*
X130714285Y-51785714D01*
X130571427Y-51785714D01*
X130476189Y-51833333D01*
X130428570Y-51928571D01*
X130428570Y-52452381D01*
X129571427Y-52404762D02*
X129666665Y-52452381D01*
X129857142Y-52452381D01*
X129952380Y-52404762D01*
X129999999Y-52309524D01*
X129999999Y-51928571D01*
X129952380Y-51833333D01*
X129857142Y-51785714D01*
X129666665Y-51785714D01*
X129571427Y-51833333D01*
X129523808Y-51928571D01*
X129523808Y-52023810D01*
X129999999Y-52119048D01*
M02*
