G04 #@! TF.FileFunction,Legend,Top*
%FSLAX46Y46*%
G04 Gerber Fmt 4.6, Leading zero omitted, Abs format (unit mm)*
G04 Created by KiCad (PCBNEW 4.0.2-stable) date 11/23/2016 1:41:37 PM*
%MOMM*%
G01*
G04 APERTURE LIST*
%ADD10C,0.100000*%
%ADD11C,0.381000*%
%ADD12C,0.457200*%
%ADD13C,0.203200*%
%ADD14C,0.304800*%
G04 APERTURE END LIST*
D10*
D11*
X68580000Y-33020000D02*
X50800000Y-33020000D01*
X50800000Y-33020000D02*
X50800000Y-63500000D01*
X50800000Y-63500000D02*
X68580000Y-63500000D01*
X68580000Y-63500000D02*
X68580000Y-33020000D01*
X53340000Y-33020000D02*
X53340000Y-35560000D01*
X53340000Y-35560000D02*
X50800000Y-35560000D01*
X53340000Y-34290000D02*
X55118000Y-34290000D01*
X64262000Y-34290000D02*
X66040000Y-34290000D01*
X66040000Y-34290000D02*
X66040000Y-36068000D01*
X66040000Y-45212000D02*
X66040000Y-46990000D01*
X66040000Y-46990000D02*
X64262000Y-46990000D01*
X55118000Y-46990000D02*
X53340000Y-46990000D01*
X53340000Y-46990000D02*
X53340000Y-45212000D01*
X53340000Y-36068000D02*
X53340000Y-34290000D01*
X34290000Y-34290000D02*
X36068000Y-34290000D01*
X45212000Y-34290000D02*
X46990000Y-34290000D01*
X46990000Y-34290000D02*
X46990000Y-36068000D01*
X46990000Y-45212000D02*
X46990000Y-46990000D01*
X46990000Y-46990000D02*
X45212000Y-46990000D01*
X36068000Y-46990000D02*
X34290000Y-46990000D01*
X34290000Y-46990000D02*
X34290000Y-45212000D01*
X34290000Y-36068000D02*
X34290000Y-34290000D01*
X34290000Y-53340000D02*
X36068000Y-53340000D01*
X45212000Y-53340000D02*
X46990000Y-53340000D01*
X46990000Y-53340000D02*
X46990000Y-55118000D01*
X46990000Y-64262000D02*
X46990000Y-66040000D01*
X46990000Y-66040000D02*
X45212000Y-66040000D01*
X36068000Y-66040000D02*
X34290000Y-66040000D01*
X34290000Y-66040000D02*
X34290000Y-64262000D01*
X34290000Y-55118000D02*
X34290000Y-53340000D01*
X34290000Y-72390000D02*
X36068000Y-72390000D01*
X45212000Y-72390000D02*
X46990000Y-72390000D01*
X46990000Y-72390000D02*
X46990000Y-74168000D01*
X46990000Y-83312000D02*
X46990000Y-85090000D01*
X46990000Y-85090000D02*
X45212000Y-85090000D01*
X36068000Y-85090000D02*
X34290000Y-85090000D01*
X34290000Y-85090000D02*
X34290000Y-83312000D01*
X34290000Y-74168000D02*
X34290000Y-72390000D01*
X34290000Y-91440000D02*
X36068000Y-91440000D01*
X45212000Y-91440000D02*
X46990000Y-91440000D01*
X46990000Y-91440000D02*
X46990000Y-93218000D01*
X46990000Y-102362000D02*
X46990000Y-104140000D01*
X46990000Y-104140000D02*
X45212000Y-104140000D01*
X36068000Y-104140000D02*
X34290000Y-104140000D01*
X34290000Y-104140000D02*
X34290000Y-102362000D01*
X34290000Y-93218000D02*
X34290000Y-91440000D01*
X53340000Y-53340000D02*
X55118000Y-53340000D01*
X64262000Y-53340000D02*
X66040000Y-53340000D01*
X66040000Y-53340000D02*
X66040000Y-55118000D01*
X66040000Y-64262000D02*
X66040000Y-66040000D01*
X66040000Y-66040000D02*
X64262000Y-66040000D01*
X55118000Y-66040000D02*
X53340000Y-66040000D01*
X53340000Y-66040000D02*
X53340000Y-64262000D01*
X53340000Y-55118000D02*
X53340000Y-53340000D01*
X53340000Y-72390000D02*
X55118000Y-72390000D01*
X64262000Y-72390000D02*
X66040000Y-72390000D01*
X66040000Y-72390000D02*
X66040000Y-74168000D01*
X66040000Y-83312000D02*
X66040000Y-85090000D01*
X66040000Y-85090000D02*
X64262000Y-85090000D01*
X55118000Y-85090000D02*
X53340000Y-85090000D01*
X53340000Y-85090000D02*
X53340000Y-83312000D01*
X53340000Y-74168000D02*
X53340000Y-72390000D01*
X53340000Y-91440000D02*
X55118000Y-91440000D01*
X64262000Y-91440000D02*
X66040000Y-91440000D01*
X66040000Y-91440000D02*
X66040000Y-93218000D01*
X66040000Y-102362000D02*
X66040000Y-104140000D01*
X66040000Y-104140000D02*
X64262000Y-104140000D01*
X55118000Y-104140000D02*
X53340000Y-104140000D01*
X53340000Y-104140000D02*
X53340000Y-102362000D01*
X53340000Y-93218000D02*
X53340000Y-91440000D01*
X72390000Y-34290000D02*
X74168000Y-34290000D01*
X83312000Y-34290000D02*
X85090000Y-34290000D01*
X85090000Y-34290000D02*
X85090000Y-36068000D01*
X85090000Y-45212000D02*
X85090000Y-46990000D01*
X85090000Y-46990000D02*
X83312000Y-46990000D01*
X74168000Y-46990000D02*
X72390000Y-46990000D01*
X72390000Y-46990000D02*
X72390000Y-45212000D01*
X72390000Y-36068000D02*
X72390000Y-34290000D01*
X72390000Y-53340000D02*
X74168000Y-53340000D01*
X83312000Y-53340000D02*
X85090000Y-53340000D01*
X85090000Y-53340000D02*
X85090000Y-55118000D01*
X85090000Y-64262000D02*
X85090000Y-66040000D01*
X85090000Y-66040000D02*
X83312000Y-66040000D01*
X74168000Y-66040000D02*
X72390000Y-66040000D01*
X72390000Y-66040000D02*
X72390000Y-64262000D01*
X72390000Y-55118000D02*
X72390000Y-53340000D01*
X72390000Y-72390000D02*
X74168000Y-72390000D01*
X83312000Y-72390000D02*
X85090000Y-72390000D01*
X85090000Y-72390000D02*
X85090000Y-74168000D01*
X85090000Y-83312000D02*
X85090000Y-85090000D01*
X85090000Y-85090000D02*
X83312000Y-85090000D01*
X74168000Y-85090000D02*
X72390000Y-85090000D01*
X72390000Y-85090000D02*
X72390000Y-83312000D01*
X72390000Y-74168000D02*
X72390000Y-72390000D01*
X72390000Y-91440000D02*
X74168000Y-91440000D01*
X83312000Y-91440000D02*
X85090000Y-91440000D01*
X85090000Y-91440000D02*
X85090000Y-93218000D01*
X85090000Y-102362000D02*
X85090000Y-104140000D01*
X85090000Y-104140000D02*
X83312000Y-104140000D01*
X74168000Y-104140000D02*
X72390000Y-104140000D01*
X72390000Y-104140000D02*
X72390000Y-102362000D01*
X72390000Y-93218000D02*
X72390000Y-91440000D01*
X91440000Y-34290000D02*
X93218000Y-34290000D01*
X102362000Y-34290000D02*
X104140000Y-34290000D01*
X104140000Y-34290000D02*
X104140000Y-36068000D01*
X104140000Y-45212000D02*
X104140000Y-46990000D01*
X104140000Y-46990000D02*
X102362000Y-46990000D01*
X93218000Y-46990000D02*
X91440000Y-46990000D01*
X91440000Y-46990000D02*
X91440000Y-45212000D01*
X91440000Y-36068000D02*
X91440000Y-34290000D01*
X91440000Y-53340000D02*
X93218000Y-53340000D01*
X102362000Y-53340000D02*
X104140000Y-53340000D01*
X104140000Y-53340000D02*
X104140000Y-55118000D01*
X104140000Y-64262000D02*
X104140000Y-66040000D01*
X104140000Y-66040000D02*
X102362000Y-66040000D01*
X93218000Y-66040000D02*
X91440000Y-66040000D01*
X91440000Y-66040000D02*
X91440000Y-64262000D01*
X91440000Y-55118000D02*
X91440000Y-53340000D01*
X91440000Y-72390000D02*
X93218000Y-72390000D01*
X102362000Y-72390000D02*
X104140000Y-72390000D01*
X104140000Y-72390000D02*
X104140000Y-74168000D01*
X104140000Y-83312000D02*
X104140000Y-85090000D01*
X104140000Y-85090000D02*
X102362000Y-85090000D01*
X93218000Y-85090000D02*
X91440000Y-85090000D01*
X91440000Y-85090000D02*
X91440000Y-83312000D01*
X91440000Y-74168000D02*
X91440000Y-72390000D01*
X91440000Y-91440000D02*
X93218000Y-91440000D01*
X102362000Y-91440000D02*
X104140000Y-91440000D01*
X104140000Y-91440000D02*
X104140000Y-93218000D01*
X104140000Y-102362000D02*
X104140000Y-104140000D01*
X104140000Y-104140000D02*
X102362000Y-104140000D01*
X93218000Y-104140000D02*
X91440000Y-104140000D01*
X91440000Y-104140000D02*
X91440000Y-102362000D01*
X91440000Y-93218000D02*
X91440000Y-91440000D01*
X110490000Y-34290000D02*
X112268000Y-34290000D01*
X121412000Y-34290000D02*
X123190000Y-34290000D01*
X123190000Y-34290000D02*
X123190000Y-36068000D01*
X123190000Y-45212000D02*
X123190000Y-46990000D01*
X123190000Y-46990000D02*
X121412000Y-46990000D01*
X112268000Y-46990000D02*
X110490000Y-46990000D01*
X110490000Y-46990000D02*
X110490000Y-45212000D01*
X110490000Y-36068000D02*
X110490000Y-34290000D01*
X110490000Y-53340000D02*
X112268000Y-53340000D01*
X121412000Y-53340000D02*
X123190000Y-53340000D01*
X123190000Y-53340000D02*
X123190000Y-55118000D01*
X123190000Y-64262000D02*
X123190000Y-66040000D01*
X123190000Y-66040000D02*
X121412000Y-66040000D01*
X112268000Y-66040000D02*
X110490000Y-66040000D01*
X110490000Y-66040000D02*
X110490000Y-64262000D01*
X110490000Y-55118000D02*
X110490000Y-53340000D01*
X110490000Y-72390000D02*
X112268000Y-72390000D01*
X121412000Y-72390000D02*
X123190000Y-72390000D01*
X123190000Y-72390000D02*
X123190000Y-74168000D01*
X123190000Y-83312000D02*
X123190000Y-85090000D01*
X123190000Y-85090000D02*
X121412000Y-85090000D01*
X112268000Y-85090000D02*
X110490000Y-85090000D01*
X110490000Y-85090000D02*
X110490000Y-83312000D01*
X110490000Y-74168000D02*
X110490000Y-72390000D01*
X110490000Y-91440000D02*
X112268000Y-91440000D01*
X121412000Y-91440000D02*
X123190000Y-91440000D01*
X123190000Y-91440000D02*
X123190000Y-93218000D01*
X123190000Y-102362000D02*
X123190000Y-104140000D01*
X123190000Y-104140000D02*
X121412000Y-104140000D01*
X112268000Y-104140000D02*
X110490000Y-104140000D01*
X110490000Y-104140000D02*
X110490000Y-102362000D01*
X110490000Y-93218000D02*
X110490000Y-91440000D01*
X129540000Y-34290000D02*
X131318000Y-34290000D01*
X140462000Y-34290000D02*
X142240000Y-34290000D01*
X142240000Y-34290000D02*
X142240000Y-36068000D01*
X142240000Y-45212000D02*
X142240000Y-46990000D01*
X142240000Y-46990000D02*
X140462000Y-46990000D01*
X131318000Y-46990000D02*
X129540000Y-46990000D01*
X129540000Y-46990000D02*
X129540000Y-45212000D01*
X129540000Y-36068000D02*
X129540000Y-34290000D01*
X129540000Y-53340000D02*
X131318000Y-53340000D01*
X140462000Y-53340000D02*
X142240000Y-53340000D01*
X142240000Y-53340000D02*
X142240000Y-55118000D01*
X142240000Y-64262000D02*
X142240000Y-66040000D01*
X142240000Y-66040000D02*
X140462000Y-66040000D01*
X131318000Y-66040000D02*
X129540000Y-66040000D01*
X129540000Y-66040000D02*
X129540000Y-64262000D01*
X129540000Y-55118000D02*
X129540000Y-53340000D01*
X129540000Y-72390000D02*
X131318000Y-72390000D01*
X140462000Y-72390000D02*
X142240000Y-72390000D01*
X142240000Y-72390000D02*
X142240000Y-74168000D01*
X142240000Y-83312000D02*
X142240000Y-85090000D01*
X142240000Y-85090000D02*
X140462000Y-85090000D01*
X131318000Y-85090000D02*
X129540000Y-85090000D01*
X129540000Y-85090000D02*
X129540000Y-83312000D01*
X129540000Y-74168000D02*
X129540000Y-72390000D01*
X129540000Y-91440000D02*
X131318000Y-91440000D01*
X140462000Y-91440000D02*
X142240000Y-91440000D01*
X142240000Y-91440000D02*
X142240000Y-93218000D01*
X142240000Y-102362000D02*
X142240000Y-104140000D01*
X142240000Y-104140000D02*
X140462000Y-104140000D01*
X131318000Y-104140000D02*
X129540000Y-104140000D01*
X129540000Y-104140000D02*
X129540000Y-102362000D01*
X129540000Y-93218000D02*
X129540000Y-91440000D01*
X120929400Y-30480000D02*
X120929400Y-42545000D01*
X120929400Y-42545000D02*
X130530600Y-42545000D01*
X130530600Y-42545000D02*
X130530600Y-30480000D01*
D12*
X60198000Y-63862857D02*
X60198000Y-62653334D01*
X61068857Y-64104762D02*
X58020857Y-63258096D01*
X61068857Y-62411429D01*
X58020857Y-61927619D02*
X58020857Y-60476191D01*
X61068857Y-61201905D02*
X58020857Y-61201905D01*
X61068857Y-59629524D02*
X59036857Y-59629524D01*
X59327143Y-59629524D02*
X59182000Y-59508572D01*
X59036857Y-59266667D01*
X59036857Y-58903810D01*
X59182000Y-58661905D01*
X59472286Y-58540953D01*
X61068857Y-58540953D01*
X59472286Y-58540953D02*
X59182000Y-58420000D01*
X59036857Y-58178096D01*
X59036857Y-57815238D01*
X59182000Y-57573334D01*
X59472286Y-57452381D01*
X61068857Y-57452381D01*
X60923714Y-55275238D02*
X61068857Y-55517143D01*
X61068857Y-56000952D01*
X60923714Y-56242857D01*
X60633429Y-56363809D01*
X59472286Y-56363809D01*
X59182000Y-56242857D01*
X59036857Y-56000952D01*
X59036857Y-55517143D01*
X59182000Y-55275238D01*
X59472286Y-55154286D01*
X59762571Y-55154286D01*
X60052857Y-56363809D01*
X59036857Y-52977143D02*
X61504286Y-52977143D01*
X61794571Y-53098095D01*
X61939714Y-53219047D01*
X62084857Y-53460952D01*
X62084857Y-53823809D01*
X61939714Y-54065714D01*
X60923714Y-52977143D02*
X61068857Y-53219047D01*
X61068857Y-53702857D01*
X60923714Y-53944762D01*
X60778571Y-54065714D01*
X60488286Y-54186666D01*
X59617429Y-54186666D01*
X59327143Y-54065714D01*
X59182000Y-53944762D01*
X59036857Y-53702857D01*
X59036857Y-53219047D01*
X59182000Y-52977143D01*
X61068857Y-50679048D02*
X59472286Y-50679048D01*
X59182000Y-50800000D01*
X59036857Y-51041905D01*
X59036857Y-51525714D01*
X59182000Y-51767619D01*
X60923714Y-50679048D02*
X61068857Y-50920952D01*
X61068857Y-51525714D01*
X60923714Y-51767619D01*
X60633429Y-51888571D01*
X60343143Y-51888571D01*
X60052857Y-51767619D01*
X59907714Y-51525714D01*
X59907714Y-50920952D01*
X59762571Y-50679048D01*
X58020857Y-49711429D02*
X58020857Y-48139048D01*
X59182000Y-48985715D01*
X59182000Y-48622857D01*
X59327143Y-48380953D01*
X59472286Y-48260000D01*
X59762571Y-48139048D01*
X60488286Y-48139048D01*
X60778571Y-48260000D01*
X60923714Y-48380953D01*
X61068857Y-48622857D01*
X61068857Y-49348572D01*
X60923714Y-49590476D01*
X60778571Y-49711429D01*
X58311143Y-47171428D02*
X58166000Y-47050476D01*
X58020857Y-46808571D01*
X58020857Y-46203809D01*
X58166000Y-45961905D01*
X58311143Y-45840952D01*
X58601429Y-45720000D01*
X58891714Y-45720000D01*
X59327143Y-45840952D01*
X61068857Y-47292381D01*
X61068857Y-45720000D01*
X58020857Y-44631428D02*
X60488286Y-44631428D01*
X60778571Y-44510476D01*
X60923714Y-44389523D01*
X61068857Y-44147619D01*
X61068857Y-43663809D01*
X60923714Y-43421904D01*
X60778571Y-43300952D01*
X60488286Y-43180000D01*
X58020857Y-43180000D01*
X59036857Y-40881905D02*
X61068857Y-40881905D01*
X57875714Y-41486667D02*
X60052857Y-42091428D01*
X60052857Y-40519048D01*
X59907714Y-39551428D02*
X59907714Y-37616190D01*
X60198000Y-36527618D02*
X60198000Y-35318095D01*
X61068857Y-36769523D02*
X58020857Y-35922857D01*
X61068857Y-35076190D01*
X58020857Y-34229523D02*
X60488286Y-34229523D01*
X60778571Y-34108571D01*
X60923714Y-33987618D01*
X61068857Y-33745714D01*
X61068857Y-33261904D01*
X60923714Y-33019999D01*
X60778571Y-32899047D01*
X60488286Y-32778095D01*
X58020857Y-32778095D01*
D13*
X57658000Y-44329048D02*
X57875714Y-44389524D01*
X58238571Y-44389524D01*
X58383714Y-44329048D01*
X58456285Y-44268571D01*
X58528857Y-44147619D01*
X58528857Y-44026667D01*
X58456285Y-43905714D01*
X58383714Y-43845238D01*
X58238571Y-43784762D01*
X57948285Y-43724286D01*
X57803143Y-43663810D01*
X57730571Y-43603333D01*
X57658000Y-43482381D01*
X57658000Y-43361429D01*
X57730571Y-43240476D01*
X57803143Y-43180000D01*
X57948285Y-43119524D01*
X58311143Y-43119524D01*
X58528857Y-43180000D01*
X59036857Y-43119524D02*
X59399714Y-44389524D01*
X59690000Y-43482381D01*
X59980286Y-44389524D01*
X60343143Y-43119524D01*
X61649428Y-43119524D02*
X60923714Y-43119524D01*
X60851143Y-43724286D01*
X60923714Y-43663810D01*
X61068857Y-43603333D01*
X61431714Y-43603333D01*
X61576857Y-43663810D01*
X61649428Y-43724286D01*
X61722000Y-43845238D01*
X61722000Y-44147619D01*
X61649428Y-44268571D01*
X61576857Y-44329048D01*
X61431714Y-44389524D01*
X61068857Y-44389524D01*
X60923714Y-44329048D01*
X60851143Y-44268571D01*
X38608000Y-44329048D02*
X38825714Y-44389524D01*
X39188571Y-44389524D01*
X39333714Y-44329048D01*
X39406285Y-44268571D01*
X39478857Y-44147619D01*
X39478857Y-44026667D01*
X39406285Y-43905714D01*
X39333714Y-43845238D01*
X39188571Y-43784762D01*
X38898285Y-43724286D01*
X38753143Y-43663810D01*
X38680571Y-43603333D01*
X38608000Y-43482381D01*
X38608000Y-43361429D01*
X38680571Y-43240476D01*
X38753143Y-43180000D01*
X38898285Y-43119524D01*
X39261143Y-43119524D01*
X39478857Y-43180000D01*
X39986857Y-43119524D02*
X40349714Y-44389524D01*
X40640000Y-43482381D01*
X40930286Y-44389524D01*
X41293143Y-43119524D01*
X42672000Y-44389524D02*
X41801143Y-44389524D01*
X42236571Y-44389524D02*
X42236571Y-43119524D01*
X42091428Y-43300952D01*
X41946286Y-43421905D01*
X41801143Y-43482381D01*
X38608000Y-63379048D02*
X38825714Y-63439524D01*
X39188571Y-63439524D01*
X39333714Y-63379048D01*
X39406285Y-63318571D01*
X39478857Y-63197619D01*
X39478857Y-63076667D01*
X39406285Y-62955714D01*
X39333714Y-62895238D01*
X39188571Y-62834762D01*
X38898285Y-62774286D01*
X38753143Y-62713810D01*
X38680571Y-62653333D01*
X38608000Y-62532381D01*
X38608000Y-62411429D01*
X38680571Y-62290476D01*
X38753143Y-62230000D01*
X38898285Y-62169524D01*
X39261143Y-62169524D01*
X39478857Y-62230000D01*
X39986857Y-62169524D02*
X40349714Y-63439524D01*
X40640000Y-62532381D01*
X40930286Y-63439524D01*
X41293143Y-62169524D01*
X41801143Y-62290476D02*
X41873714Y-62230000D01*
X42018857Y-62169524D01*
X42381714Y-62169524D01*
X42526857Y-62230000D01*
X42599428Y-62290476D01*
X42672000Y-62411429D01*
X42672000Y-62532381D01*
X42599428Y-62713810D01*
X41728571Y-63439524D01*
X42672000Y-63439524D01*
X38608000Y-82429048D02*
X38825714Y-82489524D01*
X39188571Y-82489524D01*
X39333714Y-82429048D01*
X39406285Y-82368571D01*
X39478857Y-82247619D01*
X39478857Y-82126667D01*
X39406285Y-82005714D01*
X39333714Y-81945238D01*
X39188571Y-81884762D01*
X38898285Y-81824286D01*
X38753143Y-81763810D01*
X38680571Y-81703333D01*
X38608000Y-81582381D01*
X38608000Y-81461429D01*
X38680571Y-81340476D01*
X38753143Y-81280000D01*
X38898285Y-81219524D01*
X39261143Y-81219524D01*
X39478857Y-81280000D01*
X39986857Y-81219524D02*
X40349714Y-82489524D01*
X40640000Y-81582381D01*
X40930286Y-82489524D01*
X41293143Y-81219524D01*
X41728571Y-81219524D02*
X42672000Y-81219524D01*
X42164000Y-81703333D01*
X42381714Y-81703333D01*
X42526857Y-81763810D01*
X42599428Y-81824286D01*
X42672000Y-81945238D01*
X42672000Y-82247619D01*
X42599428Y-82368571D01*
X42526857Y-82429048D01*
X42381714Y-82489524D01*
X41946286Y-82489524D01*
X41801143Y-82429048D01*
X41728571Y-82368571D01*
X38608000Y-101479048D02*
X38825714Y-101539524D01*
X39188571Y-101539524D01*
X39333714Y-101479048D01*
X39406285Y-101418571D01*
X39478857Y-101297619D01*
X39478857Y-101176667D01*
X39406285Y-101055714D01*
X39333714Y-100995238D01*
X39188571Y-100934762D01*
X38898285Y-100874286D01*
X38753143Y-100813810D01*
X38680571Y-100753333D01*
X38608000Y-100632381D01*
X38608000Y-100511429D01*
X38680571Y-100390476D01*
X38753143Y-100330000D01*
X38898285Y-100269524D01*
X39261143Y-100269524D01*
X39478857Y-100330000D01*
X39986857Y-100269524D02*
X40349714Y-101539524D01*
X40640000Y-100632381D01*
X40930286Y-101539524D01*
X41293143Y-100269524D01*
X42526857Y-100692857D02*
X42526857Y-101539524D01*
X42164000Y-100209048D02*
X41801143Y-101116190D01*
X42744571Y-101116190D01*
X57658000Y-63379048D02*
X57875714Y-63439524D01*
X58238571Y-63439524D01*
X58383714Y-63379048D01*
X58456285Y-63318571D01*
X58528857Y-63197619D01*
X58528857Y-63076667D01*
X58456285Y-62955714D01*
X58383714Y-62895238D01*
X58238571Y-62834762D01*
X57948285Y-62774286D01*
X57803143Y-62713810D01*
X57730571Y-62653333D01*
X57658000Y-62532381D01*
X57658000Y-62411429D01*
X57730571Y-62290476D01*
X57803143Y-62230000D01*
X57948285Y-62169524D01*
X58311143Y-62169524D01*
X58528857Y-62230000D01*
X59036857Y-62169524D02*
X59399714Y-63439524D01*
X59690000Y-62532381D01*
X59980286Y-63439524D01*
X60343143Y-62169524D01*
X61576857Y-62169524D02*
X61286571Y-62169524D01*
X61141428Y-62230000D01*
X61068857Y-62290476D01*
X60923714Y-62471905D01*
X60851143Y-62713810D01*
X60851143Y-63197619D01*
X60923714Y-63318571D01*
X60996286Y-63379048D01*
X61141428Y-63439524D01*
X61431714Y-63439524D01*
X61576857Y-63379048D01*
X61649428Y-63318571D01*
X61722000Y-63197619D01*
X61722000Y-62895238D01*
X61649428Y-62774286D01*
X61576857Y-62713810D01*
X61431714Y-62653333D01*
X61141428Y-62653333D01*
X60996286Y-62713810D01*
X60923714Y-62774286D01*
X60851143Y-62895238D01*
X57658000Y-82429048D02*
X57875714Y-82489524D01*
X58238571Y-82489524D01*
X58383714Y-82429048D01*
X58456285Y-82368571D01*
X58528857Y-82247619D01*
X58528857Y-82126667D01*
X58456285Y-82005714D01*
X58383714Y-81945238D01*
X58238571Y-81884762D01*
X57948285Y-81824286D01*
X57803143Y-81763810D01*
X57730571Y-81703333D01*
X57658000Y-81582381D01*
X57658000Y-81461429D01*
X57730571Y-81340476D01*
X57803143Y-81280000D01*
X57948285Y-81219524D01*
X58311143Y-81219524D01*
X58528857Y-81280000D01*
X59036857Y-81219524D02*
X59399714Y-82489524D01*
X59690000Y-81582381D01*
X59980286Y-82489524D01*
X60343143Y-81219524D01*
X60778571Y-81219524D02*
X61794571Y-81219524D01*
X61141428Y-82489524D01*
X57658000Y-101479048D02*
X57875714Y-101539524D01*
X58238571Y-101539524D01*
X58383714Y-101479048D01*
X58456285Y-101418571D01*
X58528857Y-101297619D01*
X58528857Y-101176667D01*
X58456285Y-101055714D01*
X58383714Y-100995238D01*
X58238571Y-100934762D01*
X57948285Y-100874286D01*
X57803143Y-100813810D01*
X57730571Y-100753333D01*
X57658000Y-100632381D01*
X57658000Y-100511429D01*
X57730571Y-100390476D01*
X57803143Y-100330000D01*
X57948285Y-100269524D01*
X58311143Y-100269524D01*
X58528857Y-100330000D01*
X59036857Y-100269524D02*
X59399714Y-101539524D01*
X59690000Y-100632381D01*
X59980286Y-101539524D01*
X60343143Y-100269524D01*
X61141428Y-100813810D02*
X60996286Y-100753333D01*
X60923714Y-100692857D01*
X60851143Y-100571905D01*
X60851143Y-100511429D01*
X60923714Y-100390476D01*
X60996286Y-100330000D01*
X61141428Y-100269524D01*
X61431714Y-100269524D01*
X61576857Y-100330000D01*
X61649428Y-100390476D01*
X61722000Y-100511429D01*
X61722000Y-100571905D01*
X61649428Y-100692857D01*
X61576857Y-100753333D01*
X61431714Y-100813810D01*
X61141428Y-100813810D01*
X60996286Y-100874286D01*
X60923714Y-100934762D01*
X60851143Y-101055714D01*
X60851143Y-101297619D01*
X60923714Y-101418571D01*
X60996286Y-101479048D01*
X61141428Y-101539524D01*
X61431714Y-101539524D01*
X61576857Y-101479048D01*
X61649428Y-101418571D01*
X61722000Y-101297619D01*
X61722000Y-101055714D01*
X61649428Y-100934762D01*
X61576857Y-100874286D01*
X61431714Y-100813810D01*
X76708000Y-44329048D02*
X76925714Y-44389524D01*
X77288571Y-44389524D01*
X77433714Y-44329048D01*
X77506285Y-44268571D01*
X77578857Y-44147619D01*
X77578857Y-44026667D01*
X77506285Y-43905714D01*
X77433714Y-43845238D01*
X77288571Y-43784762D01*
X76998285Y-43724286D01*
X76853143Y-43663810D01*
X76780571Y-43603333D01*
X76708000Y-43482381D01*
X76708000Y-43361429D01*
X76780571Y-43240476D01*
X76853143Y-43180000D01*
X76998285Y-43119524D01*
X77361143Y-43119524D01*
X77578857Y-43180000D01*
X78086857Y-43119524D02*
X78449714Y-44389524D01*
X78740000Y-43482381D01*
X79030286Y-44389524D01*
X79393143Y-43119524D01*
X80046286Y-44389524D02*
X80336571Y-44389524D01*
X80481714Y-44329048D01*
X80554286Y-44268571D01*
X80699428Y-44087143D01*
X80772000Y-43845238D01*
X80772000Y-43361429D01*
X80699428Y-43240476D01*
X80626857Y-43180000D01*
X80481714Y-43119524D01*
X80191428Y-43119524D01*
X80046286Y-43180000D01*
X79973714Y-43240476D01*
X79901143Y-43361429D01*
X79901143Y-43663810D01*
X79973714Y-43784762D01*
X80046286Y-43845238D01*
X80191428Y-43905714D01*
X80481714Y-43905714D01*
X80626857Y-43845238D01*
X80699428Y-43784762D01*
X80772000Y-43663810D01*
X75982286Y-63379048D02*
X76200000Y-63439524D01*
X76562857Y-63439524D01*
X76708000Y-63379048D01*
X76780571Y-63318571D01*
X76853143Y-63197619D01*
X76853143Y-63076667D01*
X76780571Y-62955714D01*
X76708000Y-62895238D01*
X76562857Y-62834762D01*
X76272571Y-62774286D01*
X76127429Y-62713810D01*
X76054857Y-62653333D01*
X75982286Y-62532381D01*
X75982286Y-62411429D01*
X76054857Y-62290476D01*
X76127429Y-62230000D01*
X76272571Y-62169524D01*
X76635429Y-62169524D01*
X76853143Y-62230000D01*
X77361143Y-62169524D02*
X77724000Y-63439524D01*
X78014286Y-62532381D01*
X78304572Y-63439524D01*
X78667429Y-62169524D01*
X80046286Y-63439524D02*
X79175429Y-63439524D01*
X79610857Y-63439524D02*
X79610857Y-62169524D01*
X79465714Y-62350952D01*
X79320572Y-62471905D01*
X79175429Y-62532381D01*
X80989715Y-62169524D02*
X81134858Y-62169524D01*
X81280001Y-62230000D01*
X81352572Y-62290476D01*
X81425143Y-62411429D01*
X81497715Y-62653333D01*
X81497715Y-62955714D01*
X81425143Y-63197619D01*
X81352572Y-63318571D01*
X81280001Y-63379048D01*
X81134858Y-63439524D01*
X80989715Y-63439524D01*
X80844572Y-63379048D01*
X80772001Y-63318571D01*
X80699429Y-63197619D01*
X80626858Y-62955714D01*
X80626858Y-62653333D01*
X80699429Y-62411429D01*
X80772001Y-62290476D01*
X80844572Y-62230000D01*
X80989715Y-62169524D01*
X75982286Y-82429048D02*
X76200000Y-82489524D01*
X76562857Y-82489524D01*
X76708000Y-82429048D01*
X76780571Y-82368571D01*
X76853143Y-82247619D01*
X76853143Y-82126667D01*
X76780571Y-82005714D01*
X76708000Y-81945238D01*
X76562857Y-81884762D01*
X76272571Y-81824286D01*
X76127429Y-81763810D01*
X76054857Y-81703333D01*
X75982286Y-81582381D01*
X75982286Y-81461429D01*
X76054857Y-81340476D01*
X76127429Y-81280000D01*
X76272571Y-81219524D01*
X76635429Y-81219524D01*
X76853143Y-81280000D01*
X77361143Y-81219524D02*
X77724000Y-82489524D01*
X78014286Y-81582381D01*
X78304572Y-82489524D01*
X78667429Y-81219524D01*
X80046286Y-82489524D02*
X79175429Y-82489524D01*
X79610857Y-82489524D02*
X79610857Y-81219524D01*
X79465714Y-81400952D01*
X79320572Y-81521905D01*
X79175429Y-81582381D01*
X81497715Y-82489524D02*
X80626858Y-82489524D01*
X81062286Y-82489524D02*
X81062286Y-81219524D01*
X80917143Y-81400952D01*
X80772001Y-81521905D01*
X80626858Y-81582381D01*
X75982286Y-101479048D02*
X76200000Y-101539524D01*
X76562857Y-101539524D01*
X76708000Y-101479048D01*
X76780571Y-101418571D01*
X76853143Y-101297619D01*
X76853143Y-101176667D01*
X76780571Y-101055714D01*
X76708000Y-100995238D01*
X76562857Y-100934762D01*
X76272571Y-100874286D01*
X76127429Y-100813810D01*
X76054857Y-100753333D01*
X75982286Y-100632381D01*
X75982286Y-100511429D01*
X76054857Y-100390476D01*
X76127429Y-100330000D01*
X76272571Y-100269524D01*
X76635429Y-100269524D01*
X76853143Y-100330000D01*
X77361143Y-100269524D02*
X77724000Y-101539524D01*
X78014286Y-100632381D01*
X78304572Y-101539524D01*
X78667429Y-100269524D01*
X80046286Y-101539524D02*
X79175429Y-101539524D01*
X79610857Y-101539524D02*
X79610857Y-100269524D01*
X79465714Y-100450952D01*
X79320572Y-100571905D01*
X79175429Y-100632381D01*
X80626858Y-100390476D02*
X80699429Y-100330000D01*
X80844572Y-100269524D01*
X81207429Y-100269524D01*
X81352572Y-100330000D01*
X81425143Y-100390476D01*
X81497715Y-100511429D01*
X81497715Y-100632381D01*
X81425143Y-100813810D01*
X80554286Y-101539524D01*
X81497715Y-101539524D01*
X95032286Y-44329048D02*
X95250000Y-44389524D01*
X95612857Y-44389524D01*
X95758000Y-44329048D01*
X95830571Y-44268571D01*
X95903143Y-44147619D01*
X95903143Y-44026667D01*
X95830571Y-43905714D01*
X95758000Y-43845238D01*
X95612857Y-43784762D01*
X95322571Y-43724286D01*
X95177429Y-43663810D01*
X95104857Y-43603333D01*
X95032286Y-43482381D01*
X95032286Y-43361429D01*
X95104857Y-43240476D01*
X95177429Y-43180000D01*
X95322571Y-43119524D01*
X95685429Y-43119524D01*
X95903143Y-43180000D01*
X96411143Y-43119524D02*
X96774000Y-44389524D01*
X97064286Y-43482381D01*
X97354572Y-44389524D01*
X97717429Y-43119524D01*
X99096286Y-44389524D02*
X98225429Y-44389524D01*
X98660857Y-44389524D02*
X98660857Y-43119524D01*
X98515714Y-43300952D01*
X98370572Y-43421905D01*
X98225429Y-43482381D01*
X99604286Y-43119524D02*
X100547715Y-43119524D01*
X100039715Y-43603333D01*
X100257429Y-43603333D01*
X100402572Y-43663810D01*
X100475143Y-43724286D01*
X100547715Y-43845238D01*
X100547715Y-44147619D01*
X100475143Y-44268571D01*
X100402572Y-44329048D01*
X100257429Y-44389524D01*
X99822001Y-44389524D01*
X99676858Y-44329048D01*
X99604286Y-44268571D01*
X95032286Y-63379048D02*
X95250000Y-63439524D01*
X95612857Y-63439524D01*
X95758000Y-63379048D01*
X95830571Y-63318571D01*
X95903143Y-63197619D01*
X95903143Y-63076667D01*
X95830571Y-62955714D01*
X95758000Y-62895238D01*
X95612857Y-62834762D01*
X95322571Y-62774286D01*
X95177429Y-62713810D01*
X95104857Y-62653333D01*
X95032286Y-62532381D01*
X95032286Y-62411429D01*
X95104857Y-62290476D01*
X95177429Y-62230000D01*
X95322571Y-62169524D01*
X95685429Y-62169524D01*
X95903143Y-62230000D01*
X96411143Y-62169524D02*
X96774000Y-63439524D01*
X97064286Y-62532381D01*
X97354572Y-63439524D01*
X97717429Y-62169524D01*
X99096286Y-63439524D02*
X98225429Y-63439524D01*
X98660857Y-63439524D02*
X98660857Y-62169524D01*
X98515714Y-62350952D01*
X98370572Y-62471905D01*
X98225429Y-62532381D01*
X100402572Y-62592857D02*
X100402572Y-63439524D01*
X100039715Y-62109048D02*
X99676858Y-63016190D01*
X100620286Y-63016190D01*
X95032286Y-82429048D02*
X95250000Y-82489524D01*
X95612857Y-82489524D01*
X95758000Y-82429048D01*
X95830571Y-82368571D01*
X95903143Y-82247619D01*
X95903143Y-82126667D01*
X95830571Y-82005714D01*
X95758000Y-81945238D01*
X95612857Y-81884762D01*
X95322571Y-81824286D01*
X95177429Y-81763810D01*
X95104857Y-81703333D01*
X95032286Y-81582381D01*
X95032286Y-81461429D01*
X95104857Y-81340476D01*
X95177429Y-81280000D01*
X95322571Y-81219524D01*
X95685429Y-81219524D01*
X95903143Y-81280000D01*
X96411143Y-81219524D02*
X96774000Y-82489524D01*
X97064286Y-81582381D01*
X97354572Y-82489524D01*
X97717429Y-81219524D01*
X99096286Y-82489524D02*
X98225429Y-82489524D01*
X98660857Y-82489524D02*
X98660857Y-81219524D01*
X98515714Y-81400952D01*
X98370572Y-81521905D01*
X98225429Y-81582381D01*
X100475143Y-81219524D02*
X99749429Y-81219524D01*
X99676858Y-81824286D01*
X99749429Y-81763810D01*
X99894572Y-81703333D01*
X100257429Y-81703333D01*
X100402572Y-81763810D01*
X100475143Y-81824286D01*
X100547715Y-81945238D01*
X100547715Y-82247619D01*
X100475143Y-82368571D01*
X100402572Y-82429048D01*
X100257429Y-82489524D01*
X99894572Y-82489524D01*
X99749429Y-82429048D01*
X99676858Y-82368571D01*
X95032286Y-101479048D02*
X95250000Y-101539524D01*
X95612857Y-101539524D01*
X95758000Y-101479048D01*
X95830571Y-101418571D01*
X95903143Y-101297619D01*
X95903143Y-101176667D01*
X95830571Y-101055714D01*
X95758000Y-100995238D01*
X95612857Y-100934762D01*
X95322571Y-100874286D01*
X95177429Y-100813810D01*
X95104857Y-100753333D01*
X95032286Y-100632381D01*
X95032286Y-100511429D01*
X95104857Y-100390476D01*
X95177429Y-100330000D01*
X95322571Y-100269524D01*
X95685429Y-100269524D01*
X95903143Y-100330000D01*
X96411143Y-100269524D02*
X96774000Y-101539524D01*
X97064286Y-100632381D01*
X97354572Y-101539524D01*
X97717429Y-100269524D01*
X99096286Y-101539524D02*
X98225429Y-101539524D01*
X98660857Y-101539524D02*
X98660857Y-100269524D01*
X98515714Y-100450952D01*
X98370572Y-100571905D01*
X98225429Y-100632381D01*
X100402572Y-100269524D02*
X100112286Y-100269524D01*
X99967143Y-100330000D01*
X99894572Y-100390476D01*
X99749429Y-100571905D01*
X99676858Y-100813810D01*
X99676858Y-101297619D01*
X99749429Y-101418571D01*
X99822001Y-101479048D01*
X99967143Y-101539524D01*
X100257429Y-101539524D01*
X100402572Y-101479048D01*
X100475143Y-101418571D01*
X100547715Y-101297619D01*
X100547715Y-100995238D01*
X100475143Y-100874286D01*
X100402572Y-100813810D01*
X100257429Y-100753333D01*
X99967143Y-100753333D01*
X99822001Y-100813810D01*
X99749429Y-100874286D01*
X99676858Y-100995238D01*
X114082286Y-44329048D02*
X114300000Y-44389524D01*
X114662857Y-44389524D01*
X114808000Y-44329048D01*
X114880571Y-44268571D01*
X114953143Y-44147619D01*
X114953143Y-44026667D01*
X114880571Y-43905714D01*
X114808000Y-43845238D01*
X114662857Y-43784762D01*
X114372571Y-43724286D01*
X114227429Y-43663810D01*
X114154857Y-43603333D01*
X114082286Y-43482381D01*
X114082286Y-43361429D01*
X114154857Y-43240476D01*
X114227429Y-43180000D01*
X114372571Y-43119524D01*
X114735429Y-43119524D01*
X114953143Y-43180000D01*
X115461143Y-43119524D02*
X115824000Y-44389524D01*
X116114286Y-43482381D01*
X116404572Y-44389524D01*
X116767429Y-43119524D01*
X118146286Y-44389524D02*
X117275429Y-44389524D01*
X117710857Y-44389524D02*
X117710857Y-43119524D01*
X117565714Y-43300952D01*
X117420572Y-43421905D01*
X117275429Y-43482381D01*
X118654286Y-43119524D02*
X119670286Y-43119524D01*
X119017143Y-44389524D01*
X114082286Y-63379048D02*
X114300000Y-63439524D01*
X114662857Y-63439524D01*
X114808000Y-63379048D01*
X114880571Y-63318571D01*
X114953143Y-63197619D01*
X114953143Y-63076667D01*
X114880571Y-62955714D01*
X114808000Y-62895238D01*
X114662857Y-62834762D01*
X114372571Y-62774286D01*
X114227429Y-62713810D01*
X114154857Y-62653333D01*
X114082286Y-62532381D01*
X114082286Y-62411429D01*
X114154857Y-62290476D01*
X114227429Y-62230000D01*
X114372571Y-62169524D01*
X114735429Y-62169524D01*
X114953143Y-62230000D01*
X115461143Y-62169524D02*
X115824000Y-63439524D01*
X116114286Y-62532381D01*
X116404572Y-63439524D01*
X116767429Y-62169524D01*
X118146286Y-63439524D02*
X117275429Y-63439524D01*
X117710857Y-63439524D02*
X117710857Y-62169524D01*
X117565714Y-62350952D01*
X117420572Y-62471905D01*
X117275429Y-62532381D01*
X119017143Y-62713810D02*
X118872001Y-62653333D01*
X118799429Y-62592857D01*
X118726858Y-62471905D01*
X118726858Y-62411429D01*
X118799429Y-62290476D01*
X118872001Y-62230000D01*
X119017143Y-62169524D01*
X119307429Y-62169524D01*
X119452572Y-62230000D01*
X119525143Y-62290476D01*
X119597715Y-62411429D01*
X119597715Y-62471905D01*
X119525143Y-62592857D01*
X119452572Y-62653333D01*
X119307429Y-62713810D01*
X119017143Y-62713810D01*
X118872001Y-62774286D01*
X118799429Y-62834762D01*
X118726858Y-62955714D01*
X118726858Y-63197619D01*
X118799429Y-63318571D01*
X118872001Y-63379048D01*
X119017143Y-63439524D01*
X119307429Y-63439524D01*
X119452572Y-63379048D01*
X119525143Y-63318571D01*
X119597715Y-63197619D01*
X119597715Y-62955714D01*
X119525143Y-62834762D01*
X119452572Y-62774286D01*
X119307429Y-62713810D01*
X114082286Y-82429048D02*
X114300000Y-82489524D01*
X114662857Y-82489524D01*
X114808000Y-82429048D01*
X114880571Y-82368571D01*
X114953143Y-82247619D01*
X114953143Y-82126667D01*
X114880571Y-82005714D01*
X114808000Y-81945238D01*
X114662857Y-81884762D01*
X114372571Y-81824286D01*
X114227429Y-81763810D01*
X114154857Y-81703333D01*
X114082286Y-81582381D01*
X114082286Y-81461429D01*
X114154857Y-81340476D01*
X114227429Y-81280000D01*
X114372571Y-81219524D01*
X114735429Y-81219524D01*
X114953143Y-81280000D01*
X115461143Y-81219524D02*
X115824000Y-82489524D01*
X116114286Y-81582381D01*
X116404572Y-82489524D01*
X116767429Y-81219524D01*
X118146286Y-82489524D02*
X117275429Y-82489524D01*
X117710857Y-82489524D02*
X117710857Y-81219524D01*
X117565714Y-81400952D01*
X117420572Y-81521905D01*
X117275429Y-81582381D01*
X118872001Y-82489524D02*
X119162286Y-82489524D01*
X119307429Y-82429048D01*
X119380001Y-82368571D01*
X119525143Y-82187143D01*
X119597715Y-81945238D01*
X119597715Y-81461429D01*
X119525143Y-81340476D01*
X119452572Y-81280000D01*
X119307429Y-81219524D01*
X119017143Y-81219524D01*
X118872001Y-81280000D01*
X118799429Y-81340476D01*
X118726858Y-81461429D01*
X118726858Y-81763810D01*
X118799429Y-81884762D01*
X118872001Y-81945238D01*
X119017143Y-82005714D01*
X119307429Y-82005714D01*
X119452572Y-81945238D01*
X119525143Y-81884762D01*
X119597715Y-81763810D01*
X114082286Y-101479048D02*
X114300000Y-101539524D01*
X114662857Y-101539524D01*
X114808000Y-101479048D01*
X114880571Y-101418571D01*
X114953143Y-101297619D01*
X114953143Y-101176667D01*
X114880571Y-101055714D01*
X114808000Y-100995238D01*
X114662857Y-100934762D01*
X114372571Y-100874286D01*
X114227429Y-100813810D01*
X114154857Y-100753333D01*
X114082286Y-100632381D01*
X114082286Y-100511429D01*
X114154857Y-100390476D01*
X114227429Y-100330000D01*
X114372571Y-100269524D01*
X114735429Y-100269524D01*
X114953143Y-100330000D01*
X115461143Y-100269524D02*
X115824000Y-101539524D01*
X116114286Y-100632381D01*
X116404572Y-101539524D01*
X116767429Y-100269524D01*
X117275429Y-100390476D02*
X117348000Y-100330000D01*
X117493143Y-100269524D01*
X117856000Y-100269524D01*
X118001143Y-100330000D01*
X118073714Y-100390476D01*
X118146286Y-100511429D01*
X118146286Y-100632381D01*
X118073714Y-100813810D01*
X117202857Y-101539524D01*
X118146286Y-101539524D01*
X119089715Y-100269524D02*
X119234858Y-100269524D01*
X119380001Y-100330000D01*
X119452572Y-100390476D01*
X119525143Y-100511429D01*
X119597715Y-100753333D01*
X119597715Y-101055714D01*
X119525143Y-101297619D01*
X119452572Y-101418571D01*
X119380001Y-101479048D01*
X119234858Y-101539524D01*
X119089715Y-101539524D01*
X118944572Y-101479048D01*
X118872001Y-101418571D01*
X118799429Y-101297619D01*
X118726858Y-101055714D01*
X118726858Y-100753333D01*
X118799429Y-100511429D01*
X118872001Y-100390476D01*
X118944572Y-100330000D01*
X119089715Y-100269524D01*
X133132286Y-44329048D02*
X133350000Y-44389524D01*
X133712857Y-44389524D01*
X133858000Y-44329048D01*
X133930571Y-44268571D01*
X134003143Y-44147619D01*
X134003143Y-44026667D01*
X133930571Y-43905714D01*
X133858000Y-43845238D01*
X133712857Y-43784762D01*
X133422571Y-43724286D01*
X133277429Y-43663810D01*
X133204857Y-43603333D01*
X133132286Y-43482381D01*
X133132286Y-43361429D01*
X133204857Y-43240476D01*
X133277429Y-43180000D01*
X133422571Y-43119524D01*
X133785429Y-43119524D01*
X134003143Y-43180000D01*
X134511143Y-43119524D02*
X134874000Y-44389524D01*
X135164286Y-43482381D01*
X135454572Y-44389524D01*
X135817429Y-43119524D01*
X136325429Y-43240476D02*
X136398000Y-43180000D01*
X136543143Y-43119524D01*
X136906000Y-43119524D01*
X137051143Y-43180000D01*
X137123714Y-43240476D01*
X137196286Y-43361429D01*
X137196286Y-43482381D01*
X137123714Y-43663810D01*
X136252857Y-44389524D01*
X137196286Y-44389524D01*
X138647715Y-44389524D02*
X137776858Y-44389524D01*
X138212286Y-44389524D02*
X138212286Y-43119524D01*
X138067143Y-43300952D01*
X137922001Y-43421905D01*
X137776858Y-43482381D01*
X133132286Y-63379048D02*
X133350000Y-63439524D01*
X133712857Y-63439524D01*
X133858000Y-63379048D01*
X133930571Y-63318571D01*
X134003143Y-63197619D01*
X134003143Y-63076667D01*
X133930571Y-62955714D01*
X133858000Y-62895238D01*
X133712857Y-62834762D01*
X133422571Y-62774286D01*
X133277429Y-62713810D01*
X133204857Y-62653333D01*
X133132286Y-62532381D01*
X133132286Y-62411429D01*
X133204857Y-62290476D01*
X133277429Y-62230000D01*
X133422571Y-62169524D01*
X133785429Y-62169524D01*
X134003143Y-62230000D01*
X134511143Y-62169524D02*
X134874000Y-63439524D01*
X135164286Y-62532381D01*
X135454572Y-63439524D01*
X135817429Y-62169524D01*
X136325429Y-62290476D02*
X136398000Y-62230000D01*
X136543143Y-62169524D01*
X136906000Y-62169524D01*
X137051143Y-62230000D01*
X137123714Y-62290476D01*
X137196286Y-62411429D01*
X137196286Y-62532381D01*
X137123714Y-62713810D01*
X136252857Y-63439524D01*
X137196286Y-63439524D01*
X137776858Y-62290476D02*
X137849429Y-62230000D01*
X137994572Y-62169524D01*
X138357429Y-62169524D01*
X138502572Y-62230000D01*
X138575143Y-62290476D01*
X138647715Y-62411429D01*
X138647715Y-62532381D01*
X138575143Y-62713810D01*
X137704286Y-63439524D01*
X138647715Y-63439524D01*
X133132286Y-82429048D02*
X133350000Y-82489524D01*
X133712857Y-82489524D01*
X133858000Y-82429048D01*
X133930571Y-82368571D01*
X134003143Y-82247619D01*
X134003143Y-82126667D01*
X133930571Y-82005714D01*
X133858000Y-81945238D01*
X133712857Y-81884762D01*
X133422571Y-81824286D01*
X133277429Y-81763810D01*
X133204857Y-81703333D01*
X133132286Y-81582381D01*
X133132286Y-81461429D01*
X133204857Y-81340476D01*
X133277429Y-81280000D01*
X133422571Y-81219524D01*
X133785429Y-81219524D01*
X134003143Y-81280000D01*
X134511143Y-81219524D02*
X134874000Y-82489524D01*
X135164286Y-81582381D01*
X135454572Y-82489524D01*
X135817429Y-81219524D01*
X136325429Y-81340476D02*
X136398000Y-81280000D01*
X136543143Y-81219524D01*
X136906000Y-81219524D01*
X137051143Y-81280000D01*
X137123714Y-81340476D01*
X137196286Y-81461429D01*
X137196286Y-81582381D01*
X137123714Y-81763810D01*
X136252857Y-82489524D01*
X137196286Y-82489524D01*
X137704286Y-81219524D02*
X138647715Y-81219524D01*
X138139715Y-81703333D01*
X138357429Y-81703333D01*
X138502572Y-81763810D01*
X138575143Y-81824286D01*
X138647715Y-81945238D01*
X138647715Y-82247619D01*
X138575143Y-82368571D01*
X138502572Y-82429048D01*
X138357429Y-82489524D01*
X137922001Y-82489524D01*
X137776858Y-82429048D01*
X137704286Y-82368571D01*
X133132286Y-101479048D02*
X133350000Y-101539524D01*
X133712857Y-101539524D01*
X133858000Y-101479048D01*
X133930571Y-101418571D01*
X134003143Y-101297619D01*
X134003143Y-101176667D01*
X133930571Y-101055714D01*
X133858000Y-100995238D01*
X133712857Y-100934762D01*
X133422571Y-100874286D01*
X133277429Y-100813810D01*
X133204857Y-100753333D01*
X133132286Y-100632381D01*
X133132286Y-100511429D01*
X133204857Y-100390476D01*
X133277429Y-100330000D01*
X133422571Y-100269524D01*
X133785429Y-100269524D01*
X134003143Y-100330000D01*
X134511143Y-100269524D02*
X134874000Y-101539524D01*
X135164286Y-100632381D01*
X135454572Y-101539524D01*
X135817429Y-100269524D01*
X136325429Y-100390476D02*
X136398000Y-100330000D01*
X136543143Y-100269524D01*
X136906000Y-100269524D01*
X137051143Y-100330000D01*
X137123714Y-100390476D01*
X137196286Y-100511429D01*
X137196286Y-100632381D01*
X137123714Y-100813810D01*
X136252857Y-101539524D01*
X137196286Y-101539524D01*
X138502572Y-100692857D02*
X138502572Y-101539524D01*
X138139715Y-100209048D02*
X137776858Y-101116190D01*
X138720286Y-101116190D01*
D14*
X121496667Y-35360429D02*
X122597334Y-35360429D01*
X122004667Y-35941000D01*
X122258667Y-35941000D01*
X122428000Y-36013571D01*
X122512667Y-36086143D01*
X122597334Y-36231286D01*
X122597334Y-36594143D01*
X122512667Y-36739286D01*
X122428000Y-36811857D01*
X122258667Y-36884429D01*
X121750667Y-36884429D01*
X121581334Y-36811857D01*
X121496667Y-36739286D01*
X123359333Y-36739286D02*
X123444000Y-36811857D01*
X123359333Y-36884429D01*
X123274667Y-36811857D01*
X123359333Y-36739286D01*
X123359333Y-36884429D01*
X125052667Y-35360429D02*
X124206000Y-35360429D01*
X124121334Y-36086143D01*
X124206000Y-36013571D01*
X124375334Y-35941000D01*
X124798667Y-35941000D01*
X124968000Y-36013571D01*
X125052667Y-36086143D01*
X125137334Y-36231286D01*
X125137334Y-36594143D01*
X125052667Y-36739286D01*
X124968000Y-36811857D01*
X124798667Y-36884429D01*
X124375334Y-36884429D01*
X124206000Y-36811857D01*
X124121334Y-36739286D01*
X125899333Y-36884429D02*
X125899333Y-35868429D01*
X125899333Y-36013571D02*
X125984000Y-35941000D01*
X126153333Y-35868429D01*
X126407333Y-35868429D01*
X126576667Y-35941000D01*
X126661333Y-36086143D01*
X126661333Y-36884429D01*
X126661333Y-36086143D02*
X126746000Y-35941000D01*
X126915333Y-35868429D01*
X127169333Y-35868429D01*
X127338667Y-35941000D01*
X127423333Y-36086143D01*
X127423333Y-36884429D01*
X128270000Y-36884429D02*
X128270000Y-35868429D01*
X128270000Y-36013571D02*
X128354667Y-35941000D01*
X128524000Y-35868429D01*
X128778000Y-35868429D01*
X128947334Y-35941000D01*
X129032000Y-36086143D01*
X129032000Y-36884429D01*
X129032000Y-36086143D02*
X129116667Y-35941000D01*
X129286000Y-35868429D01*
X129540000Y-35868429D01*
X129709334Y-35941000D01*
X129794000Y-36086143D01*
X129794000Y-36884429D01*
M02*
