M48
INCH,TZ
T1C0.016
T2C0.039
T3C0.043
T4C0.059
T5C0.039
T6C0.067
T7C0.157
%
G90
G05
T1
X021250Y-025000
X023000Y-017500
X023000Y-026000
X047250Y-018250
T2
X014500Y-018000
X014500Y-025500
X014500Y-033000
X014500Y-040500
X017500Y-018000
X017500Y-025500
X017500Y-033000
X017500Y-040500
X019250Y-015000
X019250Y-018000
X020250Y-030000
X020250Y-033000
X020250Y-037500
X020250Y-040500
X022000Y-026250
X025000Y-026250
X027750Y-015000
X027750Y-018000
X027750Y-022500
X027750Y-025500
X027750Y-030000
X027750Y-033000
X027750Y-037500
X027750Y-040500
X035250Y-015000
X035250Y-018000
X035250Y-022500
X035250Y-025500
X035250Y-030000
X035250Y-033000
X035250Y-037500
X035250Y-040500
X042750Y-015000
X042750Y-018000
X042750Y-022500
X042750Y-025500
X042750Y-030000
X042750Y-033000
X042750Y-037500
X042750Y-040500
X049000Y-017750
X050250Y-022500
X050250Y-025500
X050250Y-030000
X050250Y-033000
X050250Y-037500
X050250Y-040500
X052000Y-017750
T3
X020500Y-013500
X020500Y-014500
X020500Y-015500
X020500Y-016500
X020500Y-017500
X020500Y-018500
X020500Y-019500
X020500Y-020500
X020500Y-021500
X020500Y-022500
X020500Y-023500
X020500Y-024500
X026500Y-013500
X026500Y-014500
X026500Y-015500
X026500Y-016500
X026500Y-017500
X026500Y-018500
X026500Y-019500
X026500Y-020500
X026500Y-021500
X026500Y-022500
X026500Y-023500
X026500Y-024500
X048080Y-015110
X048870Y-016330
X050130Y-016330
X050920Y-015110
T4
X014500Y-015000
X014500Y-022500
X014500Y-030000
X014500Y-037500
X017000Y-014000
X017000Y-021500
X017000Y-029000
X017000Y-036500
X022000Y-015000
X022000Y-022500
X022000Y-030000
X022000Y-037500
X024500Y-014000
X024500Y-021500
X024500Y-029000
X024500Y-036500
X029500Y-015000
X029500Y-022500
X029500Y-030000
X029500Y-037500
X032000Y-014000
X032000Y-021500
X032000Y-029000
X032000Y-036500
X037000Y-015000
X037000Y-022500
X037000Y-030000
X037000Y-037500
X039500Y-014000
X039500Y-021500
X039500Y-029000
X039500Y-036500
X044500Y-015000
X044500Y-022500
X044500Y-030000
X044500Y-037500
X047000Y-014000
X047000Y-021500
X047000Y-029000
X047000Y-036500
X052000Y-015000
X052000Y-022500
X052000Y-030000
X052000Y-037500
X054500Y-014000
X054500Y-021500
X054500Y-029000
X054500Y-036500
T5
X049500Y-013140
X049500Y-015110
T6
X014000Y-016000
X014000Y-023500
X014000Y-031000
X014000Y-038500
X018000Y-016000
X018000Y-023500
X018000Y-031000
X018000Y-038500
X021500Y-016000
X021500Y-023500
X021500Y-031000
X021500Y-038500
X025500Y-016000
X025500Y-023500
X025500Y-031000
X025500Y-038500
X029000Y-016000
X029000Y-023500
X029000Y-031000
X029000Y-038500
X033000Y-016000
X033000Y-023500
X033000Y-031000
X033000Y-038500
X036500Y-016000
X036500Y-023500
X036500Y-031000
X036500Y-038500
X040500Y-016000
X040500Y-023500
X040500Y-031000
X040500Y-038500
X044000Y-016000
X044000Y-023500
X044000Y-031000
X044000Y-038500
X048000Y-016000
X048000Y-023500
X048000Y-031000
X048000Y-038500
X051500Y-016000
X051500Y-023500
X051500Y-031000
X051500Y-038500
X055500Y-016000
X055500Y-023500
X055500Y-031000
X055500Y-038500
T7
X016000Y-016000
X016000Y-023500
X016000Y-031000
X016000Y-038500
X023500Y-016000
X023500Y-023500
X023500Y-031000
X023500Y-038500
X031000Y-016000
X031000Y-023500
X031000Y-031000
X031000Y-038500
X038500Y-016000
X038500Y-023500
X038500Y-031000
X038500Y-038500
X046000Y-016000
X046000Y-023500
X046000Y-031000
X046000Y-038500
X053500Y-016000
X053500Y-023500
X053500Y-031000
X053500Y-038500
T3
X047730Y-013140G85X047610Y-013140
G05
X051390Y-013140G85X051270Y-013140
G05
T0
M30
